<svg width="64" height="64" viewBox="0 0 64 64" fill="none" xmlns="http://www.w3.org/2000/svg">
<mask id="path-1-inside-1_439_90" fill="white">
<path fill-rule="evenodd" clip-rule="evenodd" d="M48 21.8001C48 21.8001 48 21.8001 48 21.8C48 12.9635 40.8366 5.80005 32 5.80005C23.1634 5.80005 16 12.9635 16 21.8C16 21.8001 16 21.8001 16 21.8001V57.0001H48V21.8001Z"/>
</mask>
<path fill-rule="evenodd" clip-rule="evenodd" d="M48 21.8001C48 21.8001 48 21.8001 48 21.8C48 12.9635 40.8366 5.80005 32 5.80005C23.1634 5.80005 16 12.9635 16 21.8C16 21.8001 16 21.8001 16 21.8001V57.0001H48V21.8001Z" fill="url(#paint0_linear_439_90)"/>
<path d="M16 57.0001H13V60.0001H16V57.0001ZM48 57.0001V60.0001H51V57.0001H48ZM45 21.8C45 21.8001 45 21.8001 45 21.8001C45 21.8001 45 21.8001 45 21.8001V21.8001C45 21.8001 45 21.8001 45 21.8001C45 21.8001 45 21.8001 45 21.8001C45 21.8001 45 21.8001 45 21.8001C45 21.8001 45 21.8001 45 21.8001C45 21.8001 45 21.8001 45 21.8001C45 21.8001 45 21.8001 45 21.8001C45 21.8001 45 21.8001 45 21.8001C45 21.8001 45 21.8001 45 21.8001C45 21.8001 45 21.8001 45 21.8001V21.8001C45 21.8001 45 21.8001 45 21.8001V21.8001C45 21.8001 45 21.8001 45 21.8001C45 21.8001 45 21.8001 45 21.8001V21.8001C45 21.8001 45 21.8001 45 21.8001C45 21.8001 45 21.8001 45 21.8001V21.8001C45 21.8001 45 21.8001 45 21.8001C45 21.8001 45 21.8001 45 21.8001V21.8001C45 21.8001 45 21.8001 45 21.8001V21.8001C45 21.8001 45 21.8001 45 21.8001C45 21.8001 45 21.8001 45 21.8001V21.8001C45 21.8001 45 21.8001 45 21.8001C45 21.8001 45 21.8001 45 21.8001V21.8001C45 21.8001 45 21.8001 45 21.8001C45 21.8001 45 21.8001 45 21.8001V21.8001C45 21.8001 45 21.8001 45 21.8001V21.8001C45 21.8001 45 21.8001 45 21.8001C45 21.8001 45 21.8001 45 21.8001C45 21.8001 45 21.8001 45 21.8001C45 21.8001 45 21.8001 45 21.8001C45 21.8001 45 21.8001 45 21.8001C45 21.8001 45 21.8001 45 21.8001C45 21.8001 45 21.8001 45 21.8001C45 21.8001 45 21.8001 45 21.8001C45 21.8001 45 21.8001 45 21.8001V21.8001C45 21.8001 45 21.8001 45 21.8001C45 21.8001 45 21.8001 45 21.8001H51C51 21.8001 51 21.8001 51 21.8001C51 21.8001 51 21.8001 51 21.8001V21.8001C51 21.8001 51 21.8001 51 21.8001C51 21.8001 51 21.8001 51 21.8001C51 21.8001 51 21.8001 51 21.8001C51 21.8001 51 21.8001 51 21.8001C51 21.8001 51 21.8001 51 21.8001C51 21.8001 51 21.8001 51 21.8001C51 21.8001 51 21.8001 51 21.8001C51 21.8001 51 21.8001 51 21.8001C51 21.8001 51 21.8001 51 21.8001V21.8001C51 21.8001 51 21.8001 51 21.8001V21.8001C51 21.8001 51 21.8001 51 21.8001C51 21.8001 51 21.8001 51 21.8001V21.8001C51 21.8001 51 21.8001 51 21.8001C51 21.8001 51 21.8001 51 21.8001V21.8001C51 21.8001 51 21.8001 51 21.8001C51 21.8001 51 21.8001 51 21.8001V21.8001C51 21.8001 51 21.8001 51 21.8001V21.8001C51 21.8001 51 21.8001 51 21.8001C51 21.8001 51 21.8001 51 21.8001V21.8001C51 21.8001 51 21.8001 51 21.8001C51 21.8001 51 21.8001 51 21.8001V21.8001C51 21.8001 51 21.8001 51 21.8001C51 21.8001 51 21.8001 51 21.8001V21.8001C51 21.8001 51 21.8001 51 21.8001V21.8001C51 21.8001 51 21.8001 51 21.8001C51 21.8001 51 21.8001 51 21.8001C51 21.8001 51 21.8001 51 21.8001C51 21.8001 51 21.8001 51 21.8001C51 21.8001 51 21.8001 51 21.8001C51 21.8001 51 21.8001 51 21.8001C51 21.8001 51 21.8001 51 21.8001C51 21.8001 51 21.8001 51 21.8001C51 21.8001 51 21.8001 51 21.8001V21.8001C51 21.8001 51 21.8001 51 21.8001C51 21.8001 51 21.8001 51 21.8H45ZM32 8.80005C39.1797 8.80005 45 14.6203 45 21.8H51C51 11.3066 42.4934 2.80005 32 2.80005V8.80005ZM19 21.8C19 14.6203 24.8203 8.80005 32 8.80005V2.80005C21.5066 2.80005 13 11.3066 13 21.8H19ZM19 21.8001C19 21.8001 19 21.8001 19 21.8001C19 21.8001 19 21.8001 19 21.8001V21.8001C19 21.8001 19 21.8001 19 21.8001C19 21.8001 19 21.8001 19 21.8001C19 21.8001 19 21.8001 19 21.8001C19 21.8001 19 21.8001 19 21.8001C19 21.8001 19 21.8001 19 21.8001C19 21.8001 19 21.8001 19 21.8001C19 21.8001 19 21.8001 19 21.8001C19 21.8001 19 21.8001 19 21.8001C19 21.8001 19 21.8001 19 21.8001V21.8001C19 21.8001 19 21.8001 19 21.8001V21.8001C19 21.8001 19 21.8001 19 21.8001C19 21.8001 19 21.8001 19 21.8001V21.8001C19 21.8001 19 21.8001 19 21.8001C19 21.8001 19 21.8001 19 21.8001V21.8001C19 21.8001 19 21.8001 19 21.8001C19 21.8001 19 21.8001 19 21.8001V21.8001C19 21.8001 19 21.8001 19 21.8001V21.8001C19 21.8001 19 21.8001 19 21.8001C19 21.8001 19 21.8001 19 21.8001V21.8001C19 21.8001 19 21.8001 19 21.8001C19 21.8001 19 21.8001 19 21.8001V21.8001C19 21.8001 19 21.8001 19 21.8001C19 21.8001 19 21.8001 19 21.8001V21.8001C19 21.8001 19 21.8001 19 21.8001V21.8001C19 21.8001 19 21.8001 19 21.8001C19 21.8001 19 21.8001 19 21.8001C19 21.8001 19 21.8001 19 21.8001C19 21.8001 19 21.8001 19 21.8001C19 21.8001 19 21.8001 19 21.8001C19 21.8001 19 21.8001 19 21.8001C19 21.8001 19 21.8001 19 21.8001C19 21.8001 19 21.8001 19 21.8001C19 21.8001 19 21.8001 19 21.8001V21.8001C19 21.8001 19 21.8001 19 21.8001C19 21.8001 19 21.8001 19 21.8H13C13 21.8001 13 21.8001 13 21.8001C13 21.8001 13 21.8001 13 21.8001V21.8001C13 21.8001 13 21.8001 13 21.8001C13 21.8001 13 21.8001 13 21.8001C13 21.8001 13 21.8001 13 21.8001C13 21.8001 13 21.8001 13 21.8001C13 21.8001 13 21.8001 13 21.8001C13 21.8001 13 21.8001 13 21.8001C13 21.8001 13 21.8001 13 21.8001C13 21.8001 13 21.8001 13 21.8001C13 21.8001 13 21.8001 13 21.8001V21.8001C13 21.8001 13 21.8001 13 21.8001V21.8001C13 21.8001 13 21.8001 13 21.8001C13 21.8001 13 21.8001 13 21.8001V21.8001C13 21.8001 13 21.8001 13 21.8001C13 21.8001 13 21.8001 13 21.8001V21.8001C13 21.8001 13 21.8001 13 21.8001C13 21.8001 13 21.8001 13 21.8001V21.8001C13 21.8001 13 21.8001 13 21.8001V21.8001C13 21.8001 13 21.8001 13 21.8001C13 21.8001 13 21.8001 13 21.8001V21.8001C13 21.8001 13 21.8001 13 21.8001C13 21.8001 13 21.8001 13 21.8001V21.8001C13 21.8001 13 21.8001 13 21.8001C13 21.8001 13 21.8001 13 21.8001V21.8001C13 21.8001 13 21.8001 13 21.8001V21.8001C13 21.8001 13 21.8001 13 21.8001C13 21.8001 13 21.8001 13 21.8001C13 21.8001 13 21.8001 13 21.8001C13 21.8001 13 21.8001 13 21.8001C13 21.8001 13 21.8001 13 21.8001C13 21.8001 13 21.8001 13 21.8001C13 21.8001 13 21.8001 13 21.8001C13 21.8001 13 21.8001 13 21.8001C13 21.8001 13 21.8001 13 21.8001V21.8001C13 21.8001 13 21.8001 13 21.8001C13 21.8001 13 21.8001 13 21.8001H19ZM19 57.0001V21.8001H13V57.0001H19ZM48 54.0001H16V60.0001H48V54.0001ZM45 21.8001V57.0001H51V21.8001H45Z" fill="white" mask="url(#path-1-inside-1_439_90)"/>
<defs>
<linearGradient id="paint0_linear_439_90" x1="48" y1="5.80005" x2="16" y2="57" gradientUnits="userSpaceOnUse">
<stop stop-color="white" stop-opacity="0.67"/>
<stop offset="1" stop-color="white" stop-opacity="0.17"/>
</linearGradient>
</defs>
</svg>
