<svg width="24" height="24" viewBox="0 0 24 24" fill="none" xmlns="http://www.w3.org/2000/svg">
<path fill-rule="evenodd" clip-rule="evenodd" d="M4.41309 4.03785C8.80795 -0.151404 15.7678 0.0130821 19.957 4.40794C20.2294 4.69579 20.4916 4.99392 20.728 5.30747L12 14.0407L3.27197 5.30747C3.51356 4.99392 3.77057 4.69579 4.043 4.40794C4.16122 4.28458 4.28459 4.16121 4.41309 4.03785ZM18.7645 5.24065C16.9654 3.43131 14.5701 2.43925 12 2.43925C9.42992 2.43925 7.03459 3.43131 5.23552 5.24065L12 12.0051L18.7645 5.24065ZM21.4117 6.29956L19.6383 8.07293C21.0673 9.78461 20.8411 12.3341 19.1294 13.7631C17.6285 15.0173 15.4491 15.0173 13.9481 13.7631L12 15.7112L10.057 13.7683C8.34533 15.1972 5.79579 14.9711 4.36682 13.2594C3.11262 11.7584 3.11262 9.579 4.36682 8.07806L3.45701 7.16825L2.59346 6.29956C1.55 8.01638 1 9.99022 1 12C1 18.0757 5.9243 23 12 23C18.0757 23 23 18.0757 23 12C23.0051 9.99022 22.45 8.01638 21.4117 6.29956ZM18.7953 8.91589C19.1808 9.41449 19.3916 10.0313 19.3916 10.6636C19.3916 11.2958 19.1808 11.9126 18.7953 12.4112C17.829 13.6603 16.035 13.8916 14.786 12.9252L18.7953 8.91589ZM9.214 12.9304C8.71541 13.3159 8.09858 13.5266 7.46634 13.5266C6.8341 13.5266 6.22241 13.3159 5.71868 12.9355C4.46961 11.9692 4.2383 10.1701 5.20466 8.92102L9.214 12.9304Z" fill="white"/>
</svg>
