<svg width="1600" height="640" viewBox="0 0 1600 640" fill="none" xmlns="http://www.w3.org/2000/svg">
    <path d="M524.51 402.3C561.282 402.3 586.008 380.11 586.008 352.531C586.008 287.229 498.199 309.736 498.199 281.523C498.199 272.33 506.758 266.941 519.438 266.941C532.435 266.941 546.383 274.866 550.821 290.082L583.155 276.451C576.181 253.31 549.869 237.46 518.803 237.46C483.933 237.46 462.061 257.114 462.061 282.157C462.061 342.704 549.236 323.05 549.236 353.165C549.236 363.309 539.409 371.234 524.51 371.234C504.539 371.234 492.176 357.92 487.421 341.753L454.77 355.067C462.695 378.525 485.836 402.3 524.51 402.3Z"
          fill="white"/>
    <path d="M589.807 319.88C589.807 361.407 618.02 402.3 670.959 402.3C708.365 402.3 736.261 384.548 745.137 354.433L707.731 344.289C703.61 359.822 690.296 368.698 671.593 368.698C648.769 368.698 633.236 354.433 629.749 330.341H748.307C748.624 327.171 748.941 320.197 748.941 314.491C748.941 277.402 722.63 237.46 668.74 237.46C615.801 237.46 589.807 278.353 589.807 319.88ZM630.7 301.177C635.138 279.621 649.086 267.892 668.74 267.892C691.881 267.892 704.244 282.157 706.146 301.177H630.7Z"
          fill="white"/>
    <path d="M763.305 399.764H803.247V329.707C803.247 293.886 817.512 272.964 841.921 272.964C860.624 272.964 872.353 285.961 872.353 304.664V399.764H912.295V295.154C912.295 260.284 888.837 237.46 853.967 237.46C831.46 237.46 813.391 248.555 803.247 264.088V239.996H763.305V399.764Z"
          fill="white"/>
    <path d="M1088.17 239.996H1048.22V257.748C1039.03 245.702 1021.91 237.46 1001.94 237.46C954.708 237.46 926.495 271.062 926.495 319.88C926.495 368.698 954.708 402.3 1002.58 402.3C1022.55 402.3 1040.3 394.058 1048.22 381.378V399.764H1088.17V239.996ZM966.12 319.88C966.12 291.033 982.921 272.013 1008.28 272.013C1033.96 272.013 1050.76 291.033 1050.76 319.88C1050.76 348.727 1033.96 367.747 1008.28 367.747C982.921 367.747 966.12 348.727 966.12 319.88Z"
          fill="white"/>
    <path d="M1205.92 398.179L1203.07 363.309C1197.36 366.162 1190.39 367.113 1184.36 367.113C1172 367.113 1163.76 358.871 1163.76 343.655V273.598H1204.02V239.996H1163.76V193.08H1123.82V239.996H1096.87V273.598H1123.82V347.459C1123.82 384.865 1147.91 402.3 1180.24 402.3C1189.44 402.3 1198 401.032 1205.92 398.179Z"
          fill="white"/>
    <path d="M1205.91 319.88C1205.91 361.407 1234.13 402.3 1287.07 402.3C1324.47 402.3 1352.37 384.548 1361.24 354.433L1323.84 344.289C1319.72 359.822 1306.4 368.698 1287.7 368.698C1264.88 368.698 1249.34 354.433 1245.86 330.341H1364.41C1364.73 327.171 1365.05 320.197 1365.05 314.491C1365.05 277.402 1338.74 237.46 1284.85 237.46C1231.91 237.46 1205.91 278.353 1205.91 319.88ZM1246.81 301.177C1251.24 279.621 1265.19 267.892 1284.85 267.892C1307.99 267.892 1320.35 282.157 1322.25 301.177H1246.81Z"
          fill="white"/>
    <path fill-rule="evenodd" clip-rule="evenodd"
          d="M320.002 405.001L320.002 447.5C366.945 447.5 405 409.444 405 362.5C405 315.555 366.945 277.499 320.002 277.499L320.002 320.001C343.473 320.002 362.5 339.029 362.5 362.501C362.5 385.973 343.473 405.001 320.002 405.001Z"
          fill="white"/>
    <path fill-rule="evenodd" clip-rule="evenodd"
          d="M319.998 235L319.998 192.5C273.055 192.5 235 230.556 235 277.5C235 324.445 273.055 362.501 319.998 362.501L319.998 320.001C296.527 320 277.5 300.973 277.5 277.501C277.5 254.029 296.527 235.001 319.998 235Z"
          fill="white"/>
</svg>