<svg width="24" height="24" viewBox="0 0 24 24" fill="none" xmlns="http://www.w3.org/2000/svg">
<rect width="24" height="24" fill="white"/>
<path fill-rule="evenodd" clip-rule="evenodd" d="M5.07838 11.5964C9.28923 9.76182 12.0971 8.55233 13.5021 7.96797C17.5134 6.2995 18.347 6.00967 18.8902 6.0001C19.0097 5.998 19.2769 6.02761 19.45 6.16804C19.5961 6.28661 19.6363 6.44679 19.6555 6.55921C19.6748 6.67163 19.6987 6.92773 19.6797 7.12784C19.4623 9.41185 18.5217 14.9545 18.0432 17.5127C17.8407 18.5951 17.442 18.958 17.0561 18.9936C16.2172 19.0707 15.5803 18.4392 14.7679 17.9067C13.4966 17.0733 12.7784 16.5545 11.5443 15.7413C10.1182 14.8015 11.0427 14.285 11.8555 13.4409C12.0681 13.22 15.764 9.8583 15.8355 9.55334C15.8445 9.5152 15.8528 9.37304 15.7683 9.29797C15.6839 9.2229 15.5592 9.24857 15.4692 9.26899C15.3417 9.29792 13.3108 10.6403 9.3765 13.2961C8.80003 13.6919 8.27788 13.8848 7.81006 13.8747C7.29431 13.8635 6.30224 13.5831 5.56473 13.3433C4.66014 13.0493 3.9412 12.8938 4.0038 12.3944C4.03641 12.1343 4.3946 11.8683 5.07838 11.5964Z" fill="black"/>
</svg>
