<svg width="24" height="24" viewBox="0 0 24 24" fill="none" xmlns="http://www.w3.org/2000/svg">
<rect width="24" height="24" fill="white"/>
<path fill-rule="evenodd" clip-rule="evenodd" d="M8.21321 5.68019C8.21321 6.60939 8.9642 7.36038 9.8934 7.36038H11.5736V5.68019C11.5736 4.75099 10.8226 4 9.8934 4C8.9642 4 8.21321 4.75099 8.21321 5.68019ZM11.5736 9.8934C11.5736 8.9642 10.8226 8.21321 9.8934 8.21321H5.68019C4.75099 8.21321 4 8.9642 4 9.8934C4 10.8226 4.75099 11.5736 5.68019 11.5736H9.8934C10.8226 11.5736 11.5736 10.8226 11.5736 9.8934ZM5.69292 15.7868C6.62212 15.7868 7.37311 15.0358 7.37311 14.1066V12.4264H5.69292C4.76372 12.4264 4.01273 13.1774 4.01273 14.1066C4.01273 15.0358 4.76372 15.7868 5.69292 15.7868ZM9.8934 12.4264C8.9642 12.4264 8.21321 13.1774 8.21321 14.1066V18.3071C8.21321 19.2363 8.9642 19.9873 9.8934 19.9873C10.8226 19.9873 11.5736 19.2363 11.5736 18.3071V14.1066C11.5736 13.1774 10.8226 12.4264 9.8934 12.4264ZM16.6269 9.8934C16.6269 8.9642 17.3779 8.21321 18.3071 8.21321C19.2363 8.21321 19.9873 8.9642 19.9873 9.8934C19.9873 10.8226 19.2363 11.5736 18.3071 11.5736H16.6269V9.8934ZM15.7868 9.8934C15.7868 10.8226 15.0358 11.5736 14.1066 11.5736C13.1774 11.5736 12.4264 10.8226 12.4264 9.8934V5.68019C12.4264 4.75099 13.1774 4 14.1066 4C15.0358 4 15.7868 4.75099 15.7868 5.68019V9.8934ZM15.7868 18.3071C15.7868 17.3779 15.0358 16.6269 14.1066 16.6269H12.4264V18.3071C12.4264 19.2363 13.1774 19.9873 14.1066 19.9873C15.0358 19.9873 15.7868 19.2363 15.7868 18.3071ZM12.4264 14.1066C12.4264 15.0358 13.1774 15.7868 14.1066 15.7868H18.3198C19.249 15.7868 20 15.0358 20 14.1066C20 13.1774 19.249 12.4264 18.3198 12.4264H14.1066C13.1774 12.4264 12.4264 13.1774 12.4264 14.1066Z" fill="black"/>
</svg>