<svg width="24" height="24" viewBox="0 0 24 24" fill="none" xmlns="http://www.w3.org/2000/svg">
    <rect width="24" height="24" fill="white"/>
    <path d="M17.5535 6.95307C16.5023 6.4718 15.3925 6.13037 14.2526 5.9375C14.0966 6.21636 13.9555 6.50327 13.8298 6.79702C12.6155 6.61405 11.3807 6.61405 10.1664 6.79702C10.0406 6.5033 9.89949 6.21639 9.74357 5.9375C8.60289 6.132 7.4924 6.47424 6.44013 6.95559C4.3511 10.0463 3.78479 13.0603 4.06794 16.0315C5.29133 16.9354 6.66066 17.6229 8.11639 18.064C8.44417 17.6231 8.73422 17.1554 8.98346 16.6658C8.51007 16.489 8.05317 16.2709 7.61804 16.0139C7.73256 15.9309 7.84456 15.8453 7.95279 15.7622C9.21891 16.3577 10.6008 16.6664 12 16.6664C13.3991 16.6664 14.781 16.3577 16.0472 15.7622C16.1566 15.8516 16.2686 15.9372 16.3819 16.0139C15.9459 16.2713 15.4882 16.4898 15.014 16.6671C15.2629 17.1564 15.553 17.6237 15.881 18.064C17.338 17.6246 18.7084 16.9375 19.932 16.0328C20.2642 12.5872 19.3644 9.60086 17.5535 6.95307ZM9.34212 14.2043C8.55307 14.2043 7.90119 13.4882 7.90119 12.6073C7.90119 11.7264 8.53042 11.004 9.3396 11.004C10.1488 11.004 10.7956 11.7264 10.7818 12.6073C10.7679 13.4882 10.1463 14.2043 9.34212 14.2043ZM14.6578 14.2043C13.8675 14.2043 13.2182 13.4882 13.2182 12.6073C13.2182 11.7264 13.8474 11.004 14.6578 11.004C15.4683 11.004 16.1101 11.7264 16.0962 12.6073C16.0824 13.4882 15.462 14.2043 14.6578 14.2043Z"
          fill="black"/>
</svg>
