<svg width="100" height="100" viewBox="0 0 100 100" fill="none" xmlns="http://www.w3.org/2000/svg">
<g clip-path="url(#clip0_430_20)">
<rect width="100" height="100" fill="black"/>
<path fill-rule="evenodd" clip-rule="evenodd" d="M27.1148 67.7123C25.4923 66.7213 24.5 64.9562 24.5 63.0609V52.4779C24.5 52.0727 24.6086 51.6821 24.8115 51.335C25.4416 50.2499 26.8396 49.8809 27.9261 50.5176L51.8434 64.4427C53.2413 65.2601 54.1034 66.7501 54.1034 68.3705V79.3369C54.1034 79.8362 53.9657 80.3353 53.7049 80.7621C52.9154 82.0496 51.2349 82.4548 49.9457 81.6662L27.1148 67.7123ZM62.7664 47.6167C64.1643 48.4341 65.0262 49.9244 65.0262 51.5448V73.7959C65.0262 74.4541 64.6713 75.0617 64.099 75.3801L58.8622 78.3243C58.797 78.3604 58.7245 78.3894 58.6521 78.411V66.0557C58.6521 64.4571 57.812 62.974 56.4357 62.1494L35.4301 49.5988V35.6519C35.4301 35.2469 35.5388 34.8563 35.7416 34.5091C36.3717 33.424 37.7697 33.0551 38.8562 33.6917L62.7664 47.6167ZM73.2328 31.1815C74.6381 31.9917 75.5 33.4963 75.5 35.1168V67.6182C75.5 68.2837 75.1305 68.8987 74.5438 69.217L69.5822 71.8934V49.2661C69.5822 47.6674 68.742 46.1917 67.3731 45.3671L45.904 32.5053V19.2747C45.904 18.8696 46.0125 18.4789 46.2081 18.1317C46.8384 17.0466 48.2363 16.6777 49.3228 17.3071L73.2328 31.1815Z" fill="#00D395"/>
</g>
<defs>
<clipPath id="clip0_430_20">
<rect width="100" height="100" fill="white"/>
</clipPath>
</defs>
</svg>
