<svg width="100" height="100" viewBox="0 0 100 100" fill="none" xmlns="http://www.w3.org/2000/svg">
<g clip-path="url(#clip0_465_49)">
<rect width="100" height="100" fill="black"/>
<path d="M55.2222 16.4177L58.5965 14.3289L62.9349 15.2929L64.863 17.7031L62.9349 23.4876L57.9538 28.1474L54.5795 30.879L52.3299 34.2532V36.5028H55.2222L57.9538 34.2532L59.5606 32.9678L61.4887 35.0566L57.9538 39.0737L59.5606 40.8411L61.4887 44.6975L62.9349 48.5538V53.0529L68.0766 50.482H73.8611H78.5209L81.5738 53.0529V57.7126L78.5209 63.0151L72.8971 67.6748L66.7912 71.6918L61.4887 72.6559H59.5606L56.0256 76.5122L52.3299 79.0831L49.9197 77.7977L44.778 73.7806H41.725L35.7799 72.6559L28.5492 69.7636L24.8536 67.6748L15.8555 60.1228V57.7126L18.105 54.8203L24.0502 51.9281H34.3337H37.226L35.7799 46.947V42.7693V39.5557H37.226L38.5114 40.8411L40.6003 42.7693L41.725 41.6445V37.6275V31.843L43.0105 27.344L45.5814 24.9338L47.3489 25.7372V30.3969V32.9678H48.9557L50.8838 28.1474L52.3299 23.4876L53.7761 18.9886L55.2222 16.4177Z" fill="white" stroke="black"/>
<path fill-rule="evenodd" clip-rule="evenodd" d="M52.8118 36.0209C53.3389 36.0397 53.9661 36.0588 54.2579 35.8602C55.8413 35.2536 58.3829 30.4995 61.1672 32.4859C64.1477 34.6123 59.249 38.0936 58.757 39.3951C61.5313 40.3706 62.8349 44.3775 63.5774 47.4292C63.876 48.6563 63.5249 50.3107 63.8988 51.4462C68.8198 50.1164 79.6214 47.1599 81.895 53.2137C82.36 54.4509 82.5294 56.39 82.0557 57.8734C81.7227 58.9288 81.2924 59.9507 80.7702 60.9263C77.9821 65.9752 71.5904 70.0413 65.9876 72.3347L61.6492 73.6201L59.3997 73.9415L57.9536 75.5483C56.3171 76.7865 54.5404 78.2408 53.1332 79.726C51.2747 79.0768 49.6303 78.3544 48.1521 77.3158C47.1178 76.5888 46.015 75.1869 44.7778 74.7449L42.0462 74.5842L37.5472 73.7808C34.7995 72.8615 31.7053 71.6704 29.1918 70.5672C28.0911 70.084 26.9527 69.9127 25.9782 69.2817C23.8077 67.8763 21.7248 66.2862 19.7116 64.7827C18.2885 63.7199 15.301 61.035 14.7305 59.3195C14.0637 57.3138 16.3534 55.7584 17.1407 54.9812C21.4855 50.696 28.6225 51.4783 36.4224 51.6069C36.3453 50.7363 36.184 49.8754 35.9404 49.036C35.36 46.9097 33.7249 39.6146 36.4224 38.5917C36.71 38.3266 36.826 38.3112 37.3865 38.2704L38.5113 39.2345C39.0858 40.0618 39.1716 41.1964 40.1181 41.6447C40.478 41.8696 40.6444 41.7322 41.0821 41.6447V41.3233C41.8192 40.0597 41.0865 37.1495 41.0821 35.6995C41.0691 31.3362 41.333 27.5769 43.4923 25.4159C44.5487 24.3588 46.9759 23.3456 48.1521 25.0946C49.0987 26.3006 47.72 30.3127 47.67 32.1645C47.8752 32.2492 48.0918 32.3033 48.3128 32.3252C50.9233 27.6333 51.4734 20.8801 54.4186 16.5785C55.9464 14.3473 58.3441 12.7583 61.9706 14.1683C62.7742 14.4952 63.5307 14.9274 64.2201 15.4537C66.3263 17.0605 65.3732 21.003 64.2201 22.845C61.3067 27.4993 53.7627 29.6777 52.8118 36.0209ZM47.188 48.8753C47.143 45.0832 48.4829 41.9541 50.2409 39.8772C50.7779 39.2428 51.7674 39.0585 52.1691 38.2704C51.6217 37.8002 51.8289 37.2841 50.8837 37.1456C50.5883 37.3445 49.9678 37.3206 49.4375 37.3063C49.3528 37.1011 49.2987 36.8845 49.2768 36.6636L49.4375 36.5029C50.0949 36.5188 50.7492 36.4097 51.3657 36.1815L51.8477 33.932C52.7879 31.6524 54.8043 29.0709 56.6682 27.6655C60.0622 25.1049 64.5679 22.7244 63.2561 16.8999C62.6408 16.4974 62.1764 15.7603 61.4886 15.4537C54.7863 12.4669 52.628 23.481 51.205 27.8261C50.6968 29.378 50.301 32.94 48.9555 33.45C48.4844 33.8939 47.6945 33.7636 47.0273 33.6106C45.789 31.5073 46.9426 28.5124 46.8666 25.898C46.3976 25.6026 46.3999 25.4579 45.5812 25.4159C43.409 27.57 43.3293 27.3963 42.5283 31.0398C41.685 34.8755 43.9283 41.184 41.2428 43.0908C40.9727 43.3068 40.7378 43.3538 40.2787 43.4122C39.7755 42.9623 39.0691 42.673 38.6719 42.1267C38.0535 41.2766 38.079 40.1971 36.7438 40.0379C35.3348 42.8771 36.5154 47.3214 37.3865 49.8394C37.7848 50.9907 38.2643 53.1054 39.9574 52.2496C41.9402 50.319 43.1515 48.3875 47.188 48.8753ZM58.9177 33.6106C58.0521 34.4965 56.5717 35.1794 56.0254 36.3422C56.6842 36.4812 57.0143 36.5961 57.1502 37.3063H56.8288C56.0211 36.519 53.6409 37.1919 52.8118 37.7883C52.9404 37.9524 52.8689 37.8324 52.9725 38.1097H53.4545C54.5563 37.3749 56.7091 38.28 57.6322 38.4311C58.6032 37.0315 60.9328 35.7238 59.7211 33.6106H58.9177ZM53.9366 38.9131C53.3236 39.4029 52.4689 39.5674 51.8477 40.0379C50.0203 41.422 48.3635 45.9787 48.3128 49.1967L50.0803 50.1607C50.0584 48.6309 50.731 47.4742 51.8477 47.1078C53.8511 45.4898 55.6001 48.0451 56.3468 48.8753C56.3664 49.7963 56.2583 50.7156 56.0254 51.6069C54.7371 52.4906 54.2043 53.1706 52.0084 52.8923V53.2137C52.9015 54.4249 52.0442 56.9003 51.8477 58.0341C52.5772 58.512 53.3454 59.2038 54.2579 59.4802C59.066 60.9369 61.337 56.1059 62.292 52.8923C62.5725 51.9485 63.2345 50.2149 62.9347 48.8753C61.92 44.342 59.486 38.8284 53.9366 38.9131ZM44.1351 46.4651C43.1822 46.518 41.2979 46.4942 40.6001 46.9471C39.8062 47.4626 40.0637 48.0941 38.8326 48.3933V47.1078C39.0007 46.8686 39.1106 46.5935 39.154 46.3044C40.4736 45.9069 41.2488 45.3553 43.171 45.3403C43.4323 45.5915 43.7449 45.6903 43.9744 45.983C44.0952 46.1555 44.0708 46.135 44.1351 46.4651ZM52.0084 48.0719C51.7073 48.5428 51.4804 48.6343 51.3657 49.3573C51.813 49.7838 51.8378 50.037 52.6511 50.1607C53.1382 49.666 53.4087 49.729 53.4545 48.7146C53.1653 48.4632 53.2487 48.3987 52.8118 48.2326C52.6037 48.0917 52.4154 48.0889 52.0084 48.0719ZM44.2958 49.6787C42.5283 51.0149 41.1541 51.1909 40.4394 53.6957C38.9886 58.7808 45.3508 61.9568 49.2768 59.6409V59.4802C48.3634 59.2789 48.209 58.878 47.67 58.3554C47.6583 57.7622 47.7121 57.1695 47.8307 56.588C49.3815 55.5527 49.3752 55.8602 51.0443 56.4273V54.1778C50.634 53.577 50.6266 52.7082 50.2409 52.0889C49.0945 50.2507 47.4065 49.629 44.2958 49.6787ZM74.343 56.7486C74.0895 59.9563 68.4345 66.0289 66.1483 67.5142C65.4558 67.9641 64.6609 67.8851 63.8988 68.3176C63.3856 68.609 60.9072 71.727 60.6852 72.3347H61.4886C62.0609 71.9706 62.8402 72.0776 63.5774 71.8526L67.2731 70.5672C73.1826 67.9891 79.1493 63.0999 80.7702 56.2666C82.4784 49.0654 70.4287 50.468 66.4697 51.9282C65.3189 52.3527 64.2158 52.4662 63.5774 53.3744C63.102 54.0802 63.1328 55.1219 62.774 55.9452C61.8368 58.0963 58.6069 61.5347 54.74 60.605C53.8522 60.3728 52.9907 60.0498 52.1691 59.6409V59.9623C53.2518 60.5716 54.1763 61.5384 55.3827 62.0511C56.1026 62.3564 57.087 62.2243 57.4716 62.8545H55.8647C55.3453 62.5171 54.5599 62.6313 53.9366 62.3725C52.7432 61.8769 51.8596 60.703 50.723 60.2836C49.7153 62.3384 43.317 64.4994 40.9215 62.2118C43.7718 62.2687 45.5442 62.1196 47.8307 61.5691V61.4084C43.4682 61.5808 40.7592 60.5042 39.636 57.07C39.3653 56.2422 39.7427 53.9629 39.4753 53.535C39.1962 53.2101 39.1307 53.2347 38.5113 53.2137C37.4612 52.4988 35.8028 52.8846 34.3336 52.5709C28.7258 51.3739 21.947 53.3962 18.9082 55.4632C17.9782 56.0958 16.1715 57.2538 16.3373 58.8375C16.5247 60.6271 19.7176 63.02 20.9971 63.9793C26.6705 68.2326 33.3912 72.7937 42.5283 73.4594V73.2987C40.6687 72.2133 39.3564 70.5158 37.7078 69.2817L34.8156 68.4783C32.9233 67.6589 30.9697 66.4501 29.3525 65.2647C27.4813 63.8931 25.8246 62.1175 24.05 60.605C23.6102 60.2301 23.9697 60.017 23.2466 59.8016C22.7695 60.314 22.0765 60.8756 21.3184 61.087V60.605C23.6406 58.385 27.4301 54.5213 32.5661 56.2666V56.4273C31.5703 56.4594 30.5894 56.6775 29.6738 57.07C29.7752 57.3518 29.7048 57.226 29.8345 57.3914C30.4054 59.5352 32.1922 61.1031 33.3695 62.6938C36.9904 67.5857 41.6979 71.2306 46.706 74.7449C48.2774 75.8475 50.8819 78.2678 52.9725 78.6012C53.943 76.8043 55.9469 75.6921 57.1502 74.1021C61.5866 68.2402 67.7514 63.0313 69.5226 54.6598C68.9817 54.4737 68.0524 54.4882 67.2731 54.4991C66.9221 54.7374 66.1976 54.7932 65.6663 54.8205V54.4991H65.8269C66.3842 53.9494 67.0054 53.9403 67.9158 53.6957C71.5928 52.708 74.577 54.8218 75.7891 56.9093H75.3071C75.0792 56.7549 74.7812 56.7525 74.343 56.7486ZM70.6474 54.9812C70.3795 56.1059 70.1118 57.2307 69.844 58.3554C70.7513 58.6447 71.043 59.2978 72.0935 59.4802C72.4094 58.417 73.0781 57.365 73.5396 56.2666C72.6146 55.6444 72.2596 55.0155 70.6474 54.9812ZM48.6341 56.588C48.5544 56.7654 48.4458 56.9283 48.3128 57.07C48.4142 57.3518 48.3438 57.226 48.4734 57.3914L48.9555 57.8734L49.4375 57.7127C49.491 57.4449 49.5447 57.1772 49.5982 56.9093L49.2768 56.588H48.6341ZM27.7457 57.2307C26.6802 57.9981 24.9856 57.7609 24.6927 59.3195C25.4862 59.874 26.5168 61.1225 27.1029 61.8904L27.2636 61.7297C27.6849 61.468 29.3695 59.584 29.1918 59.4802C29.0248 58.7318 28.4218 57.4936 27.7457 57.2307ZM69.2012 59.4802C68.9019 60.6342 67.9992 61.0666 67.7551 62.2118C68.2224 62.5204 68.5847 63.0245 68.8799 63.4972L69.0406 63.3365C69.8835 62.7984 71.0863 61.58 71.2901 60.4443C70.4867 60.1944 70.0972 59.656 69.2012 59.4802ZM29.9952 60.4443C29.5032 61.3809 28.462 61.7309 28.2277 62.8545C28.9872 63.3627 29.3484 64.1433 30.3165 64.4613V64.3006C30.5593 64.0721 31.3823 62.9708 31.4413 62.6938C31.5503 62.1819 30.3774 60.6265 29.9952 60.4443ZM50.0803 62.2118C51.1197 62.9577 50.5886 64.871 49.2768 64.9434C49.1128 64.8148 49.2328 64.8863 48.9555 64.7827C48.8263 64.312 48.772 63.824 48.7948 63.3365C49.2518 62.9956 49.6816 62.6194 50.0803 62.2118ZM52.3298 62.3725C52.9908 62.4166 53.0948 62.5553 53.6152 62.6938C53.8903 63.249 54.1488 63.5294 54.2579 64.3006C53.7889 64.596 53.792 64.7407 52.9725 64.7827C52.5187 64.1022 52.1879 63.9123 52.1691 62.6938C52.2976 62.5298 52.2261 62.6498 52.3298 62.3725ZM49.4375 63.9793H49.9196C50.021 63.6974 49.9506 63.8232 50.0803 63.6579L49.9196 63.1759L49.5982 63.3365C49.5135 63.5417 49.4594 63.7583 49.4375 63.9793ZM52.9725 63.1759C52.9082 63.54 52.825 63.35 52.9725 63.6579C53.1366 63.7865 53.0165 63.7149 53.2939 63.8186V63.3365L52.9725 63.1759ZM32.084 63.4972C31.8814 63.9303 31.6055 64.4566 31.2806 64.7827C31.382 65.0645 31.3116 64.9387 31.4413 65.104C32.2993 66.0038 34.0753 67.2552 35.4583 67.5142V67.3536C34.1415 66.4488 33.5666 64.0972 32.084 63.4972ZM66.791 63.4972C66.3618 64.8698 65.1174 65.6192 64.7022 67.0322H64.8629C65.6274 65.9812 67.4124 65.5514 67.9158 64.3006C67.4791 64.0103 67.3463 63.6937 66.791 63.4972Z" fill="black"/>
</g>
<defs>
<clipPath id="clip0_465_49">
<rect width="100" height="100" fill="white"/>
</clipPath>
</defs>
</svg>
