<svg width="100" height="100" viewBox="0 0 100 100" fill="none" xmlns="http://www.w3.org/2000/svg">
<rect width="100" height="100" fill="#13182F"/>
<path fill-rule="evenodd" clip-rule="evenodd" d="M31.7079 31.4546C31.7597 31.446 31.9065 31.6445 32.0532 31.8863C32.2 32.128 32.6058 32.6028 32.9597 32.9481C33.3309 33.3021 33.8576 33.6992 34.2115 33.8805C34.5396 34.0532 35.1266 34.2776 35.5065 34.3812C35.8863 34.4762 36.3439 34.5539 36.5252 34.5539C36.6978 34.5539 36.8446 34.5884 36.8446 34.6402C36.8446 34.6834 36.1626 35.3999 35.3252 36.2114C34.4878 37.0316 33.3914 38.1712 32.882 38.7496C32.3813 39.3194 31.613 40.2517 31.1813 40.8215C30.7496 41.3827 30.1108 42.2719 29.7741 42.7985C29.4288 43.3165 28.9281 44.1366 28.6604 44.6114C28.3928 45.0862 27.9266 46.0186 27.6245 46.6834C27.3223 47.3481 26.8648 48.5136 26.6144 49.2733C26.364 50.033 26.0533 51.1035 25.9324 51.6474C25.8115 52.1913 25.6561 53.0114 25.5871 53.4603C25.518 53.9093 25.4144 54.8416 25.3626 55.5323C25.2935 56.3006 25.2763 57.3193 25.3108 58.1654C25.3367 58.9251 25.4403 60.0905 25.5439 60.7553C25.6389 61.42 25.8288 62.4301 25.9669 62.9999C26.0964 63.5697 26.3554 64.4675 26.5367 64.9855C26.7094 65.5035 27.0288 66.3409 27.236 66.8416C27.4518 67.3423 27.8144 68.1193 28.0561 68.5682C28.2979 69.0171 28.695 69.6992 28.9281 70.079C29.1698 70.4589 29.636 71.1409 29.964 71.5898C30.3007 72.0387 30.8878 72.7812 31.2763 73.2301C31.6648 73.679 32.3295 74.3783 32.7525 74.7754C33.1755 75.1812 33.8921 75.8027 34.341 76.1653C34.7899 76.5193 35.5496 77.0718 36.0245 77.3912C36.4993 77.702 37.3108 78.2027 37.8374 78.4876C38.364 78.7812 39.1842 79.1869 39.6762 79.4027C40.1597 79.6186 41.0144 79.9466 41.5755 80.1365C42.128 80.3351 43.0518 80.6027 43.6216 80.7409C44.1913 80.879 45.0288 81.0517 45.4777 81.1207C45.9266 81.1984 46.7208 81.2934 47.2475 81.3452C47.7741 81.3883 48.741 81.4315 49.4057 81.4315C50.0705 81.4315 51.141 81.3711 51.7798 81.302C52.4187 81.2416 53.4287 81.0862 54.0244 80.974C54.6201 80.8531 55.5784 80.62 56.1654 80.4473C56.7438 80.2747 57.5813 79.9984 58.0215 79.8258C58.4532 79.6531 59.2388 79.3078 59.7654 79.0574C60.292 78.8157 61.1208 78.3668 61.6215 78.0732C62.1222 77.7711 62.8992 77.2704 63.3481 76.9423C63.7971 76.6229 64.5999 75.9927 65.1179 75.5437C65.6359 75.0862 66.3525 74.4214 66.6978 74.0589C67.0345 73.6963 67.6302 73.0229 68.0186 72.5567C68.3985 72.0991 68.9942 71.2876 69.3481 70.7697C69.6935 70.2517 70.2114 69.3884 70.505 68.8704C70.7899 68.3524 71.2129 67.4718 71.446 66.9279C71.6877 66.3841 72.0158 65.5035 72.1971 64.9855C72.3697 64.4675 72.6287 63.5697 72.7582 62.9999C72.8963 62.4301 73.0949 61.4028 73.1985 60.7121C73.3539 59.6934 73.3884 59.0718 73.3884 57.3884C73.397 55.8776 73.3539 55.0143 73.2417 54.1941C73.1553 53.5726 72.9913 52.6057 72.8704 52.0359C72.7496 51.4661 72.5165 50.551 72.3524 50.0071C72.1884 49.4632 71.8863 48.5826 71.6791 48.0647C71.4719 47.538 71.1438 46.7611 70.9453 46.338C70.7467 45.9064 70.3668 45.1726 70.1078 44.6978C69.8402 44.2229 69.3309 43.3855 68.9769 42.8416C68.623 42.2978 67.9755 41.3827 67.5438 40.8215C67.1122 40.2517 66.3438 39.3194 65.8431 38.7496C65.3338 38.1712 64.2374 37.0316 63.3999 36.2114C62.5625 35.3999 61.8805 34.6834 61.8805 34.6402C61.8805 34.5884 62.0273 34.5539 62.2086 34.5539C62.3812 34.5539 62.7784 34.4935 63.0892 34.4158C63.3999 34.3467 63.9611 34.1395 64.341 33.9582C64.833 33.7165 65.2302 33.4402 65.7222 32.974C66.1021 32.6201 66.5338 32.128 66.6719 31.8863C66.81 31.6445 66.9568 31.446 66.9999 31.446C67.0345 31.446 67.3021 31.61 67.6043 31.8086C67.8978 32.0071 68.5107 32.4474 68.9596 32.7927C69.4086 33.1294 70.2114 33.7769 70.7294 34.2258C71.2474 34.6748 72.1107 35.4949 72.6287 36.0301C73.1467 36.574 73.915 37.4287 74.3208 37.9208C74.7352 38.4215 75.3999 39.2935 75.8057 39.8632C76.2114 40.433 76.5309 40.9251 76.505 40.9596C76.4877 41.0028 76.3064 41.1323 76.1078 41.2618C75.9006 41.3827 75.5122 41.7021 75.2273 41.9697C74.951 42.2373 74.6057 42.6258 74.4589 42.8416C74.3122 43.0575 74.0877 43.446 73.9582 43.705C73.8287 43.9639 73.656 44.4301 73.5697 44.7409C73.4661 45.1121 73.4143 45.6129 73.4143 46.2085C73.4143 46.8042 73.4661 47.3049 73.5697 47.6762C73.656 47.987 73.8287 48.4531 73.9582 48.7121C74.0877 48.9711 74.3122 49.3596 74.4589 49.5754C74.6057 49.7913 74.9942 50.2229 75.3395 50.5424C75.7625 50.9481 76.1683 51.233 76.669 51.4747C77.0575 51.6647 77.6445 51.8718 77.9812 51.9495C78.3179 52.0186 78.8963 52.079 79.2762 52.079C79.656 52.079 80.1999 52.0186 80.4848 51.9582C80.8733 51.8632 81.0201 51.8546 81.0632 51.9323C81.0891 51.9927 81.2014 52.5193 81.3049 53.115C81.3999 53.7107 81.5208 54.4877 81.5726 54.8416C81.6244 55.1956 81.6848 56.5941 81.7107 57.9495C81.7452 59.8747 81.7193 60.7035 81.6157 61.7481C81.538 62.4819 81.3913 63.5524 81.2963 64.1222C81.2014 64.692 81.0891 65.2013 81.0632 65.2618C81.0201 65.3394 80.8733 65.3308 80.4848 65.2359C80.1999 65.1754 79.656 65.115 79.2762 65.115C78.8618 65.115 78.3093 65.1841 77.8949 65.2876C77.515 65.3826 76.9107 65.6071 76.5568 65.7797C76.0647 66.0215 75.7193 66.2891 75.1323 66.8848C74.528 67.4805 74.2776 67.8085 74.0359 68.3092C73.8546 68.6632 73.6474 69.2071 73.5611 69.5179C73.4575 69.8891 73.4143 70.3812 73.4143 70.9855C73.4143 71.5725 73.4747 72.0905 73.5697 72.4531C73.656 72.7639 73.8805 73.325 74.0791 73.7049C74.2863 74.0934 74.6661 74.6373 74.9596 74.9481C75.2445 75.2502 75.7193 75.6646 76.5568 76.2517L76.0215 77.0373C75.7193 77.4689 75.0719 78.3322 74.5798 78.9624C74.0791 79.584 73.0345 80.7322 72.2488 81.5178C71.4632 82.3034 70.3496 83.3221 69.7798 83.7711C69.21 84.2286 68.3726 84.8588 67.9237 85.1696C67.4748 85.4891 67.0604 85.7394 67.0172 85.7394C66.974 85.748 66.81 85.5495 66.6719 85.3078C66.5338 85.066 66.1021 84.5739 65.7222 84.22C65.2302 83.7538 64.833 83.4775 64.341 83.2358C63.9611 83.0545 63.3999 82.8473 63.0892 82.7783C62.7784 82.7006 62.1827 82.6401 61.751 82.6401C61.3194 82.6401 60.7237 82.7006 60.4129 82.7783C60.1021 82.8473 59.5323 83.0632 59.1438 83.2445C58.6431 83.4862 58.246 83.7624 57.8143 84.1682C57.469 84.4962 57.0805 84.9279 56.9338 85.1437C56.787 85.3596 56.5625 85.748 56.4331 86.007C56.3036 86.266 56.1395 86.7149 56.0705 86.9998C55.9928 87.2847 55.9064 87.7682 55.8805 88.079C55.8374 88.4502 55.8719 88.925 55.9582 89.4603C56.0359 89.9092 56.0877 90.289 56.0791 90.2977C56.0618 90.3063 55.6474 90.3926 55.1467 90.4876C54.646 90.5826 53.7136 90.7207 53.0748 90.7984C52.4359 90.8675 51.1669 90.9538 50.269 90.9883C49.3108 91.0142 48.059 90.997 47.2475 90.9365C46.4877 90.8847 45.4604 90.7811 44.9597 90.7034C44.459 90.6344 43.7424 90.5135 43.3626 90.4444C42.9827 90.3667 42.6633 90.2977 42.646 90.289C42.6374 90.289 42.6892 89.9092 42.7669 89.4603C42.8619 88.8991 42.8791 88.4502 42.8446 88.0358C42.8101 87.6991 42.7065 87.1811 42.6115 86.8703C42.5165 86.5596 42.3007 86.0329 42.128 85.7049C41.9122 85.2819 41.5928 84.8761 41.0748 84.3668C40.5741 83.8574 40.1511 83.5293 39.7367 83.3049C39.4 83.1322 38.8216 82.9164 38.4417 82.8128C37.9928 82.7006 37.4834 82.6401 36.9741 82.6401C36.5511 82.6401 35.9468 82.7006 35.636 82.7696C35.3252 82.8473 34.7468 83.0718 34.341 83.2703C33.8317 83.5207 33.4173 83.8229 32.9597 84.2459C32.6058 84.5912 32.2 85.066 32.0532 85.3078C31.9065 85.5495 31.7684 85.748 31.7338 85.748C31.6907 85.748 31.423 85.584 31.1295 85.3855C30.8273 85.1869 30.1367 84.6862 29.5928 84.2718C29.0489 83.8574 28.177 83.1322 27.6504 82.666C27.1324 82.1912 26.3554 81.4401 25.9238 80.9912C25.5007 80.5423 24.8187 79.774 24.413 79.2905C24.0072 78.7984 23.3425 77.9265 22.9281 77.3481C22.5137 76.7696 22.1943 76.2689 22.2202 76.2258C22.2374 76.1912 22.4187 76.0617 22.6259 75.9322C22.8245 75.8114 23.2389 75.466 23.5324 75.1812C23.8346 74.8876 24.2489 74.3783 24.4561 74.0502C24.6633 73.7135 24.9137 73.2042 25.0086 72.902C25.1122 72.6085 25.2331 72.0819 25.2849 71.7366C25.3367 71.3999 25.354 70.8646 25.3281 70.5538C25.2935 70.243 25.2072 69.7596 25.1381 69.4747C25.0604 69.1898 24.8446 68.6459 24.6461 68.2661C24.3784 67.7481 24.1108 67.3941 23.5583 66.8416C23.1094 66.3927 22.6087 65.9956 22.2979 65.8315C22.013 65.6848 21.5295 65.4776 21.2187 65.374C20.8475 65.2531 20.3468 65.1754 19.7511 65.1409C19.1036 65.1064 18.6806 65.1323 18.2835 65.2272C17.8605 65.3308 17.7051 65.3308 17.6619 65.2618C17.636 65.2013 17.5238 64.6747 17.4202 64.079C17.3252 63.4833 17.2043 62.7064 17.1525 62.3524C17.1008 61.9984 17.0403 60.5999 17.0144 59.2445C16.9799 57.3193 17.0058 56.4905 17.1094 55.4459C17.1871 54.7121 17.3338 53.6416 17.4288 53.0718C17.5238 52.5021 17.636 51.9927 17.6619 51.9323C17.7051 51.8632 17.8605 51.8632 18.2835 51.9668C18.6806 52.0618 19.1036 52.0877 19.7511 52.0531C20.3468 52.0186 20.8475 51.9409 21.2187 51.82C21.5295 51.7165 22.013 51.5093 22.2979 51.3625C22.6259 51.1898 23.1007 50.8013 23.5928 50.3093C24.2058 49.7049 24.4475 49.3855 24.6892 48.8848C24.8619 48.5308 25.0777 47.987 25.1554 47.6762C25.2504 47.3136 25.3108 46.7956 25.3108 46.2085C25.3108 45.6129 25.259 45.1121 25.1554 44.7409C25.0691 44.4301 24.8446 43.869 24.6461 43.4891C24.4216 43.0661 24.0676 42.5654 23.7223 42.2114C23.4115 41.8834 22.954 41.4863 22.7123 41.3222C22.4619 41.1582 22.2374 41.0028 22.2202 40.9596C22.2029 40.9251 22.5137 40.433 22.9194 39.8632C23.3252 39.2935 23.9899 38.4215 24.3957 37.9208C24.8015 37.4201 25.7597 36.3927 26.5194 35.633C27.2878 34.8733 28.3756 33.8719 28.9453 33.423C29.5151 32.9654 30.3525 32.3352 30.8014 32.0244C31.2504 31.705 31.6561 31.4546 31.7079 31.4546V31.4546ZM27.2274 70.2948C27.5899 70.9337 28.1597 71.8661 28.505 72.3581C28.8417 72.8502 29.5065 73.7222 29.9899 74.3006C30.4734 74.879 31.2763 75.7423 31.7856 76.2258C32.2863 76.7178 33.0978 77.4344 33.5813 77.8229C34.0734 78.2114 34.8935 78.807 35.4201 79.1524C35.9468 79.4977 36.7928 80.007 37.3194 80.3006C37.846 80.5855 38.718 81.0085 39.2619 81.2416C39.8057 81.4833 40.6432 81.8114 41.118 81.9754C41.5928 82.1394 42.5424 82.4157 43.2331 82.5883C43.9237 82.761 45.0288 82.9855 45.6935 83.0891C46.7295 83.2531 47.2647 83.279 49.3626 83.279C51.4949 83.279 51.987 83.2531 53.0748 83.0804C53.7654 82.9768 54.905 82.7351 55.6215 82.5538C56.3295 82.3725 57.3654 82.0617 57.9093 81.8632C58.4532 81.656 59.2906 81.3193 59.7654 81.1121C60.2402 80.8963 61.0172 80.5078 61.492 80.2488C61.9669 79.9898 62.8043 79.4804 63.3481 79.1178C63.892 78.7553 64.7294 78.1423 65.2043 77.7624C65.6791 77.3826 66.4733 76.6833 66.9654 76.2085C67.4575 75.7337 68.2345 74.8963 68.692 74.3524C69.1496 73.8085 69.7798 72.9884 70.0992 72.5394C70.41 72.0905 70.8158 71.4689 71.0057 71.1581C71.187 70.8474 71.5237 70.2603 71.7481 69.8373C71.9726 69.4229 72.1453 69.0862 72.128 69.0862C72.1194 69.0776 71.9122 69.4229 71.6618 69.8373C71.4201 70.2517 70.928 71.0027 70.574 71.5035C70.2201 72.0042 69.6158 72.7812 69.2359 73.2301C68.8561 73.679 68.0704 74.5164 67.4834 75.0948C66.8963 75.6646 66.0071 76.4589 65.5064 76.856C65.0057 77.2531 64.2115 77.8315 63.7366 78.1509C63.2618 78.4704 62.4417 78.9797 61.9237 79.2732C61.4057 79.5754 60.6028 79.9984 60.1539 80.2056C59.705 80.4128 58.8848 80.7581 58.341 80.974C57.7971 81.1811 56.9597 81.4747 56.4849 81.6128C56.01 81.7509 55.2158 81.9668 54.7151 82.079C54.2144 82.1912 53.3597 82.3552 52.8158 82.4416C52.0302 82.5624 51.3136 82.597 49.3626 82.597C47.4201 82.597 46.7036 82.5624 45.9525 82.4416C45.4259 82.3552 44.5539 82.1912 44.0101 82.0704C43.4662 81.9495 42.4561 81.6646 41.7655 81.4315C41.0748 81.207 40.1252 80.8617 39.6504 80.6545C39.1755 80.456 38.3036 80.0416 37.7079 79.7308C37.1122 79.42 36.2058 78.8934 35.6791 78.5653C35.1525 78.2286 34.3755 77.6934 33.9525 77.374C33.5295 77.0545 32.8216 76.4848 32.3986 76.1135C31.9755 75.7423 31.259 75.0689 30.8101 74.62C30.3698 74.1625 29.6878 73.4027 29.2907 72.9279C28.9022 72.4531 28.3756 71.7711 28.1252 71.4171C27.8662 71.0632 27.4173 70.3639 27.1151 69.8632C26.813 69.3625 26.5712 68.9999 26.5712 69.043C26.5712 69.0862 26.8734 69.656 27.2274 70.2948V70.2948Z" fill="white"/>
<path d="M40.1599 25.1698C40.2117 25.187 40.2549 25.2388 40.2549 25.282C40.2549 25.3252 40.1944 25.7137 40.134 26.1367C40.0563 26.6547 40.0304 27.3194 40.0649 28.1223C40.0822 28.787 40.1772 29.6417 40.2549 30.0216C40.3326 30.4014 40.4966 31.0403 40.6175 31.446C40.7297 31.8518 40.9628 32.5252 41.1354 32.9568C41.2995 33.3798 41.6707 34.2 41.9469 34.7698C42.2232 35.3395 42.7239 36.2892 43.0692 36.8849C43.4059 37.4806 44.511 39.2849 45.521 40.8992C46.5311 42.5136 47.6102 44.2834 47.9124 44.8273C48.2232 45.3712 48.6894 46.2431 48.9484 46.7697C49.216 47.2877 49.6131 48.1856 49.8376 48.7554C50.062 49.3251 50.3556 50.2402 50.4937 50.7841C50.6405 51.328 50.7959 52.2431 50.8477 52.8129C50.9254 53.5985 50.9254 54.0906 50.8477 54.8417C50.7872 55.3856 50.6491 56.2057 50.5282 56.6546C50.3901 57.164 50.0879 57.9323 49.7081 58.6834C49.3196 59.4776 48.862 60.2201 48.3959 60.8417C47.9987 61.3596 47.2131 62.2575 46.6433 62.8359C46.0736 63.4057 44.9254 64.4848 44.0966 65.2186C43.2678 65.9524 42.2146 66.9452 41.757 67.4114C41.3081 67.8776 40.7297 68.5596 40.4793 68.9136C40.229 69.2675 39.875 69.8632 39.6851 70.2258C39.5038 70.597 39.2534 71.2186 39.1412 71.6071C39.029 72.0042 38.8908 72.7121 38.839 73.187C38.7786 73.7654 38.7786 74.3697 38.8304 74.9999C38.8736 75.5179 38.8822 75.9754 38.8477 76.01C38.8131 76.0531 38.4419 75.8632 38.0103 75.5956C37.5872 75.328 36.8621 74.8359 36.4131 74.4906C35.9642 74.1539 35.1527 73.446 34.6088 72.928C34.0736 72.41 33.3139 71.6071 32.9426 71.1582C32.5628 70.7093 31.9412 69.8719 31.5614 69.3021C31.1815 68.7323 30.5858 67.6791 30.2405 66.9711C29.8865 66.2546 29.4635 65.2877 29.2909 64.8129C29.1096 64.3381 28.8419 63.4402 28.6865 62.8273C28.5311 62.2143 28.324 61.256 28.2376 60.7122C28.1081 59.9007 28.0822 59.2445 28.0909 57.1726C28.0909 55.0057 28.1168 54.4445 28.2808 53.4172C28.3844 52.7525 28.5829 51.7424 28.7211 51.1726C28.8592 50.6028 29.1009 49.7827 29.2477 49.3597C29.4031 48.9366 29.6966 48.1942 29.9124 47.7194C30.1196 47.2446 30.5081 46.4676 30.7671 45.9928C31.0347 45.5179 31.6391 44.4992 32.1225 43.7223C32.606 42.9539 33.0462 42.3323 33.0894 42.3582C33.1412 42.3755 33.1671 42.4187 33.1585 42.4618C33.1498 42.505 32.9599 43.0489 32.7441 43.6618C32.5283 44.2748 32.2606 45.2072 32.1311 45.7338C31.9757 46.4072 31.898 47.0374 31.8635 47.892C31.8376 48.5827 31.8549 49.3079 31.9067 49.5755C31.9585 49.8345 32.088 50.2834 32.1916 50.5683C32.3038 50.8532 32.5369 51.2676 32.7182 51.492C32.9513 51.7856 33.2189 51.9928 33.6247 52.1827C34.1426 52.433 34.2808 52.4676 34.9024 52.4589C35.3685 52.4503 35.757 52.3812 36.111 52.2604C36.3959 52.1568 36.8621 51.9237 37.147 51.751C37.4318 51.5784 37.9239 51.1812 38.2347 50.8705C38.5542 50.5597 39.0376 49.9553 39.3139 49.5323C39.5901 49.1093 39.9527 48.4273 40.1081 48.0215C40.2721 47.6158 40.4966 46.9338 40.6002 46.5108C40.7124 46.0877 40.8505 45.2676 40.9023 44.6978C40.9628 44.1021 40.98 43.2992 40.9455 42.7985C40.9196 42.3237 40.8333 41.5467 40.7642 41.0719C40.6952 40.5971 40.5139 39.7252 40.3498 39.1295C40.1944 38.5338 39.8405 37.3338 39.5729 36.4532C39.3052 35.5726 38.9858 34.4072 38.8649 33.8633C38.7009 33.0949 38.6405 32.5338 38.5973 31.3597C38.5628 30.2029 38.58 29.6676 38.6836 29.0719C38.7613 28.6489 38.9426 27.9237 39.0894 27.4748C39.2362 27.0259 39.5211 26.3093 39.711 25.895C39.9095 25.4806 40.1081 25.1525 40.1599 25.1698V25.1698Z" fill="#F17300"/>
<path d="M57.3999 14.8705C57.4431 14.8705 57.4776 14.8877 57.4776 14.9136C57.4776 14.9395 57.3049 15.2762 57.0891 15.6734C56.8819 16.0618 56.6057 16.6575 56.4848 16.9856C56.3553 17.3136 56.1999 17.8489 56.1308 18.177C56.0618 18.4964 56.01 19.0921 56.01 19.5064C56.01 19.9295 56.0532 20.4993 56.0963 20.7841C56.1481 21.069 56.2949 21.6129 56.4157 21.9928C56.5366 22.3726 56.8215 23.0719 57.0546 23.5467C57.279 24.0215 57.9006 25.1525 58.4359 26.0503C58.9625 26.9482 59.6272 28.1568 59.9035 28.7266C60.1798 29.2964 60.4992 30.0906 60.62 30.4964C60.7323 30.9021 60.8704 31.5323 60.9222 31.9035C60.974 32.2661 61.0172 32.7928 61.0172 33.0604C61.0172 33.3366 60.9826 33.6043 60.9481 33.6647C60.9136 33.7338 60.0848 32.9999 58.5567 31.541C57.2704 30.3064 55.8373 28.8733 55.3625 28.3381C54.8877 27.8028 54.2747 27.0518 53.9985 26.6719C53.7136 26.2834 53.3596 25.6877 53.2042 25.3597C53.0402 25.0316 52.8416 24.505 52.7639 24.1942C52.6776 23.8748 52.6172 23.3136 52.6172 22.8992C52.6172 22.4935 52.6863 21.9151 52.7639 21.6043C52.8503 21.2935 53.0229 20.7669 53.1611 20.4388C53.2992 20.1108 53.6359 19.4719 53.9121 19.0403C54.1884 18.6 54.7496 17.823 55.1553 17.3136C55.5697 16.7957 56.2172 16.0446 56.6143 15.6216C57.0028 15.2072 57.3567 14.8705 57.3999 14.8705V14.8705Z" fill="white"/>
<path d="M50.2775 9C50.3465 9 50.3983 9.04317 50.3983 9.08633C50.3983 9.1295 50.2343 9.49209 50.0444 9.88921C49.8458 10.2777 49.4832 11.0978 49.2329 11.7194C48.9825 12.341 48.6631 13.2734 48.5163 13.7914C48.3696 14.3093 48.1796 15.0863 48.0933 15.518C47.9811 16.0964 47.9465 16.7266 47.9379 17.9784C47.9379 19.2734 47.9724 19.8431 48.1019 20.4388C48.1883 20.8619 48.3955 21.6388 48.5681 22.1654C48.7321 22.6921 49.1293 23.6158 49.4401 24.2374C49.7595 24.859 50.312 25.8086 50.6746 26.3525C51.0372 26.8964 51.6674 27.751 52.0645 28.2518C52.4703 28.7525 53.1523 29.564 53.5926 30.0647C54.0329 30.5654 54.6458 31.2388 54.9652 31.5669C55.276 31.8949 56.5796 33.164 57.8573 34.3726C59.135 35.5899 60.7235 37.1697 61.3882 37.8776C62.053 38.5942 62.9077 39.5438 63.2789 39.9928C63.6587 40.4417 64.3062 41.2618 64.7206 41.8057C65.135 42.3496 65.7479 43.2043 66.0846 43.705C66.4127 44.2057 66.8875 44.9654 67.1465 45.3884C67.3969 45.8114 67.8285 46.623 68.1048 47.1841C68.3897 47.7366 68.7609 48.5568 68.9508 48.9884C69.1321 49.4287 69.4256 50.2402 69.5983 50.7841C69.7796 51.328 70.0127 52.1654 70.1335 52.6402C70.2458 53.115 70.4098 53.9352 70.4875 54.4532C70.5997 55.1697 70.6429 55.9294 70.6429 57.5611C70.6429 59.2273 70.6084 59.9438 70.4789 60.7121C70.3925 61.256 70.194 62.2143 70.0386 62.8272C69.8832 63.4402 69.6069 64.3553 69.4256 64.856C69.2443 65.3567 68.8127 66.3236 68.476 67.0143C68.1307 67.7049 67.5523 68.715 67.1897 69.2589C66.8271 69.8028 66.2055 70.6402 65.8084 71.115C65.4199 71.5898 64.7292 72.3323 64.289 72.7639C63.84 73.1869 63.1839 73.774 62.83 74.0589C62.476 74.3438 61.8717 74.8013 61.4918 75.0603C61.112 75.3279 60.3695 75.7855 59.8516 76.0877C59.3249 76.3812 58.5307 76.7956 58.0818 76.9941C57.6329 77.1927 56.8559 77.4948 56.3552 77.6675C55.8544 77.8488 55.0775 78.0819 54.6285 78.1941C54.1796 78.3064 53.3422 78.4876 52.7724 78.5912C52.0127 78.7207 51.2357 78.7898 49.8803 78.8157C48.4559 78.8502 47.7566 78.8243 46.8588 78.7207C46.2199 78.643 45.2617 78.479 44.7437 78.3582C44.217 78.2459 43.5609 78.0733 42.7581 77.8229L42.594 77.279C42.4645 76.8474 42.43 76.4416 42.4214 75.3884C42.4127 74.2315 42.4386 73.9553 42.6113 73.3596C42.7235 72.9797 42.948 72.3754 43.112 72.0215C43.276 71.6675 43.6645 71.0028 43.9667 70.5539C44.2688 70.1049 44.7696 69.4229 45.089 69.0431C45.3998 68.6632 46.4271 67.5323 47.3681 66.5395C48.3091 65.5467 49.3192 64.4589 49.6127 64.1222C49.9149 63.7855 50.4329 63.1467 50.7782 62.6977C51.1235 62.2488 51.6156 61.5064 51.8832 61.0575C52.1508 60.6085 52.5048 59.9093 52.6688 59.5035C52.8415 59.0978 53.0746 58.4244 53.2041 57.9927C53.3249 57.5611 53.5062 56.7755 53.6012 56.2402C53.7134 55.5841 53.7652 54.8762 53.7652 54.0215C53.7652 53.3222 53.7048 52.3381 53.6271 51.7942C53.5494 51.2676 53.3508 50.3438 53.1868 49.7481C53.0314 49.1524 52.7206 48.2201 52.5048 47.6762C52.289 47.1323 51.8055 46.0791 51.4429 45.3453C51.0717 44.6114 50.4156 43.4028 49.9667 42.669C49.5264 41.9352 48.6286 40.5366 47.9724 39.5611C47.325 38.5856 46.3149 37.1093 45.7365 36.2805C45.1581 35.4518 44.476 34.364 44.2257 33.8633C43.9753 33.3625 43.6559 32.6028 43.5091 32.1798C43.3624 31.7568 43.1638 31.0316 43.0689 30.5827C42.9739 30.1338 42.853 29.4086 42.8012 28.9856C42.7581 28.5626 42.7149 27.7079 42.7149 27.0863C42.7149 26.4647 42.7753 25.4805 42.8444 24.8849C42.9135 24.2892 43.0689 23.3223 43.1983 22.7266C43.3192 22.1309 43.5523 21.1985 43.7163 20.6547C43.8717 20.1108 44.1739 19.2129 44.3811 18.669C44.5883 18.1252 44.8904 17.3827 45.0458 17.0288C45.2012 16.6748 45.5206 15.9928 45.7537 15.518C45.9955 15.0432 46.5393 14.059 46.971 13.3252C47.4113 12.6 48.0933 11.564 48.4904 11.0374C48.8875 10.5108 49.4228 9.83741 49.6818 9.53525C49.9494 9.24173 50.217 9 50.2775 9V9Z" fill="#E03597"/>
</svg>
