<svg width="100" height="100" viewBox="0 0 100 100" fill="none" xmlns="http://www.w3.org/2000/svg">
<g clip-path="url(#clip0_465_50)">
<rect width="100" height="100" fill="white"/>
<rect width="100" height="100" fill="black"/>
<path d="M82 41.2825V47.744H19V41.2825H82ZM64.1427 19H75.0685V58.2979C75.0685 62.6056 74.0504 66.3944 72.014 69.6643C69.9776 72.9342 67.1287 75.4895 63.4671 77.3301C59.8056 79.151 55.5273 80.0615 50.6322 80.0615C45.7371 80.0615 41.4587 79.151 37.7972 77.3301C34.1357 75.4895 31.2867 72.9342 29.2504 69.6643C27.2336 66.3944 26.2252 62.6056 26.2252 58.2979V19H37.1217V57.3874C37.1217 59.8937 37.6699 62.1259 38.7664 64.0839C39.8825 66.0419 41.449 67.579 43.4657 68.6951C45.5021 69.7916 47.8909 70.3398 50.6322 70.3398C53.393 70.3398 55.7818 69.7916 57.7986 68.6951C59.835 67.579 61.4014 66.0419 62.4979 64.0839C63.5944 62.1259 64.1427 59.8937 64.1427 57.3874V19Z" fill="white"/>
</g>
<defs>
<clipPath id="clip0_465_50">
<rect width="100" height="100" fill="white"/>
</clipPath>
</defs>
</svg>
