<svg width="24" height="24" viewBox="0 0 24 24" fill="none" xmlns="http://www.w3.org/2000/svg">
    <path fill-rule="evenodd" clip-rule="evenodd"
          d="M21.0251 5.65351C21.6035 6.01702 21.9728 6.64126 22 7.32324V16.6541C21.9744 17.2663 21.6898 17.8316 21.2061 18.2064L12.7781 23.0871C12.5376 23.1813 12.2834 23.2291 12.0228 23.2291C11.7385 23.2291 11.423 23.1672 11.2038 23.0607C11.176 23.0472 11.0972 23.0039 10.9817 22.9391C10.9071 22.8971 10.8162 22.8457 10.7142 22.7877L7.629 21.0114L15.6895 7.34014L12.4284 7.35202L5.05047 19.5269L4.19108 19.0321L11.4817 7.34014L10.2444 7.30753C9.19005 7.29247 8.05433 7.56673 7.53317 8.41755L2 16.9745V7.3191C2.03247 6.6874 2.34721 6.11236 2.86353 5.74221C2.96149 5.67203 3.06567 5.61027 3.17385 5.55845C3.17385 5.55845 10.9901 1.02524 11.0578 0.991115C11.6311 0.702764 12.3458 0.703178 12.918 0.991253L21.0251 5.65351ZM18.8207 18.0026L20.372 17.1037C20.5241 16.9802 20.6015 16.7988 20.6112 16.6031V15.1682L16.1792 8.26529L14.5301 11.0634L18.8207 18.0026ZM18.0203 18.4665L13.9528 12.0552L12.062 15.2637L15.159 20.1247L18.0203 18.4665Z"
          fill="black"/>
</svg>