<svg width="24" height="24" viewBox="0 0 24 24" fill="none" xmlns="http://www.w3.org/2000/svg">
<path fill-rule="evenodd" clip-rule="evenodd" d="M12 23C18.0751 23 23 18.0751 23 12C23 5.92487 18.0751 1 12 1C5.92487 1 1 5.92487 1 12C1 18.0751 5.92487 23 12 23ZM7.18394 14.4613C7.60225 14.7695 8.13889 14.9236 8.79387 14.9236C9.58646 14.9236 10.2194 14.7392 10.6928 14.3705C11.1661 13.9962 11.4991 13.432 11.6918 12.678C11.8073 12.2156 11.9064 11.7395 11.989 11.2497C12.0165 11.0735 12.0303 10.9277 12.0303 10.8121C12.0303 10.4268 11.9339 10.0966 11.7413 9.82136C11.5486 9.54066 11.2845 9.3315 10.9487 9.1939C10.613 9.0508 10.2332 8.97924 9.80937 8.97924C8.25173 8.97924 7.28577 9.73605 6.91149 11.2497C6.77939 11.8056 6.67757 12.2817 6.60602 12.678C6.5785 12.8541 6.56473 13.0027 6.56473 13.1238C6.56473 13.7017 6.77114 14.1475 7.18394 14.4613ZM9.69379 13.4623C9.47913 13.6439 9.21769 13.7347 8.90946 13.7347C8.38107 13.7347 8.11688 13.4816 8.11688 12.9752C8.11688 12.8541 8.12788 12.7385 8.1499 12.6284C8.24897 12.0945 8.34805 11.6432 8.44712 11.2744C8.54069 10.9002 8.6948 10.6222 8.90946 10.4406C9.12962 10.2589 9.39382 10.1681 9.70204 10.1681C10.2249 10.1681 10.4864 10.4186 10.4864 10.9194C10.4864 11.0405 10.4754 11.1588 10.4533 11.2744C10.3873 11.6597 10.291 12.111 10.1644 12.6284C10.0708 13.0027 9.91395 13.2807 9.69379 13.4623ZM12.269 14.7833C12.302 14.8218 12.3488 14.8411 12.4093 14.8411H13.5321C13.5872 14.8411 13.6395 14.8218 13.689 14.7833C13.7386 14.7447 13.7688 14.6952 13.7798 14.6347L14.1596 12.8266H15.2742C15.9952 12.8266 16.5621 12.6752 16.9749 12.3725C17.3932 12.0698 17.6712 11.6019 17.8088 10.969C17.8418 10.8203 17.8583 10.6772 17.8583 10.5396C17.8583 10.0608 17.6712 9.69477 17.2969 9.44158C16.9281 9.1884 16.4383 9.0618 15.8273 9.0618H13.6312C13.5762 9.0618 13.5239 9.08107 13.4744 9.1196C13.4248 9.15812 13.3945 9.20766 13.3835 9.26821L12.2442 14.6347C12.2332 14.6897 12.2414 14.7392 12.269 14.7833ZM15.9347 11.4973C15.764 11.6239 15.5631 11.6872 15.332 11.6872H14.3825L14.6963 10.2094H15.687C15.9127 10.2094 16.0723 10.2534 16.1658 10.3415C16.2594 10.4241 16.3062 10.5451 16.3062 10.7048C16.3062 10.7763 16.2979 10.8589 16.2814 10.9524C16.2264 11.1891 16.1108 11.3708 15.9347 11.4973Z" fill="white"/>
</svg>