<svg width="100" height="100" viewBox="0 0 100 100" fill="none" xmlns="http://www.w3.org/2000/svg">
<rect width="100" height="100" fill="black"/>
<path d="M100 0H0V100H100V0Z" fill="#26272B"/>
<path fill-rule="evenodd" clip-rule="evenodd" d="M42.6814 32.2921C40.1298 30.5171 37.0791 29.6296 33.5291 29.6296C29.979 29.6296 26.9283 30.5171 24.3767 32.2921C21.8251 34.0302 19.9022 36.4338 18.6079 39.5031C17.3136 42.5724 16.6665 46.0854 16.6665 50.0422C16.6665 53.999 17.3136 57.512 18.6079 60.5813C19.9022 63.6506 21.8251 66.0727 24.3767 67.8477C26.9283 69.5857 29.979 70.4547 33.5291 70.4547C37.0791 70.4547 40.1298 69.5857 42.6814 67.8477C45.233 66.0727 47.1559 63.6506 48.4502 60.5813C49.7445 57.512 50.3916 53.999 50.3916 50.0422C50.3916 46.0854 49.7445 42.5724 48.4502 39.5031C47.1559 36.4338 45.233 34.0302 42.6814 32.2921ZM38.334 39.1281C37.0944 37.825 35.4927 37.1734 33.5291 37.1734C30.9035 37.1734 28.9067 38.3382 27.5384 40.668C26.2072 42.9977 25.5415 46.1224 25.5415 50.0422C25.5415 52.503 25.8038 54.6504 26.3284 56.4845L38.334 39.1281ZM28.6888 60.9519C29.9497 62.258 31.5632 62.911 33.5291 62.911C36.1546 62.911 38.133 61.7461 39.4643 59.4165C40.8324 57.0868 41.5166 53.962 41.5166 50.0422C41.5166 47.574 41.2453 45.421 40.7028 43.5832L28.6888 60.9519Z" fill="#FCFCFC"/>
<path d="M60.9238 54.2579L50.4956 69.5673H60.48L65.3613 60.9141C65.7311 60.3224 65.9529 59.5459 66.0269 58.5845C66.0638 58.2147 66.1378 57.9373 66.2488 57.7524C66.3597 57.5305 66.5815 57.4196 66.9144 57.4196C67.4321 57.4196 67.7279 57.7524 67.8019 58.4181V58.5845C67.8759 59.5459 68.0977 60.3224 68.4675 60.9141L73.3488 69.5673H83.3332L72.905 54.2579L82.4457 40.2797H72.4613L68.4675 47.5461C68.0238 48.3227 67.8019 49.0993 67.8019 49.8759C67.8019 50.2086 67.7279 50.486 67.5801 50.7079C67.469 50.9298 67.2472 51.0407 66.9144 51.0407C66.5815 51.0407 66.3413 50.9298 66.1933 50.7079C66.0824 50.486 66.0269 50.2086 66.0269 49.8759C66.0269 49.0993 65.8051 48.3227 65.3613 47.5461L61.3675 40.2797H51.3831L60.9238 54.2579Z" fill="#FCFCFC"/>
</svg>