<svg width="100" height="100" viewBox="0 0 100 100" fill="none" xmlns="http://www.w3.org/2000/svg">
    <g clip-path="url(#clip0_430_25)">
        <rect width="100" height="100" fill="#1B314F"/>
        <path d="M46.3183 12.1206C46.0179 11.5091 45.4219 11.0971 44.7437 11.0319L44.7336 11.0309L44.7197 11.0297L44.7008 11.0281L44.6809 11.0265C44.65 11.0241 44.6096 11.0211 44.56 11.0182C44.4609 11.0122 44.3249 11.0059 44.1564 11.0025C43.8198 10.9957 43.3502 11.0005 42.7816 11.0436C41.6492 11.1293 40.096 11.3687 38.4087 11.9893C36.007 12.8728 33.3848 14.5157 31.3453 17.4577C31.3143 17.3448 31.286 17.241 31.2608 17.1478C31.216 16.9813 31.181 16.849 31.1575 16.759C31.1457 16.7141 31.1368 16.6798 31.131 16.6572L31.1246 16.6322L31.1229 16.6255C30.9542 15.9639 30.4538 15.4372 29.8017 15.235C29.1495 15.0327 28.439 15.1837 27.9255 15.6338L27.8857 15.6693C27.8675 15.6858 27.8445 15.707 27.8171 15.7328C27.762 15.7845 27.6892 15.8548 27.6018 15.9435C27.4272 16.1207 27.1931 16.3724 26.9267 16.6958C26.3958 17.3406 25.7252 18.2839 25.1438 19.5032C24.3128 21.2456 23.675 23.5342 23.8653 26.2619C21.7049 25.4825 19.4669 24.6829 17.5363 23.9988C16.0683 23.4785 14.7753 23.0239 13.8274 22.6949C13.3542 22.5305 12.9629 22.396 12.6775 22.3C12.5356 22.2521 12.4135 22.2117 12.3181 22.1811L12.3084 22.178C12.2568 22.1612 12.0935 22.1084 11.9495 22.0796C11.9138 22.0726 11.878 22.0663 11.8421 22.0612C11.31 21.9853 10.777 22.0376 10.2926 22.2578C10.0575 22.3647 9.86133 22.4991 9.70216 22.6414C9.62345 22.7119 9.55551 22.7827 9.49725 22.851C9.46814 22.885 9.44146 22.9185 9.41706 22.9509C9.40486 22.9671 9.39322 22.983 9.38213 22.9988L9.36589 23.022L9.35807 23.0335L9.35423 23.0392L9.35233 23.0421L9.34815 23.0483L9.34585 23.0518L9.34125 23.0588L9.33201 23.073L9.31338 23.1026C9.30092 23.1227 9.28837 23.1439 9.27581 23.166C9.25071 23.2101 9.2255 23.2583 9.20105 23.3106C9.15214 23.415 9.10594 23.5364 9.07013 23.6737C8.99656 23.9557 8.97381 24.2792 9.0362 24.6223C9.16209 25.3148 9.57702 25.8183 9.98497 26.1582L9.99861 26.1695C10.6881 26.7337 21.8295 34.9621 26.2138 38.0075C25.8525 39.7627 25.8956 41.1973 26.7541 42.6565L26.7581 42.6635L26.7692 42.6819C27.1568 43.3187 27.2842 43.6743 27.3337 43.9009C27.3794 44.1098 27.3872 44.3296 27.334 44.7821C27.2706 45.3214 26.9492 47.9567 26.6115 50.6024C26.2684 53.2901 25.9326 55.7856 25.8247 56.2949L25.8243 56.2963C25.8204 56.3078 25.8064 56.3494 25.7742 56.428C25.7254 56.5465 25.655 56.7014 25.5604 56.8956C25.3697 57.2873 25.1224 57.7555 24.8405 58.2885L24.8235 58.3205L24.8205 58.3262C24.4235 59.0771 23.9629 59.9481 23.6122 60.7294C23.4335 61.1273 23.262 61.548 23.1387 61.9511C23.0315 62.3014 22.8875 62.8619 22.9497 63.4526C23.0434 64.3426 23.5779 66.1577 24.2183 67.7381C24.5502 68.557 24.9511 69.4159 25.4014 70.1389C25.6267 70.5006 25.8903 70.8704 26.1943 71.195C26.4834 71.5037 26.9071 71.8778 27.4733 72.0994C27.4939 72.1074 27.5146 72.1151 27.5354 72.1225C28.1303 72.3324 29.1419 72.6581 30.2533 72.9338C31.3337 73.2018 32.6483 73.4587 33.7949 73.4587C34.2363 73.4587 34.7081 73.4157 35.1571 73.3034C35.5443 73.2066 36.123 73.008 36.6063 72.5543C36.8589 72.3319 37.0408 72.1773 37.1848 72.0642C37.2906 71.9813 37.3561 71.9367 37.3927 71.9136C37.4107 71.9129 37.4354 71.9122 37.4677 71.9122H37.6611C37.7103 71.9122 37.7844 71.9171 37.9798 71.9336L37.9881 71.9342L37.999 71.9351C38.1984 71.9519 38.4933 71.9766 38.8209 71.9766C40.0042 71.9766 41.9899 71.7733 43.5116 70.3531C43.5281 70.3376 43.5443 70.322 43.5602 70.306C44.1711 69.6952 45.0119 68.9604 45.871 68.211L45.9873 68.1095C46.8405 67.3656 47.7982 66.5305 48.3021 65.9427C48.3192 65.9226 48.336 65.9022 48.3524 65.8815C49.6256 64.2688 50.3156 62.0658 49.9815 59.8257C49.904 59.1372 50.2476 58.3767 51.2276 57.0016C51.8331 56.2052 52.6885 55.0965 53.3982 54.1794L53.4239 54.1461C56.5328 57.0929 58.3789 61.0853 58.3789 65.4379C58.3789 74.2684 50.6371 81.6451 40.754 81.6451C39.2344 81.6451 37.7772 81.4703 36.3152 81.1195C35.2983 80.8754 34.2685 81.4711 33.9731 82.4743C33.6777 83.4774 34.2202 84.5362 35.2071 84.8821C40.3705 86.6927 44.7783 87.3125 48.422 87.3125C50.5871 87.3125 52.48 87.0932 54.0893 86.7732C54.1112 86.9015 54.146 87.029 54.1943 87.1536C54.4872 87.9097 55.2147 88.408 56.0254 88.408H56.0899C56.1804 88.408 56.2707 88.4017 56.3604 88.3892C62.8822 87.4825 67.7104 84.3442 70.883 81.4726C70.9996 81.3671 71.114 81.2619 71.2262 81.157C71.3743 81.4448 71.5942 81.6978 71.8752 81.8871C72.569 82.3543 73.4827 82.3309 74.1515 81.8285C85.3086 73.4494 87.9004 63.6208 88.341 57.676C88.6792 57.7618 89.0415 57.7578 89.3904 57.6526C90.153 57.4228 90.7012 56.755 90.7781 55.9622C92.1283 42.0552 87.0954 32.734 81.6557 26.9168C80.1549 25.3118 78.6288 23.9787 77.2068 22.8897C77.5884 22.6793 77.8996 22.3424 78.0744 21.9178C78.4089 21.1053 78.1631 20.1695 77.4723 19.6264C69.5761 13.4174 61.9929 11.5384 55.7677 11.5384C52.1122 11.5384 48.9606 12.1825 46.5189 12.9389C46.5122 12.6591 46.4457 12.3798 46.3183 12.1206Z"
              fill="white"/>
        <path d="M29.5122 53.4867L31.5771 37.9227L13.6377 25.4586L30.0284 31.0125L33.9002 25.0711L48.0323 16.288L79.2005 33.4665L80.8136 59.6865L66.9396 78.9961L55.9696 80.6752L61.6482 70.2777V60.2676L57.5183 52.4534L53.3239 49.6764L46.8708 56.3282V63.3674L41.8375 68.0819L35.449 68.8569L32.6096 70.4714L27.9635 68.9861L26.0275 62.0113L29.5122 57.1032V53.4867Z"
              fill="white"/>
        <path d="M58.1637 25.3292C54.7435 24.6189 51.0007 24.8125 51.0007 24.8125C51.0007 24.8125 49.7747 30.4957 42.1602 31.981C42.2246 31.981 52.2269 35.4039 58.1637 25.3292Z"
              fill="#94A6C3"/>
        <path d="M61.2608 76.8649C65.3908 73.6358 68.4882 69.1797 69.9079 64.1425C69.9725 63.9487 70.5533 63.6258 70.9404 63.3674C71.5856 62.98 72.231 62.6571 72.3601 62.1405C72.6182 60.655 72.7472 59.1051 72.7472 57.5551C72.7472 56.974 72.1664 56.3928 71.5856 55.8115C71.1341 55.4241 70.6823 54.9719 70.6823 54.649C70.0369 48.7721 67.3268 43.2828 63.0032 39.2788L62.5514 39.7309C66.746 43.6702 69.4563 49.0305 70.0369 54.7136C70.1015 55.2303 70.6177 55.7469 71.1341 56.2636C71.5856 56.651 72.102 57.2323 72.102 57.4907C72.102 58.976 71.9729 60.4613 71.7148 61.9467C71.6502 62.2049 71.0695 62.4633 70.6177 62.7216C69.9725 63.0446 69.3917 63.3674 69.2626 63.8841C67.7139 69.3735 64.1648 74.1524 59.454 77.2523C60.2929 75.4441 62.9387 69.5672 64.3584 66.5965L64.1002 57.0385L55.9048 49.0951L51.2587 49.741L46.1608 58.0073C46.1608 58.0073 48.5484 61.0426 45.1929 64.5945C41.9018 68.0819 39.3205 68.8569 39.3205 68.8569L36.9329 67.5652C37.6428 66.6611 39.0624 65.3048 40.1594 64.4007C42.0308 62.8508 43.9022 62.7216 43.9022 61.0426C43.9668 57.5551 40.224 58.524 40.224 58.524L38.8689 59.8155L38.2882 64.5945L35.4488 68.1465L35.1261 68.0819L30.48 67.0486C30.48 67.0486 33.3193 65.5632 33.7711 63.8841C34.2226 62.2695 32.8676 56.9094 32.803 56.5864C32.8676 56.651 34.1582 57.7489 34.739 59.5573C35.7714 56.7156 37.1266 54.0032 37.5137 53.7449C37.9009 53.4865 43.1278 50.7097 43.1278 50.7097L41.3856 55.2949L42.6762 54.5844L45.7737 46.9639C45.7737 46.9639 48.8065 45.4786 51.065 45.4786C55.1305 45.414 61.1318 40.4413 58.4215 31.5291C59.1959 31.852 72.6182 38.5684 74.9413 51.7429C76.6835 61.8821 70.9404 71.3755 61.2608 76.8649Z"
              fill="#94A6C3"/>
        <path d="M45.903 26.7501C47.3871 25.0065 46.8063 22.4232 46.8063 22.4232L42.4828 28.8167C42.4182 28.8167 44.0315 28.8813 45.903 26.7501Z"
              fill="#0A192B"/>
        <path d="M31.3837 61.6886L31.8999 59.1054C31.8999 59.1054 29.7704 62.8509 29.5769 63.3676C29.3833 63.9488 29.706 64.9821 30.5449 64.9175C31.3837 64.8529 32.4163 63.626 32.4163 62.7219C32.4163 61.5594 31.3837 61.6886 31.3837 61.6886Z"
              fill="#0A192B"/>
        <path d="M69.7147 20.615C69.7147 20.615 72.9411 20.7442 76.2968 21.1317C68.7467 15.1902 61.5839 13.4465 55.7762 13.4465C47.7744 13.4465 42.3538 16.7402 42.0313 16.9339L44.5479 12.9299C44.5479 12.9299 34.4812 11.9612 30.932 22.617C30.0285 20.3567 29.1896 17.0631 29.1896 17.0631C29.1896 17.0631 23.9627 21.6483 26.4149 29.2689C20.4136 27.0731 11.8311 24.0378 11.5084 23.9732C11.0567 23.9086 10.9276 24.1024 10.9276 24.1024C10.9276 24.1024 10.7986 24.2962 11.1858 24.6191C11.8956 25.2003 25.447 35.2102 28.4153 37.1478C27.77 39.4726 27.77 40.5705 28.4153 41.6684C29.3187 43.1538 29.3833 43.9286 29.2542 45.0265C29.1252 46.1244 27.9636 55.6179 27.7055 56.7804C27.4474 57.9427 24.7371 62.0759 24.8662 63.303C24.9952 64.5301 26.673 69.761 28.1573 70.3422C29.2542 70.7298 31.9645 71.5693 33.7713 71.5693C34.4166 71.5693 34.9974 71.4401 35.2556 71.1819C36.3526 70.2132 36.6751 70.0194 37.4495 70.0194C37.5141 70.0194 37.5786 70.0194 37.6432 70.0194C37.9657 70.0194 38.353 70.084 38.8046 70.084C39.8371 70.084 41.1924 69.8902 42.1603 68.9861C43.58 67.5654 46.032 65.6278 46.8064 64.7237C47.7744 63.4968 48.2906 61.8176 48.0325 60.1385C47.839 58.5886 48.6779 57.2324 49.6458 55.8761C50.8718 54.2616 53.1304 51.3555 53.1304 51.3555C57.583 54.7138 60.3578 59.8157 60.3578 65.4988C60.3578 75.5733 51.5816 83.7105 40.7406 83.7105C39.0629 83.7105 37.4495 83.5168 35.8362 83.1294C40.8051 84.873 44.9996 85.4542 48.4198 85.4542C55.7116 85.4542 59.5835 82.8064 59.5835 82.8064C59.5835 82.8064 58.2283 84.5501 56.0343 86.5521C56.0987 86.5521 56.0987 86.5521 56.0987 86.5521C68.1659 84.873 74.0383 74.9275 74.0383 74.9275C74.0383 74.9275 73.5865 78.1565 73.0057 80.3523C89.0737 68.2757 86.3635 53.1638 86.2989 52.6472C86.428 52.8408 88.0413 54.7782 88.8802 55.8115C91.4613 29.2043 69.7147 20.615 69.7147 20.615ZM44.9996 63.1092C44.7415 63.4322 43.6444 64.4009 42.8701 65.1112C42.0957 65.8216 41.2568 66.5321 40.6116 67.1778C40.3535 67.4362 39.8371 67.5654 39.0629 67.5654C38.8046 67.5654 38.5465 67.5654 38.353 67.5654C38.224 67.5654 38.0948 67.5654 37.9657 67.5654C37.8367 67.5654 37.7722 67.5654 37.7076 67.5654C37.5141 67.5654 37.3205 67.5654 37.1269 67.5654C38.0948 66.2737 40.9341 63.303 41.9022 62.6571C43.0636 61.8822 43.6444 61.1072 42.9346 59.7511C42.2247 58.3948 40.3535 58.7178 40.3535 58.7178C40.3535 58.7178 41.4505 58.2657 42.4184 58.2657C41.1924 57.9427 39.6437 58.2657 38.9338 58.976C38.1594 59.6865 38.2884 62.2051 37.9657 63.8196C37.6432 65.4988 36.5461 66.3383 34.8683 67.8882C33.965 68.7277 33.3196 68.9861 32.8034 68.9861C31.7064 68.7923 30.4158 68.4695 29.5123 68.1466C28.8671 67.307 27.899 64.5301 27.6409 63.3676C27.8346 62.7217 28.6088 61.3656 28.9961 60.5905C29.7704 59.1052 30.2222 58.2657 30.3512 57.4907C30.6093 56.3928 31.4482 49.6118 31.7709 46.7703C32.6098 47.8682 33.7713 49.6764 33.5132 50.8389C35.3846 48.191 34.0294 45.6078 33.3842 44.5745C32.8034 43.5412 32.029 41.4746 32.6744 39.2788C33.3196 37.0832 35.6427 31.0125 35.6427 31.0125C35.6427 31.0125 36.417 32.3688 37.5141 32.1104C38.6111 31.8521 47.4517 18.5484 47.4517 18.5484C47.4517 18.5484 49.8394 23.7794 47.3226 27.5897C44.7415 31.4001 42.2247 32.1104 42.2247 32.1104C42.2247 32.1104 45.7739 32.7562 49.065 30.3668C50.4201 33.5313 51.7107 36.8248 51.7753 37.2768C51.5816 37.7289 49.0004 43.9286 48.7423 44.3162C48.6133 44.4453 47.7099 44.7037 47.0645 44.8329C45.9676 45.1557 45.3222 45.3495 45.0641 45.5432C44.6123 45.9308 42.5474 51.6139 41.5795 54.3908C40.4179 54.7138 39.2564 55.3595 38.4175 56.6512C38.8692 56.3282 40.2889 56.1345 41.3214 56.0053C42.2247 55.9407 44.9996 57.4261 45.7095 60.2031C45.7095 60.2677 45.7095 60.2677 45.7095 60.3323C45.8385 61.3656 45.5158 62.3343 44.9996 63.1092ZM38.9338 63.8842C39.5145 63.0446 39.45 61.6238 39.5145 61.1718C39.5791 60.7197 39.7081 59.8803 40.2243 59.7511C40.7406 59.6219 41.9667 59.8157 41.9667 60.7197C41.9667 61.5592 41.0633 61.753 40.4179 62.3343C39.9662 62.7863 39.0629 63.755 38.9338 63.8842ZM64.6814 51.5493C65.3266 48.2556 65.3912 45.4141 65.1975 43.0892C67.7142 46.4474 69.2629 50.516 69.7147 54.7138C69.7793 55.2304 70.2954 55.7471 70.8116 56.2637C71.2634 56.6512 71.7797 57.1678 71.7797 57.4907C71.7797 58.976 71.6505 60.4614 71.3924 61.9468C71.328 62.1405 70.7472 62.4635 70.2954 62.7217C69.6502 63.0446 69.0694 63.3676 68.9404 63.8842C67.5207 68.8569 64.4877 73.2485 60.4224 76.3484C66.4236 70.084 69.3275 59.7511 64.6814 51.5493ZM60.6158 76.9296C64.8104 73.7005 68.0369 69.1799 69.4566 64.0779C69.521 63.8842 70.1018 63.5612 70.4891 63.303C71.1343 62.9801 71.7797 62.5925 71.9088 62.0759C72.1668 60.5906 72.2959 59.0406 72.2959 57.4907C72.2959 56.9094 71.7151 56.3282 71.1343 55.7471C70.8116 55.3595 70.2954 54.9074 70.2954 54.5846C69.7792 49.8702 67.9078 45.4141 65.0039 41.733C63.7134 33.9833 58.5509 31.5937 58.4219 31.5291C58.5509 31.7229 61.9065 36.5665 59.5835 42.2497C57.1959 47.9974 51.0655 47.0931 50.5493 47.1577C50.0329 47.1577 48.0325 49.741 45.5158 54.52C45.1931 54.3908 43.8381 54.0679 42.2893 54.3262C43.4509 51.0973 45.1931 46.5119 45.5158 46.1244C45.6449 45.9952 46.6128 45.737 47.2582 45.5432C48.4842 45.2203 49.065 45.0265 49.2586 44.7683C49.3877 44.5745 50.0329 43.0892 50.6783 41.5392C51.259 41.5392 52.7432 41.41 52.8723 41.3454C53.0013 41.2164 54.2273 38.0519 54.2273 37.6644C54.2273 37.3414 51.7107 31.0771 50.7428 28.6876C51.1945 28.171 51.6462 27.5251 52.098 26.8148C65.3266 28.2356 75.6514 39.4726 75.6514 53.0992C75.6514 63.5612 69.521 72.6672 60.6158 76.9296Z"
              fill="#0A192B"/>
        <path d="M43.4507 42.0559C44.6768 40.6351 44.0315 37.9873 41.773 37.5352C42.3536 36.1789 43.1926 33.4667 43.1926 33.4667C43.1926 33.4667 36.6105 43.7996 36.0297 43.9932C35.4489 44.187 34.8681 41.9267 34.8681 41.9267C33.6421 46.6411 36.9332 47.2869 37.3203 45.8016C39.1271 45.3495 42.2246 43.412 43.4507 42.0559Z"
              fill="#0A192B"/>
        <path d="M37.8369 44.5747L41.1924 38.8271C41.1924 38.8271 43.1283 39.7958 42.1604 41.3457C40.9343 43.1539 37.8369 44.5747 37.8369 44.5747Z"
              fill="#FFD923"/>
        <path d="M79.3293 71.1819C78.3614 72.4736 77.2643 73.8297 75.9736 75.1214C84.2982 59.1054 76.3609 44.4454 76.0382 43.8642C76.619 44.4454 77.1998 45.0913 77.716 45.6724C84.1045 52.7764 84.8789 63.4322 79.3293 71.1819Z"
              fill="#D82122"/>
        <path d="M87.0733 50.5806C84.1695 42.7663 80.0396 36.1145 70.9407 30.1084C62.1646 24.2962 52.7433 24.7483 52.2269 24.8129C52.1625 24.8129 52.0979 24.8129 52.0979 24.8129C52.4206 24.6837 52.7433 24.6191 53.0658 24.5545C55.0663 23.9086 57.6475 23.392 60.2288 23.0691C67.0689 22.1004 73.9737 24.4253 78.6843 29.3981C78.7489 29.4627 78.7489 29.4627 78.8134 29.5273C84.1695 35.2104 86.9442 42.3143 87.0733 50.5806Z"
              fill="#D82122"/>
        <path d="M68.8758 18.6132C59.2608 16.805 53.0658 17.7091 48.6133 19.3882C48.4843 18.8716 48.0325 17.8383 47.6454 16.9987C46.2901 18.6132 44.8705 20.5507 43.9671 21.7777C41.5149 23.4568 40.4824 25.0713 40.4824 25.0713C41.9021 20.2278 46.0321 16.6112 51.0653 15.7071C52.485 15.4488 54.0337 15.3196 55.7116 15.3196C60.1641 15.3842 64.6168 16.4821 68.8758 18.6132Z"
              fill="#D82122"/>
        <path d="M33.3195 31.0128C25.7694 30.7544 28.286 21.9714 28.4152 21.4548C28.4152 21.5194 28.9314 28.3649 33.3195 31.0128Z"
              fill="#D82122"/>
        <path d="M40.7404 15.1903C34.9327 18.6777 36.0943 27.0086 36.0943 27.0086C30.5446 18.5485 40.2888 15.3841 40.7404 15.1903Z"
              fill="#D82122"/>
        <path d="M31.1898 33.3375C31.577 33.6605 31.9641 34.2415 31.5125 35.0812C31.2543 35.5332 30.8672 35.4686 30.2864 35.2104C29.5121 34.8228 24.8658 32.1105 20.6714 29.3335C25.4466 31.0126 30.2864 32.8208 31.0608 33.2083C31.0608 33.2083 31.1252 33.2729 31.1898 33.3375Z"
              fill="white"/>
    </g>
    <defs>
        <clipPath id="clip0_430_25">
            <rect width="100" height="100" fill="white"/>
        </clipPath>
    </defs>
</svg>
