<svg width="100" height="100" viewBox="0 0 100 100" fill="none" xmlns="http://www.w3.org/2000/svg">
    <g clip-path="url(#clip0_451_18)">
        <rect width="100" height="100" fill="url(#paint0_linear_451_18)"/>
        <path d="M72.8455 39.4809C72.6044 26.8197 62.1499 16.7631 49.4887 17.0042C37.1651 17.2334 27.2412 27.1694 27.0121 39.4809C27.0121 39.5412 27 39.6014 27 39.6497V39.9994V81.4436C27 82.8545 28.1455 83.9879 29.5443 83.9879C30.9431 83.9879 32.0886 82.8424 32.0886 81.4436V74.0399C32.0886 72.629 33.2341 71.4956 34.6329 71.4956C36.0316 71.4956 37.1772 72.6411 37.1772 74.0399V77.5488C37.2134 78.9596 38.3709 80.069 39.7818 80.0449C41.1443 80.0208 42.2417 78.9114 42.2778 77.5488V74.0399C42.2778 72.629 43.4234 71.4956 44.8221 71.4956C46.2329 71.4956 47.3664 72.6411 47.3664 74.0399V75.0045C47.3664 76.4153 48.512 77.5488 49.9107 77.5488C51.3215 77.5488 52.455 76.4033 52.455 75.0045V74.0399C52.4912 72.629 53.6488 71.5197 55.0596 71.5438C56.4222 71.5679 57.5195 72.6773 57.5557 74.0399V77.5488C57.5557 78.9596 58.7012 80.0931 60.0999 80.0931C61.4987 80.0931 62.6684 78.9717 62.6684 77.5609V74.0519C62.6684 72.6411 63.8139 71.5076 65.2127 71.5076C66.6235 71.5076 67.757 72.6532 67.757 74.0519V81.4557C67.757 82.8665 68.9025 84 70.3012 84C71.7 84 72.8455 82.8545 72.8455 81.4557V39.6617C72.8576 39.6014 72.8576 39.5412 72.8455 39.4809ZM41.4699 43.1586C39.215 43.1586 37.3942 41.0726 37.3942 38.48C37.3942 35.8875 39.2271 33.8014 41.4699 33.8014C43.7128 33.8014 45.5456 35.8875 45.5456 38.48C45.5456 41.0726 43.7248 43.1586 41.4699 43.1586ZM50.1036 49.7666C48.0537 49.7666 46.4018 48.5487 46.4018 47.0414C46.4018 45.5341 48.0658 46.4505 50.1036 46.4505C52.1415 46.4505 53.8055 45.5462 53.8055 47.0414C53.8055 48.5366 52.1536 49.7545 50.1036 49.7666ZM58.3877 43.1586C56.1328 43.1586 54.312 41.0726 54.312 38.48C54.312 35.8875 56.1328 33.8014 58.3877 33.8014C60.6426 33.8014 62.4634 35.8875 62.4634 38.48C62.4634 41.0726 60.6305 43.1586 58.3877 43.1586Z"
              fill="white"/>
    </g>
    <defs>
        <linearGradient id="paint0_linear_451_18" x1="-3.60537" y1="95.5848" x2="103.09" y2="22.5449"
                        gradientUnits="userSpaceOnUse">
            <stop stop-color="#30BAC6"/>
            <stop offset="1" stop-color="#B6509E"/>
        </linearGradient>
        <clipPath id="clip0_451_18">
            <rect width="100" height="100" fill="white"/>
        </clipPath>
    </defs>
</svg>
