<svg width="100" height="100" viewBox="0 0 100 100" fill="none" xmlns="http://www.w3.org/2000/svg">
<rect width="100" height="100" fill="#E4EFFF"/>
<path d="M83.8788 29.9846C81.7085 33.9977 78.1286 37.0564 73.836 38.5652C69.5257 40.0895 64.807 39.9656 60.582 38.217C62.7523 34.2039 66.3322 31.1453 70.6251 29.6365C74.9366 28.1138 79.6558 28.2421 83.8788 29.9968" fill="#39D86E"/>
<path d="M32.2588 57.2927C33.7115 61.2955 36.5266 64.6543 40.2067 66.7754C43.9037 68.9085 48.2262 69.6794 52.4287 68.9554C56.6313 68.231 60.4504 66.0573 63.2275 62.8087C65.9784 59.5748 67.4924 55.463 67.4981 51.2101V50.2295C67.3383 47.8857 66.2676 45.6985 64.5168 44.1397C62.7557 42.5696 60.4593 41.7423 58.1059 41.8301C55.7524 41.9178 53.5236 42.9137 51.8832 44.6104C50.2553 46.2967 49.3529 48.5579 49.3706 50.9062C49.3719 53.2626 48.4481 55.5246 46.7995 57.2019C45.1399 58.8887 42.8945 59.8648 40.5339 59.9256H40.0187C37.2228 59.8768 34.511 58.9567 32.2588 57.2927Z" fill="#C336D8"/>
<path d="M40.2788 57.5841C41.5919 57.5687 42.8712 57.1635 43.9555 56.4197C45.0399 55.676 45.8809 54.6267 46.3726 53.404C46.8643 52.1815 46.985 50.8401 46.7192 49.549C46.4534 48.2577 45.8131 47.0744 44.8788 46.1476C43.9448 45.2208 42.7584 44.5922 41.4693 44.3409C40.1801 44.0898 38.8457 44.2269 37.634 44.7353C36.4223 45.2437 35.3875 46.1007 34.6598 47.1983C33.9321 48.2958 33.544 49.5849 33.5444 50.9034C33.5495 51.7861 33.7278 52.6592 34.069 53.4726C34.4103 54.2862 34.9078 55.0242 35.5332 55.6445C36.1586 56.2649 36.8995 56.7556 37.7138 57.0884C38.5281 57.4211 39.3997 57.5896 40.2788 57.5841Z" fill="#C336D8"/>
<path d="M33.6658 78.1556C30.1155 76.1211 26.9991 73.4043 24.495 70.1602C21.9908 66.9161 20.1478 63.2084 19.0714 59.2487C18.0057 55.302 17.7315 51.1819 18.2646 47.128C18.7978 43.0738 20.1278 39.1664 22.1774 35.6326C23.0445 34.1499 24.0293 32.7397 25.1221 31.4159L25.1709 31.3546L39.1964 15C40.055 15.7208 40.7623 16.6058 41.277 17.6036C41.7917 18.6015 42.1036 19.6921 42.1945 20.8121C42.2854 21.9321 42.1535 23.0591 41.8065 24.1274C41.4594 25.1957 40.9042 26.1841 40.1731 27.0349L31.7588 36.8413C29.7677 39.2518 28.3002 42.0535 27.4504 45.0667C26.6007 48.0797 26.3873 51.238 26.8241 54.3388C27.2609 57.4395 28.3382 60.4144 29.9869 63.0728C31.6356 65.7312 33.8193 68.0144 36.3982 69.7759C40.3107 72.4576 44.9525 73.8606 49.6892 73.7935C54.4258 73.7262 59.0263 72.1923 62.8618 69.4009C65.3946 67.5544 67.5182 65.2004 69.0982 62.4873C69.7208 61.4085 70.2549 60.2802 70.695 59.1141L75.0414 46.9639C75.8243 44.8411 77.4111 43.1147 79.4562 42.1612C81.5114 41.1998 83.8599 41.0828 86 41.8351L78.7553 62.1196C77.1473 66.3608 74.6345 70.1973 71.3934 73.3602C66.4667 78.1477 60.1271 81.2028 53.3252 82.0672C46.5231 82.9319 39.6253 81.5593 33.6658 78.1556Z" fill="#5B41F5"/>
</svg>
