<svg width="100" height="100" viewBox="0 0 100 100" fill="none" xmlns="http://www.w3.org/2000/svg">
<rect width="100" height="100" fill="#213147"/>
<path d="M21.3479 36.2763V63.7236C21.3479 65.4704 22.2786 67.0883 23.7963 67.9617L47.5639 81.6782C49.0816 82.5516 50.9429 82.5516 52.4606 81.6782L76.2282 67.9617C77.7459 67.0883 78.6766 65.4704 78.6766 63.7236V36.2763C78.6766 34.5295 77.7459 32.9116 76.2282 32.0382L52.4606 18.3217C50.9429 17.4483 49.0816 17.4483 47.5639 18.3217L23.7963 32.0382C22.2929 32.9116 21.3479 34.5295 21.3479 36.2763Z" fill="#213147"/>
<path d="M55.21 55.3192L51.8166 64.6115C51.7164 64.8692 51.7164 65.1556 51.8166 65.4133L57.644 81.4063L64.3877 77.5119L56.2981 55.3192C56.112 54.8038 55.3961 54.8038 55.21 55.3192Z" fill="#12AAFF"/>
<path d="M61.9964 39.6839C61.8102 39.1685 61.0943 39.1685 60.9082 39.6839L57.5149 48.9762C57.4146 49.234 57.4146 49.5203 57.5149 49.778L67.0649 75.9654L73.8086 72.0709L61.9964 39.6839Z" fill="#12AAFF"/>
<path d="M50.0125 19.3383C50.1843 19.3383 50.3418 19.3813 50.4993 19.4672L76.2142 34.3148C76.5148 34.4866 76.701 34.8016 76.701 35.1452V64.8405C76.701 65.1841 76.5148 65.4991 76.2142 65.6709L50.4993 80.5328C50.3561 80.6187 50.1843 80.6617 50.0125 80.6617C49.8407 80.6617 49.6832 80.6187 49.5257 80.5328L23.8251 65.6852C23.5244 65.5134 23.3383 65.1984 23.3383 64.8548V35.1452C23.3383 34.8016 23.5244 34.4866 23.8251 34.3148L49.54 19.4672C49.6832 19.3813 49.855 19.3383 50.0125 19.3383ZM50.0125 15C49.0961 15 48.1798 15.2434 47.3637 15.7159L21.6488 30.5635C20.0166 31.5085 19 33.2553 19 35.1452V64.8405C19 66.7304 20.0166 68.4915 21.6488 69.4365L47.3637 84.2841C48.1798 84.7566 49.0961 85 50.0125 85C50.9288 85 51.8452 84.7566 52.6613 84.2841L78.3762 69.4365C80.0227 68.4915 81.025 66.7447 81.025 64.8405V35.1452C81.025 33.2553 80.0084 31.4942 78.3762 30.5492L52.6756 15.7159C51.8452 15.2434 50.9288 15 50.0125 15Z" fill="#9DCCED"/>
<path d="M33.0173 75.9941L35.3798 69.5225L40.1333 73.4742L35.6948 77.5405L33.0173 75.9941Z" fill="#213147"/>
<path d="M47.8504 33.0261H41.3358C40.849 33.0261 40.4052 33.3268 40.2477 33.785L26.2734 72.0996L33.0171 75.994L48.4088 33.7993C48.5377 33.427 48.2657 33.0261 47.8504 33.0261Z" fill="white"/>
<path d="M59.262 33.0261H52.7474C52.2606 33.0261 51.8167 33.3268 51.6592 33.785L35.6948 77.5403L42.4385 81.4348L59.8061 33.8136C59.9493 33.427 59.6629 33.0261 59.262 33.0261Z" fill="white"/>
</svg>
