<svg width="100" height="100" viewBox="0 0 100 100" fill="none" xmlns="http://www.w3.org/2000/svg">
    <g clip-path="url(#clip0_631_91)">
        <rect width="100" height="100" fill="#7C3AED"/>
        <path d="M77.974 46.6296C77.2669 46.4784 76.5302 46.3325 75.7655 46.1929C75.5473 44.4337 75.1655 42.7279 74.6363 41.0926C84.5741 42.6921 91 45.2349 91 48.0987C91 48.1307 90.9991 48.1626 90.9977 48.1946C90.7606 52.9914 72.4962 56.8642 50 56.8642C27.3563 56.8642 9 52.9403 9 48.1C9 48.0703 9.00068 48.0404 9.00207 48.0107C9.13372 45.1497 15.6793 42.6165 25.7126 41.0371C25.1803 42.6705 24.7951 44.3741 24.573 46.1316C23.6868 46.29 22.8371 46.4562 22.0261 46.6296C20.9637 46.8565 19.9914 47.0912 19.1095 47.3291V47.3304C18.1686 47.5843 17.3305 47.8423 16.5952 48.0994C18.0198 48.5975 19.8303 49.0987 22.0261 49.5681C22.77 49.7272 23.5465 49.8801 24.3539 50.0266V50.0279C31.1389 51.2589 40.0932 52.0287 50 52.0287C60.0689 52.0287 69.1541 51.2335 75.9778 49.967V49.9657C76.6667 49.8378 77.3325 49.7052 77.974 49.5681C80.1707 49.0985 81.9817 48.5971 83.4067 48.0987C81.9817 47.6005 80.1707 47.0991 77.974 46.6296Z"
              fill="white"/>
        <path d="M80.8884 32.9819C80.8895 32.9593 80.8899 32.9365 80.8899 32.9136C80.8899 30.3293 74.0265 28.091 64.0167 27C66.399 28.5787 68.5154 30.5529 70.281 32.8335C70.4106 32.86 70.5392 32.8867 70.6664 32.9136C70.574 32.933 70.4809 32.9525 70.3871 32.9717L70.388 32.9728C65.288 34.0215 58.1715 34.7012 50.1867 34.7012C42.1825 34.7012 35.0507 34.018 29.9481 32.9651L29.949 32.964C29.8678 32.9473 29.7873 32.9305 29.7072 32.9136C29.8176 32.8901 29.9289 32.8671 30.0412 32.8442C31.8061 30.5619 33.9225 28.586 36.3048 27.0056C26.3232 28.0987 19.4837 30.3338 19.4837 32.9136V32.9145L19.4836 32.9147C19.4836 36.1428 34.3483 38.7085 44.3673 39.4179C46.609 39.5765 50.1195 39.5876 50.1195 39.5876C51.3584 39.6415 53.6151 39.5782 55.8479 39.4243C65.9213 38.7296 80.7405 36.1921 80.8884 32.9819Z"
              fill="white"/>
        <path d="M19.4841 66.412C19.4841 64.7238 22.4139 63.1831 27.2368 62.0133C28.0064 63.5566 28.9156 65.0121 29.947 66.3621C29.8667 66.3787 29.7871 66.3954 29.7076 66.412C29.817 66.4351 29.9272 66.4582 30.0384 66.4808C30.0457 66.4902 30.0529 66.4996 30.0602 66.509H30.1702C35.2567 67.5361 42.2983 68.1998 50.1871 68.1998C58.0762 68.1998 65.1178 67.5361 70.2043 66.509H70.2709C70.2754 66.5032 70.2799 66.4972 70.2844 66.4915C70.4132 66.4652 70.5406 66.4387 70.6669 66.412C70.5752 66.3928 70.4828 66.3734 70.3899 66.3544C71.4211 65.004 72.3299 63.5476 73.0989 62.0039C77.945 63.1748 80.8904 64.7193 80.8904 66.412C80.8904 66.4445 80.8893 66.4767 80.8872 66.509C80.6503 70.1219 66.9961 73.0353 50.1871 73.0353C33.3782 73.0353 19.7242 70.1219 19.4872 66.509C19.4851 66.4767 19.4841 66.4445 19.4841 66.412Z"
              fill="white"/>
    </g>
    <defs>
        <clipPath id="clip0_631_91">
            <rect width="100" height="100" fill="white"/>
        </clipPath>
    </defs>
</svg>
