<svg width="100" height="100" viewBox="0 0 100 100" fill="none" xmlns="http://www.w3.org/2000/svg">
    <g clip-path="url(#clip0_463_38)">
        <rect width="100" height="100" fill="black"/>
        <path d="M65.0773 55.912C75.1493 57.7706 82 61.4293 82 65.64C82 71.7333 67.672 76.6666 50 76.6666C32.328 76.6666 18 71.7306 18 65.64C18 61.4293 24.8533 57.7706 34.9227 55.912C39.2987 57.048 44.4667 57.7013 50 57.7013C55.5333 57.7013 60.7013 57.048 65.0773 55.9146V55.912ZM61.2213 38.0533C69.776 39.4773 75.6693 42.472 75.6693 45.9413C75.6693 50.7813 64.176 54.7066 50 54.7066C35.824 54.7066 24.3307 50.7813 24.3307 45.9413C24.3307 42.4746 30.224 39.4773 38.7787 38.0533C42.0667 38.888 45.9013 39.3653 50 39.3653C54.0987 39.3653 57.9333 38.8853 61.2213 38.0533ZM50.1173 23.3333C60.7333 23.3333 69.3413 26.304 69.3413 29.9706C69.3413 33.6346 60.7333 36.6053 50.1173 36.6053C39.5013 36.6053 30.8933 33.6346 30.8933 29.9706C30.8933 26.304 39.5013 23.3333 50.1173 23.3333Z"
              fill="white"/>
    </g>
    <defs>
        <clipPath id="clip0_463_38">
            <rect width="100" height="100" fill="white"/>
        </clipPath>
    </defs>
</svg>
