<svg width="100" height="100" viewBox="0 0 100 100" fill="none" xmlns="http://www.w3.org/2000/svg">
    <rect width="100" height="100" fill="black"/>
    <path d="M57.6875 66.6562V61.5312H41.0312V66.6562H57.6875Z" fill="white"/>
    <path fill-rule="evenodd" clip-rule="evenodd"
          d="M16.6875 34.625V61.5312H26.1839C33.6762 61.5312 39.75 55.5081 39.75 48.0781C39.75 40.6482 33.6762 34.625 26.1839 34.625H16.6875ZM22.5016 40.3906V55.7656H26.1839C30.4652 55.7656 33.9359 52.3238 33.9359 48.0781C33.9359 43.8324 30.4652 40.3906 26.1839 40.3906H22.5016Z"
          fill="white"/>
    <path fill-rule="evenodd" clip-rule="evenodd"
          d="M61.5312 34.625V61.5312H71.0276C78.52 61.5312 84.5938 55.5081 84.5938 48.0781C84.5938 40.6482 78.52 34.625 71.0276 34.625H61.5312ZM67.3453 40.3906V55.7656H71.0276C75.3089 55.7656 78.7797 52.3238 78.7797 48.0781C78.7797 43.8324 75.3089 40.3906 71.0276 40.3906H67.3453Z"
          fill="white"/>
</svg>
