<svg width="100" height="100" viewBox="0 0 100 100" fill="none" xmlns="http://www.w3.org/2000/svg">
    <g clip-path="url(#clip0_501_51)">
        <rect width="100" height="100" fill="#242E36"/>
        <mask id="mask0_501_51" style="mask-type:alpha" maskUnits="userSpaceOnUse" x="6" y="16" width="77" height="66">
            <path d="M35.8333 65.8489C25.1512 70.622 12.622 65.832 7.84857 55.1501C3.07512 44.468 7.86507 31.9388 18.5471 27.1654C29.2293 22.3919 41.7585 27.1819 46.5319 37.864C51.3053 48.5461 46.5154 61.0753 35.8333 65.8489Z"
                  fill="black"/>
            <path d="M74.3134 44.0605C66.9178 47.3652 58.2439 44.0491 54.9392 36.6538C51.6345 29.2585 54.9506 20.5844 62.3458 17.2798C69.7414 13.9751 78.4154 17.2912 81.72 24.6865C85.0247 32.0818 81.7084 40.7558 74.3134 44.0605Z"
                  fill="black"/>
            <path d="M69.128 80.5401C63.1706 83.2021 56.183 80.5308 53.5209 74.574C50.8588 68.6166 53.5301 61.629 59.4876 58.9669C65.445 56.3048 72.4321 58.9761 75.0947 64.9337C77.7567 70.8905 75.0854 77.8781 69.128 80.5401Z"
                  fill="black"/>
        </mask>
        <g mask="url(#mask0_501_51)">
            <path d="M-2.90947 74.4845C9.8503 103.039 43.3418 115.843 71.896 103.083C100.45 90.3228 113.254 56.8316 100.494 28.2775C87.7343 -0.276634 54.2428 -13.0805 25.6887 -0.320698C-2.86541 12.4391 -15.6693 45.9306 -2.90947 74.4845Z"
                  fill="white"/>
            <path d="M26.9737 59.8998C32.5733 72.4309 47.271 78.0495 59.8018 72.4501C72.3331 66.8501 77.9517 52.1527 72.3523 39.6218C66.7523 27.0908 52.0549 21.4719 39.5239 27.0715C26.993 32.6711 21.3741 47.3688 26.9737 59.8998Z"
                  fill="#8FD8E7"/>
        </g>
    </g>
    <defs>
        <clipPath id="clip0_501_51">
            <rect width="100" height="100" fill="white"/>
        </clipPath>
    </defs>
</svg>
