<svg width="100" height="100" viewBox="0 0 100 100" fill="none" xmlns="http://www.w3.org/2000/svg">
<g clip-path="url(#clip0_430_21)">
<rect width="100" height="100" fill="url(#paint0_linear_430_21)"/>
<path d="M27.5776 43.7017C28.2277 45.096 29.8366 47.8517 29.8366 47.8517L48.4367 17L30.2835 29.719C29.2019 30.443 28.3144 31.423 27.6995 32.5726C26.8727 34.3068 26.4335 36.2013 26.4124 38.1236C26.3914 40.0459 26.789 41.9497 27.5776 43.7017Z" fill="white"/>
<path d="M20.2072 53.8605C20.4121 56.8117 21.2431 59.6848 22.6445 62.2876C24.0459 64.8903 25.9854 67.1624 28.333 68.9521L48.4118 83C48.4118 83 35.8494 64.8347 25.2533 46.7592C24.1806 44.8494 23.4594 42.7615 23.1243 40.5952C22.976 39.6144 22.976 38.6167 23.1243 37.6357C22.8481 38.1494 22.3118 39.2011 22.3118 39.2011C21.2373 41.3997 20.5056 43.7507 20.1422 46.172C19.9329 48.7316 19.9547 51.3049 20.2072 53.8605Z" fill="white"/>
<path d="M71.4323 56.2983C70.7822 54.9043 69.1735 52.1483 69.1735 52.1483L50.5732 83L68.7265 70.2893C69.8082 69.5652 70.6955 68.5851 71.3104 67.4356C72.1385 65.7002 72.5784 63.8044 72.5996 61.8805C72.6205 59.9568 72.2222 58.0515 71.4323 56.2983Z" fill="white"/>
<path d="M78.8028 46.1395C78.5979 43.1883 77.7668 40.3153 76.3655 37.7125C74.9642 35.1098 73.0247 32.8376 70.677 31.0479L50.5981 17C50.5981 17 63.1525 35.1653 73.7566 53.2408C74.8267 55.1511 75.545 57.239 75.8776 59.4048C76.0258 60.3856 76.0258 61.3834 75.8776 62.3644C76.1538 61.8505 76.6901 60.7988 76.6901 60.7988C77.7645 58.6003 78.4963 56.2493 78.8598 53.828C79.0717 51.2686 79.0526 48.6953 78.8028 46.1395Z" fill="white"/>
<path d="M27.6992 32.5726C28.3141 31.423 29.2016 30.443 30.2832 29.719L48.4364 17L29.8363 47.8597C29.8363 47.8597 28.2111 45.104 27.5773 43.7097C26.7875 41.9567 26.3891 40.0515 26.4102 38.1277C26.4312 36.2039 26.8712 34.3079 27.6992 32.5726ZM20.2072 53.8605C20.4121 56.8117 21.2431 59.6848 22.6445 62.2876C24.0459 64.8903 25.9854 67.1624 28.333 68.9521L48.4118 83C48.4118 83 35.8494 64.8347 25.2533 46.7592C24.1806 44.8494 23.4594 42.7615 23.1243 40.5952C22.976 39.6144 22.976 38.6167 23.1243 37.6357C22.8481 38.1494 22.3118 39.2011 22.3118 39.2011C21.2373 41.3997 20.5056 43.7507 20.1422 46.172C19.9329 48.7316 19.9547 51.3049 20.2072 53.8605ZM71.3999 56.3065C70.7498 54.9123 69.141 52.1566 69.141 52.1566L50.5733 83L68.7266 70.2893C69.8083 69.5652 70.6956 68.5851 71.3105 67.4356C72.1386 65.7002 72.5785 63.8044 72.5997 61.8805C72.6206 59.9568 72.2223 58.0515 71.4324 56.2983L71.3999 56.3065ZM78.77 46.1477C78.5651 43.1966 77.734 40.3234 76.3327 37.7207C74.9314 35.118 72.9919 32.8457 70.6442 31.0561L50.5979 17C50.5979 17 63.1522 35.1653 73.7563 53.2408C74.8265 55.1511 75.5447 57.239 75.8773 59.4048C76.0255 60.3856 76.0255 61.3834 75.8773 62.3644C76.1535 61.8505 76.6898 60.7988 76.6898 60.7988C77.7642 58.6003 78.4961 56.2493 78.8595 53.828C79.0714 51.2686 79.0523 48.6953 78.8025 46.1395L78.77 46.1477Z" fill="white"/>
</g>
<defs>
<linearGradient id="paint0_linear_430_21" x1="0" y1="0" x2="100" y2="100" gradientUnits="userSpaceOnUse">
<stop stop-color="#8679FF"/>
<stop offset="1" stop-color="#00C7EA"/>
</linearGradient>
<clipPath id="clip0_430_21">
<rect width="100" height="100" fill="white"/>
</clipPath>
</defs>
</svg>
