<svg width="100" height="100" viewBox="0 0 100 100" fill="none" xmlns="http://www.w3.org/2000/svg">
<g clip-path="url(#clip0_613_211)">
<rect width="100" height="100" fill="#0C2129"/>
<path d="M56.9608 19.5351L22.7023 34.788C19.5491 36.1919 18.131 39.8861 19.5349 43.0393L19.5354 43.0405C20.9393 46.1937 24.6336 47.6118 27.7868 46.2079L62.0453 30.955C65.1985 29.5511 66.6166 25.8568 65.2127 22.7036L65.2122 22.7025C63.8083 19.5493 60.114 18.1312 56.9608 19.5351Z" fill="#37BEC1"/>
<path d="M47.4583 44.2902L24.6186 54.4591C21.4654 55.863 20.0473 59.5573 21.4512 62.7105L21.4517 62.7116C22.8556 65.8648 26.5498 67.2829 29.703 65.879L52.5428 55.7101C55.696 54.3062 57.1141 50.6119 55.7102 47.4587L55.7097 47.4576C54.3058 44.3044 50.6115 42.8863 47.4583 44.2902Z" fill="#FBB144"/>
<path d="M72.2123 53.793L37.9538 69.0459C34.8006 70.4497 33.3825 74.144 34.7864 77.2972L34.7869 77.2983C36.1908 80.4515 39.885 81.8696 43.0382 80.4657L77.2967 65.2129C80.4499 63.809 81.868 60.1147 80.4641 56.9615L80.4636 56.9604C79.0597 53.8072 75.3655 52.3891 72.2123 53.793Z" fill="#E4615E"/>
</g>
<defs>
<clipPath id="clip0_613_211">
<rect width="100" height="100" fill="white"/>
</clipPath>
</defs>
</svg>
