<svg width="100" height="100" viewBox="0 0 100 100" fill="none" xmlns="http://www.w3.org/2000/svg">
    <rect width="100" height="100" fill="#02E2AC"/>
    <path fill-rule="evenodd" clip-rule="evenodd"
          d="M69.7731 66.6011L66.308 63.9471C68.8769 60.2676 70.3109 55.8643 70.3109 51.461C70.3705 46.6958 68.8173 41.9909 65.8898 38.1908L69.7731 34.5113C70.2511 34.0891 70.2511 33.3652 69.8329 32.8827L68.8769 31.9176C64.0377 26.9714 57.4659 24.0761 50.5952 23.8348V19.7934C50.655 17.4409 47.0105 17.4409 47.0105 19.7934V23.9555C45.3975 24.0761 43.7844 24.438 42.231 24.8602V19.7331C42.2908 17.3806 38.6464 17.3806 38.6464 19.7331V26.1873H38.5866C33.0902 28.7809 28.4301 33.1843 25.6819 38.794C22.8739 44.283 21.9777 50.6769 23.1726 56.7691C24.4273 62.8613 27.6534 68.3504 32.3732 72.3918C37.093 76.3728 43.0674 78.6047 49.2211 78.7859L69.1159 78.9062C69.7134 78.9062 70.1913 78.4234 70.1913 77.8205V67.6869C70.1913 67.144 70.0719 66.7821 69.7731 66.6011ZM56.4502 46.937L62.1259 41.7496C66.0092 47.2387 66.1287 55.1405 62.1856 60.7502L56.1514 56.1055C57.1671 54.7786 57.7048 53.2705 57.7645 51.5816C57.7048 49.953 57.3463 48.3847 56.4502 46.937ZM65.2923 73.3569C65.2923 73.6584 65.0534 73.8998 64.7546 73.8998L49.6393 73.8395C44.7403 73.7791 39.9608 72.1505 36.0773 69.1948C32.194 66.1789 29.386 61.8963 28.1911 57.131C25.5623 47.5402 30.0432 36.6828 38.6464 31.8573L38.8256 31.797V39.5781C38.7659 41.9305 42.4102 41.9305 42.4102 39.5781V30.0477C49.2809 27.6349 57.4061 28.8413 63.1416 33.3652C63.4402 33.5462 63.4402 33.9684 63.2012 34.2097L52.6862 43.8608C50.655 43.0163 48.3249 43.0163 46.3534 43.9814C43.1869 45.4291 41.1556 48.9879 41.753 52.4864C41.8726 53.6325 42.2908 54.7182 42.8882 55.6834C43.4856 56.7087 44.3221 57.4929 45.278 58.1564C47.1898 59.4231 49.6393 59.7851 51.8498 59.1216L65.113 69.3155C65.2326 69.4361 65.2923 69.6171 65.2923 69.798V73.3569ZM52.8655 51.3404C52.8655 51.9435 52.6862 52.607 52.3278 53.0896C51.9694 53.6325 51.4914 53.9944 50.894 54.296C50.2965 54.5373 49.6393 54.5976 49.1016 54.4166C48.5042 54.296 47.9665 53.9944 47.4885 53.5722C47.0703 53.1499 46.7716 52.5467 46.6521 51.9435C46.5327 51.3404 46.5923 50.6769 46.8313 50.134C47.0703 49.5308 47.4885 49.1085 47.9665 48.6863C49.2211 47.8419 50.894 48.0228 51.9694 49.1085C52.507 49.6514 52.8655 50.4959 52.8655 51.3404Z"
          fill="#0E0333"/>
</svg>
