<svg width="100" height="100" viewBox="0 0 100 100" fill="none" xmlns="http://www.w3.org/2000/svg">
    <g clip-path="url(#clip0_465_51)">
        <rect width="100" height="100" fill="#3C9995"/>
        <rect width="100" height="100" fill="#133629"/>
        <path d="M36.6928 55.1483C38.6183 55.1483 40.4968 54.5065 42.0153 53.3324L29.805 41.1217C26.862 44.9258 27.5664 50.4049 31.3704 53.348C32.9045 54.5065 34.7674 55.1483 36.6928 55.1483Z"
              fill="white"/>
        <path d="M73.0108 46.4287C73.0108 44.5031 72.369 42.6246 71.1949 41.106L58.9846 53.3167C62.7886 56.2598 68.2519 55.5554 71.1949 51.7513C72.369 50.2328 73.0108 48.3542 73.0108 46.4287Z"
              fill="white"/>
        <path d="M79.1629 33.1378L73.7622 38.5387C78.114 43.7517 77.4252 51.5164 72.2124 55.8685C67.6414 59.6882 61.004 59.6882 56.4329 55.8685L50.5 61.8016L44.5827 55.8841C39.3699 60.2361 31.6054 59.5473 27.2535 54.3343C23.4339 49.7631 23.4339 43.1255 27.2535 38.5543L24.4827 35.7834L21.8528 33.1378C18.675 38.3665 17 44.3779 17 50.4989C17 69.0028 31.9967 84 50.5 84C69.0033 84 84 69.0028 84 50.4989C84.0157 44.3779 82.325 38.3665 79.1629 33.1378Z"
              fill="white"/>
        <path d="M74.7327 27.3768C61.9746 13.9921 40.7788 13.4911 27.3944 26.2497C27.0031 26.6254 26.6274 27.0011 26.2673 27.3768C25.4376 28.2535 24.6549 29.1615 23.9192 30.1164L50.5 56.7138L77.0809 30.1164C76.3608 29.1615 75.5624 28.2535 74.7327 27.3768ZM50.5 21.3811C58.3271 21.3811 65.622 24.4024 71.101 29.9129L50.5 50.5145L29.8991 29.9129C35.3781 24.4024 42.6729 21.3811 50.5 21.3811Z"
              fill="white"/>
    </g>
    <defs>
        <clipPath id="clip0_465_51">
            <rect width="100" height="100" fill="white"/>
        </clipPath>
    </defs>
</svg>
