<svg width="100" height="100" viewBox="0 0 100 100" fill="none" xmlns="http://www.w3.org/2000/svg">
    <g clip-path="url(#clip0_501_36)">
        <rect width="100" height="100" fill="url(#paint0_linear_501_36)"/>
        <path d="M79.8902 39.3938L66.9359 20.5487C64.9014 17.5951 60.3007 19.1631 60.4511 22.7516C60.5888 26.0226 61.8113 29.485 64.7369 33.7338C64.7383 33.7362 64.7388 33.7389 64.7385 33.7416C64.7382 33.7443 64.7371 33.7468 64.7352 33.7488C64.7334 33.7508 64.7309 33.7522 64.7282 33.7527C64.7256 33.7532 64.7228 33.7528 64.7203 33.7516C63.5233 32.8593 45.4788 19.3084 24.0293 26.5236H24.0051C21.6378 27.4109 20.4294 29.3473 21.0285 31.6177C21.583 33.7198 23.7387 34.9818 25.8816 34.6261C30.4377 33.8676 34.9593 33.5069 39.4057 33.897C43.8522 34.2871 48.2017 35.4267 52.2517 37.4166C56.3017 39.4066 59.9705 42.2226 63.3423 45.4478C67.1348 49.072 71.84 56.801 71.84 56.801C72.1158 57.2907 72.5556 57.6674 73.0821 57.8645C73.6085 58.0616 74.1875 58.0664 74.7172 57.8781C75.992 57.4218 76.586 55.952 76.1067 54.6912C75.1071 52.0559 73.8835 49.511 72.4493 47.0846C72.4473 47.0823 72.4461 47.0793 72.4461 47.0762C72.446 47.0731 72.4471 47.07 72.4492 47.0677C72.4512 47.0653 72.454 47.0638 72.4571 47.0634C72.4602 47.063 72.4633 47.0637 72.4659 47.0655C74.0517 47.6621 75.519 48.4052 77.2553 47.9986C78.6715 47.6659 79.9145 46.7021 80.4919 45.3534C80.91 44.3916 81.0742 43.3386 80.9689 42.2951C80.8635 41.2516 80.4921 40.2527 79.8902 39.3938V39.3938Z"
              fill="white"/>
        <path d="M20.1044 60.0759L33.1314 79.0268C35.1711 81.9893 39.6863 80.3653 39.5474 76.7729C39.4199 73.4866 38.2 70.0102 35.2603 65.7397C35.2514 65.727 35.2603 65.7104 35.2756 65.7193C36.4752 66.6117 54.5248 80.1613 75.9653 72.9473C75.9738 72.9479 75.9823 72.9479 75.9908 72.9473C78.3581 72.0626 79.5602 70.1301 78.9662 67.8571C78.4129 65.7563 76.2573 64.4943 74.1156 64.8512C69.5583 65.6161 65.0379 65.9692 60.5902 65.5791C56.1425 65.189 51.7942 64.0494 47.7455 62.0607C43.6968 60.072 40.0267 57.2535 36.6549 54.0296C32.8637 50.4054 28.1572 42.6764 28.1572 42.6764C27.8718 42.1674 27.4095 41.7808 26.8581 41.59C26.3066 41.3992 25.7043 41.4175 25.1653 41.6413C23.9517 42.1512 23.4329 43.5853 23.8982 44.8142C24.8961 47.441 26.1167 49.9777 27.5466 52.3966C27.5481 52.399 27.5487 52.4019 27.5485 52.4047C27.5483 52.4076 27.5472 52.4103 27.5454 52.4125C27.5436 52.4148 27.5412 52.4164 27.5384 52.4172C27.5357 52.418 27.5327 52.4179 27.53 52.417C25.9442 51.8204 24.4706 51.0772 22.7407 51.4838C21.3244 51.8102 20.0802 52.779 19.5078 54.1239C19.0904 55.0843 18.9261 56.1357 19.0306 57.1776C19.135 58.2196 19.5047 59.2174 20.1044 60.0759V60.0759Z"
              fill="white"/>
    </g>
    <defs>
        <linearGradient id="paint0_linear_501_36" x1="100" y1="-5.96046e-06" x2="5.96046e-06" y2="100"
                        gradientUnits="userSpaceOnUse">
            <stop stop-color="#E38193"/>
            <stop offset="1" stop-color="#AD1BEB"/>
        </linearGradient>
        <clipPath id="clip0_501_36">
            <rect width="100" height="100" fill="white"/>
        </clipPath>
    </defs>
</svg>
