<svg width="100" height="100" viewBox="0 0 100 100" fill="none" xmlns="http://www.w3.org/2000/svg">
<g clip-path="url(#clip0_465_103)">
<rect width="100" height="100" fill="white"/>
<rect width="100" height="100" fill="#242424"/>
<path fill-rule="evenodd" clip-rule="evenodd" d="M49.643 84C68.2297 84 83.2863 69.0152 83.2863 50.5C83.2863 31.985 68.2297 17 49.643 17C31.0565 17 16 31.985 16 50.5C16 69.0152 31.0565 84 49.643 84ZM49.643 72.4732C63.2589 72.4732 74.209 61.5226 74.209 48.0505C74.209 34.5785 63.1869 28.9592 49.643 28.9592C36.0274 28.9592 25.0772 34.5065 25.0772 48.0505C25.0051 61.5946 36.0274 72.4732 49.643 72.4732Z" fill="white"/>
<path fill-rule="evenodd" clip-rule="evenodd" d="M35.0906 52.0135C36.5314 52.0135 37.8282 51.4371 38.8367 50.5726C39.341 51.5091 39.9894 52.5176 40.5657 53.5265C41.8625 55.6876 43.3032 57.9211 44.6001 59.5781C45.2483 60.4426 45.9688 61.2351 46.6172 61.8112C47.1934 62.3157 48.202 63.0361 49.3548 63.0361C50.5074 63.0361 51.516 62.3157 52.0924 61.8112C52.8126 61.2351 53.5331 60.4426 54.1815 59.6501C55.5502 57.9931 57.0632 55.7596 58.4318 53.5985C59.0803 52.5176 59.7287 51.5091 60.3049 50.5005C61.3135 51.4371 62.6824 52.0855 64.1231 52.0855C67.1487 52.0855 69.6703 49.636 69.6703 46.6101C69.6703 43.5844 67.2208 41.1349 64.1231 41.1349C61.6738 41.1349 59.5124 42.7919 58.8642 45.0254C58.7202 45.2414 58.5759 45.5295 58.4318 45.8179C57.5673 47.4026 56.3427 49.492 55.046 51.5811C53.7491 53.6705 52.3085 55.7596 51.0836 57.2006C50.4354 57.9211 49.931 58.4972 49.4989 58.8576C49.4268 58.9296 49.3548 58.9296 49.3548 59.0016C49.2828 59.0016 49.2828 58.9296 49.2105 58.8576C48.7784 58.4972 48.2742 57.9931 47.6978 57.2006C46.5452 55.6876 45.1763 53.6705 43.9517 51.5811C42.727 49.492 41.5743 47.4026 40.7098 45.8179C40.5657 45.6015 40.4937 45.3855 40.4217 45.2414C39.7733 42.8639 37.612 41.1349 35.0906 41.1349C32.0649 41.1349 29.5435 43.5844 29.5435 46.6101C29.5435 49.564 31.9929 52.0135 35.0906 52.0135Z" fill="white"/>
</g>
<defs>
<clipPath id="clip0_465_103">
<rect width="100" height="100" fill="white"/>
</clipPath>
</defs>
</svg>
