<svg width="100" height="100" viewBox="0 0 100 100" fill="none" xmlns="http://www.w3.org/2000/svg">
<rect width="100" height="100" fill="#3F75FF"/>
<path d="M49.9997 82.431C49.9997 84.4978 51.6795 86.193 53.7348 85.9822C71.954 84.1125 86.1663 68.7165 86.1663 50.0002C86.1663 31.2837 71.954 15.8877 53.7348 14.0179C51.6795 13.8059 49.9997 15.5023 49.9997 17.5692V27.5478C49.9997 29.6147 51.6908 31.2513 53.7173 31.6592C62.2677 33.3842 68.7065 40.9393 68.7065 50.0002C68.7065 59.0608 62.2677 66.616 53.7173 68.341C51.6908 68.749 49.9997 70.3867 49.9997 72.4523V82.431ZM38.7755 20.7598C38.7755 18.2153 36.285 16.4216 34.004 17.548C22.0528 23.4517 13.833 35.7653 13.833 50.0002C13.833 64.2348 22.0528 76.5485 34.004 82.4523C36.285 83.5787 38.7755 81.785 38.7755 79.2403V20.7612V20.7598Z" fill="white"/>
</svg>
