<svg width="1024" height="1024" viewBox="0 0 1024 1024" fill="none" xmlns="http://www.w3.org/2000/svg">
    <rect width="1024" height="1024" fill="#1353B4"/>
    <path d="M159 231.928C365.086 152.024 659.495 152.024 865.581 231.928C865.581 551.544 747.817 772.191 512.291 932C276.764 772.191 159 551.544 159 231.928Z"
          fill="#E3E3E6" stroke="black" stroke-width="2.44473"/>
    <path d="M511.951 623.996C481.921 623.996 451.893 628.79 427.163 638.378C427.163 715.086 455.425 779.011 511.951 817.365C568.478 779.011 596.74 715.086 596.74 638.378C572.01 628.79 541.981 623.996 511.951 623.996ZM477.851 638.891C488.027 638.891 496.277 647.141 496.277 657.316C496.277 667.49 488.027 675.739 477.851 675.739C467.675 675.739 459.425 667.49 459.425 657.316C459.425 647.141 467.675 638.891 477.851 638.891ZM546.021 638.891C556.197 638.891 564.444 647.141 564.444 657.316C564.444 667.49 556.197 675.739 546.021 675.739C535.846 675.739 527.596 667.49 527.596 657.316C527.596 647.141 535.846 638.891 546.021 638.891ZM511.934 677.941C522.11 677.941 530.36 686.188 530.36 696.364C530.36 706.539 522.11 714.789 511.934 714.789C501.759 714.789 493.512 706.539 493.512 696.364C493.512 686.188 501.759 677.941 511.934 677.941ZM477.851 716.988C488.027 716.988 496.277 725.238 496.277 735.414C496.277 745.59 488.027 753.837 477.851 753.837C467.675 753.837 459.425 745.59 459.425 735.414C459.425 725.238 467.675 716.988 477.851 716.988ZM546.021 716.988C556.197 716.988 564.444 725.238 564.444 735.414C564.444 745.59 556.197 753.837 546.021 753.837C535.846 753.837 527.596 745.59 527.596 735.414C527.596 725.238 535.846 716.988 546.021 716.988Z"
          fill="#1353B4"/>
    <path d="M511.951 412.044C481.921 412.044 451.893 416.838 427.163 426.427C427.163 503.135 455.425 567.059 511.951 605.413C568.478 567.059 596.74 503.135 596.74 426.427C572.01 416.838 541.981 412.044 511.951 412.044ZM477.851 426.939C488.027 426.939 496.277 435.189 496.277 445.365C496.277 455.539 488.027 463.787 477.851 463.787C467.675 463.787 459.425 455.539 459.425 445.365C459.425 435.189 467.675 426.939 477.851 426.939ZM546.021 426.939C556.197 426.939 564.444 435.189 564.444 445.365C564.444 455.539 556.197 463.787 546.021 463.787C535.846 463.787 527.596 455.539 527.596 445.365C527.596 435.189 535.846 426.939 546.021 426.939ZM511.934 465.99C522.11 465.99 530.36 474.236 530.36 484.412C530.36 494.588 522.11 502.838 511.934 502.838C501.759 502.838 493.512 494.588 493.512 484.412C493.512 474.236 501.759 465.99 511.934 465.99ZM477.851 505.037C488.027 505.037 496.277 513.287 496.277 523.463C496.277 533.639 488.027 541.885 477.851 541.885C467.675 541.885 459.425 533.639 459.425 523.463C459.425 513.287 467.675 505.037 477.851 505.037ZM546.021 505.037C556.197 505.037 564.444 513.287 564.444 523.463C564.444 533.639 556.197 541.885 546.021 541.885C535.846 541.885 527.596 533.639 527.596 523.463C527.596 513.287 535.846 505.037 546.021 505.037Z"
          fill="#1353B4"/>
    <path d="M511.951 200.095C481.921 200.095 451.893 204.889 427.163 214.477C427.163 291.185 455.425 355.11 511.951 393.463C568.478 355.11 596.74 291.185 596.74 214.477C572.01 204.889 541.981 200.095 511.951 200.095ZM477.851 214.989C488.027 214.989 496.277 223.239 496.277 233.415C496.277 243.589 488.027 251.837 477.851 251.837C467.675 251.837 459.425 243.589 459.425 233.415C459.425 223.239 467.675 214.989 477.851 214.989ZM546.021 214.989C556.197 214.989 564.444 223.239 564.444 233.415C564.444 243.589 556.197 251.837 546.021 251.837C535.846 251.837 527.596 243.589 527.596 233.415C527.596 223.239 535.846 214.989 546.021 214.989ZM511.934 254.04C522.11 254.04 530.36 262.287 530.36 272.462C530.36 282.638 522.11 290.888 511.934 290.888C501.759 290.888 493.512 282.638 493.512 272.462C493.512 262.287 501.759 254.04 511.934 254.04ZM477.851 293.087C488.027 293.087 496.277 301.337 496.277 311.513C496.277 321.689 488.027 329.935 477.851 329.935C467.675 329.935 459.425 321.689 459.425 311.513C459.425 301.337 467.675 293.087 477.851 293.087ZM546.021 293.087C556.197 293.087 564.444 301.337 564.444 311.513C564.444 321.689 556.197 329.935 546.021 329.935C535.846 329.935 527.596 321.689 527.596 311.513C527.596 301.337 535.846 293.087 546.021 293.087Z"
          fill="#1353B4"/>
    <path d="M792.042 508.823C792.042 478.793 787.248 448.764 777.66 424.034C700.951 424.034 637.027 452.296 598.673 508.823C637.027 565.349 700.951 593.611 777.66 593.611C787.248 568.881 792.042 538.852 792.042 508.823ZM777.147 474.722C777.147 484.898 768.897 493.148 758.721 493.148C748.547 493.148 740.299 484.898 740.299 474.722C740.299 464.547 748.547 456.297 758.721 456.297C768.897 456.297 777.147 464.547 777.147 474.722ZM777.147 542.893C777.147 553.069 768.897 561.315 758.721 561.315C748.547 561.315 740.299 553.069 740.299 542.893C740.299 532.717 748.547 524.467 758.721 524.467C768.897 524.467 777.147 532.717 777.147 542.893ZM738.097 508.806C738.097 518.982 729.85 527.232 719.674 527.232C709.498 527.232 701.248 518.982 701.248 508.806C701.248 498.63 709.498 490.383 719.674 490.383C729.85 490.383 738.097 498.63 738.097 508.806ZM699.049 474.722C699.049 484.898 690.799 493.148 680.624 493.148C670.448 493.148 662.201 484.898 662.201 474.722C662.201 464.547 670.448 456.297 680.624 456.297C690.799 456.297 699.049 464.547 699.049 474.722ZM699.049 542.893C699.049 553.069 690.799 561.315 680.624 561.315C670.448 561.315 662.201 553.069 662.201 542.893C662.201 532.717 670.448 524.467 680.624 524.467C690.799 524.467 699.049 532.717 699.049 542.893Z"
          fill="#1353B4"/>
    <path d="M231.57 508.823C231.57 538.853 236.364 568.881 245.952 593.612C322.661 593.612 386.585 565.349 424.939 508.823C386.585 452.296 322.661 424.034 245.952 424.034C236.364 448.764 231.57 478.793 231.57 508.823ZM246.465 542.923C246.465 532.747 254.715 524.497 264.89 524.497C275.064 524.497 283.313 532.747 283.313 542.923C283.313 553.099 275.064 561.349 264.89 561.349C254.715 561.349 246.465 553.099 246.465 542.923ZM246.465 474.753C246.465 464.577 254.715 456.33 264.89 456.33C275.064 456.33 283.313 464.577 283.313 474.753C283.313 484.928 275.064 493.178 264.89 493.178C254.715 493.178 246.465 484.928 246.465 474.753ZM285.515 508.839C285.515 498.664 293.762 490.414 303.938 490.414C314.113 490.414 322.364 498.664 322.364 508.839C322.364 519.015 314.113 527.262 303.938 527.262C293.762 527.262 285.515 519.015 285.515 508.839ZM324.563 542.923C324.563 532.747 332.813 524.497 342.988 524.497C353.164 524.497 361.411 532.747 361.411 542.923C361.411 553.099 353.164 561.349 342.988 561.349C332.813 561.349 324.563 553.099 324.563 542.923ZM324.563 474.753C324.563 464.577 332.813 456.33 342.988 456.33C353.164 456.33 361.411 464.577 361.411 474.753C361.411 484.928 353.164 493.178 342.988 493.178C332.813 493.178 324.563 484.928 324.563 474.753Z"
          fill="#1353B4"/>
</svg>
