<svg width="100" height="100" viewBox="0 0 100 100" fill="none" xmlns="http://www.w3.org/2000/svg">
<g clip-path="url(#clip0_430_26)">
<rect width="100" height="100" fill="url(#paint0_linear_430_26)"/>
<path d="M25.4286 64.9762V41.4797L43.2474 54.8891V64.975H47.7954V53.9434C47.7946 53.5334 47.6987 53.1292 47.5154 52.7626C47.3321 52.3959 47.0662 52.0767 46.7388 51.8301L25.1294 35.5606C24.7341 35.267 24.2652 35.0888 23.7748 35.0457C23.2843 35.0026 22.7915 35.0964 22.3512 35.3166C21.9108 35.5368 21.5401 35.8747 21.2803 36.2929C21.0205 36.7112 20.8817 37.1932 20.8794 37.6855V64.9762H25.4286ZM74.7079 64.9762V41.4797L56.8892 54.8891V64.975H52.3415V53.9434C52.3423 53.5334 52.4382 53.1292 52.6215 52.7626C52.8048 52.3959 53.0707 52.0767 53.3981 51.8301L75.0075 35.5672C75.4023 35.274 75.8706 35.0958 76.3605 35.0525C76.8504 35.0091 77.3427 35.1023 77.7828 35.3217C78.223 35.5411 78.5937 35.8781 78.854 36.2953C79.1143 36.7126 79.254 37.1938 79.2575 37.6855V64.9762H74.7079Z" fill="white"/>
</g>
<defs>
<linearGradient id="paint0_linear_430_26" x1="50" y1="100" x2="50" y2="0" gradientUnits="userSpaceOnUse">
<stop stop-color="#6ACEBB"/>
<stop offset="1" stop-color="#419A8A"/>
</linearGradient>
<clipPath id="clip0_430_26">
<rect width="100" height="100" fill="white"/>
</clipPath>
</defs>
</svg>
