<svg width="100" height="100" viewBox="0 0 100 100" fill="none" xmlns="http://www.w3.org/2000/svg">
    <rect width="100" height="100" fill="#141026"/>
    <path fill-rule="evenodd" clip-rule="evenodd"
          d="M48.0423 28.0696C48.0428 28.069 48.0432 28.0685 48.0436 28.0678C51.4932 29.8377 55.2678 30.4442 58.8799 30.4337C60.9787 32.3614 62.7249 34.6257 64.3656 36.9507C65.0459 37.9219 65.6594 38.9381 66.202 39.9925C67.4567 42.4084 68.3794 44.9646 69.313 47.551C69.5867 48.3095 69.8616 49.0707 70.1459 49.8316C70.2349 50.1573 70.328 50.4831 70.425 50.8092L70.4301 50.8079C71.8721 55.7536 73.9775 61.0367 76.7988 65.3988L76.796 65.4C77.7292 66.8329 78.7745 68.1897 79.9223 69.4577C80.1481 69.702 80.3791 69.944 80.6104 70.1863L80.6105 70.1864L80.6106 70.1865L80.6109 70.1867C81.6914 71.3188 82.7796 72.4589 83.3965 73.8853C84.1646 75.6629 84.1057 77.7075 83.6437 79.5886C81.4641 88.4554 72.9253 90.7852 64.7648 91L64.7687 90.9898C61.709 91.0508 58.6704 90.8227 55.976 90.5466C55.976 90.5466 42.981 89.2016 31.966 81.1485L31.6105 80.8842C31.6105 80.8842 31.6105 80.8842 31.6106 80.8842C30.3249 79.9261 29.0983 78.891 27.9376 77.7845C24.8502 74.8378 22.1031 71.4956 20.0024 67.8265C20.0164 67.8125 20.0304 67.7983 20.0444 67.7842C19.7958 67.3368 19.5575 66.8849 19.3294 66.4283C17.2971 62.3609 16.0585 57.9332 16.0025 53.227C15.9069 45.3301 18.6084 37.243 23.7435 31.3798C23.7417 31.375 23.7399 31.3701 23.738 31.3653C26.5184 28.3197 29.9936 25.9272 34.1076 24.565C36.6867 23.7033 39.3944 23.2895 42.1131 23.3417C43.7676 25.2843 45.7808 26.8895 48.0423 28.0696ZM41.7123 79.7379C43.5714 79.0593 45.3327 78.1467 46.975 77.0221C45.3223 78.1391 43.5585 79.0522 41.7123 79.7379Z"
          fill="url(#paint0_linear_608_86)"/>
    <path fill-rule="evenodd" clip-rule="evenodd"
          d="M75.0144 21.6381C75.0157 21.6381 75.017 21.6381 75.0184 21.638L75.1305 21.5657C60.6422 -3.1486 41.6978 16.3092 41.6978 16.3092L41.7248 16.3569C41.7237 16.3571 41.7227 16.3574 41.7215 16.3577C52.6154 35.4574 73.3192 22.7273 75.0144 21.6381Z"
          fill="url(#paint1_linear_608_86)"/>
    <path d="M57.0549 64.2049C53.0626 73.7484 45.3974 80.0677 36.1105 81.0249C35.9109 81.0515 33.3691 81.2521 31.9661 81.1485C42.9811 89.2015 55.976 90.5466 55.976 90.5466C58.7583 90.8317 61.9075 91.0656 65.0681 90.9829C66.1812 88.077 66.8076 84.7501 66.6279 80.9755C66.2106 72.2085 71.2942 67.7077 76.7988 65.3988C73.9776 61.0367 71.8721 55.7535 70.4301 50.8078C66.1317 51.9513 60.6727 55.5473 57.0549 64.2049Z"
          fill="url(#paint2_linear_608_86)"/>
    <path d="M66.4538 80.9137C66.6344 84.6883 65.8777 88.0942 64.7646 91C72.9251 90.7852 81.4639 88.4554 83.6436 79.5886C84.1055 77.7075 84.1645 75.6628 83.3964 73.8853C82.6474 72.1534 81.2035 70.8435 79.9221 69.4576C78.7234 68.1334 77.6364 66.7123 76.6722 65.2087C71.1723 67.5185 66.0365 72.1477 66.4538 80.9137Z"
          fill="url(#paint3_linear_608_86)"/>
    <path d="M70.1459 49.8316C68.8922 46.4762 67.8247 43.1169 66.2021 39.9924C65.6595 38.9381 65.046 37.9219 64.3656 36.9507C62.725 34.6256 60.9788 32.3614 58.88 30.4337C55.2679 30.4442 51.4933 29.8377 48.0437 28.0678C44.5495 33.024 40.5515 41.4316 44.2111 51.0283C49.615 65.2011 38.6485 74.8872 31.6106 80.8842L31.9661 81.1485C33.2857 81.2514 34.612 81.2324 35.928 81.0914C45.2139 80.1333 53.3231 73.6619 57.3154 64.1193C60.9342 55.4617 66.1983 52.1728 70.491 51.0283C70.37 50.6291 70.255 50.2302 70.1459 49.8316Z"
          fill="url(#paint4_linear_608_86)"/>
    <path d="M24.1211 30.9575C18.741 36.8509 15.9045 45.1387 16.0025 53.227C16.0585 57.9332 17.2971 62.3608 19.3294 66.4282C19.6342 67.0385 19.9574 67.6405 20.2989 68.2343C31.6096 56.8809 27.5231 39.9639 24.1211 30.9575Z"
          fill="url(#paint5_linear_608_86)"/>
    <path d="M44.4012 51.0284C40.7416 41.4278 44.6502 33.0753 48.1397 28.1201C45.8385 26.9354 43.7913 25.3122 42.1132 23.3417C39.3944 23.2895 36.6868 23.7033 34.1077 24.565C29.9937 25.9272 26.5185 28.3197 23.7381 31.3653C27.065 40.174 31.0631 56.7222 20.0024 67.8265C22.1032 71.4956 24.8503 74.8378 27.9376 77.7845C29.1554 78.9454 30.4457 80.0277 31.8007 81.0249C38.8386 75.0308 49.8051 65.2011 44.4012 51.0284Z"
          fill="url(#paint6_linear_608_86)"/>
    <path d="M58.0473 17.8836C65.7059 20.9054 71.0699 21.7238 74.9586 21.6069L75.0707 21.5346C60.5824 -3.17969 41.6379 16.2781 41.6379 16.2781L41.6655 16.3266C45.7519 15.6023 51.691 15.377 58.0473 17.8836Z"
          fill="url(#paint7_linear_608_86)"/>
    <path d="M58.1423 17.7125C51.7897 15.2097 45.8165 15.3047 41.6616 16.3266C52.5559 35.427 73.2608 22.6953 74.9547 21.6069C71.0631 21.7238 65.8009 20.7343 58.1423 17.7125Z"
          fill="url(#paint8_linear_608_86)"/>
    <defs>
        <linearGradient id="paint0_linear_608_86" x1="7.52544" y1="34.9336" x2="96.1168" y2="88.0219"
                        gradientUnits="userSpaceOnUse">
            <stop stop-color="#E54033"/>
            <stop offset="0.489583" stop-color="#FECA1A"/>
            <stop offset="1" stop-color="#AFD803"/>
        </linearGradient>
        <linearGradient id="paint1_linear_608_86" x1="25075.5" y1="2970.33" x2="19529.4" y2="-2734.6"
                        gradientUnits="userSpaceOnUse">
            <stop offset="0.15" stop-color="#6CBF00"/>
            <stop offset="1" stop-color="#AFD803"/>
        </linearGradient>
        <linearGradient id="paint2_linear_608_86" x1="22.8227" y1="81.8177" x2="78.3349" y2="68.3198"
                        gradientUnits="userSpaceOnUse">
            <stop offset="0.21" stop-color="#E54033"/>
            <stop offset="0.84" stop-color="#FECA1A"/>
        </linearGradient>
        <linearGradient id="paint3_linear_608_86" x1="66.5583" y1="78.0734" x2="83.6873" y2="78.2018"
                        gradientUnits="userSpaceOnUse">
            <stop stop-color="#FECA1A"/>
            <stop offset="0.4" stop-color="#FECA1A"/>
            <stop offset="1" stop-color="#AFD803"/>
        </linearGradient>
        <linearGradient id="paint4_linear_608_86" x1="27.7865" y1="82.1637" x2="62.9046" y2="34.6199"
                        gradientUnits="userSpaceOnUse">
            <stop offset="0.16" stop-color="#E54033"/>
            <stop offset="0.84" stop-color="#FECA1A"/>
        </linearGradient>
        <linearGradient id="paint5_linear_608_86" x1="22.6725" y1="34.9232" x2="21.1174" y2="65.6317"
                        gradientUnits="userSpaceOnUse">
            <stop stop-color="#FECA1A"/>
            <stop offset="0.76" stop-color="#E54033"/>
        </linearGradient>
        <linearGradient id="paint6_linear_608_86" x1="39.8519" y1="26.949" x2="30.4728" y2="62.5633"
                        gradientUnits="userSpaceOnUse">
            <stop offset="0.16" stop-color="#FECA1A"/>
            <stop offset="1" stop-color="#E54033"/>
        </linearGradient>
        <linearGradient id="paint7_linear_608_86" x1="43.4849" y1="9.89798" x2="78.2114" y2="22.6981"
                        gradientUnits="userSpaceOnUse">
            <stop offset="0.15" stop-color="#6CBF00"/>
            <stop offset="1" stop-color="#AFD803"/>
        </linearGradient>
        <linearGradient id="paint8_linear_608_86" x1="25075.4" y1="2970.3" x2="19529.3" y2="-2734.63"
                        gradientUnits="userSpaceOnUse">
            <stop offset="0.15" stop-color="#6CBF00"/>
            <stop offset="1" stop-color="#AFD803"/>
        </linearGradient>
    </defs>
</svg>
