<svg width="100" height="100" viewBox="0 0 100 100" fill="none" xmlns="http://www.w3.org/2000/svg">
    <g clip-path="url(#clip0_613_261)">
        <rect width="100" height="100" fill="#BDE9DA"/>
        <path fill-rule="evenodd" clip-rule="evenodd"
              d="M82.1596 57.2075L82.1605 57.2015C83.4736 56.4814 84.8337 54.8255 85.7627 53.6945H85.7629C86.014 53.3887 86.2337 53.1212 86.4123 52.9211C88.1206 50.7124 89.3581 48.1773 90.0489 45.4721C94.2768 30.5005 83.9146 19.2976 68.7623 21.2137C57.7907 23.1536 50.0093 30.5414 42.2224 37.9345C39.7423 40.2889 37.2619 42.644 34.6778 44.8235C33.624 44.3428 32.1726 44.1411 30.9886 43.9764C30.4377 43.8998 29.9448 43.8313 29.5765 43.7466C23.8383 43.2725 17.3081 44.7437 13.2756 49.0841C6.86277 56.2888 7.00472 67.4183 18.2467 68.9971C20.885 69.4687 23.5883 69.3754 26.1796 68.7287C26.2533 69.0751 26.3954 69.4071 26.5374 69.7386C26.6257 69.945 26.714 70.1513 26.7857 70.3609C27.2335 71.4394 27.5693 72.5699 27.9054 73.7004C28.3946 75.3466 28.8839 76.993 29.7185 78.4794C29.9947 78.8404 30.3633 79.0115 30.7426 79.0377C30.9789 79.2985 31.3093 79.4747 31.722 79.4913C40.2281 75.7785 49.1608 73.1319 58.3168 71.612C63.4479 70.64 68.5872 70.1624 73.7583 69.6819H73.7588C76.7004 69.4086 79.6522 69.1341 82.619 68.7673C84.1294 68.8005 84.6896 67.4725 84.3237 66.5059C84.4738 66.2282 84.5371 65.888 84.4667 65.4973C84.2071 64.4126 83.8862 63.342 83.566 62.2737L83.5658 62.2731C83.5124 62.0949 83.459 61.9169 83.4058 61.7387C83.324 61.4564 83.2413 61.1741 83.1584 60.8917L83.1576 60.8899C82.7999 59.6713 82.4411 58.4492 82.1596 57.2075ZM29.1317 67.7545C30.9399 67.1301 33.0407 66.2523 32.3674 64.4807C32.1854 64.1013 31.8618 63.8083 31.4662 63.6649C31.0704 63.5215 30.6341 63.5388 30.2511 63.7134C25.2166 66.3968 18.1243 67.4233 13.5102 63.4299C10.4064 59.5489 13.1388 53.6737 16.2474 50.6042C20.422 47.043 26.2691 46.3068 31.5713 47.3056C30.7232 47.9426 29.8606 48.5553 28.9803 49.1378C27.2402 50.3011 28.946 52.8721 30.691 51.8066C35.5654 48.7409 39.7071 44.7532 43.8516 40.7627C46.4605 38.2506 49.0704 35.7376 51.865 33.4528C58.1899 28.0957 66.4063 23.1297 75.0039 24.4005C79.2907 25.2803 83.8998 27.2208 85.9283 31.3559C89.3401 37.6172 87.8932 45.9559 83.5871 51.44C82.7201 52.5636 81.7146 53.5731 80.5945 54.4443C80.1716 54.3182 79.6847 54.2754 79.2249 54.2349C79.0493 54.2194 78.8776 54.2043 78.7151 54.185C80.1167 51.8369 80.8385 48.136 80.7623 46.5619C80.9285 44.5287 77.8785 44.2306 77.6633 46.254C77.6115 47.4887 77.4364 48.7152 77.1405 49.915C76.7981 51.1419 76.2093 52.2861 75.4101 53.2779C75.1428 53.3792 74.9079 53.5507 74.7299 53.7745C74.6747 53.8441 74.6255 53.9179 74.5828 53.9949C73.3871 53.974 72.1913 53.98 70.9963 54.0126C71.9091 51.9433 72.4138 49.4979 72.1886 48.4683C72.0589 47.1921 71.7983 45.9325 71.4112 44.7095C70.7709 42.7642 67.8532 43.6978 68.4299 45.6528C69.4505 48.4541 69.1597 51.8511 67.2121 54.2061C64.8897 54.3802 62.5744 54.6557 60.2725 55.0325C57.4162 55.6222 54.604 56.4077 51.8555 57.3835C51.465 57.5137 51.1401 57.7901 50.9488 58.1545C50.7575 58.519 50.7145 58.9434 50.8291 59.3386C50.9563 59.7317 51.2316 60.0597 51.5966 60.2532C51.9616 60.4467 52.3876 60.4903 52.7841 60.3749C53.3889 60.192 53.9914 60.0032 54.5934 59.8142H54.5938H54.594L54.5941 59.814H54.5943C56.084 59.3468 57.5718 58.8801 59.0894 58.5077C61.9523 57.8342 64.7292 57.5415 67.6285 57.367C67.8269 57.3954 68.0232 57.3825 68.2165 57.3331C68.9128 57.2948 69.6167 57.2624 70.3314 57.2319C73.2253 56.994 76.1155 57.1556 78.9931 57.3447C79.0223 58.0855 79.2852 58.9246 79.5239 59.6859V59.6861C79.6643 60.1336 79.7962 60.5544 79.8673 60.9126C80.1145 61.7337 80.3396 62.5623 80.5646 63.3905C80.7745 64.1629 80.9843 64.935 81.2119 65.7003C78.6289 66.0019 76.0371 66.2563 73.4443 66.5107C66.859 67.1568 60.2667 67.8036 53.7955 69.2269C49.042 70.1887 44.3534 71.4473 39.7574 72.9954L39.7447 72.9994C37.1265 73.8371 34.4812 74.6833 32.077 76.0221C31.7076 75.0185 31.3803 73.996 31.0529 72.9734C30.4856 71.2011 29.9184 69.4288 29.1317 67.7545ZM37.1488 66.6211C35.746 67.1674 33.6871 67.9692 34.6696 69.7253C35.5966 70.9349 36.8423 70.2785 38.0531 69.6407C38.6235 69.34 39.1862 69.0438 39.7042 68.9483C41.1272 68.3827 42.5793 67.8932 44.0542 67.4819C44.994 67.2347 45.9386 67.0027 46.8809 66.7713C47.2426 66.6825 47.6039 66.5938 47.9645 66.5043C49.905 65.8982 48.9861 62.9362 47.031 63.5325C43.7902 64.2356 40.6161 65.2169 37.5438 66.4651C37.421 66.5151 37.2882 66.5668 37.1488 66.6211Z"
              fill="#171923"/>
    </g>
    <defs>
        <clipPath id="clip0_613_261">
            <rect width="100" height="100" fill="white"/>
        </clipPath>
    </defs>
</svg>
