<svg width="100" height="100" viewBox="0 0 100 100" fill="none" xmlns="http://www.w3.org/2000/svg">
<rect width="100" height="100" fill="#11122F"/>
<path opacity="0.9" d="M25.6504 60.2635V77.5107C25.6504 78.5724 26.5518 79.0131 26.8322 79.1133C27.1127 79.2335 28.0542 79.4939 28.8955 78.7126L43.6588 64.5703C45.021 62.8075 45.5218 61.7058 45.5218 61.7058C46.3231 60.0832 46.323 58.5208 45.5418 56.9583C44.3799 54.6346 41.4153 52.2709 36.9483 50.0273L29.3162 54.2741C27.0526 55.5561 25.6504 57.8196 25.6504 60.2635Z" fill="#A9D6FF"/>
<path d="M18 21.905V39.9935C18 42.2571 19.5225 44.2602 21.6859 44.9013C29.0575 47.0246 41.8977 51.5918 45.0026 58.3024C45.4033 59.1838 45.6437 60.0452 45.7238 60.9466C47.7871 57.2007 48.7286 52.8939 48.2879 48.527C47.6869 42.3372 44.4017 36.7083 39.2736 33.1227L20.9848 20.3625C20.6642 20.1221 20.2836 20.002 19.903 20.002C19.5825 20.002 19.3021 20.0621 19.0016 20.2223C18.4006 20.5628 18 21.1838 18 21.905Z" fill="url(#paint0_linear_860_108)"/>
<path opacity="0.9" d="M74.3362 60.2635V77.5107C74.3362 78.5724 73.4348 79.0131 73.1543 79.1133C72.8739 79.2335 71.9324 79.4939 71.0911 78.7126L56.3278 64.5703C54.9656 62.8075 54.4648 61.7058 54.4648 61.7058C53.6635 60.0832 53.6636 58.5208 54.4448 56.9583C55.6066 54.6346 58.5713 52.2709 63.0383 50.0273L70.6704 54.2741C72.954 55.5561 74.3362 57.8196 74.3362 60.2635Z" fill="#A9D6FF"/>
<path d="M81.9997 21.903V39.9916C81.9997 42.2551 80.4773 44.2583 78.3139 44.8993C70.9423 47.0227 58.102 51.5899 54.9971 58.3005C54.5965 59.1819 54.3561 60.0432 54.276 60.9446C52.2127 57.1987 51.2712 52.8919 51.7119 48.525C52.3129 42.3353 55.5981 36.7064 60.7262 33.1207L79.015 20.3606C79.3355 20.1202 79.7162 20 80.0968 20C80.4173 20 80.6977 20.0601 80.9981 20.2203C81.5991 20.5609 81.9997 21.1819 81.9997 21.903Z" fill="url(#paint1_linear_860_108)"/>
<defs>
<linearGradient id="paint0_linear_860_108" x1="49.3696" y1="60.6836" x2="18" y2="60.6836" gradientUnits="userSpaceOnUse">
<stop offset="0.0677083" stop-color="#EFFDFF"/>
<stop offset="1" stop-color="#A9D6FF"/>
</linearGradient>
<linearGradient id="paint1_linear_860_108" x1="51.6905" y1="60.6816" x2="81.7595" y2="60.6816" gradientUnits="userSpaceOnUse">
<stop offset="0.0677083" stop-color="#EFFDFF"/>
<stop offset="1" stop-color="#A9D6FF"/>
</linearGradient>
</defs>
</svg>
