<svg width="100" height="100" viewBox="0 0 100 100" fill="none" xmlns="http://www.w3.org/2000/svg">
    <g clip-path="url(#clip0_430_17)">
        <rect width="100" height="100" fill="white"/>
        <rect width="100" height="100" fill="#FF0420"/>
        <path d="M35.4268 63.2892C32.4496 63.2892 30.0104 62.5886 28.109 61.1876C26.2326 59.7616 25.2944 57.7352 25.2944 55.1082C25.2944 54.5578 25.357 53.8822 25.482 53.0816C25.8074 51.2804 26.2702 49.1162 26.8706 46.5894C28.5718 39.7094 32.9626 36.2694 40.0428 36.2694C41.9692 36.2694 43.6954 36.5946 45.2216 37.245C46.7478 37.8704 47.9486 38.8212 48.8242 40.0972C49.6998 41.348 50.1378 42.8492 50.1378 44.6004C50.1378 45.1258 50.0752 45.7888 49.95 46.5894C49.5748 48.816 49.1244 50.9802 48.599 53.0816C47.7234 56.5092 46.2098 59.0736 44.0582 60.7748C41.9066 62.451 39.0296 63.2892 35.4268 63.2892ZM35.9522 57.8852C37.3534 57.8852 38.5416 57.4724 39.5174 56.6468C40.5182 55.8212 41.2312 54.5578 41.6564 52.8566C42.2318 50.5048 42.6698 48.4532 42.97 46.702C43.07 46.1766 43.12 45.6388 43.12 45.0882C43.12 42.8116 41.9316 41.6732 39.555 41.6732C38.1538 41.6732 36.953 42.086 35.9522 42.9116C34.9766 43.7374 34.276 45.0008 33.8508 46.702C33.4004 48.3782 32.95 50.4298 32.4998 52.8566C32.3996 53.3568 32.3496 53.8822 32.3496 54.4326C32.3496 56.7344 33.5506 57.8852 35.9522 57.8852Z"
              fill="white"/>
        <path d="M51.8609 62.914C51.5857 62.914 51.3729 62.8264 51.2229 62.6512C51.0977 62.451 51.0603 62.226 51.1103 61.9758L56.2891 37.5828C56.3391 37.3076 56.4767 37.0824 56.7019 36.9072C56.9271 36.7322 57.1647 36.6446 57.4149 36.6446H67.3973C70.1743 36.6446 72.4009 37.22 74.0771 38.3708C75.7785 39.5218 76.6291 41.1854 76.6291 43.362C76.6291 43.9874 76.5541 44.638 76.4039 45.3134C75.7785 48.1906 74.5151 50.3172 72.6137 51.6932C70.7373 53.0692 68.1603 53.7572 64.8829 53.7572H59.8167L58.0905 61.9758C58.0403 62.251 57.9027 62.476 57.6777 62.6512C57.4525 62.8264 57.2147 62.914 56.9647 62.914H51.8609ZM65.1457 48.5784C66.1963 48.5784 67.1095 48.2906 67.8851 47.7152C68.6857 47.1398 69.2111 46.3142 69.4613 45.2384C69.5363 44.813 69.5739 44.4378 69.5739 44.1126C69.5739 43.387 69.3613 42.8366 68.9359 42.4614C68.5105 42.061 67.7851 41.861 66.7593 41.861H62.2559L60.8299 48.5784H65.1457Z"
              fill="white"/>
    </g>
    <defs>
        <clipPath id="clip0_430_17">
            <rect width="100" height="100" fill="white"/>
        </clipPath>
    </defs>
</svg>
