<svg width="100" height="100" viewBox="0 0 100 100" fill="none" xmlns="http://www.w3.org/2000/svg">
<g clip-path="url(#clip0_613_240)">
<rect width="100" height="100" fill="#FFD15C"/>
<path d="M80.1714 43.7247C78.0973 40.8203 75.896 39.2978 74.5181 38.5581C74.0343 37.6692 73.4984 36.7937 72.9098 35.9334C71.2136 33.4538 69.446 31.3036 67.6573 29.5426C65.9845 27.8959 64.2391 26.537 62.4698 25.5038C59.3908 23.7055 56.1977 22.8282 52.7074 22.8217C52.6939 22.8217 52.6808 22.8217 52.6674 22.8217C49.472 22.8217 46.5536 23.5487 44.119 24.2605C43.4203 24.4646 42.7106 24.6856 42.0229 24.9002C40.2654 25.4473 38.605 25.9646 37.2041 26.1952C36.2496 26.3524 35.5014 26.7124 34.981 27.2652C34.4895 27.7872 34.1967 28.4852 34.1111 29.3394C33.9514 30.937 34.5181 33.0776 35.7502 35.5299C38.2147 40.4351 42.9352 45.8354 47.7765 49.2882C48.2734 49.6427 48.7446 50.0334 49.1875 50.4552C49.181 50.4569 49.1744 50.4582 49.1675 50.4595C45.4028 50.9971 43.4412 55.0433 42.6469 57.2295C42.4398 57.7995 43.0033 58.3104 43.5788 58.1161C45.8601 57.3471 50.4577 56.1164 53.1495 57.5829C53.6523 59.9879 53.4403 62.346 52.5327 64.1886C51.9761 65.3187 51.183 66.222 50.1754 66.8739C49.0889 67.577 47.7765 67.97 46.274 68.0424C44.6458 68.1211 42.8001 67.8215 40.7886 67.1518C38.5998 66.423 36.1962 65.2496 33.6447 63.6636L33.5974 63.6346L33.5483 63.6085C33.5194 63.5928 33.4889 63.5754 33.4585 63.5573C37.1107 59.1558 34.8838 52.5088 33.9927 50.3176C33.8737 50.0252 33.4706 50.0273 33.31 50.2992C31.2232 53.8325 26.943 53.5703 27.019 57.7782C27.0173 57.7749 27.0155 57.7719 27.0138 57.7687C23.7415 55.1079 21.3126 58.6477 17.2409 58.1161C16.9278 58.0754 16.6781 58.392 16.8353 58.6655C18.0095 60.7106 21.8555 66.5272 27.5428 66.397C27.7685 66.6432 28.0297 66.9281 28.2319 67.1518L28.9182 67.9091C31.7053 70.9847 34.7578 73.4253 37.9911 75.1634C41.0027 76.7823 44.1724 77.7954 47.4127 78.1753C48.3832 78.2893 49.3564 78.3457 50.3288 78.3457C55.9705 78.3457 61.5783 76.4487 66.3823 72.8704C69.0773 70.8631 71.3808 68.4407 73.2281 65.6708C75.119 62.8359 76.4427 59.7677 77.1622 56.552C77.6417 54.4097 77.8406 52.2488 77.7594 50.0934C79.5434 49.5627 81.5133 51.1357 82.4775 52.059C82.7128 52.2842 83.101 52.1445 83.0901 51.8188C83.0403 50.3422 82.6168 47.1498 80.1714 43.7247ZM63.9146 70.5826C59.0664 74.0195 53.3665 75.5493 47.7974 74.8963C44.9715 74.5649 42.1983 73.6763 39.5545 72.2549C37.0304 70.8982 34.6162 69.05 32.3628 66.751C37.3986 69.8091 41.8981 71.3561 45.7559 71.3561C45.9839 71.3561 46.2097 71.3508 46.433 71.34C48.5248 71.2388 50.3871 70.6689 51.9686 69.6453C53.4838 68.6652 54.6698 67.3198 55.4941 65.6474C56.2279 64.1578 56.6363 62.4825 56.7074 60.6667C56.7739 58.9716 56.5455 57.2394 56.0279 55.5179C54.9408 51.9053 52.6913 48.7381 49.6939 46.6001C47.4739 45.0167 45.2469 42.9639 43.2549 40.6643C41.6433 38.8043 40.2727 36.8892 39.2444 35.0661L39.2448 35.0639C39.2448 35.0639 39.2366 35.0514 39.2235 35.0288C39.213 35.0101 39.2026 34.9914 39.1923 34.9727C39.0216 34.6541 38.5729 33.5965 39.9865 33.3945C53.3406 31.4873 80.5123 56.8568 63.9146 70.5826Z" fill="black"/>
<path d="M39.9866 33.3945C38.5726 33.5965 39.0216 34.6535 39.1923 34.9727C39.2026 34.9914 39.2131 35.0101 39.2235 35.0287C39.237 35.0513 39.2448 35.0639 39.2448 35.0639L39.2444 35.0661C40.2727 36.8892 41.6434 38.8043 43.255 40.6643C45.2474 42.9639 47.474 45.0167 49.6939 46.6001C52.6917 48.7381 54.9412 51.9052 56.0277 55.5179C56.5455 57.2394 56.774 58.9716 56.7075 60.6667C56.6363 62.4819 56.228 64.1578 55.4941 65.6474C54.6698 67.3197 53.4839 68.6652 51.9686 69.6453C50.3869 70.6685 48.5245 71.2388 46.433 71.34C46.2098 71.3508 45.9834 71.3561 45.7559 71.3561C41.8981 71.3561 37.3986 69.8091 32.3628 66.751C34.6162 69.05 37.0304 70.8982 39.5545 72.2549C42.1983 73.6763 44.9716 74.5649 47.7975 74.8963C53.3666 75.5489 59.0664 74.0189 63.9147 70.5826C80.5123 56.8568 53.3406 31.4872 39.9866 33.3945Z" fill="white"/>
<path d="M30.6101 63.7327C30.6101 63.733 30.6165 63.7343 30.6275 63.7357C30.6154 63.7327 30.6096 63.7323 30.6101 63.7327Z" fill="black"/>
<path d="M31.1528 63.4925C31.1571 63.4859 31.1594 63.4822 31.1594 63.4822C31.1588 63.4816 31.1568 63.4852 31.1528 63.4925Z" fill="black"/>
<path d="M53.8971 32.4673C53.4337 31.8182 52.5061 30.0563 55.3811 30.0563C58.2564 30.0563 62.6491 33.3116 63.5425 34.5158C63.264 35.2499 61.4092 35.4139 60.4821 35.3428C59.5546 35.2716 57.9781 35.1192 56.7725 34.5158C55.5664 33.9127 54.3609 33.1166 53.8971 32.4673Z" fill="white"/>
</g>
<defs>
<clipPath id="clip0_613_240">
<rect width="100" height="100" fill="white"/>
</clipPath>
</defs>
</svg>
