<svg width="100" height="100" viewBox="0 0 100 100" fill="none" xmlns="http://www.w3.org/2000/svg">
<rect width="100" height="100" fill="#170F34"/>
<path d="M86.867 23.4955C86.0333 20.281 83.3531 17.0666 78.5287 13.4882C74.6572 10.6376 70.5476 9 67.2718 9C66.6166 9 66.0211 9.06064 65.4254 9.18195C63.9365 9.48521 62.6261 10.5769 61.7923 12.2145C60.7797 14.1553 60.5416 16.7633 61.1968 18.3402C61.4349 18.8255 61.7328 19.4319 62.0901 19.9778C58.9335 21.9186 57.1466 22.4645 56.9084 22.5252C65.1277 25.315 71.9772 31.1376 76.2655 38.719L76.325 37.991C76.5036 35.9897 77.0991 33.6848 77.933 31.3195C78.7669 31.5621 79.6007 31.6835 80.4346 31.6835C82.6384 31.6835 84.5443 30.7736 85.7355 29.136C86.9267 27.4984 87.4032 25.315 86.867 23.4955Z" fill="#5E12A0"/>
<path d="M78.2906 29.5607C83.7107 31.0771 85.9142 26.8316 85.1995 23.9809C84.4254 21.1304 81.9238 18.2191 77.5163 14.9439C73.109 11.6688 68.642 10.3344 65.783 10.941C62.9241 11.5475 62.0902 15.975 62.8051 17.6732C63.1028 18.3403 63.758 19.3107 64.6513 20.4024C63.5198 21.1909 62.4478 21.7974 61.5542 22.3433C67.0337 24.83 71.7986 28.7117 75.3722 33.5638C75.789 31.9262 76.3847 30.4705 76.9208 29.1969C77.3376 29.2576 77.8141 29.3788 78.2906 29.5607Z" fill="url(#paint0_radial_608_164)"/>
<path d="M47.2596 88.9985C65.6475 88.9985 80.5538 73.8192 80.5538 55.0947C80.5538 36.3701 65.6475 21.1909 47.2596 21.1909C28.8719 21.1909 13.9656 36.3701 13.9656 55.0947C13.9656 73.8192 28.8719 88.9985 47.2596 88.9985Z" fill="url(#paint1_radial_608_164)"/>
<path opacity="0.6" d="M82.4596 21.1907C77.9331 16.3386 74.1213 15.0649 69.5352 14.0338C65.9615 13.1847 66.9146 11.1226 71.2624 11.5472C69.1778 10.8193 67.2122 10.6374 65.7829 10.9406C62.9239 11.5472 62.0903 15.9747 62.8049 17.6729C63.1026 18.3401 63.7578 19.3105 64.6512 20.4022C63.0431 21.494 61.6732 22.2824 60.5415 22.889C61.0777 23.1315 61.7327 23.4346 62.5071 23.8593C64.5322 24.951 66.7359 26.7705 66.7359 26.7705C63.4004 23.8593 64.1151 22.525 68.7013 19.2498C70.1307 18.2188 72.7515 18.3401 75.1934 19.6138C77.6353 20.8874 80.4942 24.1019 80.4942 24.1019L77.7545 29.4391C77.9331 29.4998 78.1118 29.5605 78.2905 29.6212C80.0177 30.1064 81.3876 29.985 82.4596 29.5605C83.7105 28.7721 86.9863 26.1034 82.4596 21.1907Z" fill="#A98698"/>
<path d="M69.4755 16.9452C70.6667 17.4304 72.2152 18.2795 74.1211 19.5533C76.3846 21.0695 78.3499 22.7678 79.6006 24.1021C77.5161 26.8919 76.1462 30.7129 75.3123 33.3816C75.7294 33.9881 76.2059 34.5947 76.6227 35.2012C77.0396 33.6848 77.7544 31.4407 78.7073 29.1967C78.9456 29.2574 79.2433 29.2574 79.5412 29.2574C80.2558 29.2574 81.0897 29.136 81.7449 28.5902C82.2214 28.2262 82.7574 27.5591 82.6978 26.346C82.6978 25.1938 81.8044 23.7381 79.9582 21.9793C78.6478 20.7055 76.8609 19.3105 75.0742 18.0369C69.952 14.5798 66.3783 13.6094 64.7703 15.247C63.6983 16.3387 63.8173 17.673 64.1746 18.6435C62.2687 19.9171 60.6607 20.8269 59.5886 21.4335C60.3033 21.6761 60.9585 21.9793 61.6732 22.2824C63.5791 21.2514 66.3189 19.4926 69.4755 16.9452ZM80.7324 25.6183C80.911 25.9216 80.9705 26.2248 80.9705 26.4067C80.9705 26.9526 80.7919 27.1345 80.6729 27.2559C80.4345 27.4378 79.958 27.5592 79.5412 27.5592C79.8985 26.8314 80.3155 26.2248 80.7324 25.6183ZM66.021 16.5813C66.1997 16.3994 66.6762 16.2781 67.4506 16.3994C66.8549 16.8846 66.2594 17.3091 65.6637 17.7337C65.6042 17.3091 65.6637 16.8846 66.021 16.5813Z" fill="#5E12A0"/>
<path d="M47.2596 19.1893C27.7834 19.1893 12 35.2619 12 55.0946C12 74.9276 27.7834 91 47.2596 91C66.7357 91 82.519 74.9276 82.519 55.0946C82.519 35.2619 66.6762 19.1893 47.2596 19.1893ZM47.2596 88.9984C28.8555 88.9984 13.9655 73.8358 13.9655 55.0946C13.9655 36.3536 28.8555 21.1908 47.2596 21.1908C65.6636 21.1908 80.5537 36.3536 80.5537 55.0946C80.5537 73.8358 65.6041 88.9984 47.2596 88.9984Z" fill="#5E12A0"/>
<path opacity="0.6" d="M47.2596 88.9985C65.6475 88.9985 80.5538 73.8192 80.5538 55.0947C80.5538 36.3701 65.6475 21.1909 47.2596 21.1909C28.8719 21.1909 13.9656 36.3701 13.9656 55.0947C13.9656 73.8192 28.8719 88.9985 47.2596 88.9985Z" fill="url(#paint2_linear_608_164)"/>
<path opacity="0.6" d="M47.0215 84.8741C28.8556 81.9022 16.5266 64.4955 19.5046 45.9969C20.815 37.8091 24.8649 30.8343 30.5828 25.8001C22.2444 30.7129 16.0502 39.2646 14.3825 49.6967C11.464 68.1951 23.7929 85.6021 41.8993 88.574C52.0245 90.272 61.7923 87.0576 68.9991 80.7498C62.6262 84.5103 54.8834 86.1477 47.0215 84.8741Z" fill="#A98698"/>
<path opacity="0.6" d="M52.56 21.6759C44.1621 20.2809 36.0025 22.2217 29.3318 26.5279C29.2127 26.6493 29.0937 26.7705 29.0937 26.7705C31.6546 25.1936 35.407 23.7986 35.407 23.7986C25.7582 29.4998 22.7803 35.9895 22.7803 35.9895C26.5326 28.5902 37.551 23.3741 46.1872 23.0102C54.8235 22.6464 60.4817 25.2543 67.3906 30.8948C74.2995 36.596 78.4688 48.2411 78.0518 57.46C77.6945 66.6788 72.9298 74.139 72.9298 74.139C76.2056 69.8328 78.1712 66.6788 79.4219 63.4643C79.6602 62.494 79.8984 61.5236 80.0176 60.4924C82.9955 42.0547 70.7259 24.6478 52.56 21.6759Z" fill="url(#paint3_linear_608_164)"/>
<path d="M78.8865 54.7912C78.8865 72.5619 64.7111 86.9969 47.2602 86.9969C29.8091 86.9969 15.5742 72.5619 15.5742 54.7912H78.8865Z" fill="url(#paint4_linear_608_164)"/>
<g opacity="0.6">
<path opacity="0.6" d="M76.3844 54.7912C76.3844 72.1374 62.9239 86.3296 46.0088 86.9969C46.4258 86.9969 46.8427 86.9969 47.2595 86.9969C64.7106 86.9969 78.886 72.5619 78.886 54.7912H76.3844Z" fill="url(#paint5_linear_608_164)"/>
</g>
<g opacity="0.7">
<path opacity="0.7" d="M20.0412 54.7912H15.5742C15.5742 72.5619 29.7496 86.9969 47.2005 86.9969C47.9749 86.9969 48.6896 86.9969 49.4042 86.9362C33.0253 85.7233 20.0412 71.7734 20.0412 54.7912Z" fill="url(#paint6_linear_608_164)"/>
</g>
<path d="M78.827 55.0945C78.827 51.3948 72.5136 49.272 64.1156 48.5443C58.0406 48.0589 51.9058 48.6655 44.8778 50.8489C38.8025 52.6684 33.323 52.3651 29.3326 51.88C20.4581 50.8489 15.5742 50.7275 15.5742 55.0945C15.5742 61.4022 28.2009 69.2869 47.141 66.5576C56.7302 65.1626 61.6737 62.3121 67.3319 60.3712C73.4666 58.3089 78.827 58.3696 78.827 55.0945Z" fill="url(#paint7_linear_608_164)"/>
<path d="M57.6233 39.8105C60.5837 39.8105 62.9836 37.3668 62.9836 34.3521C62.9836 31.3374 60.5837 28.8934 57.6233 28.8934C54.6628 28.8934 52.2629 31.3374 52.2629 34.3521C52.2629 37.3668 54.6628 39.8105 57.6233 39.8105Z" fill="white"/>
<path d="M66.3777 43.8743C67.6278 43.8743 68.641 42.8425 68.641 41.5695C68.641 40.2967 67.6278 39.2648 66.3777 39.2648C65.1278 39.2648 64.1145 40.2967 64.1145 41.5695C64.1145 42.8425 65.1278 43.8743 66.3777 43.8743Z" fill="white"/>
<g opacity="0.6">
<path opacity="0.6" d="M74.4788 29.985C74.4193 29.985 74.3596 29.985 74.3596 29.985C74.0022 29.9243 73.7641 29.5605 73.8236 29.1358C74.3596 26.346 76.6228 23.6772 76.742 23.556C76.9802 23.2527 77.4567 23.2527 77.695 23.4953C77.9927 23.7379 77.9927 24.2231 77.7545 24.4659C77.695 24.5264 75.6103 27.0131 75.134 29.4391C75.0743 29.8031 74.7766 29.985 74.4788 29.985Z" fill="url(#paint8_linear_608_164)"/>
</g>
<path opacity="0.2" d="M45.0603 80.3862C45.9812 80.3862 46.7278 79.6259 46.7278 78.6882C46.7278 77.7502 45.9812 76.9899 45.0603 76.9899C44.1392 76.9899 43.3926 77.7502 43.3926 78.6882C43.3926 79.6259 44.1392 80.3862 45.0603 80.3862Z" fill="white"/>
<g opacity="0.4">
<path opacity="0.6" d="M44.1031 79.7815C43.4481 79.1142 43.4481 78.0225 44.1031 77.3555C44.2223 77.2341 44.3415 77.1736 44.4604 77.0522C44.2223 77.1129 44.0436 77.2341 43.8649 77.4162C43.2097 78.0832 43.2097 79.1749 43.8649 79.8422C44.4009 80.3881 45.2348 80.5092 45.89 80.1455C45.2943 80.3881 44.5796 80.2667 44.1031 79.7815Z" fill="url(#paint9_linear_608_164)"/>
</g>
<path opacity="0.3" d="M45.6515 78.2024C45.8489 78.2024 46.0091 78.0396 46.0091 77.8387C46.0091 77.6377 45.8489 77.4747 45.6515 77.4747C45.4542 77.4747 45.2942 77.6377 45.2942 77.8387C45.2942 78.0396 45.4542 78.2024 45.6515 78.2024Z" fill="white"/>
<path opacity="0.2" d="M53.7557 79.5369C54.6768 79.5369 55.4234 78.7766 55.4234 77.8388C55.4234 76.9008 54.6768 76.1405 53.7557 76.1405C52.8348 76.1405 52.0881 76.9008 52.0881 77.8388C52.0881 78.7766 52.8348 79.5369 53.7557 79.5369Z" fill="white"/>
<g opacity="0.4">
<path opacity="0.6" d="M52.7991 78.9321C52.1439 78.2649 52.1439 77.1731 52.7991 76.5061C52.9183 76.3847 53.0373 76.3242 53.1565 76.2028C52.9183 76.2635 52.7396 76.3847 52.561 76.5668C51.9058 77.2338 51.9058 78.3256 52.561 78.9928C53.097 79.5387 53.9309 79.6599 54.5859 79.2961C53.9903 79.5387 53.2757 79.4173 52.7991 78.9321Z" fill="url(#paint10_linear_608_164)"/>
</g>
<path opacity="0.3" d="M54.3473 77.3536C54.5447 77.3536 54.7047 77.1906 54.7047 76.9896C54.7047 76.7887 54.5447 76.6257 54.3473 76.6257C54.15 76.6257 53.99 76.7887 53.99 76.9896C53.99 77.1906 54.15 77.3536 54.3473 77.3536Z" fill="white"/>
<path opacity="0.2" d="M49.4635 83.4794C50.1543 83.4794 50.7143 82.9092 50.7143 82.2058C50.7143 81.5024 50.1543 80.932 49.4635 80.932C48.7726 80.932 48.2126 81.5024 48.2126 82.2058C48.2126 82.9092 48.7726 83.4794 49.4635 83.4794Z" fill="white"/>
<g opacity="0.4">
<path opacity="0.6" d="M48.7487 82.9957C48.2722 82.5106 48.2722 81.6614 48.7487 81.1763C48.8082 81.1156 48.9274 81.0549 48.9869 80.9942C48.8082 81.0549 48.689 81.1763 48.57 81.2974C48.0935 81.7826 48.0935 82.6318 48.57 83.1169C48.9869 83.5416 49.5824 83.6023 50.1186 83.299C49.6421 83.4809 49.1061 83.3597 48.7487 82.9957Z" fill="url(#paint11_linear_608_164)"/>
</g>
<path opacity="0.3" d="M49.88 81.7812C50.0114 81.7812 50.1181 81.6725 50.1181 81.5386C50.1181 81.4046 50.0114 81.296 49.88 81.296C49.7483 81.296 49.6416 81.4046 49.6416 81.5386C49.6416 81.6725 49.7483 81.7812 49.88 81.7812Z" fill="white"/>
<path opacity="0.2" d="M57.1465 82.5695C57.8372 82.5695 58.3972 81.9993 58.3972 81.2959C58.3972 80.5924 57.8372 80.0222 57.1465 80.0222C56.4557 80.0222 55.8958 80.5924 55.8958 81.2959C55.8958 81.9993 56.4557 82.5695 57.1465 82.5695Z" fill="white"/>
<g opacity="0.4">
<path opacity="0.6" d="M56.4328 82.0861C55.9563 81.6007 55.9563 80.7516 56.4328 80.2664C56.4923 80.2057 56.6115 80.1452 56.671 80.0845C56.4923 80.1452 56.3731 80.2664 56.2541 80.3878C55.7776 80.873 55.7776 81.7221 56.2541 82.2073C56.671 82.632 57.2665 82.6925 57.8027 82.3892C57.3262 82.5713 56.7901 82.4499 56.4328 82.0861Z" fill="url(#paint12_linear_608_164)"/>
</g>
<path opacity="0.3" d="M57.5638 80.8715C57.6955 80.8715 57.8022 80.7628 57.8022 80.6288C57.8022 80.4949 57.6955 80.3862 57.5638 80.3862C57.4324 80.3862 57.3257 80.4949 57.3257 80.6288C57.3257 80.7628 57.4324 80.8715 57.5638 80.8715Z" fill="white"/>
<path opacity="0.2" d="M37.9683 79.7799C39.4815 79.7799 40.708 78.5306 40.708 76.9899C40.708 75.449 39.4815 74.1999 37.9683 74.1999C36.4551 74.1999 35.2285 75.449 35.2285 76.9899C35.2285 78.5306 36.4551 79.7799 37.9683 79.7799Z" fill="white"/>
<g opacity="0.4">
<path opacity="0.6" d="M36.4214 78.7488C35.3493 77.6571 35.3493 75.8981 36.4214 74.8064C36.6 74.6245 36.7787 74.5031 37.0171 74.3819C36.6597 74.5031 36.3619 74.7459 36.064 74.9885C34.992 76.0802 34.992 77.839 36.064 78.9307C36.9576 79.8406 38.3275 80.0224 39.3995 79.3552C38.387 79.7799 37.1958 79.598 36.4214 78.7488Z" fill="url(#paint13_linear_608_164)"/>
</g>
<path opacity="0.3" d="M38.9212 76.1405C39.2502 76.1405 39.5169 75.8689 39.5169 75.5341C39.5169 75.1991 39.2502 74.9276 38.9212 74.9276C38.5924 74.9276 38.3257 75.1991 38.3257 75.5341C38.3257 75.8689 38.5924 76.1405 38.9212 76.1405Z" fill="white"/>
<path opacity="0.2" d="M62.449 72.926C63.962 72.926 65.1888 71.6769 65.1888 70.136C65.1888 68.5953 63.962 67.3462 62.449 67.3462C60.9358 67.3462 59.7092 68.5953 59.7092 70.136C59.7092 71.6769 60.9358 72.926 62.449 72.926Z" fill="white"/>
<g opacity="0.4">
<path opacity="0.6" d="M60.8391 71.895C59.7671 70.8033 59.7671 69.0445 60.8391 67.9528C61.0178 67.7707 61.1964 67.6495 61.4348 67.5281C61.0775 67.6495 60.7796 67.8921 60.4818 68.1347C59.4097 69.2264 59.4097 70.9854 60.4818 72.0771C61.3751 72.9867 62.745 73.1688 63.8172 72.5016C62.8047 72.926 61.673 72.7441 60.8391 71.895Z" fill="url(#paint14_linear_608_164)"/>
</g>
<path opacity="0.3" d="M63.4001 69.2869C63.7292 69.2869 63.9957 69.0154 63.9957 68.6803C63.9957 68.3453 63.7292 68.0738 63.4001 68.0738C63.0711 68.0738 62.8044 68.3453 62.8044 68.6803C62.8044 69.0154 63.0711 69.2869 63.4001 69.2869Z" fill="white"/>
<defs>
<radialGradient id="paint0_radial_608_164" cx="0" cy="0" r="1" gradientUnits="userSpaceOnUse" gradientTransform="translate(84.1132 20.1598) scale(26.6201 27.1076)">
<stop stop-color="#FFEAFF" stop-opacity="0.6"/>
<stop offset="0.6807" stop-color="#A087C9"/>
<stop offset="1" stop-color="#10002F"/>
</radialGradient>
<radialGradient id="paint1_radial_608_164" cx="0" cy="0" r="1" gradientUnits="userSpaceOnUse" gradientTransform="translate(69.3031 31.7207) scale(65.1295 66.3223)">
<stop stop-color="#FFEAFF" stop-opacity="0.6"/>
<stop offset="0.6807" stop-color="#A087C9"/>
<stop offset="1" stop-color="#10002F"/>
</radialGradient>
<linearGradient id="paint2_linear_608_164" x1="41.9189" y1="88.5175" x2="52.9513" y2="21.6789" gradientUnits="userSpaceOnUse">
<stop stop-color="#81FFFF"/>
<stop offset="0.6202" stop-color="white" stop-opacity="0"/>
</linearGradient>
<linearGradient id="paint3_linear_608_164" x1="70.723" y1="32.0694" x2="42.7359" y2="57.2866" gradientUnits="userSpaceOnUse">
<stop offset="0.2888" stop-color="white"/>
<stop offset="0.7796" stop-color="white" stop-opacity="0"/>
</linearGradient>
<linearGradient id="paint4_linear_608_164" x1="15.601" y1="70.8753" x2="78.8712" y2="70.8753" gradientUnits="userSpaceOnUse">
<stop stop-color="#0002E9"/>
<stop offset="0.9952" stop-color="#FF00C7"/>
</linearGradient>
<linearGradient id="paint5_linear_608_164" x1="81.8657" y1="57.6174" x2="46.8388" y2="90.1242" gradientUnits="userSpaceOnUse">
<stop offset="0.2888" stop-color="white"/>
<stop offset="0.7796" stop-color="white" stop-opacity="0"/>
</linearGradient>
<linearGradient id="paint6_linear_608_164" x1="15.601" y1="70.8753" x2="49.4503" y2="70.8753" gradientUnits="userSpaceOnUse">
<stop stop-color="#000292"/>
<stop offset="0.9952" stop-color="#7D00C7"/>
</linearGradient>
<linearGradient id="paint7_linear_608_164" x1="15.6435" y1="57.7699" x2="78.8286" y2="57.7699" gradientUnits="userSpaceOnUse">
<stop stop-color="#000292"/>
<stop offset="0.9952" stop-color="#BE00C7"/>
</linearGradient>
<linearGradient id="paint8_linear_608_164" x1="77.7917" y1="23.2606" x2="73.13" y2="30.6997" gradientUnits="userSpaceOnUse">
<stop offset="0.2888" stop-color="white"/>
<stop offset="0.7796" stop-color="white" stop-opacity="0"/>
</linearGradient>
<linearGradient id="paint9_linear_608_164" x1="43.3719" y1="78.7418" x2="45.8918" y2="78.7418" gradientUnits="userSpaceOnUse">
<stop offset="0.2888" stop-color="white"/>
<stop offset="0.7796" stop-color="white" stop-opacity="0"/>
</linearGradient>
<linearGradient id="paint10_linear_608_164" x1="52.0617" y1="77.8808" x2="54.5816" y2="77.8808" gradientUnits="userSpaceOnUse">
<stop offset="0.2888" stop-color="white"/>
<stop offset="0.7796" stop-color="white" stop-opacity="0"/>
</linearGradient>
<linearGradient id="paint11_linear_608_164" x1="48.2049" y1="82.2218" x2="50.0967" y2="82.2218" gradientUnits="userSpaceOnUse">
<stop offset="0.2888" stop-color="white"/>
<stop offset="0.7796" stop-color="white" stop-opacity="0"/>
</linearGradient>
<linearGradient id="paint12_linear_608_164" x1="55.8632" y1="81.3097" x2="57.7548" y2="81.3097" gradientUnits="userSpaceOnUse">
<stop offset="0.2888" stop-color="white"/>
<stop offset="0.7796" stop-color="white" stop-opacity="0"/>
</linearGradient>
<linearGradient id="paint13_linear_608_164" x1="35.2328" y1="77.061" x2="39.3478" y2="77.061" gradientUnits="userSpaceOnUse">
<stop offset="0.2888" stop-color="white"/>
<stop offset="0.7796" stop-color="white" stop-opacity="0"/>
</linearGradient>
<linearGradient id="paint14_linear_608_164" x1="59.6732" y1="70.2052" x2="63.7885" y2="70.2052" gradientUnits="userSpaceOnUse">
<stop offset="0.2888" stop-color="white"/>
<stop offset="0.7796" stop-color="white" stop-opacity="0"/>
</linearGradient>
</defs>
</svg>
