<svg width="100" height="100" viewBox="0 0 100 100" fill="none" xmlns="http://www.w3.org/2000/svg">
<rect width="100" height="100" fill="#0C0D1B"/>
<path d="M62.852 52.0994C62.5801 53.3618 62.1428 54.5829 61.5518 55.7308C60.922 56.8652 60.1494 57.9138 59.2526 58.8508C58.3168 59.7486 57.27 60.5224 56.1378 61.1534C54.9904 61.7433 53.7714 62.1818 52.5114 62.4574C51.2332 62.6811 49.9319 62.7449 48.6377 62.6473C47.3553 62.4971 46.0975 62.1807 44.8962 61.7067C43.7009 61.1991 42.5761 60.5389 41.55 59.7422C40.562 58.901 39.6862 57.9362 38.9439 56.8711C38.2467 55.7832 37.6928 54.6099 37.2957 53.38C36.9452 52.1293 36.7542 50.8392 36.7268 49.5407H45.4376C45.479 49.9753 45.5562 50.4059 45.6682 50.828C45.8167 51.2371 46.0014 51.6321 46.2205 52.0083C46.4914 52.3633 46.7918 52.6948 47.1189 52.9986C47.4728 53.2597 47.851 53.4863 48.248 53.6751C48.6552 53.827 49.0782 53.9332 49.5088 53.9917C49.9473 54.0232 50.3881 54.0148 50.8253 53.9669C51.2415 53.8581 51.6467 53.7116 52.0366 53.5296C52.4167 53.2849 52.776 53.009 53.1107 52.7049C53.4147 52.3704 53.6902 52.0115 53.9348 51.6317C54.117 51.2386 54.2631 50.8299 54.3713 50.4102C54.4315 49.9646 54.4535 49.5145 54.4377 49.065C54.3737 48.6335 54.2658 48.2098 54.116 47.8003C53.928 47.4025 53.7022 47.0239 53.4418 46.6692C53.1385 46.3416 52.8076 46.0405 52.4529 45.7694C52.0787 45.5469 51.6835 45.3615 51.273 45.2163C50.8433 45.11 50.4046 45.0436 49.9627 45.0186H16V36.3274H49.9295C51.2262 36.3505 52.5143 36.5421 53.7617 36.8969C54.9899 37.2945 56.1618 37.8493 57.2479 38.5476C58.3115 39.2898 59.2755 40.1664 60.1157 41.1555C60.9165 42.1662 61.584 43.2758 62.1022 44.4568C62.5747 45.6545 62.8903 46.9081 63.0416 48.1869C63.1423 49.4939 63.0785 50.8084 62.852 52.0994Z" fill="url(#paint0_linear_613_137)"/>
<path d="M72.7418 54.0556C72.2809 56.3015 71.5067 58.4714 70.4425 60.5015C69.3425 62.5069 67.9756 64.3532 66.3792 65.9898C64.7426 67.5859 62.8994 68.9543 60.8988 70.0586C58.8703 71.1213 56.7042 71.8959 54.4625 72.3616C52.2192 72.7829 49.9291 72.8968 47.6551 72.6997C45.3923 72.454 43.1741 71.8985 41.0619 71.049C38.9601 70.154 36.9914 68.9738 35.2108 67.5414C33.4635 66.0658 31.9224 64.3614 30.6292 62.4741C29.3747 60.5586 28.3925 58.4776 27.7108 56.2911C27.074 54.088 26.7386 51.8088 26.714 49.5154H35.227C35.2512 50.9649 35.4645 52.4046 35.8617 53.7987C36.2982 55.1735 36.9164 56.4836 37.6995 57.6945C38.5269 58.8856 39.5046 59.9648 40.6085 60.905C41.7376 61.8069 42.9821 62.5534 44.309 63.1248C45.649 63.6592 47.0544 64.0116 48.4875 64.1731C49.9303 64.2876 51.3815 64.2157 52.8057 63.9585C54.2173 63.6619 55.5817 63.1733 56.8607 62.5061C58.1246 61.8028 59.2911 60.9367 60.3302 59.9299C61.3363 58.8821 62.2037 57.7087 62.9105 56.4388C63.5699 55.1548 64.0575 53.7896 64.3607 52.3779C64.6147 50.9514 64.684 49.498 64.5666 48.0536C64.4097 46.6175 64.0575 45.2095 63.5204 43.8689C62.9534 42.5461 62.2164 41.303 61.3279 40.1716C60.3892 39.0687 59.3115 38.0923 58.1219 37.2668C56.9129 36.483 55.6046 35.8647 54.2319 35.4283C52.84 35.0315 51.4021 34.8189 49.9548 34.7954H16V26.2258H49.9295C52.2147 26.2506 54.4859 26.5895 56.679 27.233C58.8642 27.9168 60.9443 28.9 62.8604 30.1546C64.7452 31.4495 66.4472 32.9927 67.9206 34.7427C69.352 36.5267 70.5332 38.4981 71.4316 40.6024C72.2756 42.7187 72.8303 44.9397 73.0798 47.2051C73.2794 49.4932 73.1657 51.7981 72.7418 54.0556Z" fill="url(#paint1_linear_613_137)"/>
<path d="M82.7547 56.0448C82.0974 59.2799 80.9869 62.4056 79.4566 65.3295C77.8868 68.2218 75.9178 70.8781 73.6068 73.2195C71.2651 75.5295 68.6134 77.5012 65.7282 79.0791C62.8085 80.6118 59.6874 81.7228 56.4569 82.3804C53.2314 82.995 49.9356 83.1536 46.6662 82.8508C43.3878 82.5098 40.1744 81.704 37.1223 80.4576C34.0895 79.1852 31.2513 77.4902 28.6913 75.4234C26.1711 73.3139 23.9526 70.867 22.0981 68.152C20.2874 65.3967 18.8753 62.3985 17.9037 59.2469C16.9707 56.0869 16.4851 52.8115 16.4613 49.5165H25.1399C25.1666 51.9557 25.5271 54.3801 26.2111 56.7214C26.9371 59.0568 27.9857 61.2793 29.3264 63.3239C30.6985 65.3382 32.34 67.1544 34.205 68.7218C36.1047 70.2484 38.2037 71.5083 40.4437 72.466C42.7057 73.3773 45.0823 73.9716 47.5065 74.2322C49.9211 74.4383 52.3524 74.3164 54.7344 73.8687C57.1246 73.3699 59.433 72.5367 61.5913 71.3933C63.7271 70.221 65.6933 68.7633 67.4366 67.0599C69.1475 65.3222 70.6141 63.3591 71.7965 61.225C72.9391 59.0638 73.7724 56.7521 74.2716 54.3581C74.7187 51.962 74.8376 49.5158 74.6259 47.0874C74.3685 44.6602 73.7777 42.28 72.8707 40.0142C71.9145 37.7709 70.6564 35.669 69.1318 33.7666C67.5649 31.8983 65.7517 30.2518 63.7421 28.8726C59.66 26.1504 54.8666 24.6948 49.9622 24.6878H16V16H49.9295C53.2309 16.0206 56.5131 16.5069 59.6792 17.4444C62.8268 18.4201 65.8207 19.8371 68.5715 21.6534C71.2883 23.5036 73.7324 25.726 75.8323 28.256C77.903 30.8165 79.6034 33.6559 80.8841 36.6908C82.1274 39.7503 82.932 42.9708 83.2739 46.2562C83.5582 49.5274 83.3834 52.8222 82.7547 56.0448Z" fill="url(#paint2_linear_613_137)"/>
<defs>
<linearGradient id="paint0_linear_613_137" x1="16" y1="36.9666" x2="37.6782" y2="75.2692" gradientUnits="userSpaceOnUse">
<stop stop-color="#ED2A24"/>
<stop offset="1" stop-color="#F3AE1B"/>
</linearGradient>
<linearGradient id="paint1_linear_613_137" x1="16" y1="27.3547" x2="59.8323" y2="80.5936" gradientUnits="userSpaceOnUse">
<stop stop-color="#ED2A24"/>
<stop offset="1" stop-color="#F3AE1B"/>
</linearGradient>
<linearGradient id="paint2_linear_613_137" x1="16" y1="17.6242" x2="80.2592" y2="81.5788" gradientUnits="userSpaceOnUse">
<stop stop-color="#ED2A24"/>
<stop offset="1" stop-color="#F3AE1B"/>
</linearGradient>
</defs>
</svg>
