<svg width="100" height="100" viewBox="0 0 100 100" fill="none" xmlns="http://www.w3.org/2000/svg">
<rect width="100" height="100" fill="black"/>
<mask id="path-2-inside-1_864_136" fill="white">
<path fill-rule="evenodd" clip-rule="evenodd" d="M66 39.8001C66 39.8001 66 39.8 66 39.8C66 30.9634 58.8366 23.8 50 23.8C41.1634 23.8 34 30.9634 34 39.8C34 39.8 34 39.8001 34 39.8001V75.0001H66V39.8001Z"/>
</mask>
<path fill-rule="evenodd" clip-rule="evenodd" d="M66 39.8001C66 39.8001 66 39.8 66 39.8C66 30.9634 58.8366 23.8 50 23.8C41.1634 23.8 34 30.9634 34 39.8C34 39.8 34 39.8001 34 39.8001V75.0001H66V39.8001Z" fill="url(#paint0_linear_864_136)"/>
<path d="M34 75.0001H31V78.0001H34V75.0001ZM66 75.0001V78.0001H69V75.0001H66ZM63 39.8C63 39.8 63 39.8 63 39.8C63 39.8 63 39.8 63 39.8C63 39.8 63 39.8 63 39.8C63 39.8 63 39.8 63 39.8C63 39.8 63 39.8 63 39.8C63 39.8 63 39.8 63 39.8C63 39.8 63 39.8 63 39.8C63 39.8 63 39.8 63 39.8C63 39.8 63 39.8 63 39.8C63 39.8 63 39.8 63 39.8C63 39.8 63 39.8 63 39.8C63 39.8 63 39.8 63 39.8C63 39.8 63 39.8 63 39.8C63 39.8 63 39.8 63 39.8C63 39.8 63 39.8 63 39.8C63 39.8 63 39.8 63 39.8C63 39.8 63 39.8 63 39.8C63 39.8 63 39.8 63 39.8C63 39.8 63 39.8 63 39.8C63 39.8 63 39.8 63 39.8C63 39.8 63 39.8 63 39.8C63 39.8 63 39.8 63 39.8C63 39.8 63 39.8 63 39.8C63 39.8 63 39.8 63 39.8C63 39.8 63 39.8 63 39.8C63 39.8 63 39.8 63 39.8C63 39.8 63 39.8 63 39.8C63 39.8 63 39.8 63 39.8C63 39.8 63 39.8 63 39.8C63 39.8 63 39.8 63 39.8C63 39.8 63 39.8 63 39.8C63 39.8 63 39.8 63 39.8C63 39.8 63 39.8 63 39.8C63 39.8 63 39.8 63 39.8C63 39.8 63 39.8 63 39.8C63 39.8 63 39.8 63 39.8C63 39.8 63 39.8 63 39.8C63 39.8 63 39.8 63 39.8C63 39.8 63 39.8 63 39.8C63 39.8 63 39.8 63 39.8C63 39.8 63 39.8 63 39.8C63 39.8 63 39.8 63 39.8C63 39.8 63 39.8 63 39.8C63 39.8 63 39.8 63 39.8C63 39.8 63 39.8 63 39.8C63 39.8 63 39.8 63 39.8C63 39.8 63 39.8 63 39.8C63 39.8 63 39.8 63 39.8C63 39.8 63 39.8 63 39.8C63 39.8 63 39.8 63 39.8C63 39.8 63 39.8 63 39.8C63 39.8 63 39.8 63 39.8C63 39.8 63 39.8 63 39.8C63 39.8 63 39.8 63 39.8C63 39.8 63 39.8 63 39.8C63 39.8 63 39.8 63 39.8C63 39.8 63 39.8 63 39.8C63 39.8 63 39.8 63 39.8C63 39.8 63 39.8 63 39.8C63 39.8 63 39.8 63 39.8C63 39.8 63 39.8 63 39.8C63 39.8 63 39.8 63 39.8C63 39.8 63 39.8 63 39.8C63 39.8 63 39.8 63 39.8C63 39.8 63 39.8 63 39.8C63 39.8 63 39.8 63 39.8C63 39.8 63 39.8 63 39.8C63 39.8 63 39.8 63 39.8C63 39.8 63 39.8 63 39.8C63 39.8 63 39.8 63 39.8C63 39.8 63 39.8 63 39.8C63 39.8 63 39.8 63 39.8C63 39.8 63 39.8 63 39.8C63 39.8 63 39.8 63 39.8C63 39.8 63 39.8 63 39.8C63 39.8 63 39.8 63 39.8C63 39.8 63 39.8 63 39.8C63 39.8 63 39.8 63 39.8C63 39.8 63 39.8 63 39.8C63 39.8 63 39.8 63 39.8C63 39.8 63 39.8 63 39.8C63 39.8 63 39.8 63 39.8C63 39.8 63 39.8 63 39.8C63 39.8 63 39.8 63 39.8C63 39.8 63 39.8 63 39.8C63 39.8 63 39.8 63 39.8C63 39.8 63 39.8 63 39.8C63 39.8 63 39.8 63 39.8C63 39.8 63 39.8 63 39.8C63 39.8 63 39.8 63 39.8C63 39.8 63 39.8 63 39.8C63 39.8 63 39.8 63 39.8C63 39.8 63 39.8 63 39.8C63 39.8 63 39.8 63 39.8C63 39.8 63 39.8 63 39.8C63 39.8 63 39.8 63 39.8C63 39.8 63 39.8 63 39.8C63 39.8 63 39.8 63 39.8C63 39.8 63 39.8 63 39.8C63 39.8 63 39.8 63 39.8C63 39.8 63 39.8 63 39.8C63 39.8 63 39.8 63 39.8C63 39.8 63 39.8 63 39.8C63 39.8 63 39.8 63 39.8C63 39.8 63 39.8 63 39.8C63 39.8 63 39.8 63 39.8C63 39.8 63 39.8 63 39.8C63 39.8 63 39.8 63 39.8C63 39.8 63 39.8 63 39.8C63 39.8 63 39.8 63 39.8C63 39.8 63 39.8 63 39.8C63 39.8 63 39.8 63 39.8C63 39.8 63 39.8 63 39.8C63 39.8 63 39.8 63 39.8C63 39.8 63 39.8 63 39.8C63 39.8 63 39.8 63 39.8C63 39.8 63 39.8 63 39.8C63 39.8 63 39.8 63 39.8C63 39.8 63 39.8 63 39.8C63 39.8 63 39.8 63 39.8C63 39.8 63 39.8 63 39.8C63 39.8 63 39.8 63 39.8C63 39.8 63 39.8 63 39.8C63 39.8 63 39.8 63 39.8C63 39.8 63 39.8 63 39.8C63 39.8 63 39.8 63 39.8C63 39.8 63 39.8 63 39.8C63 39.8 63 39.8 63 39.8C63 39.8 63 39.8 63 39.8C63 39.8 63 39.8 63 39.8C63 39.8 63 39.8 63 39.8C63 39.8 63 39.8 63 39.8C63 39.8 63 39.8 63 39.8C63 39.8 63 39.8 63 39.8C63 39.8 63 39.8 63 39.8C63 39.8 63 39.8 63 39.8C63 39.8 63 39.8 63 39.8C63 39.8 63 39.8 63 39.8C63 39.8 63 39.8 63 39.8C63 39.8 63 39.8 63 39.8C63 39.8 63 39.8 63 39.8C63 39.8 63 39.8 63 39.8C63 39.8 63 39.8 63 39.8C63 39.8 63 39.8 63 39.8C63 39.8 63 39.8 63 39.8C63 39.8 63 39.8 63 39.8C63 39.8 63 39.8 63 39.8C63 39.8 63 39.8 63 39.8C63 39.8 63 39.8 63 39.8C63 39.8 63 39.8 63 39.8C63 39.8 63 39.8 63 39.8C63 39.8 63 39.8 63 39.8C63 39.8 63 39.8 63 39.8C63 39.8 63 39.8 63 39.8C63 39.8 63 39.8 63 39.8C63 39.8 63 39.8 63 39.8C63 39.8 63 39.8 63 39.8C63 39.8 63 39.8 63 39.8C63 39.8 63 39.8 63 39.8C63 39.8 63 39.8 63 39.8C63 39.8 63 39.8 63 39.8C63 39.8 63 39.8 63 39.8C63 39.8 63 39.8 63 39.8C63 39.8 63 39.8 63 39.8C63 39.8 63 39.8 63 39.8C63 39.8 63 39.8 63 39.8C63 39.8 63 39.8 63 39.8C63 39.8 63 39.8 63 39.8C63 39.8 63 39.8 63 39.8C63 39.8 63 39.8 63 39.8C63 39.8 63 39.8 63 39.8C63 39.8 63 39.8 63 39.8C63 39.8 63 39.8 63 39.8C63 39.8 63 39.8 63 39.8C63 39.8 63 39.8 63 39.8C63 39.8 63 39.8 63 39.8C63 39.8 63 39.8 63 39.8C63 39.8 63 39.8 63 39.8C63 39.8 63 39.8 63 39.8C63 39.8 63 39.8 63 39.8C63 39.8 63 39.8 63 39.8C63 39.8 63 39.8 63 39.8C63 39.8 63 39.8 63 39.8C63 39.8 63 39.8 63 39.8C63 39.8 63 39.8 63 39.8C63 39.8 63 39.8 63 39.8C63 39.8 63 39.8 63 39.8C63 39.8 63 39.8 63 39.8C63 39.8 63 39.8 63 39.8C63 39.8 63 39.8 63 39.8C63 39.8 63 39.8 63 39.8C63 39.8 63 39.8 63 39.8C63 39.8 63 39.8 63 39.8C63 39.8 63 39.8 63 39.8C63 39.8 63 39.8 63 39.8C63 39.8 63 39.8 63 39.8C63 39.8 63 39.8 63 39.8C63 39.8 63 39.8 63 39.8C63 39.8 63 39.8 63 39.8C63 39.8 63 39.8 63 39.8C63 39.8 63 39.8 63 39.8C63 39.8 63 39.8 63 39.8C63 39.8 63 39.8 63 39.8C63 39.8 63 39.8 63 39.8C63 39.8 63 39.8 63 39.8C63 39.8 63 39.8 63 39.8C63 39.8 63 39.8 63 39.8C63 39.8 63 39.8 63 39.8C63 39.8 63 39.8 63 39.8C63 39.8 63 39.8 63 39.8C63 39.8 63 39.8 63 39.8C63 39.8 63 39.8 63 39.8C63 39.8 63 39.8 63 39.8C63 39.8 63 39.8 63 39.8C63 39.8 63 39.8 63 39.8C63 39.8 63 39.8 63 39.8C63 39.8 63 39.8 63 39.8C63 39.8 63 39.8 63 39.8C63 39.8 63 39.8 63 39.8C63 39.8 63 39.8 63 39.8C63 39.8 63 39.8 63 39.8C63 39.8 63 39.8 63 39.8C63 39.8 63 39.8 63 39.8C63 39.8 63 39.8 63 39.8C63 39.8 63 39.8 63 39.8C63 39.8 63 39.8 63 39.8C63 39.8 63 39.8 63 39.8C63 39.8 63 39.8 63 39.8C63 39.8 63 39.8 63 39.8C63 39.8 63 39.8 63 39.8C63 39.8 63 39.8 63 39.8C63 39.8 63 39.8 63 39.8C63 39.8 63 39.8 63 39.8C63 39.8 63 39.8 63 39.8C63 39.8 63 39.8 63 39.8C63 39.8 63 39.8 63 39.8C63 39.8 63 39.8 63 39.8C63 39.8 63 39.8 63 39.8C63 39.8 63 39.8 63 39.8C63 39.8 63 39.8 63 39.8C63 39.8 63 39.8 63 39.8C63 39.8 63 39.8 63 39.8C63 39.8 63 39.8 63 39.8C63 39.8 63 39.8 63 39.8C63 39.8 63 39.8 63 39.8C63 39.8 63 39.8 63 39.8C63 39.8 63 39.8 63 39.8C63 39.8 63 39.8 63 39.8C63 39.8 63 39.8 63 39.8C63 39.8 63 39.8 63 39.8C63 39.8 63 39.8 63 39.8C63 39.8 63 39.8 63 39.8C63 39.8 63 39.8 63 39.8C63 39.8 63 39.8 63 39.8C63 39.8 63 39.8 63 39.8C63 39.8 63 39.8 63 39.8C63 39.8 63 39.8 63 39.8C63 39.8 63 39.8 63 39.8C63 39.8 63 39.8 63 39.8C63 39.8 63 39.8 63 39.8C63 39.8 63 39.8 63 39.8C63 39.8 63 39.8 63 39.8C63 39.8 63 39.8 63 39.8C63 39.8 63 39.8 63 39.8C63 39.8 63 39.8 63 39.8C63 39.8 63 39.8 63 39.8C63 39.8 63 39.8 63 39.8C63 39.8 63 39.8 63 39.8C63 39.8 63 39.8 63 39.8C63 39.8 63 39.8 63 39.8C63 39.8 63 39.8 63 39.8C63 39.8 63 39.8 63 39.8C63 39.8 63 39.8 63 39.8C63 39.8 63 39.8 63 39.8C63 39.8 63 39.8 63 39.8C63 39.8 63 39.8 63 39.8C63 39.8 63 39.8 63 39.8C63 39.8 63 39.8 63 39.8C63 39.8 63 39.8 63 39.8C63 39.8 63 39.8 63 39.8C63 39.8 63 39.8 63 39.8C63 39.8 63 39.8 63 39.8C63 39.8 63 39.8 63 39.8C63 39.8 63 39.8 63 39.8C63 39.8 63 39.8 63 39.8C63 39.8 63 39.8 63 39.8C63 39.8 63 39.8 63 39.8C63 39.8 63 39.8 63 39.8C63 39.8 63 39.8 63 39.8C63 39.8 63 39.8 63 39.8C63 39.8 63 39.8 63 39.8C63 39.8 63 39.8 63 39.8C63 39.8 63 39.8 63 39.8C63 39.8 63 39.8 63 39.8C63 39.8 63 39.8 63 39.8C63 39.8 63 39.8 63 39.8C63 39.8 63 39.8 63 39.8C63 39.8 63 39.8 63 39.8C63 39.8 63 39.8 63 39.8C63 39.8 63 39.8 63 39.8C63 39.8 63 39.8 63 39.8C63 39.8 63 39.8 63 39.8C63 39.8 63 39.8 63 39.8C63 39.8 63 39.8 63 39.8C63 39.8 63 39.8 63 39.8C63 39.8 63 39.8 63 39.8C63 39.8 63 39.8 63 39.8C63 39.8 63 39.8 63 39.8C63 39.8 63 39.8 63 39.8C63 39.8 63 39.8 63 39.8C63 39.8 63 39.8 63 39.8C63 39.8 63 39.8 63 39.8C63 39.8 63 39.8 63 39.8C63 39.8 63 39.8 63 39.8C63 39.8 63 39.8 63 39.8C63 39.8 63 39.8 63 39.8C63 39.8 63 39.8 63 39.8C63 39.8 63 39.8 63 39.8C63 39.8 63 39.8 63 39.8C63 39.8 63 39.8 63 39.8C63 39.8 63 39.8 63 39.8C63 39.8 63 39.8 63 39.8C63 39.8 63 39.8 63 39.8C63 39.8 63 39.8 63 39.8C63 39.8 63 39.8 63 39.8C63 39.8 63 39.8 63 39.8C63 39.8 63 39.8 63 39.8C63 39.8 63 39.8 63 39.8C63 39.8 63 39.8 63 39.8C63 39.8 63 39.8 63 39.8C63 39.8 63 39.8 63 39.8C63 39.8 63 39.8 63 39.8C63 39.8 63 39.8 63 39.8C63 39.8 63 39.8 63 39.8C63 39.8 63 39.8 63 39.8C63 39.8 63 39.8 63 39.8C63 39.8 63 39.8 63 39.8C63 39.8 63 39.8 63 39.8C63 39.8 63 39.8 63 39.8C63 39.8 63 39.8 63 39.8C63 39.8001 63 39.8001 63 39.8001C63 39.8001 63 39.8001 63 39.8001C63 39.8001 63 39.8001 63 39.8001C63 39.8001 63 39.8001 63 39.8001C63 39.8001 63 39.8001 63 39.8001C63 39.8001 63 39.8001 63 39.8001C63 39.8001 63 39.8001 63 39.8001C63 39.8001 63 39.8001 63 39.8001C63 39.8001 63 39.8001 63 39.8001C63 39.8001 63 39.8001 63 39.8001C63 39.8001 63 39.8001 63 39.8001C63 39.8001 63 39.8001 63 39.8001C63 39.8001 63 39.8001 63 39.8001C63 39.8001 63 39.8001 63 39.8001C63 39.8001 63 39.8001 63 39.8001C63 39.8001 63 39.8001 63 39.8001C63 39.8001 63 39.8001 63 39.8001C63 39.8001 63 39.8001 63 39.8001C63 39.8001 63 39.8001 63 39.8001C63 39.8001 63 39.8001 63 39.8001C63 39.8001 63 39.8001 63 39.8001C63 39.8001 63 39.8001 63 39.8001C63 39.8001 63 39.8001 63 39.8001C63 39.8001 63 39.8001 63 39.8001C63 39.8001 63 39.8001 63 39.8001C63 39.8001 63 39.8001 63 39.8001C63 39.8001 63 39.8001 63 39.8001C63 39.8001 63 39.8001 63 39.8001C63 39.8001 63 39.8001 63 39.8001C63 39.8001 63 39.8001 63 39.8001C63 39.8001 63 39.8001 63 39.8001C63 39.8001 63 39.8001 63 39.8001C63 39.8001 63 39.8001 63 39.8001C63 39.8001 63 39.8001 63 39.8001C63 39.8001 63 39.8001 63 39.8001C63 39.8001 63 39.8001 63 39.8001C63 39.8001 63 39.8001 63 39.8001C63 39.8001 63 39.8001 63 39.8001C63 39.8001 63 39.8001 63 39.8001C63 39.8001 63 39.8001 63 39.8001C63 39.8001 63 39.8001 63 39.8001C63 39.8001 63 39.8001 63 39.8001C63 39.8001 63 39.8001 63 39.8001C63 39.8001 63 39.8001 63 39.8001C63 39.8001 63 39.8001 63 39.8001C63 39.8001 63 39.8001 63 39.8001C63 39.8001 63 39.8001 63 39.8001C63 39.8001 63 39.8001 63 39.8001C63 39.8001 63 39.8001 63 39.8001C63 39.8001 63 39.8001 63 39.8001C63 39.8001 63 39.8001 63 39.8001C63 39.8001 63 39.8001 63 39.8001C63 39.8001 63 39.8001 63 39.8001C63 39.8001 63 39.8001 63 39.8001C63 39.8001 63 39.8001 63 39.8001C63 39.8001 63 39.8001 63 39.8001C63 39.8001 63 39.8001 63 39.8001C63 39.8001 63 39.8001 63 39.8001C63 39.8001 63 39.8001 63 39.8001C63 39.8001 63 39.8001 63 39.8001C63 39.8001 63 39.8001 63 39.8001C63 39.8001 63 39.8001 63 39.8001C63 39.8001 63 39.8001 63 39.8001C63 39.8001 63 39.8001 63 39.8001C63 39.8001 63 39.8001 63 39.8001C63 39.8001 63 39.8001 63 39.8001C63 39.8001 63 39.8001 63 39.8001C63 39.8001 63 39.8001 63 39.8001C63 39.8001 63 39.8001 63 39.8001C63 39.8001 63 39.8001 63 39.8001C63 39.8001 63 39.8001 63 39.8001C63 39.8001 63 39.8001 63 39.8001C63 39.8001 63 39.8001 63 39.8001C63 39.8001 63 39.8001 63 39.8001C63 39.8001 63 39.8001 63 39.8001C63 39.8001 63 39.8001 63 39.8001C63 39.8001 63 39.8001 63 39.8001C63 39.8001 63 39.8001 63 39.8001C63 39.8001 63 39.8001 63 39.8001C63 39.8001 63 39.8001 63 39.8001C63 39.8001 63 39.8001 63 39.8001C63 39.8001 63 39.8001 63 39.8001C63 39.8001 63 39.8001 63 39.8001C63 39.8001 63 39.8001 63 39.8001C63 39.8001 63 39.8001 63 39.8001C63 39.8001 63 39.8001 63 39.8001C63 39.8001 63 39.8001 63 39.8001C63 39.8001 63 39.8001 63 39.8001C63 39.8001 63 39.8001 63 39.8001C63 39.8001 63 39.8001 63 39.8001C63 39.8001 63 39.8001 63 39.8001C63 39.8001 63 39.8001 63 39.8001C63 39.8001 63 39.8001 63 39.8001C63 39.8001 63 39.8001 63 39.8001C63 39.8001 63 39.8001 63 39.8001C63 39.8001 63 39.8001 63 39.8001C63 39.8001 63 39.8001 63 39.8001C63 39.8001 63 39.8001 63 39.8001C63 39.8001 63 39.8001 63 39.8001C63 39.8001 63 39.8001 63 39.8001C63 39.8001 63 39.8001 63 39.8001C63 39.8001 63 39.8001 63 39.8001C63 39.8001 63 39.8001 63 39.8001C63 39.8001 63 39.8001 63 39.8001C63 39.8001 63 39.8001 63 39.8001C63 39.8001 63 39.8001 63 39.8001C63 39.8001 63 39.8001 63 39.8001C63 39.8001 63 39.8001 63 39.8001C63 39.8001 63 39.8001 63 39.8001C63 39.8001 63 39.8001 63 39.8001C63 39.8001 63 39.8001 63 39.8001C63 39.8001 63 39.8001 63 39.8001C63 39.8001 63 39.8001 63 39.8001C63 39.8001 63 39.8001 63 39.8001C63 39.8001 63 39.8001 63 39.8001C63 39.8001 63 39.8001 63 39.8001C63 39.8001 63 39.8001 63 39.8001C63 39.8001 63 39.8001 63 39.8001C63 39.8001 63 39.8001 63 39.8001C63 39.8001 63 39.8001 63 39.8001C63 39.8001 63 39.8001 63 39.8001C63 39.8001 63 39.8001 63 39.8001C63 39.8001 63 39.8001 63 39.8001C63 39.8001 63 39.8001 63 39.8001C63 39.8001 63 39.8001 63 39.8001C63 39.8001 63 39.8001 63 39.8001C63 39.8001 63 39.8001 63 39.8001C63 39.8001 63 39.8001 63 39.8001C63 39.8001 63 39.8001 63 39.8001C63 39.8001 63 39.8001 63 39.8001C63 39.8001 63 39.8001 63 39.8001C63 39.8001 63 39.8001 63 39.8001C63 39.8001 63 39.8001 63 39.8001C63 39.8001 63 39.8001 63 39.8001C63 39.8001 63 39.8001 63 39.8001C63 39.8001 63 39.8001 63 39.8001C63 39.8001 63 39.8001 63 39.8001C63 39.8001 63 39.8001 63 39.8001C63 39.8001 63 39.8001 63 39.8001C63 39.8001 63 39.8001 63 39.8001C63 39.8001 63 39.8001 63 39.8001C63 39.8001 63 39.8001 63 39.8001C63 39.8001 63 39.8001 63 39.8001C63 39.8001 63 39.8001 63 39.8001C63 39.8001 63 39.8001 63 39.8001C63 39.8001 63 39.8001 63 39.8001C63 39.8001 63 39.8001 63 39.8001C63 39.8001 63 39.8001 63 39.8001C63 39.8001 63 39.8001 63 39.8001C63 39.8001 63 39.8001 63 39.8001C63 39.8001 63 39.8001 63 39.8001C63 39.8001 63 39.8001 63 39.8001C63 39.8001 63 39.8001 63 39.8001C63 39.8001 63 39.8001 63 39.8001C63 39.8001 63 39.8001 63 39.8001C63 39.8001 63 39.8001 63 39.8001C63 39.8001 63 39.8001 63 39.8001C63 39.8001 63 39.8001 63 39.8001C63 39.8001 63 39.8001 63 39.8001C63 39.8001 63 39.8001 63 39.8001C63 39.8001 63 39.8001 63 39.8001C63 39.8001 63 39.8001 63 39.8001C63 39.8001 63 39.8001 63 39.8001C63 39.8001 63 39.8001 63 39.8001C63 39.8001 63 39.8001 63 39.8001C63 39.8001 63 39.8001 63 39.8001C63 39.8001 63 39.8001 63 39.8001C63 39.8001 63 39.8001 63 39.8001C63 39.8001 63 39.8001 63 39.8001C63 39.8001 63 39.8001 63 39.8001C63 39.8001 63 39.8001 63 39.8001C63 39.8001 63 39.8001 63 39.8001H69C69 39.8001 69 39.8001 69 39.8001C69 39.8001 69 39.8001 69 39.8001C69 39.8001 69 39.8001 69 39.8001C69 39.8001 69 39.8001 69 39.8001C69 39.8001 69 39.8001 69 39.8001C69 39.8001 69 39.8001 69 39.8001C69 39.8001 69 39.8001 69 39.8001C69 39.8001 69 39.8001 69 39.8001C69 39.8001 69 39.8001 69 39.8001C69 39.8001 69 39.8001 69 39.8001C69 39.8001 69 39.8001 69 39.8001C69 39.8001 69 39.8001 69 39.8001C69 39.8001 69 39.8001 69 39.8001C69 39.8001 69 39.8001 69 39.8001C69 39.8001 69 39.8001 69 39.8001C69 39.8001 69 39.8001 69 39.8001C69 39.8001 69 39.8001 69 39.8001C69 39.8001 69 39.8001 69 39.8001C69 39.8001 69 39.8001 69 39.8001C69 39.8001 69 39.8001 69 39.8001C69 39.8001 69 39.8001 69 39.8001C69 39.8001 69 39.8001 69 39.8001C69 39.8001 69 39.8001 69 39.8001C69 39.8001 69 39.8001 69 39.8001C69 39.8001 69 39.8001 69 39.8001C69 39.8001 69 39.8001 69 39.8001C69 39.8001 69 39.8001 69 39.8001C69 39.8001 69 39.8001 69 39.8001C69 39.8001 69 39.8001 69 39.8001C69 39.8001 69 39.8001 69 39.8001C69 39.8001 69 39.8001 69 39.8001C69 39.8001 69 39.8001 69 39.8001C69 39.8001 69 39.8001 69 39.8001C69 39.8001 69 39.8001 69 39.8001C69 39.8001 69 39.8001 69 39.8001C69 39.8001 69 39.8001 69 39.8001C69 39.8001 69 39.8001 69 39.8001C69 39.8001 69 39.8001 69 39.8001C69 39.8001 69 39.8001 69 39.8001C69 39.8001 69 39.8001 69 39.8001C69 39.8001 69 39.8001 69 39.8001C69 39.8001 69 39.8001 69 39.8001C69 39.8001 69 39.8001 69 39.8001C69 39.8001 69 39.8001 69 39.8001C69 39.8001 69 39.8001 69 39.8001C69 39.8001 69 39.8001 69 39.8001C69 39.8001 69 39.8001 69 39.8001C69 39.8001 69 39.8001 69 39.8001C69 39.8001 69 39.8001 69 39.8001C69 39.8001 69 39.8001 69 39.8001C69 39.8001 69 39.8001 69 39.8001C69 39.8001 69 39.8001 69 39.8001C69 39.8001 69 39.8001 69 39.8001C69 39.8001 69 39.8001 69 39.8001C69 39.8001 69 39.8001 69 39.8001C69 39.8001 69 39.8001 69 39.8001C69 39.8001 69 39.8001 69 39.8001C69 39.8001 69 39.8001 69 39.8001C69 39.8001 69 39.8001 69 39.8001C69 39.8001 69 39.8001 69 39.8001C69 39.8001 69 39.8001 69 39.8001C69 39.8001 69 39.8001 69 39.8001C69 39.8001 69 39.8001 69 39.8001C69 39.8001 69 39.8001 69 39.8001C69 39.8001 69 39.8001 69 39.8001C69 39.8001 69 39.8001 69 39.8001C69 39.8001 69 39.8001 69 39.8001C69 39.8001 69 39.8001 69 39.8001C69 39.8001 69 39.8001 69 39.8001C69 39.8001 69 39.8001 69 39.8001C69 39.8001 69 39.8001 69 39.8001C69 39.8001 69 39.8001 69 39.8001C69 39.8001 69 39.8001 69 39.8001C69 39.8001 69 39.8001 69 39.8001C69 39.8001 69 39.8001 69 39.8001C69 39.8001 69 39.8001 69 39.8001C69 39.8001 69 39.8001 69 39.8001C69 39.8001 69 39.8001 69 39.8001C69 39.8001 69 39.8001 69 39.8001C69 39.8001 69 39.8001 69 39.8001C69 39.8001 69 39.8001 69 39.8001C69 39.8001 69 39.8001 69 39.8001C69 39.8001 69 39.8001 69 39.8001C69 39.8001 69 39.8001 69 39.8001C69 39.8001 69 39.8001 69 39.8001C69 39.8001 69 39.8001 69 39.8001C69 39.8001 69 39.8001 69 39.8001C69 39.8001 69 39.8001 69 39.8001C69 39.8001 69 39.8001 69 39.8001C69 39.8001 69 39.8001 69 39.8001C69 39.8001 69 39.8001 69 39.8001C69 39.8001 69 39.8001 69 39.8001C69 39.8001 69 39.8001 69 39.8001C69 39.8001 69 39.8001 69 39.8001C69 39.8001 69 39.8001 69 39.8001C69 39.8001 69 39.8001 69 39.8001C69 39.8001 69 39.8001 69 39.8001C69 39.8001 69 39.8001 69 39.8001C69 39.8001 69 39.8001 69 39.8001C69 39.8001 69 39.8001 69 39.8001C69 39.8001 69 39.8001 69 39.8001C69 39.8001 69 39.8001 69 39.8001C69 39.8001 69 39.8001 69 39.8001C69 39.8001 69 39.8001 69 39.8001C69 39.8001 69 39.8001 69 39.8001C69 39.8001 69 39.8001 69 39.8001C69 39.8001 69 39.8001 69 39.8001C69 39.8001 69 39.8001 69 39.8001C69 39.8001 69 39.8001 69 39.8001C69 39.8001 69 39.8001 69 39.8001C69 39.8001 69 39.8001 69 39.8001C69 39.8001 69 39.8001 69 39.8001C69 39.8001 69 39.8001 69 39.8001C69 39.8001 69 39.8001 69 39.8001C69 39.8001 69 39.8001 69 39.8001C69 39.8001 69 39.8001 69 39.8001C69 39.8001 69 39.8001 69 39.8001C69 39.8001 69 39.8001 69 39.8001C69 39.8001 69 39.8001 69 39.8001C69 39.8001 69 39.8001 69 39.8001C69 39.8001 69 39.8001 69 39.8001C69 39.8001 69 39.8001 69 39.8001C69 39.8001 69 39.8001 69 39.8001C69 39.8001 69 39.8001 69 39.8001C69 39.8001 69 39.8001 69 39.8001C69 39.8001 69 39.8001 69 39.8001C69 39.8001 69 39.8001 69 39.8001C69 39.8001 69 39.8001 69 39.8001C69 39.8001 69 39.8001 69 39.8001C69 39.8001 69 39.8001 69 39.8001C69 39.8001 69 39.8001 69 39.8001C69 39.8001 69 39.8001 69 39.8001C69 39.8001 69 39.8001 69 39.8001C69 39.8001 69 39.8001 69 39.8001C69 39.8001 69 39.8001 69 39.8001C69 39.8001 69 39.8001 69 39.8001C69 39.8001 69 39.8001 69 39.8001C69 39.8001 69 39.8001 69 39.8001C69 39.8001 69 39.8001 69 39.8001C69 39.8001 69 39.8001 69 39.8001C69 39.8001 69 39.8001 69 39.8001C69 39.8001 69 39.8001 69 39.8001C69 39.8001 69 39.8001 69 39.8001C69 39.8001 69 39.8001 69 39.8001C69 39.8001 69 39.8001 69 39.8001C69 39.8001 69 39.8001 69 39.8001C69 39.8001 69 39.8001 69 39.8001C69 39.8001 69 39.8001 69 39.8001C69 39.8001 69 39.8001 69 39.8001C69 39.8001 69 39.8001 69 39.8001C69 39.8001 69 39.8001 69 39.8001C69 39.8001 69 39.8001 69 39.8001C69 39.8001 69 39.8001 69 39.8001C69 39.8001 69 39.8001 69 39.8001C69 39.8001 69 39.8001 69 39.8001C69 39.8001 69 39.8001 69 39.8001C69 39.8001 69 39.8001 69 39.8001C69 39.8001 69 39.8001 69 39.8001C69 39.8001 69 39.8001 69 39.8001C69 39.8001 69 39.8001 69 39.8001C69 39.8001 69 39.8001 69 39.8001C69 39.8001 69 39.8001 69 39.8001C69 39.8001 69 39.8001 69 39.8001C69 39.8001 69 39.8001 69 39.8001C69 39.8001 69 39.8001 69 39.8001C69 39.8001 69 39.8001 69 39.8001C69 39.8001 69 39.8001 69 39.8001C69 39.8001 69 39.8001 69 39.8001C69 39.8001 69 39.8001 69 39.8001C69 39.8001 69 39.8001 69 39.8001C69 39.8001 69 39.8001 69 39.8001C69 39.8001 69 39.8001 69 39.8C69 39.8 69 39.8 69 39.8C69 39.8 69 39.8 69 39.8C69 39.8 69 39.8 69 39.8C69 39.8 69 39.8 69 39.8C69 39.8 69 39.8 69 39.8C69 39.8 69 39.8 69 39.8C69 39.8 69 39.8 69 39.8C69 39.8 69 39.8 69 39.8C69 39.8 69 39.8 69 39.8C69 39.8 69 39.8 69 39.8C69 39.8 69 39.8 69 39.8C69 39.8 69 39.8 69 39.8C69 39.8 69 39.8 69 39.8C69 39.8 69 39.8 69 39.8C69 39.8 69 39.8 69 39.8C69 39.8 69 39.8 69 39.8C69 39.8 69 39.8 69 39.8C69 39.8 69 39.8 69 39.8C69 39.8 69 39.8 69 39.8C69 39.8 69 39.8 69 39.8C69 39.8 69 39.8 69 39.8C69 39.8 69 39.8 69 39.8C69 39.8 69 39.8 69 39.8C69 39.8 69 39.8 69 39.8C69 39.8 69 39.8 69 39.8C69 39.8 69 39.8 69 39.8C69 39.8 69 39.8 69 39.8C69 39.8 69 39.8 69 39.8C69 39.8 69 39.8 69 39.8C69 39.8 69 39.8 69 39.8C69 39.8 69 39.8 69 39.8C69 39.8 69 39.8 69 39.8C69 39.8 69 39.8 69 39.8C69 39.8 69 39.8 69 39.8C69 39.8 69 39.8 69 39.8C69 39.8 69 39.8 69 39.8C69 39.8 69 39.8 69 39.8C69 39.8 69 39.8 69 39.8C69 39.8 69 39.8 69 39.8C69 39.8 69 39.8 69 39.8C69 39.8 69 39.8 69 39.8C69 39.8 69 39.8 69 39.8C69 39.8 69 39.8 69 39.8C69 39.8 69 39.8 69 39.8C69 39.8 69 39.8 69 39.8C69 39.8 69 39.8 69 39.8C69 39.8 69 39.8 69 39.8C69 39.8 69 39.8 69 39.8C69 39.8 69 39.8 69 39.8C69 39.8 69 39.8 69 39.8C69 39.8 69 39.8 69 39.8C69 39.8 69 39.8 69 39.8C69 39.8 69 39.8 69 39.8C69 39.8 69 39.8 69 39.8C69 39.8 69 39.8 69 39.8C69 39.8 69 39.8 69 39.8C69 39.8 69 39.8 69 39.8C69 39.8 69 39.8 69 39.8C69 39.8 69 39.8 69 39.8C69 39.8 69 39.8 69 39.8C69 39.8 69 39.8 69 39.8C69 39.8 69 39.8 69 39.8C69 39.8 69 39.8 69 39.8C69 39.8 69 39.8 69 39.8C69 39.8 69 39.8 69 39.8C69 39.8 69 39.8 69 39.8C69 39.8 69 39.8 69 39.8C69 39.8 69 39.8 69 39.8C69 39.8 69 39.8 69 39.8C69 39.8 69 39.8 69 39.8C69 39.8 69 39.8 69 39.8C69 39.8 69 39.8 69 39.8C69 39.8 69 39.8 69 39.8C69 39.8 69 39.8 69 39.8C69 39.8 69 39.8 69 39.8C69 39.8 69 39.8 69 39.8C69 39.8 69 39.8 69 39.8C69 39.8 69 39.8 69 39.8C69 39.8 69 39.8 69 39.8C69 39.8 69 39.8 69 39.8C69 39.8 69 39.8 69 39.8C69 39.8 69 39.8 69 39.8C69 39.8 69 39.8 69 39.8C69 39.8 69 39.8 69 39.8C69 39.8 69 39.8 69 39.8C69 39.8 69 39.8 69 39.8C69 39.8 69 39.8 69 39.8C69 39.8 69 39.8 69 39.8C69 39.8 69 39.8 69 39.8C69 39.8 69 39.8 69 39.8C69 39.8 69 39.8 69 39.8C69 39.8 69 39.8 69 39.8C69 39.8 69 39.8 69 39.8C69 39.8 69 39.8 69 39.8C69 39.8 69 39.8 69 39.8C69 39.8 69 39.8 69 39.8C69 39.8 69 39.8 69 39.8C69 39.8 69 39.8 69 39.8C69 39.8 69 39.8 69 39.8C69 39.8 69 39.8 69 39.8C69 39.8 69 39.8 69 39.8C69 39.8 69 39.8 69 39.8C69 39.8 69 39.8 69 39.8C69 39.8 69 39.8 69 39.8C69 39.8 69 39.8 69 39.8C69 39.8 69 39.8 69 39.8C69 39.8 69 39.8 69 39.8C69 39.8 69 39.8 69 39.8C69 39.8 69 39.8 69 39.8C69 39.8 69 39.8 69 39.8C69 39.8 69 39.8 69 39.8C69 39.8 69 39.8 69 39.8C69 39.8 69 39.8 69 39.8C69 39.8 69 39.8 69 39.8C69 39.8 69 39.8 69 39.8C69 39.8 69 39.8 69 39.8C69 39.8 69 39.8 69 39.8C69 39.8 69 39.8 69 39.8C69 39.8 69 39.8 69 39.8C69 39.8 69 39.8 69 39.8C69 39.8 69 39.8 69 39.8C69 39.8 69 39.8 69 39.8C69 39.8 69 39.8 69 39.8C69 39.8 69 39.8 69 39.8C69 39.8 69 39.8 69 39.8C69 39.8 69 39.8 69 39.8C69 39.8 69 39.8 69 39.8C69 39.8 69 39.8 69 39.8C69 39.8 69 39.8 69 39.8C69 39.8 69 39.8 69 39.8C69 39.8 69 39.8 69 39.8C69 39.8 69 39.8 69 39.8C69 39.8 69 39.8 69 39.8C69 39.8 69 39.8 69 39.8C69 39.8 69 39.8 69 39.8C69 39.8 69 39.8 69 39.8C69 39.8 69 39.8 69 39.8C69 39.8 69 39.8 69 39.8C69 39.8 69 39.8 69 39.8C69 39.8 69 39.8 69 39.8C69 39.8 69 39.8 69 39.8C69 39.8 69 39.8 69 39.8C69 39.8 69 39.8 69 39.8C69 39.8 69 39.8 69 39.8C69 39.8 69 39.8 69 39.8C69 39.8 69 39.8 69 39.8C69 39.8 69 39.8 69 39.8C69 39.8 69 39.8 69 39.8C69 39.8 69 39.8 69 39.8C69 39.8 69 39.8 69 39.8C69 39.8 69 39.8 69 39.8C69 39.8 69 39.8 69 39.8C69 39.8 69 39.8 69 39.8C69 39.8 69 39.8 69 39.8C69 39.8 69 39.8 69 39.8C69 39.8 69 39.8 69 39.8C69 39.8 69 39.8 69 39.8C69 39.8 69 39.8 69 39.8C69 39.8 69 39.8 69 39.8C69 39.8 69 39.8 69 39.8C69 39.8 69 39.8 69 39.8C69 39.8 69 39.8 69 39.8C69 39.8 69 39.8 69 39.8C69 39.8 69 39.8 69 39.8C69 39.8 69 39.8 69 39.8C69 39.8 69 39.8 69 39.8C69 39.8 69 39.8 69 39.8C69 39.8 69 39.8 69 39.8C69 39.8 69 39.8 69 39.8C69 39.8 69 39.8 69 39.8C69 39.8 69 39.8 69 39.8C69 39.8 69 39.8 69 39.8C69 39.8 69 39.8 69 39.8C69 39.8 69 39.8 69 39.8C69 39.8 69 39.8 69 39.8C69 39.8 69 39.8 69 39.8C69 39.8 69 39.8 69 39.8C69 39.8 69 39.8 69 39.8C69 39.8 69 39.8 69 39.8C69 39.8 69 39.8 69 39.8C69 39.8 69 39.8 69 39.8C69 39.8 69 39.8 69 39.8C69 39.8 69 39.8 69 39.8C69 39.8 69 39.8 69 39.8C69 39.8 69 39.8 69 39.8C69 39.8 69 39.8 69 39.8C69 39.8 69 39.8 69 39.8C69 39.8 69 39.8 69 39.8C69 39.8 69 39.8 69 39.8C69 39.8 69 39.8 69 39.8C69 39.8 69 39.8 69 39.8C69 39.8 69 39.8 69 39.8C69 39.8 69 39.8 69 39.8C69 39.8 69 39.8 69 39.8C69 39.8 69 39.8 69 39.8C69 39.8 69 39.8 69 39.8C69 39.8 69 39.8 69 39.8C69 39.8 69 39.8 69 39.8C69 39.8 69 39.8 69 39.8C69 39.8 69 39.8 69 39.8C69 39.8 69 39.8 69 39.8C69 39.8 69 39.8 69 39.8C69 39.8 69 39.8 69 39.8C69 39.8 69 39.8 69 39.8C69 39.8 69 39.8 69 39.8C69 39.8 69 39.8 69 39.8C69 39.8 69 39.8 69 39.8C69 39.8 69 39.8 69 39.8C69 39.8 69 39.8 69 39.8C69 39.8 69 39.8 69 39.8C69 39.8 69 39.8 69 39.8C69 39.8 69 39.8 69 39.8C69 39.8 69 39.8 69 39.8C69 39.8 69 39.8 69 39.8C69 39.8 69 39.8 69 39.8C69 39.8 69 39.8 69 39.8C69 39.8 69 39.8 69 39.8C69 39.8 69 39.8 69 39.8C69 39.8 69 39.8 69 39.8C69 39.8 69 39.8 69 39.8C69 39.8 69 39.8 69 39.8C69 39.8 69 39.8 69 39.8C69 39.8 69 39.8 69 39.8C69 39.8 69 39.8 69 39.8C69 39.8 69 39.8 69 39.8C69 39.8 69 39.8 69 39.8C69 39.8 69 39.8 69 39.8C69 39.8 69 39.8 69 39.8C69 39.8 69 39.8 69 39.8C69 39.8 69 39.8 69 39.8C69 39.8 69 39.8 69 39.8C69 39.8 69 39.8 69 39.8C69 39.8 69 39.8 69 39.8C69 39.8 69 39.8 69 39.8C69 39.8 69 39.8 69 39.8C69 39.8 69 39.8 69 39.8C69 39.8 69 39.8 69 39.8C69 39.8 69 39.8 69 39.8C69 39.8 69 39.8 69 39.8C69 39.8 69 39.8 69 39.8C69 39.8 69 39.8 69 39.8C69 39.8 69 39.8 69 39.8C69 39.8 69 39.8 69 39.8C69 39.8 69 39.8 69 39.8C69 39.8 69 39.8 69 39.8C69 39.8 69 39.8 69 39.8C69 39.8 69 39.8 69 39.8C69 39.8 69 39.8 69 39.8C69 39.8 69 39.8 69 39.8C69 39.8 69 39.8 69 39.8C69 39.8 69 39.8 69 39.8C69 39.8 69 39.8 69 39.8C69 39.8 69 39.8 69 39.8C69 39.8 69 39.8 69 39.8C69 39.8 69 39.8 69 39.8C69 39.8 69 39.8 69 39.8C69 39.8 69 39.8 69 39.8C69 39.8 69 39.8 69 39.8C69 39.8 69 39.8 69 39.8C69 39.8 69 39.8 69 39.8C69 39.8 69 39.8 69 39.8C69 39.8 69 39.8 69 39.8C69 39.8 69 39.8 69 39.8C69 39.8 69 39.8 69 39.8C69 39.8 69 39.8 69 39.8C69 39.8 69 39.8 69 39.8C69 39.8 69 39.8 69 39.8C69 39.8 69 39.8 69 39.8C69 39.8 69 39.8 69 39.8C69 39.8 69 39.8 69 39.8C69 39.8 69 39.8 69 39.8C69 39.8 69 39.8 69 39.8C69 39.8 69 39.8 69 39.8C69 39.8 69 39.8 69 39.8C69 39.8 69 39.8 69 39.8C69 39.8 69 39.8 69 39.8C69 39.8 69 39.8 69 39.8C69 39.8 69 39.8 69 39.8C69 39.8 69 39.8 69 39.8C69 39.8 69 39.8 69 39.8C69 39.8 69 39.8 69 39.8C69 39.8 69 39.8 69 39.8C69 39.8 69 39.8 69 39.8C69 39.8 69 39.8 69 39.8C69 39.8 69 39.8 69 39.8C69 39.8 69 39.8 69 39.8C69 39.8 69 39.8 69 39.8C69 39.8 69 39.8 69 39.8C69 39.8 69 39.8 69 39.8C69 39.8 69 39.8 69 39.8C69 39.8 69 39.8 69 39.8C69 39.8 69 39.8 69 39.8C69 39.8 69 39.8 69 39.8C69 39.8 69 39.8 69 39.8C69 39.8 69 39.8 69 39.8C69 39.8 69 39.8 69 39.8C69 39.8 69 39.8 69 39.8C69 39.8 69 39.8 69 39.8C69 39.8 69 39.8 69 39.8C69 39.8 69 39.8 69 39.8C69 39.8 69 39.8 69 39.8C69 39.8 69 39.8 69 39.8C69 39.8 69 39.8 69 39.8C69 39.8 69 39.8 69 39.8C69 39.8 69 39.8 69 39.8C69 39.8 69 39.8 69 39.8C69 39.8 69 39.8 69 39.8C69 39.8 69 39.8 69 39.8C69 39.8 69 39.8 69 39.8C69 39.8 69 39.8 69 39.8C69 39.8 69 39.8 69 39.8C69 39.8 69 39.8 69 39.8C69 39.8 69 39.8 69 39.8C69 39.8 69 39.8 69 39.8C69 39.8 69 39.8 69 39.8C69 39.8 69 39.8 69 39.8C69 39.8 69 39.8 69 39.8C69 39.8 69 39.8 69 39.8C69 39.8 69 39.8 69 39.8C69 39.8 69 39.8 69 39.8C69 39.8 69 39.8 69 39.8C69 39.8 69 39.8 69 39.8C69 39.8 69 39.8 69 39.8C69 39.8 69 39.8 69 39.8C69 39.8 69 39.8 69 39.8C69 39.8 69 39.8 69 39.8C69 39.8 69 39.8 69 39.8C69 39.8 69 39.8 69 39.8C69 39.8 69 39.8 69 39.8C69 39.8 69 39.8 69 39.8C69 39.8 69 39.8 69 39.8C69 39.8 69 39.8 69 39.8C69 39.8 69 39.8 69 39.8C69 39.8 69 39.8 69 39.8C69 39.8 69 39.8 69 39.8C69 39.8 69 39.8 69 39.8C69 39.8 69 39.8 69 39.8C69 39.8 69 39.8 69 39.8C69 39.8 69 39.8 69 39.8C69 39.8 69 39.8 69 39.8H63ZM50 26.8C57.1797 26.8 63 32.6203 63 39.8H69C69 29.3066 60.4934 20.8 50 20.8V26.8ZM37 39.8C37 32.6203 42.8203 26.8 50 26.8V20.8C39.5066 20.8 31 29.3066 31 39.8H37ZM37 39.8001C37 39.8001 37 39.8001 37 39.8001C37 39.8001 37 39.8001 37 39.8001C37 39.8001 37 39.8001 37 39.8001C37 39.8001 37 39.8001 37 39.8001C37 39.8001 37 39.8001 37 39.8001C37 39.8001 37 39.8001 37 39.8001C37 39.8001 37 39.8001 37 39.8001C37 39.8001 37 39.8001 37 39.8001C37 39.8001 37 39.8001 37 39.8001C37 39.8001 37 39.8001 37 39.8001C37 39.8001 37 39.8001 37 39.8001C37 39.8001 37 39.8001 37 39.8001C37 39.8001 37 39.8001 37 39.8001C37 39.8001 37 39.8001 37 39.8001C37 39.8001 37 39.8001 37 39.8001C37 39.8001 37 39.8001 37 39.8001C37 39.8001 37 39.8001 37 39.8001C37 39.8001 37 39.8001 37 39.8001C37 39.8001 37 39.8001 37 39.8001C37 39.8001 37 39.8001 37 39.8001C37 39.8001 37 39.8001 37 39.8001C37 39.8001 37 39.8001 37 39.8001C37 39.8001 37 39.8001 37 39.8001C37 39.8001 37 39.8001 37 39.8001C37 39.8001 37 39.8001 37 39.8001C37 39.8001 37 39.8001 37 39.8001C37 39.8001 37 39.8001 37 39.8001C37 39.8001 37 39.8001 37 39.8001C37 39.8001 37 39.8001 37 39.8001C37 39.8001 37 39.8001 37 39.8001C37 39.8001 37 39.8001 37 39.8001C37 39.8001 37 39.8001 37 39.8001C37 39.8001 37 39.8001 37 39.8001C37 39.8001 37 39.8001 37 39.8001C37 39.8001 37 39.8001 37 39.8001C37 39.8001 37 39.8001 37 39.8001C37 39.8001 37 39.8001 37 39.8001C37 39.8001 37 39.8001 37 39.8001C37 39.8001 37 39.8001 37 39.8001C37 39.8001 37 39.8001 37 39.8001C37 39.8001 37 39.8001 37 39.8001C37 39.8001 37 39.8001 37 39.8001C37 39.8001 37 39.8001 37 39.8001C37 39.8001 37 39.8001 37 39.8001C37 39.8001 37 39.8001 37 39.8001C37 39.8001 37 39.8001 37 39.8001C37 39.8001 37 39.8001 37 39.8001C37 39.8001 37 39.8001 37 39.8001C37 39.8001 37 39.8001 37 39.8001C37 39.8001 37 39.8001 37 39.8001C37 39.8001 37 39.8001 37 39.8001C37 39.8001 37 39.8001 37 39.8001C37 39.8001 37 39.8001 37 39.8001C37 39.8001 37 39.8001 37 39.8001C37 39.8001 37 39.8001 37 39.8001C37 39.8001 37 39.8001 37 39.8001C37 39.8001 37 39.8001 37 39.8001C37 39.8001 37 39.8001 37 39.8001C37 39.8001 37 39.8001 37 39.8001C37 39.8001 37 39.8001 37 39.8001C37 39.8001 37 39.8001 37 39.8001C37 39.8001 37 39.8001 37 39.8001C37 39.8001 37 39.8001 37 39.8001C37 39.8001 37 39.8001 37 39.8001C37 39.8001 37 39.8001 37 39.8001C37 39.8001 37 39.8001 37 39.8001C37 39.8001 37 39.8001 37 39.8001C37 39.8001 37 39.8001 37 39.8001C37 39.8001 37 39.8001 37 39.8001C37 39.8001 37 39.8001 37 39.8001C37 39.8001 37 39.8001 37 39.8001C37 39.8001 37 39.8001 37 39.8001C37 39.8001 37 39.8001 37 39.8001C37 39.8001 37 39.8001 37 39.8001C37 39.8001 37 39.8001 37 39.8001C37 39.8001 37 39.8001 37 39.8001C37 39.8001 37 39.8001 37 39.8001C37 39.8001 37 39.8001 37 39.8001C37 39.8001 37 39.8001 37 39.8001C37 39.8001 37 39.8001 37 39.8001C37 39.8001 37 39.8001 37 39.8001C37 39.8001 37 39.8001 37 39.8001C37 39.8001 37 39.8001 37 39.8001C37 39.8001 37 39.8001 37 39.8001C37 39.8001 37 39.8001 37 39.8001C37 39.8001 37 39.8001 37 39.8001C37 39.8001 37 39.8001 37 39.8001C37 39.8001 37 39.8001 37 39.8001C37 39.8001 37 39.8001 37 39.8001C37 39.8001 37 39.8001 37 39.8001C37 39.8001 37 39.8001 37 39.8001C37 39.8001 37 39.8001 37 39.8001C37 39.8001 37 39.8001 37 39.8001C37 39.8001 37 39.8001 37 39.8001C37 39.8001 37 39.8001 37 39.8001C37 39.8001 37 39.8001 37 39.8001C37 39.8001 37 39.8001 37 39.8001C37 39.8001 37 39.8001 37 39.8001C37 39.8001 37 39.8001 37 39.8001C37 39.8001 37 39.8001 37 39.8001C37 39.8001 37 39.8001 37 39.8001C37 39.8001 37 39.8001 37 39.8001C37 39.8001 37 39.8001 37 39.8001C37 39.8001 37 39.8001 37 39.8001C37 39.8001 37 39.8001 37 39.8001C37 39.8001 37 39.8001 37 39.8001C37 39.8001 37 39.8001 37 39.8001C37 39.8001 37 39.8001 37 39.8001C37 39.8001 37 39.8001 37 39.8001C37 39.8001 37 39.8001 37 39.8001C37 39.8001 37 39.8001 37 39.8001C37 39.8001 37 39.8001 37 39.8001C37 39.8001 37 39.8001 37 39.8001C37 39.8001 37 39.8001 37 39.8001C37 39.8001 37 39.8001 37 39.8001C37 39.8001 37 39.8001 37 39.8001C37 39.8001 37 39.8001 37 39.8001C37 39.8001 37 39.8001 37 39.8001C37 39.8001 37 39.8001 37 39.8001C37 39.8001 37 39.8001 37 39.8001C37 39.8001 37 39.8001 37 39.8001C37 39.8001 37 39.8001 37 39.8001C37 39.8001 37 39.8001 37 39.8001C37 39.8001 37 39.8001 37 39.8001C37 39.8001 37 39.8001 37 39.8001C37 39.8001 37 39.8001 37 39.8001C37 39.8001 37 39.8001 37 39.8001C37 39.8001 37 39.8001 37 39.8001C37 39.8001 37 39.8001 37 39.8001C37 39.8001 37 39.8001 37 39.8001C37 39.8001 37 39.8001 37 39.8001C37 39.8001 37 39.8001 37 39.8001C37 39.8001 37 39.8001 37 39.8001C37 39.8001 37 39.8001 37 39.8001C37 39.8001 37 39.8001 37 39.8001C37 39.8001 37 39.8001 37 39.8001C37 39.8001 37 39.8001 37 39.8001C37 39.8001 37 39.8001 37 39.8001C37 39.8001 37 39.8001 37 39.8001C37 39.8001 37 39.8001 37 39.8001C37 39.8001 37 39.8001 37 39.8001C37 39.8001 37 39.8001 37 39.8001C37 39.8001 37 39.8001 37 39.8001C37 39.8001 37 39.8001 37 39.8001C37 39.8001 37 39.8001 37 39.8001C37 39.8001 37 39.8001 37 39.8001C37 39.8001 37 39.8001 37 39.8001C37 39.8001 37 39.8001 37 39.8001C37 39.8001 37 39.8001 37 39.8001C37 39.8001 37 39.8001 37 39.8001C37 39.8001 37 39.8001 37 39.8001C37 39.8001 37 39.8001 37 39.8001C37 39.8001 37 39.8001 37 39.8001C37 39.8001 37 39.8001 37 39.8001C37 39.8001 37 39.8001 37 39.8001C37 39.8001 37 39.8001 37 39.8001C37 39.8001 37 39.8001 37 39.8001C37 39.8001 37 39.8001 37 39.8001C37 39.8001 37 39.8001 37 39.8001C37 39.8001 37 39.8001 37 39.8001C37 39.8001 37 39.8001 37 39.8001C37 39.8001 37 39.8001 37 39.8001C37 39.8001 37 39.8001 37 39.8001C37 39.8001 37 39.8001 37 39.8001C37 39.8001 37 39.8001 37 39.8001C37 39.8001 37 39.8001 37 39.8001C37 39.8001 37 39.8001 37 39.8001C37 39.8001 37 39.8001 37 39.8001C37 39.8001 37 39.8001 37 39.8001C37 39.8001 37 39.8001 37 39.8001C37 39.8001 37 39.8001 37 39.8001C37 39.8001 37 39.8001 37 39.8C37 39.8 37 39.8 37 39.8C37 39.8 37 39.8 37 39.8C37 39.8 37 39.8 37 39.8C37 39.8 37 39.8 37 39.8C37 39.8 37 39.8 37 39.8C37 39.8 37 39.8 37 39.8C37 39.8 37 39.8 37 39.8C37 39.8 37 39.8 37 39.8C37 39.8 37 39.8 37 39.8C37 39.8 37 39.8 37 39.8C37 39.8 37 39.8 37 39.8C37 39.8 37 39.8 37 39.8C37 39.8 37 39.8 37 39.8C37 39.8 37 39.8 37 39.8C37 39.8 37 39.8 37 39.8C37 39.8 37 39.8 37 39.8C37 39.8 37 39.8 37 39.8C37 39.8 37 39.8 37 39.8C37 39.8 37 39.8 37 39.8C37 39.8 37 39.8 37 39.8C37 39.8 37 39.8 37 39.8C37 39.8 37 39.8 37 39.8C37 39.8 37 39.8 37 39.8C37 39.8 37 39.8 37 39.8C37 39.8 37 39.8 37 39.8C37 39.8 37 39.8 37 39.8C37 39.8 37 39.8 37 39.8C37 39.8 37 39.8 37 39.8C37 39.8 37 39.8 37 39.8C37 39.8 37 39.8 37 39.8C37 39.8 37 39.8 37 39.8C37 39.8 37 39.8 37 39.8C37 39.8 37 39.8 37 39.8C37 39.8 37 39.8 37 39.8C37 39.8 37 39.8 37 39.8C37 39.8 37 39.8 37 39.8C37 39.8 37 39.8 37 39.8C37 39.8 37 39.8 37 39.8C37 39.8 37 39.8 37 39.8C37 39.8 37 39.8 37 39.8C37 39.8 37 39.8 37 39.8C37 39.8 37 39.8 37 39.8C37 39.8 37 39.8 37 39.8C37 39.8 37 39.8 37 39.8C37 39.8 37 39.8 37 39.8C37 39.8 37 39.8 37 39.8C37 39.8 37 39.8 37 39.8C37 39.8 37 39.8 37 39.8C37 39.8 37 39.8 37 39.8C37 39.8 37 39.8 37 39.8C37 39.8 37 39.8 37 39.8C37 39.8 37 39.8 37 39.8C37 39.8 37 39.8 37 39.8C37 39.8 37 39.8 37 39.8C37 39.8 37 39.8 37 39.8C37 39.8 37 39.8 37 39.8C37 39.8 37 39.8 37 39.8C37 39.8 37 39.8 37 39.8C37 39.8 37 39.8 37 39.8C37 39.8 37 39.8 37 39.8C37 39.8 37 39.8 37 39.8C37 39.8 37 39.8 37 39.8C37 39.8 37 39.8 37 39.8C37 39.8 37 39.8 37 39.8C37 39.8 37 39.8 37 39.8C37 39.8 37 39.8 37 39.8C37 39.8 37 39.8 37 39.8C37 39.8 37 39.8 37 39.8C37 39.8 37 39.8 37 39.8C37 39.8 37 39.8 37 39.8C37 39.8 37 39.8 37 39.8C37 39.8 37 39.8 37 39.8C37 39.8 37 39.8 37 39.8C37 39.8 37 39.8 37 39.8C37 39.8 37 39.8 37 39.8C37 39.8 37 39.8 37 39.8C37 39.8 37 39.8 37 39.8C37 39.8 37 39.8 37 39.8C37 39.8 37 39.8 37 39.8C37 39.8 37 39.8 37 39.8C37 39.8 37 39.8 37 39.8C37 39.8 37 39.8 37 39.8C37 39.8 37 39.8 37 39.8C37 39.8 37 39.8 37 39.8C37 39.8 37 39.8 37 39.8C37 39.8 37 39.8 37 39.8C37 39.8 37 39.8 37 39.8C37 39.8 37 39.8 37 39.8C37 39.8 37 39.8 37 39.8C37 39.8 37 39.8 37 39.8C37 39.8 37 39.8 37 39.8C37 39.8 37 39.8 37 39.8C37 39.8 37 39.8 37 39.8C37 39.8 37 39.8 37 39.8C37 39.8 37 39.8 37 39.8C37 39.8 37 39.8 37 39.8C37 39.8 37 39.8 37 39.8C37 39.8 37 39.8 37 39.8C37 39.8 37 39.8 37 39.8C37 39.8 37 39.8 37 39.8C37 39.8 37 39.8 37 39.8C37 39.8 37 39.8 37 39.8C37 39.8 37 39.8 37 39.8C37 39.8 37 39.8 37 39.8C37 39.8 37 39.8 37 39.8C37 39.8 37 39.8 37 39.8C37 39.8 37 39.8 37 39.8C37 39.8 37 39.8 37 39.8C37 39.8 37 39.8 37 39.8C37 39.8 37 39.8 37 39.8C37 39.8 37 39.8 37 39.8C37 39.8 37 39.8 37 39.8C37 39.8 37 39.8 37 39.8C37 39.8 37 39.8 37 39.8C37 39.8 37 39.8 37 39.8C37 39.8 37 39.8 37 39.8C37 39.8 37 39.8 37 39.8C37 39.8 37 39.8 37 39.8C37 39.8 37 39.8 37 39.8C37 39.8 37 39.8 37 39.8C37 39.8 37 39.8 37 39.8C37 39.8 37 39.8 37 39.8C37 39.8 37 39.8 37 39.8C37 39.8 37 39.8 37 39.8C37 39.8 37 39.8 37 39.8C37 39.8 37 39.8 37 39.8C37 39.8 37 39.8 37 39.8C37 39.8 37 39.8 37 39.8C37 39.8 37 39.8 37 39.8C37 39.8 37 39.8 37 39.8C37 39.8 37 39.8 37 39.8C37 39.8 37 39.8 37 39.8C37 39.8 37 39.8 37 39.8C37 39.8 37 39.8 37 39.8C37 39.8 37 39.8 37 39.8C37 39.8 37 39.8 37 39.8C37 39.8 37 39.8 37 39.8C37 39.8 37 39.8 37 39.8C37 39.8 37 39.8 37 39.8C37 39.8 37 39.8 37 39.8C37 39.8 37 39.8 37 39.8C37 39.8 37 39.8 37 39.8C37 39.8 37 39.8 37 39.8C37 39.8 37 39.8 37 39.8C37 39.8 37 39.8 37 39.8C37 39.8 37 39.8 37 39.8C37 39.8 37 39.8 37 39.8C37 39.8 37 39.8 37 39.8C37 39.8 37 39.8 37 39.8C37 39.8 37 39.8 37 39.8C37 39.8 37 39.8 37 39.8C37 39.8 37 39.8 37 39.8C37 39.8 37 39.8 37 39.8C37 39.8 37 39.8 37 39.8C37 39.8 37 39.8 37 39.8C37 39.8 37 39.8 37 39.8C37 39.8 37 39.8 37 39.8C37 39.8 37 39.8 37 39.8C37 39.8 37 39.8 37 39.8C37 39.8 37 39.8 37 39.8C37 39.8 37 39.8 37 39.8C37 39.8 37 39.8 37 39.8C37 39.8 37 39.8 37 39.8C37 39.8 37 39.8 37 39.8C37 39.8 37 39.8 37 39.8C37 39.8 37 39.8 37 39.8C37 39.8 37 39.8 37 39.8C37 39.8 37 39.8 37 39.8C37 39.8 37 39.8 37 39.8C37 39.8 37 39.8 37 39.8C37 39.8 37 39.8 37 39.8C37 39.8 37 39.8 37 39.8C37 39.8 37 39.8 37 39.8C37 39.8 37 39.8 37 39.8C37 39.8 37 39.8 37 39.8C37 39.8 37 39.8 37 39.8C37 39.8 37 39.8 37 39.8C37 39.8 37 39.8 37 39.8C37 39.8 37 39.8 37 39.8C37 39.8 37 39.8 37 39.8C37 39.8 37 39.8 37 39.8C37 39.8 37 39.8 37 39.8C37 39.8 37 39.8 37 39.8C37 39.8 37 39.8 37 39.8C37 39.8 37 39.8 37 39.8C37 39.8 37 39.8 37 39.8C37 39.8 37 39.8 37 39.8C37 39.8 37 39.8 37 39.8C37 39.8 37 39.8 37 39.8C37 39.8 37 39.8 37 39.8C37 39.8 37 39.8 37 39.8C37 39.8 37 39.8 37 39.8C37 39.8 37 39.8 37 39.8C37 39.8 37 39.8 37 39.8C37 39.8 37 39.8 37 39.8C37 39.8 37 39.8 37 39.8C37 39.8 37 39.8 37 39.8C37 39.8 37 39.8 37 39.8C37 39.8 37 39.8 37 39.8C37 39.8 37 39.8 37 39.8C37 39.8 37 39.8 37 39.8C37 39.8 37 39.8 37 39.8C37 39.8 37 39.8 37 39.8C37 39.8 37 39.8 37 39.8C37 39.8 37 39.8 37 39.8C37 39.8 37 39.8 37 39.8C37 39.8 37 39.8 37 39.8C37 39.8 37 39.8 37 39.8C37 39.8 37 39.8 37 39.8C37 39.8 37 39.8 37 39.8C37 39.8 37 39.8 37 39.8C37 39.8 37 39.8 37 39.8C37 39.8 37 39.8 37 39.8C37 39.8 37 39.8 37 39.8C37 39.8 37 39.8 37 39.8C37 39.8 37 39.8 37 39.8C37 39.8 37 39.8 37 39.8C37 39.8 37 39.8 37 39.8C37 39.8 37 39.8 37 39.8C37 39.8 37 39.8 37 39.8C37 39.8 37 39.8 37 39.8C37 39.8 37 39.8 37 39.8C37 39.8 37 39.8 37 39.8C37 39.8 37 39.8 37 39.8C37 39.8 37 39.8 37 39.8C37 39.8 37 39.8 37 39.8C37 39.8 37 39.8 37 39.8C37 39.8 37 39.8 37 39.8C37 39.8 37 39.8 37 39.8C37 39.8 37 39.8 37 39.8C37 39.8 37 39.8 37 39.8C37 39.8 37 39.8 37 39.8C37 39.8 37 39.8 37 39.8C37 39.8 37 39.8 37 39.8C37 39.8 37 39.8 37 39.8C37 39.8 37 39.8 37 39.8C37 39.8 37 39.8 37 39.8C37 39.8 37 39.8 37 39.8C37 39.8 37 39.8 37 39.8C37 39.8 37 39.8 37 39.8C37 39.8 37 39.8 37 39.8C37 39.8 37 39.8 37 39.8C37 39.8 37 39.8 37 39.8C37 39.8 37 39.8 37 39.8C37 39.8 37 39.8 37 39.8C37 39.8 37 39.8 37 39.8C37 39.8 37 39.8 37 39.8C37 39.8 37 39.8 37 39.8C37 39.8 37 39.8 37 39.8C37 39.8 37 39.8 37 39.8C37 39.8 37 39.8 37 39.8C37 39.8 37 39.8 37 39.8C37 39.8 37 39.8 37 39.8C37 39.8 37 39.8 37 39.8C37 39.8 37 39.8 37 39.8C37 39.8 37 39.8 37 39.8C37 39.8 37 39.8 37 39.8C37 39.8 37 39.8 37 39.8C37 39.8 37 39.8 37 39.8C37 39.8 37 39.8 37 39.8C37 39.8 37 39.8 37 39.8C37 39.8 37 39.8 37 39.8C37 39.8 37 39.8 37 39.8C37 39.8 37 39.8 37 39.8C37 39.8 37 39.8 37 39.8C37 39.8 37 39.8 37 39.8C37 39.8 37 39.8 37 39.8C37 39.8 37 39.8 37 39.8C37 39.8 37 39.8 37 39.8C37 39.8 37 39.8 37 39.8C37 39.8 37 39.8 37 39.8C37 39.8 37 39.8 37 39.8C37 39.8 37 39.8 37 39.8C37 39.8 37 39.8 37 39.8C37 39.8 37 39.8 37 39.8C37 39.8 37 39.8 37 39.8C37 39.8 37 39.8 37 39.8C37 39.8 37 39.8 37 39.8C37 39.8 37 39.8 37 39.8C37 39.8 37 39.8 37 39.8C37 39.8 37 39.8 37 39.8C37 39.8 37 39.8 37 39.8C37 39.8 37 39.8 37 39.8C37 39.8 37 39.8 37 39.8C37 39.8 37 39.8 37 39.8C37 39.8 37 39.8 37 39.8C37 39.8 37 39.8 37 39.8C37 39.8 37 39.8 37 39.8C37 39.8 37 39.8 37 39.8C37 39.8 37 39.8 37 39.8C37 39.8 37 39.8 37 39.8C37 39.8 37 39.8 37 39.8C37 39.8 37 39.8 37 39.8C37 39.8 37 39.8 37 39.8C37 39.8 37 39.8 37 39.8C37 39.8 37 39.8 37 39.8C37 39.8 37 39.8 37 39.8C37 39.8 37 39.8 37 39.8C37 39.8 37 39.8 37 39.8C37 39.8 37 39.8 37 39.8C37 39.8 37 39.8 37 39.8C37 39.8 37 39.8 37 39.8C37 39.8 37 39.8 37 39.8C37 39.8 37 39.8 37 39.8C37 39.8 37 39.8 37 39.8C37 39.8 37 39.8 37 39.8C37 39.8 37 39.8 37 39.8C37 39.8 37 39.8 37 39.8C37 39.8 37 39.8 37 39.8C37 39.8 37 39.8 37 39.8C37 39.8 37 39.8 37 39.8C37 39.8 37 39.8 37 39.8C37 39.8 37 39.8 37 39.8C37 39.8 37 39.8 37 39.8C37 39.8 37 39.8 37 39.8C37 39.8 37 39.8 37 39.8C37 39.8 37 39.8 37 39.8C37 39.8 37 39.8 37 39.8C37 39.8 37 39.8 37 39.8C37 39.8 37 39.8 37 39.8C37 39.8 37 39.8 37 39.8C37 39.8 37 39.8 37 39.8C37 39.8 37 39.8 37 39.8C37 39.8 37 39.8 37 39.8C37 39.8 37 39.8 37 39.8C37 39.8 37 39.8 37 39.8C37 39.8 37 39.8 37 39.8C37 39.8 37 39.8 37 39.8C37 39.8 37 39.8 37 39.8C37 39.8 37 39.8 37 39.8C37 39.8 37 39.8 37 39.8C37 39.8 37 39.8 37 39.8C37 39.8 37 39.8 37 39.8C37 39.8 37 39.8 37 39.8C37 39.8 37 39.8 37 39.8C37 39.8 37 39.8 37 39.8C37 39.8 37 39.8 37 39.8C37 39.8 37 39.8 37 39.8C37 39.8 37 39.8 37 39.8C37 39.8 37 39.8 37 39.8H31C31 39.8 31 39.8 31 39.8C31 39.8 31 39.8 31 39.8C31 39.8 31 39.8 31 39.8C31 39.8 31 39.8 31 39.8C31 39.8 31 39.8 31 39.8C31 39.8 31 39.8 31 39.8C31 39.8 31 39.8 31 39.8C31 39.8 31 39.8 31 39.8C31 39.8 31 39.8 31 39.8C31 39.8 31 39.8 31 39.8C31 39.8 31 39.8 31 39.8C31 39.8 31 39.8 31 39.8C31 39.8 31 39.8 31 39.8C31 39.8 31 39.8 31 39.8C31 39.8 31 39.8 31 39.8C31 39.8 31 39.8 31 39.8C31 39.8 31 39.8 31 39.8C31 39.8 31 39.8 31 39.8C31 39.8 31 39.8 31 39.8C31 39.8 31 39.8 31 39.8C31 39.8 31 39.8 31 39.8C31 39.8 31 39.8 31 39.8C31 39.8 31 39.8 31 39.8C31 39.8 31 39.8 31 39.8C31 39.8 31 39.8 31 39.8C31 39.8 31 39.8 31 39.8C31 39.8 31 39.8 31 39.8C31 39.8 31 39.8 31 39.8C31 39.8 31 39.8 31 39.8C31 39.8 31 39.8 31 39.8C31 39.8 31 39.8 31 39.8C31 39.8 31 39.8 31 39.8C31 39.8 31 39.8 31 39.8C31 39.8 31 39.8 31 39.8C31 39.8 31 39.8 31 39.8C31 39.8 31 39.8 31 39.8C31 39.8 31 39.8 31 39.8C31 39.8 31 39.8 31 39.8C31 39.8 31 39.8 31 39.8C31 39.8 31 39.8 31 39.8C31 39.8 31 39.8 31 39.8C31 39.8 31 39.8 31 39.8C31 39.8 31 39.8 31 39.8C31 39.8 31 39.8 31 39.8C31 39.8 31 39.8 31 39.8C31 39.8 31 39.8 31 39.8C31 39.8 31 39.8 31 39.8C31 39.8 31 39.8 31 39.8C31 39.8 31 39.8 31 39.8C31 39.8 31 39.8 31 39.8C31 39.8 31 39.8 31 39.8C31 39.8 31 39.8 31 39.8C31 39.8 31 39.8 31 39.8C31 39.8 31 39.8 31 39.8C31 39.8 31 39.8 31 39.8C31 39.8 31 39.8 31 39.8C31 39.8 31 39.8 31 39.8C31 39.8 31 39.8 31 39.8C31 39.8 31 39.8 31 39.8C31 39.8 31 39.8 31 39.8C31 39.8 31 39.8 31 39.8C31 39.8 31 39.8 31 39.8C31 39.8 31 39.8 31 39.8C31 39.8 31 39.8 31 39.8C31 39.8 31 39.8 31 39.8C31 39.8 31 39.8 31 39.8C31 39.8 31 39.8 31 39.8C31 39.8 31 39.8 31 39.8C31 39.8 31 39.8 31 39.8C31 39.8 31 39.8 31 39.8C31 39.8 31 39.8 31 39.8C31 39.8 31 39.8 31 39.8C31 39.8 31 39.8 31 39.8C31 39.8 31 39.8 31 39.8C31 39.8 31 39.8 31 39.8C31 39.8 31 39.8 31 39.8C31 39.8 31 39.8 31 39.8C31 39.8 31 39.8 31 39.8C31 39.8 31 39.8 31 39.8C31 39.8 31 39.8 31 39.8C31 39.8 31 39.8 31 39.8C31 39.8 31 39.8 31 39.8C31 39.8 31 39.8 31 39.8C31 39.8 31 39.8 31 39.8C31 39.8 31 39.8 31 39.8C31 39.8 31 39.8 31 39.8C31 39.8 31 39.8 31 39.8C31 39.8 31 39.8 31 39.8C31 39.8 31 39.8 31 39.8C31 39.8 31 39.8 31 39.8C31 39.8 31 39.8 31 39.8C31 39.8 31 39.8 31 39.8C31 39.8 31 39.8 31 39.8C31 39.8 31 39.8 31 39.8C31 39.8 31 39.8 31 39.8C31 39.8 31 39.8 31 39.8C31 39.8 31 39.8 31 39.8C31 39.8 31 39.8 31 39.8C31 39.8 31 39.8 31 39.8C31 39.8 31 39.8 31 39.8C31 39.8 31 39.8 31 39.8C31 39.8 31 39.8 31 39.8C31 39.8 31 39.8 31 39.8C31 39.8 31 39.8 31 39.8C31 39.8 31 39.8 31 39.8C31 39.8 31 39.8 31 39.8C31 39.8 31 39.8 31 39.8C31 39.8 31 39.8 31 39.8C31 39.8 31 39.8 31 39.8C31 39.8 31 39.8 31 39.8C31 39.8 31 39.8 31 39.8C31 39.8 31 39.8 31 39.8C31 39.8 31 39.8 31 39.8C31 39.8 31 39.8 31 39.8C31 39.8 31 39.8 31 39.8C31 39.8 31 39.8 31 39.8C31 39.8 31 39.8 31 39.8C31 39.8 31 39.8 31 39.8C31 39.8 31 39.8 31 39.8C31 39.8 31 39.8 31 39.8C31 39.8 31 39.8 31 39.8C31 39.8 31 39.8 31 39.8C31 39.8 31 39.8 31 39.8C31 39.8 31 39.8 31 39.8C31 39.8 31 39.8 31 39.8C31 39.8 31 39.8 31 39.8C31 39.8 31 39.8 31 39.8C31 39.8 31 39.8 31 39.8C31 39.8 31 39.8 31 39.8C31 39.8 31 39.8 31 39.8C31 39.8 31 39.8 31 39.8C31 39.8 31 39.8 31 39.8C31 39.8 31 39.8 31 39.8C31 39.8 31 39.8 31 39.8C31 39.8 31 39.8 31 39.8C31 39.8 31 39.8 31 39.8C31 39.8 31 39.8 31 39.8C31 39.8 31 39.8 31 39.8C31 39.8 31 39.8 31 39.8C31 39.8 31 39.8 31 39.8C31 39.8 31 39.8 31 39.8C31 39.8 31 39.8 31 39.8C31 39.8 31 39.8 31 39.8C31 39.8 31 39.8 31 39.8C31 39.8 31 39.8 31 39.8C31 39.8 31 39.8 31 39.8C31 39.8 31 39.8 31 39.8C31 39.8 31 39.8 31 39.8C31 39.8 31 39.8 31 39.8C31 39.8 31 39.8 31 39.8C31 39.8 31 39.8 31 39.8C31 39.8 31 39.8 31 39.8C31 39.8 31 39.8 31 39.8C31 39.8 31 39.8 31 39.8C31 39.8 31 39.8 31 39.8C31 39.8 31 39.8 31 39.8C31 39.8 31 39.8 31 39.8C31 39.8 31 39.8 31 39.8C31 39.8 31 39.8 31 39.8C31 39.8 31 39.8 31 39.8C31 39.8 31 39.8 31 39.8C31 39.8 31 39.8 31 39.8C31 39.8 31 39.8 31 39.8C31 39.8 31 39.8 31 39.8C31 39.8 31 39.8 31 39.8C31 39.8 31 39.8 31 39.8C31 39.8 31 39.8 31 39.8C31 39.8 31 39.8 31 39.8C31 39.8 31 39.8 31 39.8C31 39.8 31 39.8 31 39.8C31 39.8 31 39.8 31 39.8C31 39.8 31 39.8 31 39.8C31 39.8 31 39.8 31 39.8C31 39.8 31 39.8 31 39.8C31 39.8 31 39.8 31 39.8C31 39.8 31 39.8 31 39.8C31 39.8 31 39.8 31 39.8C31 39.8 31 39.8 31 39.8C31 39.8 31 39.8 31 39.8C31 39.8 31 39.8 31 39.8C31 39.8 31 39.8 31 39.8C31 39.8 31 39.8 31 39.8C31 39.8 31 39.8 31 39.8C31 39.8 31 39.8 31 39.8C31 39.8 31 39.8 31 39.8C31 39.8 31 39.8 31 39.8C31 39.8 31 39.8 31 39.8C31 39.8 31 39.8 31 39.8C31 39.8 31 39.8 31 39.8C31 39.8 31 39.8 31 39.8C31 39.8 31 39.8 31 39.8C31 39.8 31 39.8 31 39.8C31 39.8 31 39.8 31 39.8C31 39.8 31 39.8 31 39.8C31 39.8 31 39.8 31 39.8C31 39.8 31 39.8 31 39.8C31 39.8 31 39.8 31 39.8C31 39.8 31 39.8 31 39.8C31 39.8 31 39.8 31 39.8C31 39.8 31 39.8 31 39.8C31 39.8 31 39.8 31 39.8C31 39.8 31 39.8 31 39.8C31 39.8 31 39.8 31 39.8C31 39.8 31 39.8 31 39.8C31 39.8 31 39.8 31 39.8C31 39.8 31 39.8 31 39.8C31 39.8 31 39.8 31 39.8C31 39.8 31 39.8 31 39.8C31 39.8 31 39.8 31 39.8C31 39.8 31 39.8 31 39.8C31 39.8 31 39.8 31 39.8C31 39.8 31 39.8 31 39.8C31 39.8 31 39.8 31 39.8C31 39.8 31 39.8 31 39.8C31 39.8 31 39.8 31 39.8C31 39.8 31 39.8 31 39.8C31 39.8 31 39.8 31 39.8C31 39.8 31 39.8 31 39.8C31 39.8 31 39.8 31 39.8C31 39.8 31 39.8 31 39.8C31 39.8 31 39.8 31 39.8C31 39.8 31 39.8 31 39.8C31 39.8 31 39.8 31 39.8C31 39.8 31 39.8 31 39.8C31 39.8 31 39.8 31 39.8C31 39.8 31 39.8 31 39.8C31 39.8 31 39.8 31 39.8C31 39.8 31 39.8 31 39.8C31 39.8 31 39.8 31 39.8C31 39.8 31 39.8 31 39.8C31 39.8 31 39.8 31 39.8C31 39.8 31 39.8 31 39.8C31 39.8 31 39.8 31 39.8C31 39.8 31 39.8 31 39.8C31 39.8 31 39.8 31 39.8C31 39.8 31 39.8 31 39.8C31 39.8 31 39.8 31 39.8C31 39.8 31 39.8 31 39.8C31 39.8 31 39.8 31 39.8C31 39.8 31 39.8 31 39.8C31 39.8 31 39.8 31 39.8C31 39.8 31 39.8 31 39.8C31 39.8 31 39.8 31 39.8C31 39.8 31 39.8 31 39.8C31 39.8 31 39.8 31 39.8C31 39.8 31 39.8 31 39.8C31 39.8 31 39.8 31 39.8C31 39.8 31 39.8 31 39.8C31 39.8 31 39.8 31 39.8C31 39.8 31 39.8 31 39.8C31 39.8 31 39.8 31 39.8C31 39.8 31 39.8 31 39.8C31 39.8 31 39.8 31 39.8C31 39.8 31 39.8 31 39.8C31 39.8 31 39.8 31 39.8C31 39.8 31 39.8 31 39.8C31 39.8 31 39.8 31 39.8C31 39.8 31 39.8 31 39.8C31 39.8 31 39.8 31 39.8C31 39.8 31 39.8 31 39.8C31 39.8 31 39.8 31 39.8C31 39.8 31 39.8 31 39.8C31 39.8 31 39.8 31 39.8C31 39.8 31 39.8 31 39.8C31 39.8 31 39.8 31 39.8C31 39.8 31 39.8 31 39.8C31 39.8 31 39.8 31 39.8C31 39.8 31 39.8 31 39.8C31 39.8 31 39.8 31 39.8C31 39.8 31 39.8 31 39.8C31 39.8 31 39.8 31 39.8C31 39.8 31 39.8 31 39.8C31 39.8 31 39.8 31 39.8C31 39.8 31 39.8 31 39.8C31 39.8 31 39.8 31 39.8C31 39.8 31 39.8 31 39.8C31 39.8 31 39.8 31 39.8C31 39.8 31 39.8 31 39.8C31 39.8 31 39.8 31 39.8C31 39.8 31 39.8 31 39.8C31 39.8 31 39.8 31 39.8C31 39.8 31 39.8 31 39.8C31 39.8 31 39.8 31 39.8C31 39.8 31 39.8 31 39.8C31 39.8 31 39.8 31 39.8C31 39.8 31 39.8 31 39.8C31 39.8 31 39.8 31 39.8C31 39.8 31 39.8 31 39.8C31 39.8 31 39.8 31 39.8C31 39.8 31 39.8 31 39.8C31 39.8 31 39.8 31 39.8C31 39.8 31 39.8 31 39.8C31 39.8 31 39.8 31 39.8C31 39.8 31 39.8 31 39.8C31 39.8 31 39.8 31 39.8C31 39.8 31 39.8 31 39.8C31 39.8 31 39.8 31 39.8C31 39.8 31 39.8 31 39.8C31 39.8 31 39.8 31 39.8C31 39.8 31 39.8 31 39.8C31 39.8 31 39.8 31 39.8C31 39.8 31 39.8 31 39.8C31 39.8 31 39.8 31 39.8C31 39.8 31 39.8 31 39.8C31 39.8 31 39.8 31 39.8C31 39.8 31 39.8 31 39.8C31 39.8 31 39.8 31 39.8C31 39.8 31 39.8 31 39.8C31 39.8 31 39.8 31 39.8C31 39.8 31 39.8 31 39.8C31 39.8 31 39.8 31 39.8C31 39.8 31 39.8 31 39.8C31 39.8 31 39.8 31 39.8C31 39.8 31 39.8 31 39.8C31 39.8 31 39.8 31 39.8C31 39.8 31 39.8 31 39.8C31 39.8 31 39.8 31 39.8C31 39.8 31 39.8 31 39.8C31 39.8 31 39.8 31 39.8C31 39.8 31 39.8 31 39.8C31 39.8 31 39.8 31 39.8C31 39.8 31 39.8 31 39.8C31 39.8 31 39.8 31 39.8C31 39.8 31 39.8 31 39.8C31 39.8 31 39.8 31 39.8C31 39.8 31 39.8 31 39.8C31 39.8 31 39.8 31 39.8C31 39.8 31 39.8 31 39.8C31 39.8 31 39.8 31 39.8C31 39.8 31 39.8 31 39.8C31 39.8 31 39.8 31 39.8C31 39.8 31 39.8 31 39.8C31 39.8 31 39.8 31 39.8C31 39.8 31 39.8 31 39.8C31 39.8 31 39.8 31 39.8C31 39.8 31 39.8 31 39.8C31 39.8 31 39.8 31 39.8C31 39.8 31 39.8 31 39.8C31 39.8 31 39.8 31 39.8C31 39.8 31 39.8 31 39.8C31 39.8001 31 39.8001 31 39.8001C31 39.8001 31 39.8001 31 39.8001C31 39.8001 31 39.8001 31 39.8001C31 39.8001 31 39.8001 31 39.8001C31 39.8001 31 39.8001 31 39.8001C31 39.8001 31 39.8001 31 39.8001C31 39.8001 31 39.8001 31 39.8001C31 39.8001 31 39.8001 31 39.8001C31 39.8001 31 39.8001 31 39.8001C31 39.8001 31 39.8001 31 39.8001C31 39.8001 31 39.8001 31 39.8001C31 39.8001 31 39.8001 31 39.8001C31 39.8001 31 39.8001 31 39.8001C31 39.8001 31 39.8001 31 39.8001C31 39.8001 31 39.8001 31 39.8001C31 39.8001 31 39.8001 31 39.8001C31 39.8001 31 39.8001 31 39.8001C31 39.8001 31 39.8001 31 39.8001C31 39.8001 31 39.8001 31 39.8001C31 39.8001 31 39.8001 31 39.8001C31 39.8001 31 39.8001 31 39.8001C31 39.8001 31 39.8001 31 39.8001C31 39.8001 31 39.8001 31 39.8001C31 39.8001 31 39.8001 31 39.8001C31 39.8001 31 39.8001 31 39.8001C31 39.8001 31 39.8001 31 39.8001C31 39.8001 31 39.8001 31 39.8001C31 39.8001 31 39.8001 31 39.8001C31 39.8001 31 39.8001 31 39.8001C31 39.8001 31 39.8001 31 39.8001C31 39.8001 31 39.8001 31 39.8001C31 39.8001 31 39.8001 31 39.8001C31 39.8001 31 39.8001 31 39.8001C31 39.8001 31 39.8001 31 39.8001C31 39.8001 31 39.8001 31 39.8001C31 39.8001 31 39.8001 31 39.8001C31 39.8001 31 39.8001 31 39.8001C31 39.8001 31 39.8001 31 39.8001C31 39.8001 31 39.8001 31 39.8001C31 39.8001 31 39.8001 31 39.8001C31 39.8001 31 39.8001 31 39.8001C31 39.8001 31 39.8001 31 39.8001C31 39.8001 31 39.8001 31 39.8001C31 39.8001 31 39.8001 31 39.8001C31 39.8001 31 39.8001 31 39.8001C31 39.8001 31 39.8001 31 39.8001C31 39.8001 31 39.8001 31 39.8001C31 39.8001 31 39.8001 31 39.8001C31 39.8001 31 39.8001 31 39.8001C31 39.8001 31 39.8001 31 39.8001C31 39.8001 31 39.8001 31 39.8001C31 39.8001 31 39.8001 31 39.8001C31 39.8001 31 39.8001 31 39.8001C31 39.8001 31 39.8001 31 39.8001C31 39.8001 31 39.8001 31 39.8001C31 39.8001 31 39.8001 31 39.8001C31 39.8001 31 39.8001 31 39.8001C31 39.8001 31 39.8001 31 39.8001C31 39.8001 31 39.8001 31 39.8001C31 39.8001 31 39.8001 31 39.8001C31 39.8001 31 39.8001 31 39.8001C31 39.8001 31 39.8001 31 39.8001C31 39.8001 31 39.8001 31 39.8001C31 39.8001 31 39.8001 31 39.8001C31 39.8001 31 39.8001 31 39.8001C31 39.8001 31 39.8001 31 39.8001C31 39.8001 31 39.8001 31 39.8001C31 39.8001 31 39.8001 31 39.8001C31 39.8001 31 39.8001 31 39.8001C31 39.8001 31 39.8001 31 39.8001C31 39.8001 31 39.8001 31 39.8001C31 39.8001 31 39.8001 31 39.8001C31 39.8001 31 39.8001 31 39.8001C31 39.8001 31 39.8001 31 39.8001C31 39.8001 31 39.8001 31 39.8001C31 39.8001 31 39.8001 31 39.8001C31 39.8001 31 39.8001 31 39.8001C31 39.8001 31 39.8001 31 39.8001C31 39.8001 31 39.8001 31 39.8001C31 39.8001 31 39.8001 31 39.8001C31 39.8001 31 39.8001 31 39.8001C31 39.8001 31 39.8001 31 39.8001C31 39.8001 31 39.8001 31 39.8001C31 39.8001 31 39.8001 31 39.8001C31 39.8001 31 39.8001 31 39.8001C31 39.8001 31 39.8001 31 39.8001C31 39.8001 31 39.8001 31 39.8001C31 39.8001 31 39.8001 31 39.8001C31 39.8001 31 39.8001 31 39.8001C31 39.8001 31 39.8001 31 39.8001C31 39.8001 31 39.8001 31 39.8001C31 39.8001 31 39.8001 31 39.8001C31 39.8001 31 39.8001 31 39.8001C31 39.8001 31 39.8001 31 39.8001C31 39.8001 31 39.8001 31 39.8001C31 39.8001 31 39.8001 31 39.8001C31 39.8001 31 39.8001 31 39.8001C31 39.8001 31 39.8001 31 39.8001C31 39.8001 31 39.8001 31 39.8001C31 39.8001 31 39.8001 31 39.8001C31 39.8001 31 39.8001 31 39.8001C31 39.8001 31 39.8001 31 39.8001C31 39.8001 31 39.8001 31 39.8001C31 39.8001 31 39.8001 31 39.8001C31 39.8001 31 39.8001 31 39.8001C31 39.8001 31 39.8001 31 39.8001C31 39.8001 31 39.8001 31 39.8001C31 39.8001 31 39.8001 31 39.8001C31 39.8001 31 39.8001 31 39.8001C31 39.8001 31 39.8001 31 39.8001C31 39.8001 31 39.8001 31 39.8001C31 39.8001 31 39.8001 31 39.8001C31 39.8001 31 39.8001 31 39.8001C31 39.8001 31 39.8001 31 39.8001C31 39.8001 31 39.8001 31 39.8001C31 39.8001 31 39.8001 31 39.8001C31 39.8001 31 39.8001 31 39.8001C31 39.8001 31 39.8001 31 39.8001C31 39.8001 31 39.8001 31 39.8001C31 39.8001 31 39.8001 31 39.8001C31 39.8001 31 39.8001 31 39.8001C31 39.8001 31 39.8001 31 39.8001C31 39.8001 31 39.8001 31 39.8001C31 39.8001 31 39.8001 31 39.8001C31 39.8001 31 39.8001 31 39.8001C31 39.8001 31 39.8001 31 39.8001C31 39.8001 31 39.8001 31 39.8001C31 39.8001 31 39.8001 31 39.8001C31 39.8001 31 39.8001 31 39.8001C31 39.8001 31 39.8001 31 39.8001C31 39.8001 31 39.8001 31 39.8001C31 39.8001 31 39.8001 31 39.8001C31 39.8001 31 39.8001 31 39.8001C31 39.8001 31 39.8001 31 39.8001C31 39.8001 31 39.8001 31 39.8001C31 39.8001 31 39.8001 31 39.8001C31 39.8001 31 39.8001 31 39.8001C31 39.8001 31 39.8001 31 39.8001C31 39.8001 31 39.8001 31 39.8001C31 39.8001 31 39.8001 31 39.8001C31 39.8001 31 39.8001 31 39.8001C31 39.8001 31 39.8001 31 39.8001C31 39.8001 31 39.8001 31 39.8001C31 39.8001 31 39.8001 31 39.8001C31 39.8001 31 39.8001 31 39.8001C31 39.8001 31 39.8001 31 39.8001C31 39.8001 31 39.8001 31 39.8001C31 39.8001 31 39.8001 31 39.8001C31 39.8001 31 39.8001 31 39.8001C31 39.8001 31 39.8001 31 39.8001C31 39.8001 31 39.8001 31 39.8001C31 39.8001 31 39.8001 31 39.8001C31 39.8001 31 39.8001 31 39.8001C31 39.8001 31 39.8001 31 39.8001C31 39.8001 31 39.8001 31 39.8001C31 39.8001 31 39.8001 31 39.8001C31 39.8001 31 39.8001 31 39.8001C31 39.8001 31 39.8001 31 39.8001C31 39.8001 31 39.8001 31 39.8001C31 39.8001 31 39.8001 31 39.8001C31 39.8001 31 39.8001 31 39.8001C31 39.8001 31 39.8001 31 39.8001C31 39.8001 31 39.8001 31 39.8001C31 39.8001 31 39.8001 31 39.8001C31 39.8001 31 39.8001 31 39.8001C31 39.8001 31 39.8001 31 39.8001C31 39.8001 31 39.8001 31 39.8001C31 39.8001 31 39.8001 31 39.8001C31 39.8001 31 39.8001 31 39.8001C31 39.8001 31 39.8001 31 39.8001C31 39.8001 31 39.8001 31 39.8001C31 39.8001 31 39.8001 31 39.8001H37ZM37 75.0001V39.8001H31V75.0001H37ZM66 72.0001H34V78.0001H66V72.0001ZM63 39.8001V75.0001H69V39.8001H63Z" fill="white" mask="url(#path-2-inside-1_864_136)"/>
<defs>
<linearGradient id="paint0_linear_864_136" x1="66" y1="23.8" x2="34" y2="74.9999" gradientUnits="userSpaceOnUse">
<stop stop-color="white" stop-opacity="0.67"/>
<stop offset="1" stop-color="white" stop-opacity="0.17"/>
</linearGradient>
</defs>
</svg>
