<svg width="100" height="100" viewBox="0 0 100 100" fill="none" xmlns="http://www.w3.org/2000/svg">
<g clip-path="url(#clip0_430_22)">
<rect width="100" height="100" fill="#10101A"/>
<path d="M80.4057 49.9834H72.9362C70.7053 49.9834 68.8976 51.7911 68.8976 54.022V64.8635C68.8976 67.0944 67.0899 68.9021 64.859 68.9021H35.1426C32.9117 68.9021 31.104 70.7098 31.104 72.9407V80.4102C31.104 82.6411 32.9117 84.4488 35.1426 84.4488H66.5791C68.8099 84.4488 70.5919 82.6411 70.5919 80.4102V74.4174C70.5919 72.1865 72.3996 70.604 74.6305 70.604H80.4042C82.6351 70.604 84.4428 68.7963 84.4428 66.5654V53.9751C84.4428 51.7442 82.6351 49.9834 80.4042 49.9834H80.4057Z" fill="white"/>
<path d="M31.1024 35.1441C31.1024 32.9132 32.91 31.1055 35.1409 31.1055H64.8392C67.0701 31.1055 68.8778 29.2978 68.8778 27.067V19.5974C68.8778 17.3665 67.0701 15.5588 64.8392 15.5588H33.4194C31.1885 15.5588 29.3808 17.3665 29.3808 19.5974V25.353C29.3808 27.5839 27.5731 29.3916 25.3422 29.3916H19.5942C17.3633 29.3916 15.5557 31.1992 15.5557 33.4301V46.034C15.5557 48.2649 17.3709 49.9819 19.6018 49.9819H27.0713C29.3022 49.9819 31.1099 48.1742 31.1099 45.9433L31.1024 35.1456V35.1441Z" fill="white"/>
<path d="M46.4846 42.1313H53.6594C55.9976 42.1313 57.8944 44.0297 57.8944 46.3664V53.5412C57.8944 55.8794 55.9961 57.7763 53.6594 57.7763H46.4846C44.1464 57.7763 42.2495 55.8779 42.2495 53.5412V46.3664C42.2495 44.0282 44.1479 42.1313 46.4846 42.1313V42.1313Z" fill="white"/>
</g>
<defs>
<clipPath id="clip0_430_22">
<rect width="100" height="100" fill="white"/>
</clipPath>
</defs>
</svg>
