<svg width="100" height="100" viewBox="0 0 100 100" fill="none" xmlns="http://www.w3.org/2000/svg">
<rect width="100" height="100" fill="#111111"/>
<rect width="100" height="100" fill="black"/>
<path d="M26 36.5C26 34.8431 24.6569 33.5 23 33.5C21.3431 33.5 20 34.8431 20 36.5V63.5C20 65.1569 21.3431 66.5 23 66.5C24.6569 66.5 26 65.1569 26 63.5V36.5Z" fill="#EE3A26"/>
<path d="M39.5 29C39.5 27.3431 38.1569 26 36.5 26C34.8431 26 33.5 27.3431 33.5 29V71C33.5 72.6569 34.8431 74 36.5 74C38.1569 74 39.5 72.6569 39.5 71V29Z" fill="#F9D146"/>
<path d="M53 23C53 21.3431 51.6569 20 50 20C48.3431 20 47 21.3431 47 23V77C47 78.6569 48.3431 80 50 80C51.6569 80 53 78.6569 53 77V23Z" fill="#58B743"/>
<path d="M66.5 29C66.5 27.3431 65.1569 26 63.5 26C61.8431 26 60.5 27.3431 60.5 29V71C60.5 72.6569 61.8431 74 63.5 74C65.1569 74 66.5 72.6569 66.5 71V29Z" fill="#3683D1"/>
<path d="M80 36.5C80 34.8431 78.6569 33.5 77 33.5C75.3431 33.5 74 34.8431 74 36.5V63.5C74 65.1569 75.3431 66.5 77 66.5C78.6569 66.5 80 65.1569 80 63.5V36.5Z" fill="#9546EC"/>
</svg>
