<svg width="100" height="100" viewBox="0 0 100 100" fill="none" xmlns="http://www.w3.org/2000/svg">
    <rect width="100" height="100" fill="#0C0C4F"/>
    <path fill-rule="evenodd" clip-rule="evenodd"
          d="M31.7552 40.4847L32.8029 37.244C33.0154 36.5853 33.536 36.071 34.199 35.8692L37.4566 34.8683C37.9071 34.7302 37.9092 34.0948 37.463 33.9503L34.2202 32.9005C33.8958 32.7954 33.6014 32.6136 33.3621 32.3706C33.1228 32.1276 32.9455 31.8305 32.8454 31.5044L31.8466 28.2468C31.8162 28.1488 31.7554 28.063 31.6729 28.002C31.5905 27.9409 31.4907 27.9078 31.3881 27.9073C31.2855 27.9068 31.1854 27.9391 31.1024 27.9994C31.0194 28.0596 30.9578 28.1448 30.9265 28.2425L29.8767 31.4832C29.7718 31.8074 29.5903 32.1016 29.3477 32.3409C29.1051 32.5802 28.8084 32.7576 28.4827 32.858L25.2251 33.8568C25.127 33.887 25.0411 33.9476 24.9799 34.0299C24.9186 34.1122 24.8852 34.2119 24.8845 34.3145C24.8838 34.4171 24.9158 34.5173 24.9759 34.6004C25.036 34.6836 25.1211 34.7454 25.2187 34.7769L28.4615 35.8267C28.7855 35.9323 29.0793 36.1142 29.3182 36.3572C29.5572 36.6002 29.7341 36.8971 29.8342 37.2228L30.8351 40.4783C30.8658 40.5756 30.9265 40.6606 31.0086 40.7212C31.0906 40.7818 31.1898 40.8148 31.2918 40.8155C31.3938 40.8163 31.4934 40.7846 31.5763 40.7252C31.6592 40.6657 31.7211 40.5815 31.7531 40.4847H31.7552Z"
          fill="#FAFAFA"/>
    <path fill-rule="evenodd" clip-rule="evenodd"
          d="M83.2356 38.5978C81.8926 37.0976 79.7973 36.2518 77.7594 35.9054C75.6931 35.578 73.5867 35.5974 71.5268 35.9628C67.4256 36.6577 63.6983 38.3556 60.4471 40.4508C58.7598 41.4793 57.3191 42.6693 55.8273 43.8806C55.1091 44.4926 54.4546 45.1471 53.7724 45.7888L51.9088 47.6439C49.8816 49.7626 47.8862 51.6899 45.9546 53.2901C44.0144 54.8796 42.2018 56.0887 40.4147 56.9323C38.6297 57.7823 36.7172 58.2796 34.2267 58.3603C31.7574 58.4453 28.8356 57.9991 25.7118 57.2659C22.5711 56.5328 19.2731 55.4894 15.5862 54.5906C16.8718 58.1606 18.8098 61.3119 21.2961 64.1956C23.8121 67.0282 26.9528 69.6101 30.9882 71.3079C34.9662 73.0419 39.9642 73.6667 44.6392 72.7253C49.3248 71.8243 53.4367 69.6547 56.7602 67.1472C60.0943 64.6142 62.7888 61.7284 65.0626 58.7279C65.5469 58.091 66.018 57.4442 66.4757 56.7878L67.7294 54.9284C68.6028 53.7788 69.3976 52.4698 70.2582 51.3308C71.9518 48.9444 73.6221 46.5602 75.5601 44.3651C76.5495 43.2167 77.6258 42.1461 78.7794 41.1627C79.3851 40.6633 80.0396 40.1724 80.7663 39.7326C81.5301 39.2368 82.3619 38.8546 83.2356 38.5978Z"
          fill="url(#paint0_linear_870_233)"/>
    <path fill-rule="evenodd" clip-rule="evenodd"
          d="M83.2356 38.5977C81.7927 34.9576 79.1131 31.8955 75.5133 29.6345C71.9348 27.3968 66.9644 26.2557 62.0408 27.229C59.6271 27.7013 57.3093 28.574 55.1834 29.8108C53.1875 30.9834 51.3409 32.3933 49.6839 34.0098C48.907 34.7836 48.1599 35.5867 47.4442 36.4175L45.5806 38.7932L42.7012 42.6182C39.0334 47.5376 35.0809 53.3048 28.5976 55.0133C22.2311 56.6921 19.4707 55.2046 15.5862 54.5926C16.2959 56.4265 17.1757 58.2051 18.3699 59.7733C19.5669 61.4408 21.0066 62.9199 22.6412 64.1615C23.5124 64.7777 24.4262 65.3897 25.4462 65.9061C26.4598 66.4055 27.5542 66.8453 28.7208 67.1768C31.0434 67.8143 33.6572 68.0375 36.1881 67.6953C38.6506 67.3557 41.0397 66.6096 43.2579 65.4875C45.2733 64.4729 47.1668 63.2324 48.9019 61.79C52.1978 59.053 54.7606 56.0312 56.9259 52.9712C57.9923 51.4698 58.9907 49.9213 59.9179 48.3302L60.9953 46.4772C61.3226 45.9332 61.6562 45.3892 61.9941 44.8813C63.3583 42.8413 64.6928 41.2051 66.3121 39.9768C67.9101 38.7167 70.1328 37.786 73.1057 37.5692C76.0658 37.3503 79.4828 37.7541 83.2356 38.5977Z"
          fill="#FAFAFA"/>
    <path fill-rule="evenodd" clip-rule="evenodd"
          d="M67.2214 68.8408C67.2214 70.1252 67.7317 71.357 68.6399 72.2652C69.5481 73.1734 70.7799 73.6837 72.0643 73.6837C73.3487 73.6837 74.5805 73.1734 75.4887 72.2652C76.397 71.357 76.9072 70.1252 76.9072 68.8408C76.9072 67.5564 76.397 66.3246 75.4887 65.4164C74.5805 64.5082 73.3487 63.9979 72.0643 63.9979C70.7799 63.9979 69.5481 64.5082 68.6399 65.4164C67.7317 66.3246 67.2214 67.5564 67.2214 68.8408Z"
          fill="#EC796B"/>
    <defs>
        <linearGradient id="paint0_linear_870_233" x1="82.8743" y1="37.3207" x2="-27.6831" y2="94.8423"
                        gradientUnits="userSpaceOnUse">
            <stop stop-color="#EC796B"/>
            <stop offset="1" stop-color="#D672EF"/>
        </linearGradient>
    </defs>
</svg>
