<svg width="100" height="100" viewBox="0 0 100 100" fill="none" xmlns="http://www.w3.org/2000/svg">
    <rect width="100" height="100" fill="#0C0D1B"/>
    <path fill-rule="evenodd" clip-rule="evenodd"
          d="M30.5858 19.6896C32.2078 17.4681 35.4166 16.8864 39.4187 17.2214C46.6998 17.8208 56.2731 21.7875 65.4936 28.4166C74.714 35.0454 81.5722 42.8377 84.4988 49.5373C86.0677 53.2042 86.5792 56.4306 84.9571 58.6698L87.0375 60.1505L84.9571 58.6698L69.4074 80.3548C67.8208 82.5938 64.5943 83.158 60.6276 82.8405C53.3288 82.2411 43.7557 78.2744 34.4996 71.6456C25.2438 65.0165 18.421 57.1888 15.5473 50.5069C13.9429 46.8221 13.4671 43.6136 15.0535 41.3744L30.5858 19.6896ZM89.118 61.6138L73.5857 83.3166C71.1175 86.7543 66.3752 88.4118 60.187 87.9004C52.218 87.2481 41.6576 83.0344 31.5202 75.7708C21.4359 68.5248 14.0488 59.8684 10.8224 52.5345C8.37212 46.8575 8.38982 41.833 10.8929 38.3952L26.4252 16.6925C28.9286 13.237 33.6711 11.5798 39.8065 12.091C47.7575 12.7433 58.3356 16.9746 68.4553 24.2206C78.6102 31.4843 85.9798 40.1404 89.1531 47.4569C91.6565 53.1513 91.5859 58.1583 89.118 61.6138Z"
          fill="white"/>
    <path fill-rule="evenodd" clip-rule="evenodd"
          d="M28.5553 18.7219C33.6503 11.6167 50.8224 15.2661 66.9889 26.8492C83.156 38.4322 92.112 53.5586 87.0521 60.6635L71.5201 82.3663C66.4426 89.4537 49.2003 85.822 33.0509 74.239C16.9018 62.656 7.89296 47.5115 12.988 40.4067L28.5553 18.7219Z"
          fill="white"/>
    <path fill-rule="evenodd" clip-rule="evenodd"
          d="M61.2343 35.5776C65.9766 38.9625 68.4625 41.8009 69.9435 45.2387C70.8074 47.1606 70.2256 46.3672 69.3615 47.5484C68.5153 48.7118 68.3743 48.1478 66.3115 47.9713C62.5565 47.6541 59.3654 45.9792 54.6229 42.5765C49.8805 39.2093 48.0292 36.9526 46.5836 33.5325C45.7197 31.6109 44.4326 30.9232 45.2259 29.7598C46.037 28.5784 46.2837 29.0016 48.3996 29.1603C52.1195 29.4951 56.5268 32.1926 61.2343 35.5776ZM85.9164 59.3076C87.7498 56.8217 87.3797 53.1194 85.5814 48.9763C82.6194 42.1713 75.7967 33.2153 66.3292 26.4454C56.8618 19.6752 47.7647 15.4969 40.36 14.8975C35.8293 14.5274 31.4391 14.8623 29.6409 17.3834L28.5831 18.9524C26.8905 21.4735 25.3392 22.4079 27.1375 26.4628C30.0992 33.3209 38.9321 45.2564 48.3996 52.044C55.7512 57.3154 64.2137 59.7837 71.5302 61.6171C72.9935 61.9698 74.4919 62.1988 76.008 62.3399C80.4333 62.6751 83.9594 61.8815 85.7753 59.5015L85.9164 59.3076ZM27.6487 18.353C29.9053 15.2325 34.7007 13.6986 40.36 14.1393C48.1351 14.7741 58.096 19.3756 68.0219 26.4628C77.9123 33.5854 84.8938 40.7608 87.9614 47.9536C90.2355 53.1194 90.3061 57.7209 88.0497 60.8943L72.5351 82.597C70.2608 85.7529 65.8709 87.1631 60.247 86.7048C52.4545 86.0174 42.1054 81.8919 32.1973 74.7691C28.9358 72.4419 25.8504 69.868 22.9766 67.0825C18.0755 62.4281 15.3957 55.7816 13.2627 50.8979C10.9884 45.697 11.0058 44.5864 13.2627 41.4308L27.6487 18.353Z"
          fill="#101224"/>
    <mask id="mask0_613_118" style="mask-type:alpha" maskUnits="userSpaceOnUse" x="10" y="13" width="80" height="74">
        <path fill-rule="evenodd" clip-rule="evenodd"
              d="M61.7466 33.5118C66.4892 36.8968 69.9798 40.9165 71.4608 44.3543C72.3247 46.276 72.5714 47.9683 71.6901 49.1321C70.8437 50.2955 69.169 50.6482 67.106 50.4543C63.351 50.137 58.485 48.1094 53.7424 44.7245C48.9999 41.3395 45.4739 37.3377 44.0283 33.9173C43.1821 31.9957 42.9702 30.2856 43.7992 29.1219C44.6279 27.9585 46.3203 27.6058 48.4358 27.7646C52.1206 28.1347 57.0394 30.1446 61.7466 33.5118ZM85.8999 59.3223C87.7333 56.8364 87.3632 53.1339 85.5649 48.991C82.6029 42.1857 75.6391 34.1466 66.1542 27.3765C56.669 20.6066 46.8492 16.5868 39.4444 15.9699C34.9312 15.5821 31.3523 16.4106 29.5538 18.9494L29.4658 19.0905C27.7555 21.6292 28.1259 25.1904 29.9242 29.263C32.8859 36.1211 39.85 44.1427 49.2997 50.9303C58.7495 57.7179 68.587 61.7374 75.9918 62.3546C80.4168 62.6896 83.9428 61.8962 85.7588 59.5162L85.8999 59.3223ZM27.3854 17.3804C29.6597 14.2422 34.0142 12.8494 39.6915 13.2901C47.4663 13.9249 57.8151 18.1032 67.7409 25.173C77.6313 32.2953 84.9126 40.7578 87.9803 47.9332C90.2544 53.0987 90.3249 57.7002 88.0683 60.8736L72.5537 82.5763C70.2796 85.7322 65.8895 87.1427 60.2656 86.6841C52.4733 85.9967 42.1243 81.8712 32.2159 74.7486C22.2727 67.6789 15.0442 59.1989 11.9239 52.0409C9.64959 46.8577 9.57906 42.2388 11.8357 39.1003L27.3854 17.3804Z"
              fill="white"/>
    </mask>
    <g mask="url(#mask0_613_118)">
        <path fill-rule="evenodd" clip-rule="evenodd"
              d="M6.9248 60.1525C7.34802 60.1525 8.01798 61.1223 8.4058 61.3868C9.71007 62.3386 11.0323 63.3436 12.4076 64.1372C16.3566 66.57 20.4292 67.9099 24.5195 67.0107C30.919 65.5828 36.7371 54.4227 43.1723 55.9391C46.7863 56.7324 49.3428 61.8451 52.5161 65.3006C55.5132 68.7912 58.8453 70.3076 62.1949 69.62C72.1735 67.6101 75.9286 48.0055 86.0663 49.0279C94.4582 49.9625 91.179 60.0114 99.2534 63.5903C99.3239 63.6785 88.8919 40.929 89.033 37.9318C89.5972 26.6487 36.21 10.3572 36.7038 10.3572L10.9568 17.1354L6.9248 60.1525Z"
              fill="url(#paint0_linear_613_118)"/>
        <path fill-rule="evenodd" clip-rule="evenodd"
              d="M25.2768 25.1903C25.2768 25.5781 25.3122 25.9836 25.3473 26.354C25.4004 26.6713 25.6823 26.8829 25.9999 26.8475C26.2995 26.8298 26.5288 26.5656 26.4934 26.2658V26.2483C26.4582 25.8425 26.4054 25.4901 26.4054 25.1551C26.4054 24.8553 26.1761 24.6086 25.8765 24.6086H25.806C25.4884 24.6263 25.2594 24.8907 25.2768 25.1903ZM25.7706 28.6458C27.8684 37.2845 36.1547 45.3415 42.819 51.0536C43.0483 51.2652 43.4186 51.2475 43.63 51.0185C43.8062 50.7363 43.8062 50.4188 43.542 50.2249C37.054 44.6187 28.9439 36.791 26.9166 28.399C26.846 28.0817 26.5288 27.9053 26.2115 27.9758H26.1938C25.9116 28.0286 25.7177 28.2931 25.7706 28.5929C25.7529 28.6106 25.7529 28.6283 25.7706 28.6458ZM67.8187 64.3115C68.5766 64.5054 69.2994 64.7168 70.0399 64.8578C70.3043 64.9284 70.6042 64.7699 70.6747 64.5054C70.6747 64.4877 70.6922 64.4526 70.6922 64.4349C70.745 64.1353 70.5688 63.8355 70.2692 63.7472C69.5461 63.6061 68.841 63.4122 68.1182 63.236C67.8361 63.1301 67.5188 63.2712 67.4131 63.5533C67.4131 63.571 67.3954 63.5885 67.3954 63.6062C67.3426 63.906 67.5188 64.2056 67.8187 64.3115ZM72.2614 65.2988C75.188 65.7922 77.9207 65.8982 80.1596 65.5104C80.4594 65.475 80.6885 65.1931 80.6533 64.8932C80.6005 64.5934 80.3184 64.382 80.0185 64.3995C77.8324 64.7699 75.2762 64.6639 72.4553 64.1527C72.1377 64.1353 71.8559 64.3466 71.803 64.6639C71.7676 64.9638 71.9615 65.2459 72.2614 65.2988Z"
              fill="white"/>
    </g>
    <defs>
        <linearGradient id="paint0_linear_613_118" x1="56.7015" y1="69.7818" x2="56.7015" y2="8.3685"
                        gradientUnits="userSpaceOnUse">
            <stop stop-color="#EF539E"/>
            <stop offset="0.5" stop-color="#C06BAB"/>
            <stop offset="0.8" stop-color="#6794CD"/>
            <stop offset="1" stop-color="#28AFE5"/>
        </linearGradient>
    </defs>
</svg>
