<svg width="100" height="100" viewBox="0 0 100 100" fill="none" xmlns="http://www.w3.org/2000/svg">
<g clip-path="url(#clip0_500_34)">
<rect width="100" height="100" fill="#0E052F"/>
<path d="M32.9464 37.8549C32.485 37.327 31.9168 37.0625 31.2408 37.0625H17.4143C17.2915 37.0625 17.191 37.0236 17.1154 36.9459C17.0385 36.8693 17 36.7828 17 36.69V27.3724C17 27.2796 17.0385 27.1944 17.1154 27.1166C17.191 27.0389 17.2915 27 17.4143 27H32.0248C35.7115 27 38.892 28.5072 41.5654 31.519L45.1144 35.8512L38.2011 44.2836L32.9464 37.8549ZM58.4806 31.4726C61.1538 28.4909 64.3494 27 68.0671 27H82.6316C82.7544 27 82.8463 27.0313 82.9082 27.0928C82.9689 27.1555 83 27.2483 83 27.3724V36.69C83 36.7828 82.9689 36.8693 82.9082 36.9459C82.8463 37.0236 82.7544 37.0625 82.6316 37.0625H68.8051C68.129 37.0625 67.5609 37.327 67.0994 37.8549L56.9139 50.2471L67.1454 62.732C67.6069 63.2299 68.1589 63.4782 68.8051 63.4782H82.6316C82.7544 63.4782 82.8463 63.517 82.9082 63.5947C82.9689 63.6725 83 63.774 83 63.8969V73.2146C83 73.3073 82.9689 73.3939 82.9082 73.4704C82.8463 73.5481 82.7544 73.5871 82.6316 73.5871H68.0671C64.3494 73.5871 61.1688 72.0811 58.5264 69.068L50.0466 58.7258L41.5654 69.068C38.892 72.0811 35.6966 73.5871 31.9789 73.5871H17.4143C17.2915 73.5871 17.1985 73.5481 17.1377 73.4704C17.0757 73.3926 17.0459 73.2924 17.0459 73.167V63.8494C17.0459 63.7566 17.0757 63.6712 17.1377 63.5935C17.1985 63.5157 17.2915 63.4768 17.4143 63.4768H31.2408C31.8858 63.4768 32.454 63.2136 32.9464 62.6845L42.9473 50.4791L58.4806 31.4726Z" fill="#00D1FF"/>
</g>
<defs>
<clipPath id="clip0_500_34">
<rect width="100" height="100" fill="white"/>
</clipPath>
</defs>
</svg>
