<svg width="100" height="100" viewBox="0 0 100 100" fill="none" xmlns="http://www.w3.org/2000/svg">
<g clip-path="url(#clip0_430_23)">
<rect width="100" height="100" fill="white"/>
<rect width="100" height="100" fill="#FFE2FE"/>
<path fill-rule="evenodd" clip-rule="evenodd" d="M42.4014 38.5088C42.2768 38.9894 42.0595 39.4406 41.7616 39.8371C41.207 40.56 40.4731 41.1238 39.6333 41.4721C38.8781 41.799 38.0781 42.0104 37.2604 42.099C37.0922 42.1204 36.9181 42.1336 36.7491 42.1465L36.7216 42.1486C36.2037 42.1684 35.7058 42.3542 35.3006 42.6788C34.8954 43.0036 34.6043 43.45 34.47 43.9527C34.4085 44.2029 34.3627 44.4567 34.3331 44.7127C34.286 45.0988 34.2618 45.494 34.2356 45.9215C34.2168 46.2281 34.1968 46.5517 34.1668 46.9002C33.991 48.3202 33.582 49.7011 32.9568 50.9867C32.8291 51.2569 32.6989 51.519 32.5708 51.7763C31.8854 53.1554 31.266 54.4013 31.4437 56.0698C31.5829 57.3554 32.2385 58.2169 33.1095 59.1054C33.5233 59.5304 34.0718 59.8936 34.6412 60.2706C36.235 61.3256 37.992 62.489 37.4131 65.4198C36.9393 67.7946 33.0197 70.2867 27.5106 71.1571C28.045 71.0756 26.8679 69.0581 26.7372 68.8342L26.7293 68.8206C26.5775 68.5817 26.4218 68.3463 26.2666 68.1113H26.2664C25.8181 67.4325 25.3716 66.7573 25.0233 66.0086C24.1029 64.0534 23.6762 61.7913 24.0533 59.6488C24.395 57.7098 25.6712 56.1609 26.8997 54.6694C27.1002 54.4263 27.2991 54.1848 27.4927 53.9434C29.136 51.8934 30.8602 49.2073 31.2416 46.5463C31.2739 46.315 31.3027 46.0629 31.3329 45.7977C31.387 45.3229 31.4458 44.8061 31.5381 44.2911C31.675 43.4017 31.9525 42.5398 32.3597 41.7381C32.6377 41.2125 33.0037 40.7388 33.4418 40.3377C33.6702 40.1248 33.8208 39.8411 33.8697 39.5319C33.9185 39.2229 33.8627 38.9063 33.7112 38.6327L24.9289 22.7652L37.5433 38.4027C37.687 38.584 37.8685 38.7313 38.0752 38.834C38.2818 38.9367 38.5085 38.9925 38.7389 38.9975C38.9695 39.0025 39.1983 38.9565 39.4091 38.8625C39.62 38.7688 39.8077 38.6294 39.9589 38.4546C40.1187 38.2675 40.2093 38.0306 40.2154 37.784C40.2216 37.5375 40.1429 37.2965 39.9925 37.1015C39.406 36.3486 38.7956 35.5854 38.1881 34.8256L38.1877 34.825C37.9418 34.5177 37.6966 34.2111 37.4535 33.9059L34.2791 29.9594L27.9079 22.0796L20.8335 13.6667L28.7252 21.3738L35.507 28.9061L38.8904 32.6813C39.2012 33.0329 39.512 33.3815 39.8227 33.7298C40.6343 34.6398 41.446 35.5498 42.2577 36.5152L42.4418 36.7406L42.4822 37.0902C42.5368 37.5642 42.5095 38.0442 42.4014 38.5088ZM74.8433 43.8119L74.8566 43.8323C74.8543 42.1498 73.8173 39.3738 71.7183 36.7036L71.6689 36.6381C71.0223 35.8354 70.3177 35.0817 69.5608 34.3829C69.4193 34.2454 69.2668 34.11 69.1118 33.9748C68.142 33.1252 67.082 32.3854 65.951 31.7692L65.8702 31.7286C62.3164 29.7846 57.6918 28.7834 51.9895 29.9109C51.2237 28.9769 50.3989 28.0934 49.5202 27.2656C48.1743 25.9773 46.5902 24.9669 44.8575 24.2911C43.1402 23.6596 41.301 23.4342 39.4829 23.6325C41.2354 23.7911 42.9425 24.2806 44.5139 25.0759C46.0316 25.8927 47.3985 26.9652 48.5547 28.2467C49.7268 29.5548 50.8285 30.9248 51.855 32.3511L52.1125 32.6879C53.1168 34.0019 54.1393 35.3396 55.4131 36.53C56.1143 37.1927 56.8966 37.7634 57.7412 38.2281C57.9656 38.3431 58.1925 38.4513 58.4147 38.5461C58.6368 38.6409 58.8456 38.7288 59.0702 38.81C59.5035 38.979 59.9525 39.119 60.4014 39.2475C62.1975 39.7617 64.036 39.9465 65.832 40.0459C66.0818 40.059 66.3312 40.0713 66.5795 40.0836H66.58C67.2214 40.1154 67.857 40.1469 68.4833 40.1923C69.3412 40.2436 70.1923 40.3779 71.0245 40.5938C72.2748 40.9213 73.3754 41.6694 74.1429 42.7136C74.4037 43.0615 74.6379 43.4286 74.8433 43.8119ZM69.5862 34.3856C69.496 34.3019 69.4041 34.219 69.3127 34.1363C69.2539 34.0831 69.1952 34.0302 69.1372 33.9773C69.182 34.0184 69.2268 34.0598 69.2716 34.1015C69.377 34.1992 69.4822 34.2969 69.5862 34.3856ZM67.3414 50.9942C61.566 48.64 55.5247 46.1773 56.4241 39.2656C58.3525 41.3338 61.3793 41.7675 64.6714 42.2394C67.6579 42.6673 70.8625 43.1265 73.6633 44.8652C80.2722 48.9652 79.307 56.9304 77.062 59.8623C77.2645 55.039 72.4052 53.0584 67.3414 50.9942ZM44.0733 47.5348C45.5977 47.3881 48.8462 46.5921 47.3937 44.0234C47.0812 43.5009 46.6283 43.0775 46.087 42.8017C45.5458 42.5261 44.9381 42.4094 44.3337 42.465C43.7206 42.5313 43.1422 42.7852 42.6777 43.1927C42.2131 43.6002 41.8843 44.1413 41.7364 44.7427C41.2852 46.4229 41.7633 47.7602 44.0733 47.5348ZM43.6352 27.2113C42.6789 26.1017 41.195 25.5198 39.7402 25.3079C39.6858 25.6719 39.6514 26.0386 39.637 26.4063C39.5718 29.4348 40.6427 32.7613 42.7147 35.0729C43.3777 35.8202 44.177 36.4325 45.0697 36.8771C45.586 37.1296 46.9556 37.7565 47.4629 37.1927C47.5014 37.1411 47.5258 37.08 47.5333 37.0159C47.5408 36.9517 47.5312 36.8867 47.5056 36.8275C47.4214 36.5861 47.2591 36.3669 47.0979 36.1494C46.9835 35.9952 46.8697 35.8419 46.785 35.6817C46.6991 35.5204 46.6072 35.3629 46.5156 35.2059C46.3433 34.9104 46.1714 34.6156 46.0395 34.2948C45.6916 33.455 45.5106 32.5621 45.33 31.6719V31.6717V31.6715L45.3297 31.6713V31.6711V31.6709C45.2937 31.4929 45.2577 31.315 45.2202 31.1375C44.9441 29.7642 44.5916 28.3209 43.6352 27.2113ZM64.0677 51.3709C62.5841 55.5298 64.9768 59.0425 67.3556 62.5346C70.0162 66.4406 72.6593 70.3208 69.8393 75.0504C75.3193 72.7773 77.9212 65.9102 75.647 60.4617C74.2141 57.0154 70.7604 55.1471 67.5545 53.4131L67.5543 53.4129C66.3106 52.7402 65.1041 52.0877 64.0677 51.3709ZM48.0318 61.2986C47.0387 61.7056 46.1022 62.24 45.2458 62.8886C47.1933 62.179 49.2375 61.7738 51.3072 61.6865C51.6822 61.6642 52.06 61.6467 52.4408 61.629H52.4412H52.4418C53.0998 61.5986 53.7679 61.5677 54.4502 61.5106C55.5687 61.4344 56.672 61.2067 57.73 60.834C58.8387 60.4444 59.8477 59.8127 60.6843 58.9848C61.5298 58.13 62.1227 57.0567 62.3972 55.8838C62.6389 54.7759 62.605 53.6252 62.2985 52.5338C61.9918 51.4421 61.422 50.4434 60.6395 49.6256C61.017 50.5877 61.2493 51.6009 61.3287 52.6319C61.397 53.5917 61.267 54.5552 60.947 55.4621C60.6345 56.3217 60.1237 57.0946 59.4564 57.7173C58.767 58.3463 57.9689 58.8429 57.1014 59.1831C55.8958 59.6711 54.5325 59.8706 53.1125 60.0786C52.4647 60.1734 51.8052 60.27 51.1433 60.3965C50.0789 60.5923 49.0364 60.8946 48.0318 61.2986ZM65.2475 78.4679L65.1523 78.5448V78.545C64.9012 78.7477 64.6462 78.954 64.3714 79.1392C64.0212 79.3709 63.6543 79.5761 63.2737 79.7525C62.481 80.1411 61.6097 80.3394 60.7279 80.3321C58.3393 80.2871 56.651 78.5011 55.6633 76.4825C55.4043 75.9536 55.1762 75.4081 54.9481 74.8627C54.5829 73.9898 54.2177 73.1169 53.7258 72.3104C52.5833 70.4365 50.6279 68.9277 48.3381 69.2073C47.4041 69.3246 46.5285 69.7463 46.01 70.5604C44.645 72.6871 46.605 75.6663 49.1035 75.2444C49.316 75.2119 49.5239 75.1544 49.7231 75.0731C49.9216 74.9881 50.1068 74.875 50.2731 74.7371C50.6222 74.445 50.8852 74.0631 51.0341 73.6321C51.1983 73.1825 51.2348 72.6961 51.1398 72.2271C51.0373 71.7367 50.7489 71.3059 50.336 71.025C50.8162 71.2509 51.1904 71.6552 51.38 72.1525C51.5764 72.6646 51.627 73.2213 51.5258 73.7606C51.4277 74.3223 51.1812 74.8473 50.8118 75.2806C50.6158 75.5034 50.3889 75.6971 50.1385 75.8556C49.8902 76.0123 49.6241 76.1388 49.346 76.2323C48.782 76.4259 48.1818 76.4884 47.5904 76.415C46.76 76.2961 45.9768 75.9548 45.3231 75.4271C45.2022 75.3313 45.0864 75.2309 44.9741 75.1267C44.5293 74.7413 44.1256 74.3098 43.7695 73.8394C43.6097 73.6627 43.4475 73.4883 43.2779 73.3208C42.4775 72.4771 41.5331 71.7844 40.4895 71.2754C39.77 70.9579 39.0168 70.7234 38.2447 70.5763C37.8562 70.495 37.4635 70.4365 37.0706 70.3869C37.0279 70.3825 36.946 70.3681 36.8439 70.3504L36.8433 70.3502H36.8431H36.8429C36.515 70.2929 35.9816 70.2 35.8875 70.2875C37.1018 69.1646 38.4254 68.1673 39.8385 67.3106C41.2895 66.4459 42.8475 65.7763 44.4722 65.3194C46.1566 64.8431 47.9187 64.7073 49.6558 64.9202C50.55 65.0281 51.4258 65.2556 52.26 65.5967C53.1339 65.9475 53.9406 66.4481 54.6441 67.0763C55.3402 67.735 55.9029 68.5231 56.3008 69.3967C56.6602 70.2148 56.9281 71.0702 57.1 71.9473C57.192 72.4194 57.2616 72.9379 57.3333 73.4748H57.3335V73.475C57.6608 75.9215 58.0387 78.7442 60.8425 79.2361C61.0206 79.2709 61.2004 79.2965 61.3812 79.3129L61.9402 79.3263C62.3245 79.2988 62.7064 79.2438 63.0829 79.1617C63.8629 78.9775 64.6231 78.7169 65.3525 78.3838L65.2475 78.4679ZM43.917 74.004C43.9841 74.0811 44.052 74.1573 44.1208 74.2329C44.0927 74.2015 44.0647 74.1698 44.0366 74.1384C43.9968 74.0936 43.957 74.0488 43.917 74.004Z" fill="#FB118E"/>
</g>
<defs>
<clipPath id="clip0_430_23">
<rect width="100" height="100" fill="white"/>
</clipPath>
</defs>
</svg>
