<svg width="100" height="100" viewBox="0 0 100 100" fill="none" xmlns="http://www.w3.org/2000/svg">
    <g clip-path="url(#clip0_430_24)">
        <rect width="100" height="100" fill="white"/>
        <rect width="100" height="100" fill="#0657F9"/>
        <path fill-rule="evenodd" clip-rule="evenodd"
              d="M29.1462 19.6334L25.2121 23.6418L34.8119 33.4209L44.4116 43.2003V52.3031V61.4062H50.0056H55.5997V52.3031V43.2003L65.1759 33.4447L74.7525 23.6893L70.7937 19.66L66.8353 15.6308L58.4722 24.1273C53.8725 28.8005 50.0634 32.6237 50.0078 32.6237C49.9519 32.6237 46.1375 28.7992 41.5316 24.1244C36.9253 19.4497 33.1394 15.625 33.1184 15.625C33.0975 15.625 31.31 17.4288 29.1462 19.6334ZM24.7111 43.1275C23.4591 45.8203 22.7339 48.1409 22.267 50.9488C20.9319 58.9769 23.0422 67.2447 28.0672 73.6725C28.8963 74.7331 31.3359 77.2172 32.37 78.0541C37.0247 81.8197 42.3237 83.9062 48.2678 84.3131C51.8234 84.5566 55.3787 84.0816 58.8709 82.8969C68.9644 79.4725 76.2519 70.6334 77.8281 59.9038C78.4344 55.775 78.1072 51.3584 76.8928 47.2853C76.41 45.6656 75.4319 43.2394 74.9206 42.3931L74.725 42.0697L70.4687 46.4016C67.0356 49.8956 66.2228 50.7709 66.2666 50.9266C66.6175 52.1791 66.8037 53.4812 66.8537 55.0316C66.9506 58.0356 66.4841 60.4638 65.3228 62.9997C63.0656 67.9297 58.6616 71.4484 53.2769 72.6237C52.3419 72.8278 51.9981 72.8509 49.9581 72.8481C47.9562 72.845 47.5631 72.8184 46.6872 72.6256C41.3484 71.4503 37.1497 68.1238 34.7809 63.1928C33.7103 60.9644 33.2256 58.9019 33.1525 56.2634C33.0997 54.3553 33.2031 53.2016 33.5612 51.6997L33.7919 50.7338L29.5495 46.4116C27.2162 44.0341 25.2816 42.0891 25.2505 42.0891C25.2193 42.0891 24.9766 42.5563 24.7111 43.1275Z"
              fill="white"/>
    </g>
    <defs>
        <clipPath id="clip0_430_24">
            <rect width="100" height="100" fill="white"/>
        </clipPath>
    </defs>
</svg>
