<svg width="16" height="16" viewBox="0 0 16 16" fill="none" xmlns="http://www.w3.org/2000/svg">
<path fill-rule="evenodd" clip-rule="evenodd" d="M14.0167 3.76893C14.4023 4.01127 14.6485 4.42742 14.6666 4.88208V11.1027C14.6496 11.5108 14.4599 11.8876 14.1374 12.1375L8.51875 15.3913C8.35838 15.4541 8.1889 15.486 8.01518 15.486C7.82561 15.486 7.61533 15.4447 7.46915 15.3737C7.45063 15.3647 7.39813 15.3359 7.32113 15.2927C7.27139 15.2647 7.21078 15.2304 7.1428 15.1917L5.08598 14.0075L10.4596 4.89334L8.28556 4.90127L3.36696 13.0179L2.79403 12.688L7.65442 4.89334L6.82957 4.87161C6.12668 4.86157 5.36953 5.0444 5.02209 5.61162L1.33331 11.3163V4.87932C1.35496 4.45819 1.56479 4.07482 1.909 3.82806C1.97431 3.78127 2.04376 3.7401 2.11588 3.70555C2.11588 3.70555 7.32675 0.683413 7.37188 0.660662C7.75405 0.468428 8.23053 0.468704 8.61196 0.660754L14.0167 3.76893ZM12.5471 12.0017L13.5813 11.4024C13.6827 11.32 13.7343 11.1991 13.7408 11.0687V10.112L10.7861 5.51011L9.68674 7.37554L12.5471 12.0017ZM12.0135 12.3109L9.30182 8.0367L8.04128 10.1757L10.106 13.4164L12.0135 12.3109Z" fill="#262626"/>
</svg>