<svg width="16" height="16" viewBox="0 0 16 16" fill="none" xmlns="http://www.w3.org/2000/svg">
<g clip-path="url(#clip0_1227_275)">
<path fill-rule="evenodd" clip-rule="evenodd" d="M8.00002 15.3334C12.0501 15.3334 15.3334 12.0502 15.3334 8.00008C15.3334 3.94999 12.0501 0.666748 8.00002 0.666748C3.94993 0.666748 0.666687 3.94999 0.666687 8.00008C0.666687 12.0502 3.94993 15.3334 8.00002 15.3334ZM4.78931 9.64093C5.06819 9.84642 5.42595 9.94916 5.8626 9.94916C6.39099 9.94916 6.81297 9.82623 7.12853 9.58039C7.4441 9.33087 7.6661 8.95476 7.79452 8.45206C7.87158 8.14383 7.93763 7.82643 7.99267 7.49986C8.01102 7.38244 8.02019 7.2852 8.02019 7.20814C8.02019 6.95129 7.95598 6.73112 7.82755 6.54766C7.69912 6.36052 7.52299 6.22108 7.29916 6.12935C7.07533 6.03395 6.82214 5.98624 6.5396 5.98624C5.50117 5.98624 4.8572 6.49078 4.60768 7.49986C4.51962 7.87046 4.45173 8.18786 4.40403 8.45206C4.38568 8.56948 4.37651 8.66855 4.37651 8.74928C4.37651 9.13456 4.51411 9.43178 4.78931 9.64093ZM6.46254 8.97494C6.31944 9.09603 6.14514 9.15658 5.93966 9.15658C5.5874 9.15658 5.41127 8.98778 5.41127 8.6502C5.41127 8.56948 5.41861 8.49242 5.43329 8.41903C5.49934 8.0631 5.56538 7.76222 5.63143 7.51637C5.69381 7.26685 5.79655 7.08155 5.93966 6.96046C6.08643 6.83937 6.26256 6.77883 6.46805 6.77883C6.81664 6.77883 6.99093 6.94578 6.99093 7.2797C6.99093 7.36042 6.98359 7.43931 6.96892 7.51637C6.92488 7.77322 6.86067 8.07411 6.77628 8.41903C6.7139 8.66855 6.60932 8.85385 6.46254 8.97494ZM8.17933 9.85559C8.20135 9.88128 8.23254 9.89412 8.2729 9.89412H9.02145C9.05815 9.89412 9.09301 9.88128 9.12603 9.85559C9.15905 9.8299 9.17924 9.79688 9.18657 9.75652L9.43976 8.55113H10.1828C10.6635 8.55113 11.0414 8.45022 11.3166 8.24841C11.5955 8.04659 11.7808 7.7347 11.8726 7.31272C11.8946 7.21365 11.9056 7.11824 11.9056 7.02651C11.9056 6.70727 11.7808 6.46326 11.5313 6.29447C11.2855 6.12568 10.9589 6.04128 10.5516 6.04128H9.0875C9.05081 6.04128 9.01595 6.05413 8.98292 6.07981C8.9499 6.1055 8.92972 6.13852 8.92238 6.17889L8.16282 9.75652C8.15548 9.79321 8.16099 9.82623 8.17933 9.85559ZM10.6231 7.66498C10.5094 7.74937 10.3754 7.79157 10.2213 7.79157H9.58837L9.79752 6.80635H10.458C10.6085 6.80635 10.7149 6.8357 10.7772 6.89441C10.8396 6.94945 10.8708 7.03018 10.8708 7.13659C10.8708 7.18429 10.8653 7.23933 10.8543 7.30171C10.8176 7.45949 10.7406 7.58058 10.6231 7.66498Z" fill="#262626"/>
</g>
<defs>
<clipPath id="clip0_1227_275">
<rect width="16" height="16" fill="white"/>
</clipPath>
</defs>
</svg>