<svg width="16" height="16" viewBox="0 0 16 16" fill="none" xmlns="http://www.w3.org/2000/svg">
<path d="M14.4727 6.97231C14.4088 6.80125 14.2452 6.6875 14.0623 6.6875H8.77956L11.8267 0.762875C11.9225 0.5765 11.8731 0.348563 11.7082 0.219062C11.6285 0.156062 11.5327 0.125 11.4374 0.125C11.3354 0.125 11.2335 0.160875 11.1517 0.231312L7.93738 3.00725L1.52674 8.54381C1.38849 8.66325 1.33862 8.85619 1.40249 9.02725C1.46637 9.19831 1.62955 9.3125 1.81243 9.3125H7.0952L4.04803 15.2371C3.95222 15.4235 4.00166 15.6514 4.1666 15.7809C4.24622 15.8439 4.34203 15.875 4.43741 15.875C4.53934 15.875 4.64128 15.8391 4.72309 15.7687L7.93738 12.9928L14.348 7.45619C14.4867 7.33675 14.5361 7.14381 14.4727 6.97231Z" fill="#ABABAB"/>
</svg>