<svg width="1920" height="1080" viewBox="0 0 1920 1080" fill="none" xmlns="http://www.w3.org/2000/svg">
    <g style="mix-blend-mode:overlay" clip-path="url(#clip0_1_465)">
        <path d="M802.07 1073.18V1006.46L739.14 970.13V1041.55L680.5 1075.39V1005.22L618.65 1040.93L558.95 1006.46V940.99C559.855 940.757 560.656 940.23 561.228 939.491C561.801 938.752 562.111 937.844 562.11 936.91C562.102 936.535 562.049 936.162 561.95 935.8L619.18 902.8L619.72 902.49V829.78L557.9 865.49L497.13 830.4L436.35 865.49L376.66 831.03V762.1L438.5 726.39L376.66 690.66V619.26L314.26 655.26L313.72 655.57V724.5L258.11 692.39C258.209 692.031 258.263 691.662 258.27 691.29C258.269 690.355 257.959 689.446 257.387 688.706C256.816 687.966 256.015 687.437 255.11 687.2V551.58L315.34 516.8L315.88 516.49V443.82L253.49 479.82L252.95 480.13V550.31L193.26 584.77L134.64 550.96L193.8 516.8L194.34 516.49V443.82L131.95 479.82L131.41 480.13V619.26L75.79 587.15C75.8893 586.792 75.9431 586.422 75.95 586.05C75.9495 585.115 75.6391 584.206 75.0673 583.466C74.4956 582.726 73.6947 582.197 72.79 581.96V515.25L13.1 480.79L71.71 446.95L72.79 447.57V446.32L73.87 445.7L72.79 445.08V374.9L15.01 341.54C15.1186 341.18 15.1758 340.806 15.18 340.43C15.18 339.305 14.7333 338.227 13.9381 337.432C13.143 336.637 12.0645 336.19 10.94 336.19C9.81548 336.19 8.73702 336.637 7.94187 337.432C7.14671 338.227 6.7 339.305 6.7 340.43C6.70054 341.365 7.01094 342.274 7.58268 343.014C8.15442 343.754 8.95527 344.283 9.86 344.52V409.99L-52 445.66L8.78 480.75L-50.38 514.9L-50.92 515.21V585.38L-52 586.01L-50.92 586.63V656.81L8.75 691.26L-50.43 725.46L-50.97 725.77V798.44L11.43 762.44L11.97 762.13V693.13V621.76L68.7 589.03C69.2311 589.566 69.8985 589.946 70.63 590.13V656.85L130.32 691.31L71.17 725.46L70.63 725.77V795.97L14 828.66C13.2055 827.861 12.1271 827.408 11 827.4C10.4398 827.397 9.88468 827.506 9.36664 827.719C8.84859 827.932 8.37793 828.246 7.98182 828.642C7.58571 829.038 7.27202 829.509 7.05888 830.027C6.84573 830.545 6.73735 831.1 6.74 831.66C6.74282 832.596 7.0553 833.505 7.62872 834.245C8.20214 834.984 9.00426 835.514 9.91 835.75V971.3L-50.43 1006.13L-50.97 1006.44V1079.11H-50.87V1148.11L9.91 1183.2V1184.44L10.99 1183.82L12.07 1184.44V1183.2L72.3 1148.42L72.84 1148.11V1075.44L13.99 1109.44C13.5974 1109.04 13.1301 1108.73 12.6152 1108.51C12.1002 1108.3 11.5478 1108.19 10.99 1108.19C10.4321 1108.19 9.87978 1108.3 9.36484 1108.51C8.8499 1108.73 8.38261 1109.04 7.99 1109.44L-47.67 1077.31L9.92 1044.07V1044.14L71.77 1008.43L133.62 1044.14V972.59L193.81 937.85L194.35 937.54V870.82C195.113 870.616 195.804 870.203 196.345 869.627C196.885 869.051 197.254 868.335 197.408 867.56C197.563 866.785 197.497 865.983 197.219 865.243C196.941 864.504 196.461 863.857 195.834 863.376C195.207 862.896 194.458 862.6 193.672 862.523C192.886 862.446 192.094 862.591 191.385 862.941C190.677 863.291 190.081 863.832 189.665 864.504C189.249 865.175 189.029 865.95 189.03 866.74C189.038 867.115 189.091 867.488 189.19 867.85L131.96 900.85L131.42 901.16V970.06L72.84 936.29V797.16L132.5 762.72L194.36 798.43V727.02L251.04 694.29C251.575 694.82 252.241 695.2 252.97 695.39V762.1L310.75 795.46C310.646 795.821 310.592 796.194 310.59 796.57C310.592 796.942 310.646 797.313 310.75 797.67L253.51 830.67L252.97 830.98V971.3L196.63 1003.83C196.236 1003.28 195.715 1002.83 195.111 1002.52C194.506 1002.21 193.836 1002.05 193.157 1002.05C192.477 1002.06 191.809 1002.22 191.208 1002.54C190.607 1002.86 190.092 1003.31 189.705 1003.87C189.318 1004.43 189.072 1005.07 188.986 1005.75C188.9 1006.42 188.978 1007.11 189.213 1007.74C189.448 1008.38 189.833 1008.95 190.336 1009.41C190.838 1009.87 191.443 1010.2 192.1 1010.37V1079.11L252.88 1044.02V1112.95L315.81 1149.29V1076.66L256.18 1042.23L314.82 1008.37L371.5 1041.06C371.401 1041.42 371.347 1041.79 371.34 1042.17C371.338 1042.96 371.558 1043.74 371.976 1044.41C372.393 1045.09 372.991 1045.63 373.702 1045.98C374.412 1046.33 375.207 1046.48 375.996 1046.4C376.785 1046.32 377.536 1046.02 378.164 1045.54C378.793 1045.06 379.273 1044.41 379.551 1043.67C379.829 1042.92 379.893 1042.12 379.736 1041.34C379.58 1040.57 379.208 1039.85 378.665 1039.27C378.121 1038.69 377.426 1038.28 376.66 1038.08V902.45L436.35 867.98L494.97 901.83L435.81 935.98L435.27 936.29V1006.46L434.19 1007.09L435.27 1007.71V1076.66L375.04 1111.44L374.5 1111.75V1184.41L436.89 1148.41L437.43 1148.1V1079.18L496.05 1113.02V1114.26L497.13 1113.64L558.98 1149.35V1081.35C559.708 1081.16 560.374 1080.78 560.91 1080.25L617.59 1112.97V1184.37L678.37 1149.29L740.76 1113.29L741.3 1112.98V1044.04L796.92 1076.16C796.816 1076.52 796.762 1076.89 796.76 1077.26C796.756 1078.05 796.974 1078.83 797.391 1079.51C797.807 1080.18 798.405 1080.73 799.116 1081.08C799.827 1081.43 800.622 1081.58 801.412 1081.5C802.202 1081.43 802.954 1081.13 803.583 1080.64C804.213 1080.16 804.693 1079.51 804.971 1078.77C805.249 1078.02 805.313 1077.22 805.155 1076.44C804.998 1075.66 804.625 1074.94 804.08 1074.37C803.534 1073.79 802.838 1073.38 802.07 1073.18ZM133.57 481.4L192.18 447.56V515.24L133.57 549.08V481.4ZM9.81 760.86L-48.81 794.66V727.02L9.81 693.18V760.86ZM70.68 1079.11V1146.79L12.07 1180.66V1116.44C12.9712 1116.2 13.7686 1115.67 14.3382 1114.94C14.9079 1114.2 15.2178 1113.29 15.22 1112.36C15.218 1111.98 15.1642 1111.61 15.06 1111.25L70.68 1079.11ZM9.91 1116.41V1180.66L-48.71 1146.82V1079.14L6.91 1111.26C6.80235 1111.62 6.74512 1111.99 6.74 1112.36C6.74991 1113.29 7.06578 1114.19 7.63879 1114.92C8.21179 1115.65 9.01 1116.18 9.91 1116.41ZM678.37 1076.66L619.75 1110.5V1042.8L678.37 1008.96V1076.66ZM556.82 1073.22C556.09 1073.41 555.424 1073.79 554.89 1074.32L499.29 1042.22L556.82 1009V1073.22ZM498.21 971.42V903.66L553.82 935.77C553.721 936.129 553.667 936.498 553.66 936.87C553.661 937.804 553.972 938.711 554.544 939.449C555.115 940.188 555.916 940.715 556.82 940.95V1005.18L498.21 971.42ZM556.82 932.87C556.089 933.054 555.421 933.434 554.89 933.97L499.29 901.87L556.82 868.66V932.87ZM497.13 973.29L555.74 1007.13L529.11 1022.46L497.11 1040.93L438.5 1007.09L465.13 991.71L497.13 973.29ZM498.21 1044.09L553.82 1076.2C553.721 1076.56 553.667 1076.93 553.66 1077.3C553.667 1077.68 553.721 1078.05 553.82 1078.41L498.21 1110.52V1044.09ZM617.59 901.2L560.91 933.93C560.379 933.394 559.711 933.014 558.98 932.83V867.36L617.59 833.52V901.2ZM315.88 792.48V728.26L374.5 762.1V829.78L318.88 797.66C318.988 797.303 319.045 796.933 319.05 796.56C319.045 795.626 318.731 794.719 318.158 793.981C317.585 793.244 316.784 792.716 315.88 792.48ZM315.88 800.65C316.614 800.466 317.285 800.086 317.82 799.55L373.42 831.65L315.88 864.87V800.65ZM375.58 760.23L316.97 726.39L345.71 709.79L375.58 692.55L434.19 726.39L375.58 760.23ZM315.88 656.84L374.5 623V690.66L315.88 724.5V656.84ZM255.11 481.4L313.72 447.56V515.24L255.11 549.08V481.4ZM252.95 620.51L233.78 631.58L194.34 654.35V586.66L252.95 552.82V620.51ZM192.18 724.51L162.87 707.59L133.57 690.66V623.01L162.87 639.93L192.18 656.85V724.51ZM133.57 552.83L192.18 586.66V654.34L162.87 637.42L133.57 620.5V552.83ZM70.63 581.97C69.9009 582.154 69.2344 582.531 68.7 583.06L12.02 550.34V482.66L70.63 516.5V581.97ZM70.63 376.15V443.83L12.02 409.98V344.52C12.7489 344.33 13.4147 343.95 13.95 343.42L70.63 376.15ZM10.94 411.86L69.55 445.66L12.02 478.92L10.94 479.54L9.86 478.92L-47.68 445.66L10.94 411.86ZM-48.76 516.5L9.86 482.66V550.34L-48.76 584.18V516.5ZM-48.76 587.92L9.86 621.76V689.44L-48.76 655.6V587.92ZM10.94 619.92L-47.68 586.08L-21.05 570.66L10.95 552.2L67.64 584.93C67.5407 585.292 67.4869 585.665 67.48 586.04C67.4869 586.412 67.5407 586.781 67.64 587.14L10.94 619.92ZM72.79 590.16C73.5215 589.976 74.1889 589.596 74.72 589.06L131.41 621.79V689.46L72.79 655.6V590.16ZM72.79 727.05L131.41 693.21V760.88L72.79 794.66V727.05ZM12.07 835.74C12.9712 835.502 13.7686 834.973 14.3382 834.235C14.9079 833.497 15.2178 832.592 15.22 831.66C15.2181 831.288 15.1643 830.917 15.06 830.56L70.68 798.45V866.13L12.07 899.95V835.74ZM70.68 936.29L12.07 970.13V902.45L70.68 868.66V936.29ZM9.81 1041.53L-48.81 1075.37V1007.66L9.81 973.82V1041.53ZM12.07 972.66L70.68 938.82V1006.46L12.07 1040.3V972.66ZM133.57 902.49L190.25 869.77C190.784 870.299 191.451 870.676 192.18 870.86V936.33L133.57 970.17V902.49ZM131.5 973.84V1040.3L72.84 1006.46V938.78L131.41 972.59V973.87L131.5 973.84ZM192.18 794.66L133.57 760.82V693.18L162.87 710.1L192.18 727.02V794.66ZM194.34 724.49V656.85L227.83 637.51L252.95 623.01V687.22C252.046 687.458 251.246 687.988 250.675 688.728C250.103 689.468 249.792 690.375 249.79 691.31C249.795 691.683 249.852 692.053 249.96 692.41L194.34 724.49ZM255.11 760.83V695.39C255.84 695.202 256.506 694.822 257.04 694.29L313.72 727.02V792.49C312.995 792.677 312.332 793.053 311.8 793.58L255.11 760.83ZM255.11 832.25L311.8 799.52C312.327 800.055 312.991 800.436 313.72 800.62V866.08L312.64 866.71L255.1 899.92L255.11 832.25ZM255.11 972.59L313.72 938.75V1006.46L255.11 1040.3V972.59ZM313.72 936.26L255.11 970.1V902.45L313.72 868.66V936.26ZM194.24 1075.37V1010.37C195.144 1010.14 195.945 1009.61 196.516 1008.87C197.088 1008.13 197.399 1007.22 197.4 1006.29C197.41 1006.16 197.41 1006.02 197.4 1005.89L252.9 973.89V1041.57L194.24 1075.37ZM313.63 1145.55L255.02 1111.66V1044.03L313.63 1077.87V1145.55ZM374.5 1038.08C373.77 1038.27 373.104 1038.65 372.57 1039.18L315.88 1006.46V938.78L374.5 972.66V1038.08ZM315.88 936.29V868.66L374.5 902.45V970.13L315.88 936.29ZM375.58 900.58L316.96 866.74L375.58 832.9L376.66 833.52L434.19 866.74L375.58 900.58ZM497.13 832.9L555.74 866.74L498.21 899.96L497.13 900.59L496.05 899.96L438.5 866.74L497.13 832.9ZM437.43 937.54L496.05 903.66V971.34L437.43 1005.18V937.54ZM435.27 1146.81L376.66 1180.66V1112.98L435.27 1079.15V1146.81ZM437.43 1076.64V1008.96L496.05 1042.8V1110.48L437.43 1076.64ZM499.29 1112.35L554.89 1080.25C555.424 1080.78 556.09 1081.16 556.82 1081.35V1145.57L499.29 1112.35ZM558.98 1073.18V1008.96L617.59 1042.8V1110.47L561.98 1078.36C562.08 1078 562.134 1077.63 562.14 1077.26C562.139 1076.33 561.828 1075.42 561.256 1074.68C560.685 1073.94 559.884 1073.41 558.98 1073.18ZM619.75 1180.66V1113L678.37 1079.16V1146.82L619.75 1180.66ZM739.14 1111.75L680.5 1145.56V1077.88L739.11 1044.04L739.14 1111.75ZM741.3 1041.58V973.87L799.91 1007.71V1073.18C799.184 1073.37 798.522 1073.75 797.99 1074.28L741.3 1041.58ZM1972.39 633.66L1911.61 598.66L1970.77 564.5L1971.31 564.19V493.97L1972.39 493.34L1971.31 492.72V422.54L1911.64 388.09L1970.82 353.93L1971.36 353.62V280.95L1908.96 316.95L1908.42 317.26V386.26H1908.37V457.66L1851.69 490.39C1851.16 489.858 1850.49 489.478 1849.76 489.29V352.38L1788.99 317.3V247.12L1731.21 213.77C1731.31 213.405 1731.36 213.029 1731.37 212.65C1731.36 212.278 1731.31 211.908 1731.21 211.55L1788.45 178.55L1788.99 178.24V109.29L1847.55 143.1V284.66L1906.4 250.66C1906.85 251.14 1907.41 251.508 1908.02 251.736C1908.64 251.963 1909.3 252.044 1909.96 251.97C1910.61 251.897 1911.24 251.672 1911.79 251.313C1912.34 250.955 1912.8 250.472 1913.14 249.904C1913.47 249.337 1913.66 248.699 1913.71 248.042C1913.75 247.386 1913.64 246.728 1913.38 246.122C1913.13 245.515 1912.73 244.977 1912.23 244.55C1911.73 244.123 1911.14 243.818 1910.5 243.66V108.09L1970.83 73.26L1971.37 72.95V0.279999L1910.5 35.42V35.35L1848.63 71.06L1786.78 35.35V106.8L1726.59 141.55L1726.05 141.86V208.57C1725.15 208.805 1724.34 209.333 1723.77 210.072C1723.2 210.812 1722.89 211.72 1722.89 212.655C1722.89 213.59 1723.2 214.498 1723.77 215.238C1724.34 215.977 1725.15 216.505 1726.05 216.74V283.46L1786.83 318.54V387.47L1728.21 421.31V352.37L1667.44 317.28V316.04L1666.36 316.66L1665.28 316.04V317.28L1605.05 352.06L1604.51 352.37V425.04L1663.35 391.04C1663.74 391.435 1664.21 391.749 1664.73 391.964C1665.24 392.178 1665.79 392.288 1666.35 392.288C1666.91 392.288 1667.46 392.178 1667.97 391.964C1668.49 391.749 1668.96 391.435 1669.35 391.04L1726.03 423.76V565.36L1787.91 529.66L1847.6 564.12L1907.29 598.66L1848.68 632.5L1847.6 631.87V633.12L1846.5 633.66L1847.58 634.29V704.46L1908.35 739.55V805.02C1907.59 805.224 1906.9 805.637 1906.36 806.213C1905.81 806.789 1905.45 807.505 1905.29 808.28C1905.14 809.055 1905.2 809.857 1905.48 810.597C1905.76 811.336 1906.24 811.983 1906.87 812.464C1907.49 812.945 1908.24 813.24 1909.03 813.317C1909.81 813.394 1910.61 813.249 1911.31 812.899C1912.02 812.549 1912.62 812.008 1913.04 811.336C1913.45 810.665 1913.67 809.89 1913.67 809.1C1913.67 808.728 1913.61 808.357 1913.51 808L1970.75 775L1971.29 774.69V702L1910.5 737.09V669.41L1972.39 633.66ZM1910.58 318.5L1969.2 284.66V352.34L1910.58 386.18V318.5ZM1969.15 562.86L1910.5 596.73V529.05L1969.12 495.21L1969.15 562.86ZM1969.15 491.44L1910.5 457.66V389.95L1969.12 423.79L1969.15 491.44ZM1909.45 459.44L1968.07 493.28L1941.44 508.66L1909.44 527.12L1852.74 494.39C1852.84 494.028 1852.89 493.655 1852.9 493.28C1852.89 492.908 1852.84 492.539 1852.74 492.18L1909.45 459.44ZM1847.6 423.74V489.26C1846.87 489.444 1846.2 489.824 1845.67 490.36L1818.29 474.56L1788.99 457.66V389.96L1818.29 406.88L1847.6 423.74ZM1849.71 143.04L1908.33 109.21V176.88L1849.71 210.72V143.04ZM1849.71 280.89V213.28L1908.33 179.44V243.66C1907.43 243.897 1906.62 244.426 1906.05 245.166C1905.48 245.906 1905.17 246.815 1905.17 247.75C1905.17 248.122 1905.23 248.493 1905.33 248.85L1849.71 280.89ZM1910.58 37.86L1969.2 4.02V71.66L1910.58 105.5V37.86ZM1908.33 106.77L1849.71 140.66V72.93L1908.33 39.1V106.77ZM1788.94 39.1L1847.55 72.93V140.66L1788.99 106.85V105.52L1788.94 39.1ZM1786.83 109.27V176.94L1730.14 209.66C1729.61 209.124 1728.94 208.744 1728.21 208.56V143.1L1786.83 109.27ZM1728.21 282.21V216.74C1728.94 216.55 1729.6 216.17 1730.14 215.64L1786.83 248.37V316.05L1728.21 282.21ZM1847.6 353.66V421.34L1818.29 404.42L1788.99 387.5V319.79L1847.6 353.66ZM1606.67 421.33V353.66L1665.28 319.82V384.04C1664.38 384.277 1663.57 384.806 1663 385.546C1662.43 386.286 1662.12 387.195 1662.12 388.13C1662.13 388.502 1662.18 388.871 1662.28 389.23L1606.67 421.33ZM1667.44 384.03V319.78L1726.05 353.66V421.34L1670.44 389.23C1670.54 388.871 1670.59 388.502 1670.6 388.13C1670.61 387.188 1670.3 386.271 1669.73 385.524C1669.16 384.776 1668.35 384.24 1667.44 384V384.03ZM1728.21 423.83L1786.83 389.99V457.66L1728.21 491.51V423.83ZM1728.21 494L1786.83 460.16V527.84L1728.21 561.66V494ZM1788.99 527.84V460.13L1818.29 477.05L1844.6 492.24C1844.5 492.599 1844.45 492.968 1844.44 493.34C1844.44 494.275 1844.75 495.182 1845.32 495.922C1845.9 496.662 1846.7 497.192 1847.6 497.43V561.66L1788.99 527.84ZM1849.76 497.46C1850.49 497.268 1851.15 496.889 1851.69 496.36L1908.37 529.08V596.76L1849.76 562.92V497.46ZM1908.37 600.51L1909.45 599.88L1910.53 600.51L1968.07 633.66L1909.5 667.53L1850.84 633.66L1908.37 600.51ZM1849.76 635.6L1908.37 669.44V737.12L1849.76 703.27V635.6ZM1969.15 705.77V773.45L1912.5 806.15C1911.97 805.614 1911.3 805.234 1910.57 805.05V739.58L1969.15 705.77ZM1609.83 282.82C1609.82 282.447 1609.77 282.077 1609.66 281.72L1666.9 248.66L1667.44 248.35V108.09L1723.78 75.56C1724.17 76.1137 1724.69 76.5644 1725.3 76.8741C1725.9 77.1837 1726.57 77.3432 1727.25 77.3391C1727.93 77.335 1728.6 77.1673 1729.2 76.8503C1729.8 76.5332 1730.32 76.0762 1730.7 75.5178C1731.09 74.9594 1731.34 74.316 1731.42 73.6421C1731.51 72.9682 1731.43 72.2837 1731.2 71.6463C1730.96 71.0089 1730.58 70.4375 1730.07 69.9804C1729.57 69.5232 1728.97 69.1938 1728.31 69.02V0.279999L1667.5 35.37V-33.56L1604.57 -69.9V2.77L1664.2 37.2L1605.59 71.06L1548.89 38.33C1548.99 37.9682 1549.04 37.5953 1549.05 37.22C1549.05 36.6632 1548.94 36.1118 1548.73 35.5974C1548.51 35.083 1548.2 34.6156 1547.81 34.2219C1547.41 33.8282 1546.95 33.5158 1546.43 33.3027C1545.92 33.0897 1545.37 32.98 1544.81 32.98C1543.69 32.98 1542.61 33.4267 1541.81 34.2219C1541.02 35.017 1540.57 36.0955 1540.57 37.22C1540.57 38.1547 1540.88 39.0625 1541.45 39.8022C1542.03 40.5418 1542.83 41.0719 1543.73 41.31V105.52V176.94L1484.04 211.41L1425.42 177.57L1484.58 143.41L1485.12 143.1V72.93L1486.2 72.3L1485.12 71.68V2.75L1545.35 -32.02L1545.89 -32.33V-105L1483.5 -69L1482.96 -68.69V0.260002L1424.34 -33.58V-34.83L1423.26 -34.21L1361.41 -69.92V-1.92C1360.68 -1.72807 1360.01 -1.34492 1359.48 -0.809998L1302.8 -33.58V-104.98L1242.02 -69.89L1179.63 -33.89L1179.09 -33.58V35.35L1120.5 1.51V0.260002L1119.42 0.880005L1118.34 0.260002V1.51L1058.64 35.97L996.77 0.260002V71.66L938.15 105.52V36.59L875.22 0.25L814.5 -34.83V36.59L757.76 69.32C757.167 68.7276 756.411 68.3243 755.589 68.1611C754.767 67.9979 753.914 68.0822 753.14 68.4033C752.365 68.7243 751.704 69.2678 751.238 69.9649C750.772 70.6621 750.524 71.4816 750.524 72.32C750.524 73.1584 750.772 73.9779 751.238 74.6751C751.704 75.3722 752.365 75.9157 753.14 76.2368C753.914 76.5578 754.767 76.6421 755.589 76.4789C756.411 76.3157 757.167 75.9125 757.76 75.32L814.5 108.01V179.44L876.89 143.44L877.43 143.13V74.17L936.04 108.01V179.43L994.89 145.43C995.427 145.959 996.092 146.338 996.82 146.53V213.24L1059.75 249.57V179.43L1120.5 214.52V141.85L1060.8 107.39L1119.41 73.55L1181.27 109.26V37.84L1239.88 4V141.86L1179.63 176.66L1179.09 176.97V249.66L1237.93 215.66C1238.39 216.12 1238.95 216.469 1239.56 216.679C1240.17 216.889 1240.83 216.955 1241.47 216.872C1242.12 216.788 1242.73 216.557 1243.27 216.197C1243.81 215.837 1244.27 215.357 1244.59 214.795C1244.92 214.233 1245.11 213.603 1245.15 212.955C1245.19 212.307 1245.09 211.658 1244.84 211.058C1244.59 210.458 1244.2 209.923 1243.72 209.495C1243.23 209.067 1242.65 208.758 1242.02 208.59V143.11L1302.26 108.33L1302.8 108.02V39.09L1361.41 72.93V138.4C1360.51 138.636 1359.71 139.164 1359.14 139.902C1358.56 140.64 1358.25 141.547 1358.25 142.48C1358.26 142.855 1358.31 143.228 1358.41 143.59L1301.18 176.59L1300.64 176.9V249.66L1362.5 213.9L1423.27 248.99L1484.05 213.9L1544.82 248.99L1604.52 214.53V278.74C1603.76 278.944 1603.07 279.357 1602.53 279.933C1601.98 280.509 1601.62 281.225 1601.46 282C1601.31 282.775 1601.37 283.577 1601.65 284.317C1601.93 285.056 1602.41 285.703 1603.04 286.184C1603.66 286.664 1604.41 286.96 1605.2 287.037C1605.98 287.114 1606.78 286.969 1607.48 286.619C1608.19 286.269 1608.79 285.728 1609.21 285.056C1609.62 284.385 1609.84 283.61 1609.84 282.82H1609.83ZM1665.28 247.11L1608.59 279.84C1608.06 279.305 1607.4 278.924 1606.67 278.74V213.28L1607.75 212.65L1665.29 179.44L1665.28 247.11ZM1545.89 109.26L1604.5 143.1V210.78L1545.88 176.94L1545.89 109.26ZM1606.67 143.1L1665.28 109.27V176.94L1606.67 210.78V143.1ZM1665.28 106.77L1606.67 140.66V72.93L1665.28 39.1V106.77ZM1726.15 4.02V69.02C1725.25 69.2566 1724.44 69.7862 1723.87 70.5262C1723.3 71.2663 1722.99 72.1749 1722.99 73.11C1722.99 73.24 1722.99 73.37 1722.99 73.5L1667.49 105.5V37.86L1726.15 4.02ZM1606.76 -66.15L1665.37 -32.34V35.34L1606.76 1.5V-66.15ZM1545.89 41.31C1546.62 41.1218 1547.29 40.7421 1547.82 40.21L1604.5 72.93V140.66L1545.88 106.82L1545.89 41.31ZM1423.27 106.14L1364.65 72.3L1391.28 56.93L1423.28 38.46L1481.9 72.3L1455.25 87.66L1423.27 106.14ZM1363.57 6.21001C1364.3 6.02601 1364.97 5.64565 1365.5 5.11L1421.1 37.22L1363.57 70.43V6.21001ZM1422.18 35.35L1366.57 3.23C1366.67 2.87151 1366.72 2.50194 1366.73 2.13C1366.72 1.75479 1366.67 1.3819 1366.57 1.02L1422.18 -31.09V35.35ZM1422.18 108.02V175.66L1366.57 143.54C1366.67 143.182 1366.72 142.812 1366.73 142.44C1366.73 141.506 1366.42 140.599 1365.85 139.861C1365.27 139.122 1364.47 138.595 1363.57 138.36V74.17L1422.18 108.02ZM1363.57 146.57C1364.3 146.378 1364.97 145.995 1365.5 145.46L1421.1 177.57L1363.57 210.78V146.57ZM1482.96 141.85L1424.34 175.66V108.02L1482.96 74.17V141.85ZM1485.12 -67.42L1543.73 -101.26V-33.58L1485.12 0.260002V-67.42ZM1482.96 2.75V70.43L1424.34 36.59V-31.09L1482.96 2.75ZM1421.1 -32.96L1365.5 -0.849991C1364.97 -1.38492 1364.3 -1.76807 1363.57 -1.95999V-66.18L1421.1 -32.96ZM1300.64 -101.24V-33.58L1242.02 0.260002V-67.4L1300.64 -101.24ZM1118.32 4V71.66L1059.7 105.52V37.84L1118.32 4ZM998.93 4L1057.5 37.84V105.52L1028.2 88.6L998.93 71.66V4ZM1057.5 175.66L1028.2 158.74L1001.92 143.58C1002.03 143.22 1002.08 142.846 1002.09 142.47C1002.09 141.537 1001.77 140.632 1001.2 139.894C1000.63 139.156 999.832 138.628 998.93 138.39V74.17L1028.24 91.09L1057.5 108.01V175.66ZM935.99 105.52L877.38 71.66V4L935.99 37.84V105.52ZM816.61 -31.09L875.22 2.75V70.43L816.61 36.59V-31.09ZM758.83 71.19L815.5 38.46L874.11 72.3L847.5 87.66L815.5 106.14L758.8 73.41C758.899 73.0481 758.953 72.6752 758.96 72.3C758.962 71.9261 758.919 71.5533 758.83 71.19ZM875.22 141.85L816.61 175.66V108.01L875.22 74.17V141.85ZM938.15 175.66V108.01L996.77 74.17V138.39C995.866 138.625 995.065 139.152 994.494 139.891C993.922 140.629 993.611 141.536 993.61 142.47C993.617 142.845 993.671 143.218 993.77 143.58L938.15 175.66ZM1057.5 245.86L998.89 212.02V146.56C999.617 146.365 1000.28 145.986 1000.82 145.46L1028.2 161.26L1057.5 178.18V245.86ZM1118.28 210.77L1059.66 176.93V109.26L1118.28 143.1V210.77ZM1179.05 105.52L1120.5 71.66V4L1179.11 37.84L1179.05 105.52ZM1181.21 35.35V-32.34L1239.82 -66.18V1.5L1181.21 35.35ZM1300.6 -31.07V36.59L1241.98 70.43V2.77L1300.6 -31.07ZM1181.21 245.93V178.2L1239.82 144.36V208.58C1238.92 208.818 1238.12 209.346 1237.55 210.084C1236.98 210.822 1236.66 211.727 1236.66 212.66C1236.67 213.036 1236.72 213.41 1236.83 213.77L1181.21 245.93ZM1300.64 106.77L1242.02 140.66V72.93L1300.64 39.09V106.77ZM1302.8 -31.08L1358.41 1.03C1358.31 1.38834 1358.26 1.75801 1358.25 2.13C1358.25 3.063 1358.57 3.96848 1359.14 4.70612C1359.71 5.44376 1360.51 5.97237 1361.41 6.21001V70.43L1302.8 36.59V-31.08ZM1302.8 178.19L1359.5 145.47C1360.04 145.999 1360.7 146.378 1361.43 146.57V212.03L1302.82 245.87L1302.8 178.19ZM1423.26 246.5L1364.65 212.66L1422.18 179.45L1423.26 178.83L1424.34 179.45L1481.88 212.66L1423.26 246.5ZM1486.2 212.66L1544.81 178.82L1603.43 212.66L1544.81 246.51L1486.2 212.66Z"
              fill="url(#paint0_linear_1_465)" fill-opacity="0.6"/>
    </g>
    <defs>
        <linearGradient id="paint0_linear_1_465" x1="366.09" y1="1455.82" x2="1598.02" y2="-321.99"
                        gradientUnits="userSpaceOnUse">
            <stop stop-color="#C8CACC"/>
            <stop offset="0.14" stop-color="#D5D6D7"/>
            <stop offset="0.38" stop-color="#E4E6E6"/>
            <stop offset="0.57" stop-color="#EAEBEB"/>
            <stop offset="0.75" stop-color="#EEEFEF"/>
            <stop offset="0.93" stop-color="#FAFBFB"/>
            <stop offset="0.98" stop-color="white"/>
        </linearGradient>
        <clipPath id="clip0_1_465">
            <rect width="2024.38" height="1289.39" fill="white" transform="translate(-52 -105)"/>
        </clipPath>
    </defs>
</svg>
