<svg width="46" height="49" viewBox="0 0 46 49" fill="white" xmlns="http://www.w3.org/2000/svg">
    <path d="M21.926 6.17637C22.4681 6.17637 22.9861 6.16133 23.5055 6.17637C26.2039 6.26954 28.721 6.96146 30.9433 8.55395C33.3477 10.2784 34.8236 12.641 35.569 15.4926C35.9203 16.8294 36.0509 18.1938 36.073 19.5733C36.0759 19.7538 35.9853 19.7839 35.8519 19.8159C34.7809 20.0725 33.686 20.2138 32.5854 20.2376C30.2952 20.2987 28.0648 19.9862 25.9596 19.0362C23.1417 17.7644 21.0794 15.7318 19.9447 12.8074C19.4402 11.5085 19.259 10.1542 19.3361 8.76308C19.3405 8.68399 19.3443 8.6049 19.3501 8.49379C19.2238 8.52339 19.1174 8.54231 19.0128 8.57288C17.3745 9.04257 15.89 9.79709 14.6718 11.0232C12.8784 12.8287 12.3262 15.4451 13.2576 17.7338C13.7669 18.9843 14.6873 19.8635 15.8114 20.5481C17.1158 21.34 18.5454 21.8257 19.9991 22.2381C22.0609 22.8204 24.1339 23.3668 26.1937 23.9568C28.0638 24.4905 29.8987 25.1315 31.6054 26.0918C32.7006 26.7075 33.6961 27.4504 34.4873 28.4446C35.7025 29.9687 36.1313 31.7305 35.9757 33.6476C35.7444 36.5002 34.3008 38.6347 32.0246 40.249C30.3227 41.4572 28.4073 42.1506 26.3735 42.5349C26.2381 42.5602 26.1504 42.5922 26.0988 42.7484C25.1814 45.5433 23.2473 47.3231 20.5378 48.309C18.1527 49.1786 15.744 49.1063 13.34 48.4202C9.60958 47.3561 6.7238 45.1042 4.51405 41.9362C2.60065 39.1932 1.46638 36.1193 0.784091 32.8625C0.240569 30.2661 0.017956 27.6367 0.00109136 24.9855C-0.0148095 22.4652 0.141307 19.96 0.583641 17.4772C1.19799 14.0292 2.29178 10.7627 4.28614 7.85621C7.16132 3.66875 11.0893 1.11552 16.0817 0.272209C17.0594 0.107234 18.0612 0.0863693 19.0518 0C19.08 0.00229948 19.1078 0.00783443 19.1347 0.0164973V1.88508C18.6871 1.90886 18.2467 1.91905 17.8087 1.95787C12.3228 2.44309 8.16693 5.08948 5.3091 9.81068C3.95993 12.0359 3.14079 14.4688 2.61076 17.0089C1.96943 20.1061 1.80271 23.2392 1.9198 26.3941C2.01087 28.8405 2.30046 31.2594 2.89891 33.636C3.5494 36.2178 4.53044 38.6561 6.06078 40.8459C8.03924 43.6762 10.6123 45.6981 13.9631 46.6244C16.0919 47.2124 18.212 47.2406 20.2907 46.3701C21.8807 45.7049 23.1485 44.6825 23.9276 43.1051C23.9695 43.0206 24.0071 42.9343 24.0606 42.8197C23.5156 42.8197 23.0034 42.8401 22.4932 42.8163C18.9675 42.6523 15.8331 41.4961 13.2567 39.0122C11.3206 37.1456 10.1926 34.8393 9.85339 32.1677C9.73775 31.2584 9.77099 30.3302 9.73293 29.4107C9.72715 29.2802 9.75413 29.2103 9.90206 29.1783C13.3453 28.4237 16.7303 28.5475 19.9673 30.0337C23.0786 31.4602 25.1954 33.8301 26.1899 37.1577C26.4954 38.1801 26.5966 39.2325 26.5513 40.299C26.5479 40.3771 26.5513 40.4562 26.5513 40.5722C26.903 40.4786 27.2365 40.3995 27.5631 40.3005C29.2462 39.7915 30.7886 39.0214 32.0568 37.7701C33.3708 36.474 34.0979 34.9073 34.1225 33.0392C34.1471 31.1711 33.3949 29.694 31.9345 28.5649C30.8744 27.7435 29.6698 27.1889 28.4295 26.7138C26.4091 25.9409 24.3227 25.3843 22.2388 24.819C20.388 24.3173 18.5228 23.8612 16.7457 23.1208C15.3628 22.5463 14.0671 21.8291 13.0008 20.748C11.8179 19.5476 11.1606 18.0929 11.0002 16.4184C10.6402 12.6715 12.3171 9.99603 15.3888 8.08135C16.6787 7.27782 18.0968 6.79309 19.5756 6.47624C19.672 6.45586 19.7939 6.36367 19.8252 6.27633C20.9686 3.07387 23.2815 1.19947 26.4857 0.372164C28.8116 -0.228539 31.1115 0.0218351 33.3602 0.782661C36.5496 1.86422 39.0966 3.83858 41.1088 6.53155C43.0159 9.08576 44.2109 11.9699 44.9674 15.0515C45.654 17.843 45.9475 20.6835 45.9909 23.5545C46.0264 25.3173 45.9582 27.0806 45.7866 28.8352C45.4011 32.5714 44.5415 36.1761 42.7211 39.494C40.8814 42.8479 38.3098 45.4526 34.8747 47.1499C32.7218 48.213 30.4417 48.7933 28.0484 48.9452C27.6586 48.9704 27.2678 48.9816 26.8616 49V47.1033C26.9435 47.0994 27.0283 47.0941 27.1126 47.0921C31.5268 46.9805 35.3377 45.4424 38.4206 42.2122C40.1552 40.3961 41.3753 38.2543 42.2609 35.9102C43.0588 33.7995 43.5392 31.6121 43.8201 29.3753C44.0885 27.2359 44.1627 25.0878 44.0948 22.9354C43.9787 19.2366 43.4491 15.612 42.071 12.1528C41.0264 9.52828 39.5592 7.18709 37.4299 5.31122C35.5088 3.61635 33.3014 2.50131 30.7674 2.09421C28.31 1.69924 26.0188 2.1209 23.9734 3.60616C23.1099 4.23258 22.4691 5.05454 21.9916 6.008C21.9655 6.05361 21.9521 6.10602 21.926 6.17637ZM11.5919 30.7771C11.654 31.2623 11.6883 31.7145 11.7716 32.1556C12.4496 35.687 14.3495 38.2888 17.6126 39.8123C19.7809 40.8235 22.0807 41.0487 24.4365 40.8852C24.5694 40.876 24.6292 40.8265 24.6292 40.6984C24.6234 40.0778 24.6894 39.446 24.5993 38.8375C24.1334 35.6909 22.3828 33.4545 19.6315 31.9921C17.5923 30.9071 15.3758 30.5995 13.0962 30.6737C12.6076 30.6897 12.1224 30.7397 11.5919 30.7771ZM34.1037 18.2346C34.1122 18.1745 34.1151 18.1137 34.1124 18.0531C34.0064 17.4 33.936 16.7377 33.7828 16.0957C33.0788 13.1509 31.4526 10.8951 28.7774 9.45355C27.1796 8.5918 25.4584 8.16335 23.6539 8.08814C22.8791 8.05612 22.1009 8.09251 21.3358 8.09785C21.3098 8.18519 21.2992 8.21478 21.2924 8.24341C21.2818 8.29193 21.2712 8.34046 21.2654 8.38898C21.1498 9.35408 21.1888 10.3129 21.4384 11.2518C22.1612 13.9724 23.8708 15.8701 26.3369 17.1026C28.2103 18.0386 30.2229 18.3549 32.2968 18.3248C32.8981 18.3166 33.4995 18.2661 34.1037 18.2346Z"
          fill="white"/>
</svg>
