<svg width="24" height="24" viewBox="0 0 24 24" fill="none" xmlns="http://www.w3.org/2000/svg">
    <path d="M21.7091 10.4585C21.6133 10.2019 21.3678 10.0312 21.0935 10.0312H13.1693L17.7401 1.14431C17.8838 0.86475 17.8097 0.522844 17.5623 0.328594C17.4428 0.234094 17.2991 0.1875 17.156 0.1875C17.0031 0.1875 16.8502 0.241313 16.7275 0.346969L11.9061 4.51088L2.29011 12.8157C2.08274 12.9949 2.00792 13.2843 2.10374 13.5409C2.19955 13.7975 2.44433 13.9688 2.71864 13.9688H10.6428L6.07205 22.8557C5.92833 23.1353 6.00249 23.4772 6.24989 23.6714C6.36933 23.7659 6.51305 23.8125 6.65611 23.8125C6.80902 23.8125 6.96192 23.7587 7.08464 23.653L11.9061 19.4891L21.522 11.1843C21.7301 11.0051 21.8042 10.7157 21.7091 10.4585Z"
          fill="black"/>
</svg>
