<svg width="32" height="32" viewBox="0 0 32 32" fill="none" xmlns="http://www.w3.org/2000/svg">
<path fill-rule="evenodd" clip-rule="evenodd" d="M5.80748 7.92878C1.75614 13.0319 2.08952 20.4743 6.80761 25.1924C11.5257 29.9105 18.9681 30.2438 24.0712 26.1925L5.80748 7.92878ZM26.1925 24.0712C30.2439 18.9681 29.9105 11.5257 25.1924 6.80759C20.4743 2.0895 13.0319 1.75612 7.9288 5.80746L26.1925 24.0712ZM4.68629 4.68627C10.9347 -1.56212 21.0653 -1.56212 27.3137 4.68627C33.5621 10.9347 33.5621 21.0653 27.3137 27.3137C21.0653 33.5621 10.9347 33.5621 4.68629 27.3137C-1.5621 21.0653 -1.5621 10.9347 4.68629 4.68627Z" fill="black"/>
</svg>
