<svg width="32" height="32" viewBox="0 0 32 32" fill="none" xmlns="http://www.w3.org/2000/svg">
<path fill-rule="evenodd" clip-rule="evenodd" d="M5.80748 7.92927C1.75614 13.0324 2.08952 20.4748 6.80761 25.1929C11.5257 29.9109 18.9681 30.2443 24.0712 26.193L5.80748 7.92927ZM26.1925 24.0717C30.2439 18.9686 29.9105 11.5262 25.1924 6.80808C20.4743 2.08998 13.0319 1.75661 7.9288 5.80795L26.1925 24.0717ZM4.68629 4.68676C10.9347 -1.56163 21.0653 -1.56163 27.3137 4.68676C33.5621 10.9351 33.5621 21.0658 27.3137 27.3142C21.0653 33.5626 10.9347 33.5626 4.68629 27.3142C-1.5621 21.0658 -1.5621 10.9351 4.68629 4.68676Z" fill="white"/>
</svg>
