<svg width="24" height="24" viewBox="0 0 24 24" fill="none" xmlns="http://www.w3.org/2000/svg">
    <rect width="24" height="24" fill="white"/>
    <path d="M17.5536 6.95234C16.5024 6.47107 15.3926 6.12964 14.2527 5.93677C14.0967 6.21563 13.9556 6.50253 13.8299 6.79629C12.6156 6.61331 11.3808 6.61331 10.1665 6.79629C10.0407 6.50256 9.89958 6.21566 9.74366 5.93677C8.60298 6.13126 7.49249 6.47351 6.44022 6.95486C4.35119 10.0456 3.78488 13.0596 4.06804 16.0308C5.29143 16.9347 6.66075 17.6221 8.11648 18.0632C8.44427 17.6224 8.73432 17.1547 8.98355 16.6651C8.51016 16.4883 8.05326 16.2701 7.61813 16.0132C7.73265 15.9301 7.84465 15.8446 7.95288 15.7615C9.21901 16.3569 10.6009 16.6657 12.0001 16.6657C13.3992 16.6657 14.7811 16.3569 16.0472 15.7615C16.1567 15.8509 16.2687 15.9364 16.382 16.0132C15.946 16.2706 15.4883 16.4891 15.0141 16.6663C15.263 17.1557 15.5531 17.623 15.8811 18.0632C17.3381 17.6239 18.7085 16.9368 19.9321 16.0321V16.0321C20.2643 12.5864 19.3645 9.60012 17.5536 6.95234ZM9.34221 14.2035C8.55316 14.2035 7.90128 13.4875 7.90128 12.6066C7.90128 11.7256 8.53051 11.0033 9.33969 11.0033C10.1489 11.0033 10.7957 11.7256 10.7819 12.6066C10.768 13.4875 10.1464 14.2035 9.34221 14.2035ZM14.6579 14.2035C13.8676 14.2035 13.2182 13.4875 13.2182 12.6066C13.2182 11.7256 13.8475 11.0033 14.6579 11.0033C15.4684 11.0033 16.1102 11.7256 16.0963 12.6066C16.0825 13.4875 15.4621 14.2035 14.6579 14.2035Z"
          fill="black"/>
</svg>
