<svg width="24" height="24" viewBox="0 0 24 24" fill="none" xmlns="http://www.w3.org/2000/svg">
<rect width="24" height="24" fill="black"/>
<path fill-rule="evenodd" clip-rule="evenodd" d="M11.9993 4.19751C7.58218 4.19751 4 7.77921 4 12.1978C4 15.7323 6.29203 18.7306 9.47101 19.7884C9.87127 19.8621 10.0171 19.6151 10.0171 19.4029C10.0171 19.2128 10.0103 18.7099 10.0063 18.0425C7.78108 18.5258 7.31158 16.9699 7.31158 16.9699C6.94766 16.0456 6.42315 15.7996 6.42315 15.7996C5.69679 15.3036 6.47816 15.3134 6.47816 15.3134C7.28113 15.3699 7.70348 16.138 7.70348 16.138C8.41707 17.3604 9.57611 17.0072 10.0319 16.8025C10.1045 16.2858 10.3113 15.9332 10.5397 15.7333C8.76331 15.5314 6.89561 14.8449 6.89561 11.7793C6.89561 10.9061 7.20746 10.1916 7.71921 9.63268C7.6367 9.43034 7.36216 8.61656 7.79778 7.51548C7.79778 7.51548 8.46913 7.30038 9.99748 8.33565C10.6354 8.15787 11.3201 8.06946 12.0002 8.06602C12.6799 8.06946 13.3641 8.15787 14.003 8.33565C15.5304 7.30038 16.2007 7.51548 16.2007 7.51548C16.6373 8.61656 16.3628 9.43034 16.2808 9.63268C16.7935 10.1916 17.1029 10.9061 17.1029 11.7793C17.1029 14.8527 15.2323 15.529 13.4505 15.7269C13.7373 15.9739 13.9932 16.4621 13.9932 17.2081C13.9932 18.2778 13.9834 19.1406 13.9834 19.4029C13.9834 19.617 14.1278 19.866 14.5334 19.7879C17.7099 18.7276 20 15.7313 20 12.1978C20 7.77921 16.4178 4.19751 11.9993 4.19751Z" fill="white"/>
</svg>
