<svg width="22" height="22" viewBox="0 0 22 22" fill="none" xmlns="http://www.w3.org/2000/svg">
<path fill-rule="evenodd" clip-rule="evenodd" d="M15.9004 4L4.70001 18H6.0962L17.3 4H15.9004ZM11.0006 15.9C10.4919 15.9 9.99046 15.8765 9.49807 15.831L14.6592 9.38181C14.8783 9.87656 15 10.4241 15 11C15 11.9757 14.6507 12.8698 14.0702 13.5641C16.1556 13.0931 17.9087 12.1625 19.1492 11.001C18.1342 10.0508 16.7759 9.25517 15.1733 8.73936L16.4967 7.08567C18.7547 7.94537 20.6102 9.31826 21.793 11.0009C19.7449 13.9149 15.6803 15.9 11.0006 15.9ZM11.0006 6.10254C11.5074 6.10254 12.0069 6.12581 12.4974 6.17102L7.34037 12.6171C7.12155 12.1227 7 11.5755 7 11C7 10.0259 7.34819 9.13314 7.9269 8.43936C5.84337 8.91056 4.09173 9.84052 2.85212 11.001C3.86636 11.9507 5.22338 12.746 6.8245 13.262L5.50156 14.9156C3.24489 14.0557 1.3906 12.6831 0.208252 11.0009C2.25643 8.08736 6.32098 6.10254 11.0006 6.10254Z" fill="black"/>
</svg>