<svg width="188" height="48" viewBox="0 0 188 48" fill="none" xmlns="http://www.w3.org/2000/svg">
<path d="M52.7344 35.5187C57.9083 35.5187 61.3873 32.3966 61.3873 28.5161C61.3873 19.328 49.0324 22.4948 49.0324 18.5252C49.0324 17.2317 50.2367 16.4734 52.0208 16.4734C53.8495 16.4734 55.812 17.5885 56.4364 19.7294L60.9859 17.8115C60.0047 14.5555 56.3026 12.3254 51.9316 12.3254C47.0253 12.3254 43.9477 15.0908 43.9477 18.6144C43.9477 27.1335 56.2134 24.3681 56.2134 28.6053C56.2134 30.0326 54.8308 31.1477 52.7344 31.1477C49.9245 31.1477 48.185 29.2744 47.5159 26.9997L42.9219 28.873C44.0369 32.1735 47.2929 35.5187 52.7344 35.5187Z" fill="white"/>
<path d="M61.9219 23.9221C61.9219 29.765 65.8915 35.5187 73.3401 35.5187C78.6032 35.5187 82.5283 33.021 83.7771 28.7838L78.514 27.3565C77.9342 29.542 76.0609 30.7909 73.4293 30.7909C70.2179 30.7909 68.0324 28.7838 67.5418 25.394H84.2231C84.2677 24.9479 84.3124 23.9667 84.3124 23.1638C84.3124 17.9453 80.6103 12.3254 73.0279 12.3254C65.5793 12.3254 61.9219 18.0791 61.9219 23.9221ZM67.6756 21.2905C68.3 18.2576 70.2625 16.6073 73.0279 16.6073C76.2839 16.6073 78.0234 18.6144 78.291 21.2905H67.6756Z" fill="white"/>
<path d="M86.3334 35.1619H91.9533V25.3048C91.9533 20.2647 93.9604 17.3209 97.3948 17.3209C100.026 17.3209 101.677 19.1496 101.677 21.7812V35.1619H107.297V20.4431C107.297 15.5368 103.996 12.3254 99.0897 12.3254C95.923 12.3254 93.3806 13.8865 91.9533 16.072V12.6822H86.3334V35.1619Z" fill="white"/>
<path d="M132.042 12.6822H126.422V15.18C125.129 13.4851 122.72 12.3254 119.91 12.3254C113.264 12.3254 109.295 17.0533 109.295 23.9221C109.295 30.7909 113.264 35.5187 119.999 35.5187C122.809 35.5187 125.307 34.3591 126.422 32.575V35.1619H132.042V12.6822ZM114.87 23.9221C114.87 19.8632 117.234 17.1871 120.802 17.1871C124.415 17.1871 126.779 19.8632 126.779 23.9221C126.779 27.9809 124.415 30.6571 120.802 30.6571C117.234 30.6571 114.87 27.9809 114.87 23.9221Z" fill="white"/>
<path d="M148.61 34.9389L148.209 30.0326C147.406 30.434 146.425 30.5679 145.577 30.5679C143.838 30.5679 142.678 29.4082 142.678 27.2673V17.4101H148.343V12.6822H142.678V6.08105H137.058V12.6822H133.267V17.4101H137.058V27.8025C137.058 33.0656 140.448 35.5187 144.998 35.5187C146.291 35.5187 147.495 35.3403 148.61 34.9389Z" fill="white"/>
<path d="M148.609 23.9221C148.609 29.765 152.579 35.5187 160.028 35.5187C165.291 35.5187 169.216 33.021 170.465 28.7838L165.202 27.3565C164.622 29.542 162.748 30.7909 160.117 30.7909C156.905 30.7909 154.72 28.7838 154.229 25.394H170.911C170.955 24.9479 171 23.9667 171 23.1638C171 17.9453 167.298 12.3254 159.715 12.3254C152.267 12.3254 148.609 18.0791 148.609 23.9221ZM154.363 21.2905C154.988 18.2576 156.95 16.6073 159.715 16.6073C162.971 16.6073 164.711 18.6144 164.979 21.2905H154.363Z" fill="white"/>
<path fill-rule="evenodd" clip-rule="evenodd" d="M23.9595 35.8998L23.9595 41.8794C30.5645 41.8794 35.9189 36.5249 35.9189 29.9197C35.9189 23.3145 30.5645 17.96 23.9595 17.96L23.9595 23.9401C27.262 23.9401 29.9392 26.6174 29.9392 29.9199C29.9392 33.2225 27.262 35.8998 23.9595 35.8998Z" fill="white"/>
<path fill-rule="evenodd" clip-rule="evenodd" d="M23.9594 11.9801L23.9594 6.00043C17.3544 6.00047 12 11.355 12 17.9602C12 24.5653 17.3544 29.9199 23.9594 29.9199L23.9594 23.9398C20.6571 23.9396 17.9801 21.2624 17.9801 17.9599C17.9801 14.6575 20.6571 11.9803 23.9594 11.9801Z" fill="white"/>
</svg>
