<svg width="94" height="26" viewBox="0 0 94 26" fill="none" xmlns="http://www.w3.org/2000/svg">
    <rect width="94" height="26" fill="#262626"/>
    <g opacity="0.5">
        <path d="M19.4727 11.9723C19.4088 11.8012 19.2452 11.6875 19.0623 11.6875H13.7796L16.8267 5.76288C16.9225 5.5765 16.8731 5.34856 16.7082 5.21906C16.6285 5.15606 16.5327 5.125 16.4374 5.125C16.3354 5.125 16.2335 5.16088 16.1517 5.23131L12.9374 8.00725L6.52674 13.5438C6.38849 13.6632 6.33862 13.8562 6.40249 14.0273C6.46637 14.1983 6.62955 14.3125 6.81243 14.3125H12.0952L9.04803 20.2371C8.95222 20.4235 9.00166 20.6514 9.1666 20.7809C9.24622 20.8439 9.34203 20.875 9.43741 20.875C9.53934 20.875 9.64128 20.8391 9.72309 20.7687L12.9374 17.9928L19.348 12.4562C19.4867 12.3368 19.5361 12.1438 19.4727 11.9723Z"
              fill="white"/>
    </g>
    <path d="M30.44 18.62C32.675 18.62 34.295 16.985 34.295 14.72C34.295 12.455 32.675 10.82 30.44 10.82C28.19 10.82 26.6 12.455 26.6 14.72C26.6 16.985 28.19 18.62 30.44 18.62ZM27.905 14.72C27.905 13.1 28.925 11.96 30.44 11.96C31.955 11.96 32.975 13.1 32.975 14.72C32.975 16.34 31.955 17.48 30.44 17.48C28.925 17.48 27.905 16.34 27.905 14.72ZM36.4715 18.5H37.7465V12.065H39.6815V10.94H37.7465V10.13C37.7465 9.32 38.1965 8.795 38.8715 8.795C39.1265 8.795 39.3965 8.84 39.6665 8.945L39.7265 7.805C39.4115 7.715 39.0515 7.685 38.7065 7.685C37.4165 7.685 36.4715 8.57 36.4715 10.235V10.94H35.1815V12.065H36.4715V18.5ZM41.9647 18.5H43.2397V12.065H45.1747V10.94H43.2397V10.13C43.2397 9.32 43.6897 8.795 44.3647 8.795C44.6197 8.795 44.8897 8.84 45.1597 8.945L45.2197 7.805C44.9047 7.715 44.5447 7.685 44.1997 7.685C42.9097 7.685 41.9647 8.57 41.9647 10.235V10.94H40.6747V12.065H41.9647V18.5ZM46.1079 14.735H50.5329V13.61H46.1079V14.735ZM55.3109 18.62C57.0509 18.62 58.3109 17.705 58.6409 16.145L57.3959 15.89C57.1859 16.895 56.4059 17.48 55.3409 17.48C53.8559 17.48 52.8959 16.385 52.8959 14.72C52.8959 13.055 53.8559 11.96 55.3409 11.96C56.4059 11.96 57.2009 12.62 57.3659 13.535L58.6259 13.28C58.3559 11.78 57.0659 10.82 55.3109 10.82C53.0609 10.82 51.5609 12.38 51.5609 14.72C51.5609 17.06 53.0609 18.62 55.3109 18.62ZM60.2284 18.5H61.5034V15.26C61.5034 13.235 62.4034 11.975 63.7984 11.975C64.9534 11.975 65.6434 12.65 65.6434 13.76V18.5H66.9184V13.52C66.9184 11.885 65.7934 10.82 64.0834 10.82C62.9734 10.82 62.0584 11.345 61.5034 12.425V7.88H60.2284V18.5ZM75.9331 10.94H74.6581V12.02C74.1781 11.315 73.1881 10.82 72.1831 10.82C69.8431 10.82 68.5531 12.5 68.5531 14.72C68.5531 16.94 69.8431 18.62 72.1981 18.62C73.3081 18.62 74.3131 18.095 74.6581 17.405V18.5H75.9331V10.94ZM69.8581 14.72C69.8581 13.055 70.8331 11.96 72.3181 11.96C73.8031 11.96 74.7781 13.055 74.7781 14.72C74.7781 16.385 73.8031 17.48 72.3181 17.48C70.8331 17.48 69.8581 16.385 69.8581 14.72ZM77.9969 18.5H79.2719V10.94H77.9969V18.5ZM77.7419 8.63C77.7419 9.125 78.1169 9.515 78.6269 9.515C79.1519 9.515 79.5419 9.125 79.5419 8.63C79.5419 8.12 79.1519 7.73 78.6269 7.73C78.1169 7.73 77.7419 8.12 77.7419 8.63ZM81.3368 18.5H82.6118V15.185C82.6118 13.19 83.5118 11.975 84.9218 11.975C85.9868 11.975 86.6318 12.71 86.6318 13.73V18.5H87.9068V13.49C87.9068 11.885 86.7818 10.82 85.2068 10.82C84.0518 10.82 83.1368 11.465 82.6118 12.365V10.94H81.3368V18.5Z"
          fill="#ABABAB"/>
</svg>
