<svg width="92" height="26" viewBox="0 0 92 26" fill="none" xmlns="http://www.w3.org/2000/svg">
<rect width="92" height="26" fill="#262626"/>
<g opacity="0.5">
<path fill-rule="evenodd" clip-rule="evenodd" d="M13 5L8.2 13.165L13 16.16L17.8 13.165L13 5ZM13 17.13L17.8 14.135L13 21L8.2 14.135L13 17.13Z" fill="white"/>
</g>
<path d="M30.44 18.62C32.675 18.62 34.295 16.985 34.295 14.72C34.295 12.455 32.675 10.82 30.44 10.82C28.19 10.82 26.6 12.455 26.6 14.72C26.6 16.985 28.19 18.62 30.44 18.62ZM27.905 14.72C27.905 13.1 28.925 11.96 30.44 11.96C31.955 11.96 32.975 13.1 32.975 14.72C32.975 16.34 31.955 17.48 30.44 17.48C28.925 17.48 27.905 16.34 27.905 14.72ZM35.9266 18.5H37.2016V15.185C37.2016 13.19 38.1016 11.975 39.5116 11.975C40.5766 11.975 41.2216 12.71 41.2216 13.73V18.5H42.4966V13.49C42.4966 11.885 41.3716 10.82 39.7966 10.82C38.6416 10.82 37.7266 11.465 37.2016 12.365V10.94H35.9266V18.5ZM43.9692 14.735H48.3942V13.61H43.9692V14.735ZM53.1723 18.62C54.9123 18.62 56.1723 17.705 56.5023 16.145L55.2573 15.89C55.0473 16.895 54.2673 17.48 53.2023 17.48C51.7173 17.48 50.7573 16.385 50.7573 14.72C50.7573 13.055 51.7173 11.96 53.2023 11.96C54.2673 11.96 55.0623 12.62 55.2273 13.535L56.4873 13.28C56.2173 11.78 54.9273 10.82 53.1723 10.82C50.9223 10.82 49.4223 12.38 49.4223 14.72C49.4223 17.06 50.9223 18.62 53.1723 18.62ZM58.0897 18.5H59.3647V15.26C59.3647 13.235 60.2647 11.975 61.6597 11.975C62.8147 11.975 63.5047 12.65 63.5047 13.76V18.5H64.7797V13.52C64.7797 11.885 63.6547 10.82 61.9447 10.82C60.8347 10.82 59.9197 11.345 59.3647 12.425V7.88H58.0897V18.5ZM73.7945 10.94H72.5195V12.02C72.0395 11.315 71.0495 10.82 70.0445 10.82C67.7045 10.82 66.4145 12.5 66.4145 14.72C66.4145 16.94 67.7045 18.62 70.0595 18.62C71.1695 18.62 72.1745 18.095 72.5195 17.405V18.5H73.7945V10.94ZM67.7195 14.72C67.7195 13.055 68.6945 11.96 70.1795 11.96C71.6645 11.96 72.6395 13.055 72.6395 14.72C72.6395 16.385 71.6645 17.48 70.1795 17.48C68.6945 17.48 67.7195 16.385 67.7195 14.72ZM75.8582 18.5H77.1332V10.94H75.8582V18.5ZM75.6032 8.63C75.6032 9.125 75.9782 9.515 76.4882 9.515C77.0132 9.515 77.4032 9.125 77.4032 8.63C77.4032 8.12 77.0132 7.73 76.4882 7.73C75.9782 7.73 75.6032 8.12 75.6032 8.63ZM79.1981 18.5H80.4731V15.185C80.4731 13.19 81.3731 11.975 82.7831 11.975C83.8481 11.975 84.4931 12.71 84.4931 13.73V18.5H85.7681V13.49C85.7681 11.885 84.6431 10.82 83.0681 10.82C81.9131 10.82 80.9981 11.465 80.4731 12.365V10.94H79.1981V18.5Z" fill="#ABABAB"/>
</svg>