<svg width="24" height="24" viewBox="0 0 24 24" fill="none" xmlns="http://www.w3.org/2000/svg">
    <rect width="24" height="24" fill="black"/>
    <path d="M18.7143 8.52392C18.7246 8.67267 18.7246 8.82142 18.7246 8.97154C18.7246 13.5458 15.2423 18.8213 8.87487 18.8213V18.8185C6.99391 18.8213 5.15201 18.2825 3.56854 17.2666C3.84205 17.2995 4.11693 17.3159 4.39249 17.3166C5.95128 17.318 7.46552 16.795 8.69185 15.8319C7.21052 15.8038 5.91153 14.8379 5.45774 13.4279C5.97665 13.528 6.51132 13.5074 7.02064 13.3682C5.40564 13.0419 4.24374 11.623 4.24374 9.97509C4.24374 9.96001 4.24374 9.94561 4.24374 9.93122C4.72495 10.1992 5.26374 10.348 5.81487 10.3644C4.29378 9.34787 3.82491 7.32432 4.74346 5.74223C6.50104 7.90493 9.09423 9.21969 11.878 9.35884C11.599 8.1565 11.9801 6.89658 12.8795 6.05138C14.2737 4.74074 16.4666 4.80791 17.7773 6.2015C18.5525 6.04864 19.2956 5.76416 19.9756 5.3611C19.7172 6.16243 19.1763 6.84312 18.4538 7.27566C19.14 7.19477 19.8104 7.01106 20.4417 6.7307C19.977 7.42715 19.3916 8.0338 18.7143 8.52392Z"
          fill="white"/>
</svg>
